<svg width="14" height="14" viewBox="0 0 14 14" fill="none" xmlns="http://www.w3.org/2000/svg">
<path fill-rule="evenodd" clip-rule="evenodd" d="M8.75 7.00016H7.58333V5.8335C7.58333 5.51091 7.322 5.25016 7 5.25016C6.678 5.25016 6.41667 5.51091 6.41667 5.8335V7.5835C6.41667 7.90608 6.678 8.16683 7 8.16683H8.75C9.072 8.16683 9.33333 7.90608 9.33333 7.5835C9.33333 7.26091 9.072 7.00016 8.75 7.00016ZM7 11.521C4.82883 11.521 3.0625 9.75466 3.0625 7.5835C3.0625 5.41233 4.82883 3.646 7 3.646C9.17117 3.646 10.9375 5.41233 10.9375 7.5835C10.9375 9.75466 9.17117 11.521 7 11.521ZM7.57633 2.36733C7.5775 2.35508 7.58333 2.34575 7.58333 2.3335V1.75016H8.16667C8.48867 1.75016 8.75 1.48941 8.75 1.16683C8.75 0.844246 8.48867 0.583496 8.16667 0.583496H5.83333C5.51133 0.583496 5.25 0.844246 5.25 1.16683C5.25 1.48941 5.51133 1.75016 5.83333 1.75016H6.41667V2.3335C6.41667 2.34575 6.4225 2.35508 6.42367 2.36733C3.79925 2.6555 1.75 4.88383 1.75 7.5835C1.75 10.4786 4.1055 12.8335 7 12.8335C9.8945 12.8335 12.25 10.4786 12.25 7.5835C12.25 4.88383 10.2007 2.6555 7.57633 2.36733Z" fill="#373737"/>
<mask id="mask0" style="mask-type:alpha" maskUnits="userSpaceOnUse" x="1" y="0" width="12" height="13">
<path fill-rule="evenodd" clip-rule="evenodd" d="M8.75 7.00016H7.58333V5.8335C7.58333 5.51091 7.322 5.25016 7 5.25016C6.678 5.25016 6.41667 5.51091 6.41667 5.8335V7.5835C6.41667 7.90608 6.678 8.16683 7 8.16683H8.75C9.072 8.16683 9.33333 7.90608 9.33333 7.5835C9.33333 7.26091 9.072 7.00016 8.75 7.00016ZM7 11.521C4.82883 11.521 3.0625 9.75466 3.0625 7.5835C3.0625 5.41233 4.82883 3.646 7 3.646C9.17117 3.646 10.9375 5.41233 10.9375 7.5835C10.9375 9.75466 9.17117 11.521 7 11.521ZM7.57633 2.36733C7.5775 2.35508 7.58333 2.34575 7.58333 2.3335V1.75016H8.16667C8.48867 1.75016 8.75 1.48941 8.75 1.16683C8.75 0.844246 8.48867 0.583496 8.16667 0.583496H5.83333C5.51133 0.583496 5.25 0.844246 5.25 1.16683C5.25 1.48941 5.51133 1.75016 5.83333 1.75016H6.41667V2.3335C6.41667 2.34575 6.4225 2.35508 6.42367 2.36733C3.79925 2.6555 1.75 4.88383 1.75 7.5835C1.75 10.4786 4.1055 12.8335 7 12.8335C9.8945 12.8335 12.25 10.4786 12.25 7.5835C12.25 4.88383 10.2007 2.6555 7.57633 2.36733Z" fill="white"/>
</mask>
<g mask="url(#mask0)">
<rect width="14" height="14" fill="#373737"/>
</g>
</svg>
