<svg width="14" height="14" viewBox="0 0 14 14" fill="none" xmlns="http://www.w3.org/2000/svg">
<path fill-rule="evenodd" clip-rule="evenodd" d="M8.1665 4.08333C8.1665 3.43992 7.64325 2.91667 6.99984 2.91667C6.35642 2.91667 5.83317 3.43992 5.83317 4.08333C5.83317 4.72675 6.35642 5.25 6.99984 5.25C7.64325 5.25 8.1665 4.72675 8.1665 4.08333ZM9.33317 4.08333C9.33317 5.37017 8.28667 6.41667 6.99984 6.41667C5.713 6.41667 4.6665 5.37017 4.6665 4.08333C4.6665 2.7965 5.713 1.75 6.99984 1.75C8.28667 1.75 9.33317 2.7965 9.33317 4.08333ZM2.9165 11.6667C2.9165 9.415 4.74875 7.58333 6.99984 7.58333C9.25092 7.58333 11.0832 9.415 11.0832 11.6667C11.0832 11.9887 10.8224 12.25 10.4998 12.25C10.1773 12.25 9.9165 11.9887 9.9165 11.6667C9.9165 10.0584 8.60809 8.75 6.99984 8.75C5.39159 8.75 4.08317 10.0584 4.08317 11.6667C4.08317 11.9887 3.82242 12.25 3.49984 12.25C3.17725 12.25 2.9165 11.9887 2.9165 11.6667Z" fill="#373737"/>
<mask id="mask0" style="mask-type:alpha" maskUnits="userSpaceOnUse" x="2" y="1" width="10" height="12">
<path fill-rule="evenodd" clip-rule="evenodd" d="M8.1665 4.08333C8.1665 3.43992 7.64325 2.91667 6.99984 2.91667C6.35642 2.91667 5.83317 3.43992 5.83317 4.08333C5.83317 4.72675 6.35642 5.25 6.99984 5.25C7.64325 5.25 8.1665 4.72675 8.1665 4.08333ZM9.33317 4.08333C9.33317 5.37017 8.28667 6.41667 6.99984 6.41667C5.713 6.41667 4.6665 5.37017 4.6665 4.08333C4.6665 2.7965 5.713 1.75 6.99984 1.75C8.28667 1.75 9.33317 2.7965 9.33317 4.08333ZM2.9165 11.6667C2.9165 9.415 4.74875 7.58333 6.99984 7.58333C9.25092 7.58333 11.0832 9.415 11.0832 11.6667C11.0832 11.9887 10.8224 12.25 10.4998 12.25C10.1773 12.25 9.9165 11.9887 9.9165 11.6667C9.9165 10.0584 8.60809 8.75 6.99984 8.75C5.39159 8.75 4.08317 10.0584 4.08317 11.6667C4.08317 11.9887 3.82242 12.25 3.49984 12.25C3.17725 12.25 2.9165 11.9887 2.9165 11.6667Z" fill="white"/>
</mask>
<g mask="url(#mask0)">
<rect width="14" height="14" fill="#373737"/>
</g>
</svg>
