<svg width="14" height="14" viewBox="0 0 14 14" fill="none" xmlns="http://www.w3.org/2000/svg">
<path fill-rule="evenodd" clip-rule="evenodd" d="M4.08337 6.41641C4.08337 6.09441 4.3447 5.83307 4.6667 5.83307C4.9887 5.83307 5.25004 6.09441 5.25004 6.41641C5.25004 6.73841 4.9887 6.99974 4.6667 6.99974C4.3447 6.99974 4.08337 6.73841 4.08337 6.41641ZM7.00004 5.83307C6.67804 5.83307 6.4167 6.09441 6.4167 6.41641C6.4167 6.73841 6.67804 6.99974 7.00004 6.99974C7.32204 6.99974 7.58337 6.73841 7.58337 6.41641C7.58337 6.09441 7.32204 5.83307 7.00004 5.83307ZM9.33337 5.83307C9.01137 5.83307 8.75004 6.09441 8.75004 6.41641C8.75004 6.73841 9.01137 6.99974 9.33337 6.99974C9.65537 6.99974 9.9167 6.73841 9.9167 6.41641C9.9167 6.09441 9.65537 5.83307 9.33337 5.83307ZM11.6074 7.17176C11.3117 9.06992 9.78157 10.6443 7.88632 10.9996C6.97107 11.1723 6.03891 11.0737 5.19307 10.7155C4.95332 10.614 4.70541 10.5627 4.46216 10.5627C4.35132 10.5627 4.24166 10.5732 4.13374 10.5948L2.49341 10.9226L2.82182 9.27934C2.89066 8.93809 2.84866 8.57292 2.70107 8.22351C2.34291 7.37767 2.24491 6.44609 2.41699 5.53026C2.77224 3.63501 4.34607 2.10492 6.24482 1.80917C7.75566 1.57409 9.23324 2.05009 10.2996 3.11642C11.3665 4.18334 11.8431 5.66151 11.6074 7.17176ZM11.1249 2.2916C9.79202 0.959263 7.94869 0.364846 6.0651 0.655929C3.68685 1.02693 1.71519 2.9426 1.2701 5.31501C1.05544 6.45718 1.1791 7.62035 1.62652 8.67793C1.6831 8.81268 1.7006 8.9381 1.67844 9.05068L1.17794 11.552C1.13944 11.7433 1.19952 11.9411 1.33777 12.0788C1.44802 12.1896 1.59677 12.2497 1.75019 12.2497C1.7881 12.2497 1.82602 12.2462 1.86452 12.2386L4.36294 11.7387C4.50644 11.7113 4.64527 11.7515 4.73802 11.79C5.79677 12.2374 6.95994 12.3605 8.10094 12.1464C10.4739 11.7013 12.3896 9.72968 12.7606 7.35143C13.0534 5.46901 12.4579 3.62451 11.1249 2.2916Z" fill="#373737"/>
<mask id="mask0" style="mask-type:alpha" maskUnits="userSpaceOnUse" x="1" y="0" width="12" height="13">
<path fill-rule="evenodd" clip-rule="evenodd" d="M4.08337 6.41641C4.08337 6.09441 4.3447 5.83307 4.6667 5.83307C4.9887 5.83307 5.25004 6.09441 5.25004 6.41641C5.25004 6.73841 4.9887 6.99974 4.6667 6.99974C4.3447 6.99974 4.08337 6.73841 4.08337 6.41641ZM7.00004 5.83307C6.67804 5.83307 6.4167 6.09441 6.4167 6.41641C6.4167 6.73841 6.67804 6.99974 7.00004 6.99974C7.32204 6.99974 7.58337 6.73841 7.58337 6.41641C7.58337 6.09441 7.32204 5.83307 7.00004 5.83307ZM9.33337 5.83307C9.01137 5.83307 8.75004 6.09441 8.75004 6.41641C8.75004 6.73841 9.01137 6.99974 9.33337 6.99974C9.65537 6.99974 9.9167 6.73841 9.9167 6.41641C9.9167 6.09441 9.65537 5.83307 9.33337 5.83307ZM11.6074 7.17176C11.3117 9.06992 9.78157 10.6443 7.88632 10.9996C6.97107 11.1723 6.03891 11.0737 5.19307 10.7155C4.95332 10.614 4.70541 10.5627 4.46216 10.5627C4.35132 10.5627 4.24166 10.5732 4.13374 10.5948L2.49341 10.9226L2.82182 9.27934C2.89066 8.93809 2.84866 8.57292 2.70107 8.22351C2.34291 7.37767 2.24491 6.44609 2.41699 5.53026C2.77224 3.63501 4.34607 2.10492 6.24482 1.80917C7.75566 1.57409 9.23324 2.05009 10.2996 3.11642C11.3665 4.18334 11.8431 5.66151 11.6074 7.17176ZM11.1249 2.2916C9.79202 0.959263 7.94869 0.364846 6.0651 0.655929C3.68685 1.02693 1.71519 2.9426 1.2701 5.31501C1.05544 6.45718 1.1791 7.62035 1.62652 8.67793C1.6831 8.81268 1.7006 8.9381 1.67844 9.05068L1.17794 11.552C1.13944 11.7433 1.19952 11.9411 1.33777 12.0788C1.44802 12.1896 1.59677 12.2497 1.75019 12.2497C1.7881 12.2497 1.82602 12.2462 1.86452 12.2386L4.36294 11.7387C4.50644 11.7113 4.64527 11.7515 4.73802 11.79C5.79677 12.2374 6.95994 12.3605 8.10094 12.1464C10.4739 11.7013 12.3896 9.72968 12.7606 7.35143C13.0534 5.46901 12.4579 3.62451 11.1249 2.2916Z" fill="white"/>
</mask>
<g mask="url(#mask0)">
<rect width="14" height="14" fill="#373737"/>
</g>
</svg>
