<?xml version="1.0" encoding="utf-8"?>
<!-- Generator: Adobe Illustrator 26.0.1, SVG Export Plug-In . SVG Version: 6.00 Build 0)  -->
<svg version="1.1" id="Layer_1" xmlns="http://www.w3.org/2000/svg" xmlns:xlink="http://www.w3.org/1999/xlink" x="0px" y="0px"
	 viewBox="0 0 1080 756.1" style="enable-background:new 0 0 1080 756.1;" xml:space="preserve">
<style type="text/css">
	.st0{fill:#263238;}
	.st1{fill:#EBEBEB;}
	.st2{fill:#E0E0E0;}
	.st3{fill:#F5F5F5;}
	.st4{fill:#FAFAFA;}
	.st5{fill:#455A64;}
	.st6{fill:#1E9CD7;}
	.st7{opacity:0.4;}
	.st8{opacity:0.4;fill:#FFFFFF;enable-background:new    ;}
	.st9{opacity:0.3;enable-background:new    ;}
	.st10{fill:#FFBE9D;}
	.st11{fill:#EB996E;}
	.st12{fill:#FFFFFF;}
</style>
<g>
	<path class="st0" d="M278.8,4.7c-1.5,0.9-3.2,1.5-5,1.8c-1.7,0.6-3.5,0.9-5.3,0.7C271.7,5.7,275.2,4.9,278.8,4.7z"/>
	<path class="st0" d="M299.9,1.4c-1.6,0.8-3.4,1.2-5.2,1.2c-1.8,0.4-3.6,0.5-5.3,0.1c1.6-0.8,3.4-1.2,5.2-1.2
		C296.3,1.1,298.1,1.1,299.9,1.4z"/>
	<path class="st0" d="M321.1,0.6c-3.5,0.8-7.1,0.8-10.6,0.1c1.7-0.6,3.5-0.8,5.3-0.6C317.6-0.1,319.4,0.1,321.1,0.6z"/>
	<path class="st0" d="M342.3,2.2c-1.8,0.3-3.6,0.3-5.3,0c-1.8,0-3.6-0.4-5.2-1.1C335.3,0.7,339,1.1,342.3,2.2L342.3,2.2z"/>
	<path class="st0" d="M363.1,6.4c-3.6-0.1-7.1-0.9-10.4-2.4C356.3,4.1,359.9,4.9,363.1,6.4z"/>
	<path class="st1" d="M890.5,477.1h107v268.5h-107V477.1z"/>
	<path class="st1" d="M1036.5,400.1l-25.8,77H877.9l-29-77H1036.5z"/>
	<path class="st1" d="M849.7,401.9l29.6-74c2-4.9,6.8-8.1,12-8.1h9.4v-1.6h-9.4c-6,0-11.3,3.6-13.6,9.2l-29.6,74.1L849.7,401.9z"/>
	<path class="st2" d="M902.8,323.2h6.2c2,0,3.6-1.7,3.6-3.8c0-2-1.6-3.6-3.6-3.6h-6.2c-2,0-3.6,1.7-3.6,3.8
		C899.2,321.6,900.8,323.2,902.8,323.2z"/>
	<path class="st2" d="M912.3,477.1h59.9v268.4h-59.9V477.1z"/>
	<path class="st1" d="M136.7,588.6c0,0,5.3-29.9,40.5-39.8c0,0-28.5-7.1-49.8,28.1c0,0-1.4-37.3,49.8-45.5c0,0-27-11.3-55.5,20.6
		c0,0,6-32,43.4-38.4c0,0-29.1-6.5-49.1,22c0,0,5-50.9,30.6-68.3c0,0-36.6,9.6-42.3,62.6c0,0-2.8-22.4-44.8-24.9
		c0,0,27,9.6,32.7,29.9c0,0-9.6-11.3-45.2-10.7c0,0,45.2,2.8,51.9,47.7c0,0-10.7-25.3-50.1-25.6c0,0,40.5,11,38.8,42.3L136.7,588.6z
		"/>
	<path class="st2" d="M74.7,746.3h81.9l-8.8-159.1L78.3,584L74.7,746.3z"/>
	<path class="st3" d="M147.8,587.3l-32.2,108.9l41,50.2L147.8,587.3z"/>
	<path class="st1" d="M74.7,746.3l41-50.2L79.3,586.9l-1-2.9"/>
	<path class="st2" d="M74.7,746.3h81.9c0,0-34.4-42.2-40.2-49.2l-0.8-0.9L74.7,746.3z"/>
	<path class="st3" d="M59.1,169.1h48.8v83.1H59.1V169.1z"/>
	<path class="st3" d="M118.7,85.7h50.2v81.2h-50.2V85.7z"/>
	<path class="st3" d="M118.7,263.1h50.2v86.5h-50.2V263.1z"/>
	<path class="st3" d="M16.6,85.7h39.6v81.2H16.6V85.7z"/>
	<path class="st3" d="M118.7,169.1h50.2v83.1h-50.2V169.1z"/>
	<path class="st3" d="M59.1,85.7h48.8v81.2H59.1V85.7z"/>
	<path class="st3" d="M59.1,263.1h48.8v86.5H59.1V263.1z"/>
	<path class="st3" d="M171.7,169.1h39.9v83.1h-39.9V169.1z"/>
	<path class="st3" d="M171.7,263.1h39.9v86.5h-39.9V263.1z"/>
	<path class="st3" d="M56.3,351.8v77.8h2.8v-77.8h48.7v75.3h10.9v-75.3h50.2v77.8h2.8v-77.8h39.9v77.8H16.7v-77.8H56.3z"/>
	<path class="st3" d="M16.6,263.1h39.6v86.5H16.6V263.1z"/>
	<path class="st3" d="M171.7,85.7h39.9v81.2h-39.9V85.7z"/>
	<path class="st3" d="M16.6,169.1h39.6v83.1H16.6V169.1z"/>
	<path class="st3" d="M674.2,170.4H723v83.1h-48.8V170.4z"/>
	<path class="st3" d="M733.8,87H784v81.2h-50.2V87z"/>
	<path class="st3" d="M733.8,264.4H784V351h-50.2V264.4z"/>
	<path class="st3" d="M631.8,87h39.6v81.2h-39.6V87z"/>
	<path class="st3" d="M733.8,170.4H784v83.1h-50.2V170.4z"/>
	<path class="st3" d="M674.2,87H723v81.2h-48.8V87z"/>
	<path class="st3" d="M674.2,264.4H723V351h-48.8V264.4z"/>
	<path class="st3" d="M786.8,170.4h39.9v83.1h-39.9V170.4z"/>
	<path class="st3" d="M786.8,264.4h39.9V351h-39.9V264.4z"/>
	<path class="st3" d="M671.4,353.1v77.8h2.8v-77.8h48.7v75.3h10.9v-75.3H784v77.8h2.8v-77.8h39.9v77.8H631.8v-77.8H671.4z"/>
	<path class="st3" d="M631.8,264.4h39.6V351h-39.6V264.4z"/>
	<path class="st3" d="M786.8,87h39.9v81.2h-39.9V87z"/>
	<path class="st3" d="M631.8,170.4h39.6v83.1h-39.6V170.4z"/>
	<path class="st0" d="M0,746.3c0,0.2,241.8,0.4,540,0.4s540-0.2,540-0.4c0-0.2-241.7-0.4-540-0.4S0,746.1,0,746.3z"/>
	<path class="st4" d="M178.3,159.8h484.7v334.9H178.3V159.8z"/>
	<path class="st0" d="M178.3,494.7c0-2.8,0.1-131.2,0.3-334.9l-0.3,0.3H663l-0.4-0.4v334.9l0.4-0.4L178.3,494.7L663,495h0.4V159.3
		H177.9v0.3C178.2,363.5,178.3,491.9,178.3,494.7z"/>
	<path class="st0" d="M242.2,442.1h361.1v20.5H242.2V442.1z"/>
	<path class="st5" d="M242.2,422.8h361.1v20.5H242.2V422.8z"/>
	<path class="st0" d="M547.3,408.9c-0.2,0-0.4,9.3-0.4,20.7s0.2,20.7,0.4,20.7c0.2,0,0.4-9.3,0.4-20.7S547.5,408.9,547.3,408.9z"/>
	<path class="st0" d="M361.1,408.9c-0.2,0-0.4,9.3-0.4,20.7s0.2,20.7,0.4,20.7c0.2,0,0.4-9.3,0.4-20.7S361.4,408.9,361.1,408.9z"/>
	<path class="st0" d="M330.1,412.5c-0.2,0-0.4,9.2-0.4,20.7s0.2,20.7,0.4,20.7s0.4-9.2,0.4-20.7S330.3,412.5,330.1,412.5z"/>
	<path class="st0" d="M464.4,418.7c-0.6,10.5-0.6,21,0,31.5C465,439.7,465,429.2,464.4,418.7z"/>
	<path class="st0" d="M456.3,412.7c-0.2,0-0.4,8.4-0.4,18.8c0,10.4,0.2,18.8,0.4,18.8s0.4-8.4,0.4-18.8
		C456.7,421.1,456.5,412.7,456.3,412.7z"/>
	<path class="st6" d="M305.9,352l-34.1,0.5c0,18.7,15.2,33.9,34,33.8c18.7,0,33.9-15.2,33.8-34c0-18.7-15.2-33.9-34-33.8
		c-9,0-17.6,3.6-23.9,10L305.9,352z"/>
	<path class="st5" d="M305.9,245.6l0.5,35.5c19.6-0.7,34.9-17.1,34.3-36.7c-0.7-19.6-17.1-34.9-36.7-34.3
		c-19.1,0.6-34.3,16.3-34.3,35.5H305.9z"/>
	<path class="st0" d="M261.6,256.9c0,0.2,7.9,0.4,17.8,0.4c9.8,0,17.8-0.2,17.8-0.4s-7.9-0.4-17.8-0.4
		C269.5,256.5,261.6,256.6,261.6,256.9z"/>
	<path class="st0" d="M261.6,263c0,0.2,7.9,0.4,17.8,0.4c9.8,0,17.8-0.2,17.8-0.4c0-0.2-7.9-0.4-17.8-0.4
		C269.5,262.5,261.6,262.7,261.6,263z"/>
	<path class="st0" d="M261.1,269.3c0,0.2,7.9,0.4,17.8,0.4c9.8,0,17.8-0.2,17.8-0.4s-8-0.4-17.8-0.4S261.1,269.1,261.1,269.3z"/>
	<path class="st6" d="M492,299.4l-55,0.7c0.4,29.3,25.1,53.2,55,53.2h0.3L492,299.4z"/>
	<path class="st0" d="M401.1,373.8c0.4,0.1,0.8,0.1,1.2,0.1l3.4,0.1l12.3,0.1h0.2l0.1-0.1l18.1-22.8c5.4-6.8,10.4-13.2,14.6-18.6
		l-0.3,0.1l16.2-0.1l4.5-0.1c0.5,0,1.1,0,1.6-0.1c-0.5-0.1-1.1-0.1-1.6-0.1l-4.5-0.1l-16.2-0.1h0l-0.1,0.1
		c-4.3,5.4-9.3,11.8-14.7,18.6l-18,23l0.3-0.1l-12.3,0.1l-3.4,0.1C401.9,373.7,401.5,373.7,401.1,373.8z"/>
	<path class="st0" d="M381.4,380.1c0,0.2,7.9,0.4,17.8,0.4s17.8-0.2,17.8-0.4c0-0.2-7.9-0.4-17.8-0.4
		C389.3,379.7,381.4,379.9,381.4,380.1z"/>
	<path class="st0" d="M381.4,386.7c0,0.2,7.9,0.4,17.8,0.4s17.8-0.2,17.8-0.4c0-0.2-7.9-0.4-17.8-0.4
		C389.3,386.3,381.4,386.5,381.4,386.7z"/>
	<path class="st6" d="M500.6,291.6l0.8,53.9c29.9-0.4,54.2-24.6,54.2-53.9c0-29.6-24.8-53.9-55-53.9s-55,24.3-55,53.9H500.6z"/>
	<path class="st0" d="M522.1,273.9c0.3,0.1,0.6,0.2,1,0.2l2.7,0.5l9.9,1.4h0.2l0.1-0.1l13.2-12.8c6.3-6.2,12-11.9,16.2-16
		c1.9-2,3.6-3.6,4.9-4.9c0.6-0.6,1.2-1.2,1.7-1.9c-0.7,0.5-1.3,1-1.9,1.6l-5,4.7c-4.2,4-10,9.6-16.3,15.8l-13.1,12.9l0.3-0.1
		l-9.9-1.1l-2.7-0.2C522.4,273.9,522.1,273.9,522.1,273.9z"/>
	<path class="st0" d="M585.6,237.9c0,0.2,8,0.4,17.8,0.4c9.8,0,17.8-0.2,17.8-0.4s-8-0.4-17.8-0.4
		C593.6,237.5,585.6,237.7,585.6,237.9z"/>
	<path class="st0" d="M585.6,244.6c0,0.2,8,0.4,17.8,0.4c9.8,0,17.8-0.2,17.8-0.4c0-0.2-8-0.4-17.8-0.4
		C597.5,244,591.5,244.1,585.6,244.6z"/>
	<path class="st0" d="M162.7,147.7H688v20.7H162.7V147.7z"/>
	<path class="st0" d="M544.4,747.1h57.9c6.6,0,12.1-6.6,12.1-14.7V593.9h-1.6v138.5c0,7.2-4.7,13.1-10.4,13.1h-57.9
		c-5.8,0-10.4-5.9-10.4-13.1V593.9h-1.6v138.5C532.4,740.5,537.8,747.1,544.4,747.1z"/>
	<path class="st0" d="M228.2,747.1h57.9c6.6,0,12.1-6.6,12.1-14.7V593.9h-1.6v138.5c0,7.2-4.7,13.1-10.4,13.1h-57.9
		c-5.8,0-10.4-5.9-10.4-13.1V593.9h-1.6v138.5C216.2,740.5,221.6,747.1,228.2,747.1z"/>
	<path class="st5" d="M214.8,548.8h427.3v45.1H214.8L214.8,548.8z"/>
	<path class="st5" d="M571.3,747.1h57.9c6.6,0,12-6.6,12-14.7V593.9h-1.6v138.5c0,7.2-4.7,13.1-10.4,13.1h-57.9
		c-5.8,0-10.4-5.9-10.4-13.1V593.9h-1.6v138.5C559.3,740.5,564.7,747.1,571.3,747.1z"/>
	<path class="st5" d="M259.6,747.1h57.9c6.7,0,12.1-6.6,12.1-14.7V593.9h-1.6v138.5c0,7.2-4.7,13.1-10.4,13.1h-57.9
		c-5.8,0-10.4-5.9-10.4-13.1V593.9h-1.6v138.5C247.5,740.5,253,747.1,259.6,747.1z"/>
	<path class="st0" d="M523,548.8v-3.5h-35.6l-17.5-69.7H364.1l15.3,73.2L523,548.8z"/>
	<path class="st2" d="M420.1,518.5c-2.9,0-5.2-2.3-5.2-5.2c0-2.9,2.3-5.2,5.2-5.2c2.9,0,5.2,2.3,5.2,5.2c0,0,0,0,0,0
		C425.3,516.2,423,518.5,420.1,518.5z"/>
	<path class="st0" d="M328.5,548.8c0,0,1.3-0.7,3.9-1.6c3.6-1.2,7.4-1.8,11.2-1.8c2.6,0,5.2,0.2,7.8,0.6c3,0.4,5.9,1.3,8.6,2.7
		c2.9,1.5,5.1,4.1,6,7.3c0.4,1.6,0.3,3.3-0.3,4.9c-0.7,1.6-2,2.8-3.6,3.5c-1.6,0.7-3.4,0.6-4.9-0.3c-1.4-1-2.3-2.4-2.7-4.1
		c-0.8-3.2,0.3-6.6,1.3-9.6c0.9-2.9,2.1-5.6,3.6-8.2c0.7-1.2,1.5-2.2,2.4-3.2c0.8-0.9,1.8-1.7,2.9-2.2c2-0.8,4.1-1.3,6.2-1.2
		c1.6,0,3.3,0.2,4.9,0.6c1.4,0.4,2.6,0.9,3.9,1.6c-0.3-0.3-0.6-0.5-0.9-0.6c-0.9-0.5-1.9-0.9-2.9-1.2c-1.6-0.5-3.2-0.7-4.9-0.7
		c-2.2-0.1-4.4,0.3-6.5,1.1c-1.2,0.5-2.3,1.3-3.1,2.3c-1,1-1.8,2.1-2.6,3.2c-1.5,2.6-2.8,5.4-3.8,8.3c-0.6,1.5-1.1,3.1-1.4,4.8
		c-0.4,1.7-0.4,3.5,0,5.3c0.4,1.9,1.5,3.5,3.1,4.6c1.7,1.1,3.8,1.2,5.6,0.4c1.8-0.7,3.3-2.1,4.1-3.9c0.7-1.7,0.9-3.7,0.4-5.5
		c-1-3.4-3.3-6.2-6.5-7.7c-2.8-1.4-5.7-2.3-8.8-2.6c-2.6-0.4-5.3-0.6-7.9-0.5c-3.9,0-7.7,0.7-11.3,2c-1,0.4-1.9,0.8-2.9,1.3
		C329.1,548.3,328.8,548.5,328.5,548.8z"/>
	<path class="st6" d="M754.6,739.7l0.3-14.9l27.9,0.5l-0.3,21.8h-1.7c-7.7,0.3-39.2,1-44.3-0.7C730.8,744.7,754.6,739.7,754.6,739.7
		z"/>
	<g class="st7">
		<path class="st8" d="M743,742.6c0,0-8.3,2.3-7.3,3.6s32.8,1.9,46.9,0.9v-0.6l-37.2-0.3C745.4,746.2,744.6,742.6,743,742.6z"/>
	</g>
	<path class="st0" d="M782.9,746.4c-0.2,0-0.3,0-0.5,0h-1.4l-5.1,0.1c-4.3,0.1-10.2,0.1-16.7,0c-6.5-0.1-12.4-0.3-16.7-0.5l-5.1-0.3
		l-1.4-0.1h1.4l5.1,0.2c4.3,0.1,10.2,0.3,16.7,0.4c6.5,0.1,12.4,0.1,16.7,0h6.9L782.9,746.4z"/>
	<path class="st0" d="M745.4,746.6c-0.3-1.7-1.2-3.3-2.5-4.4c0.9,0.3,1.6,1,2,1.8C745.3,744.8,745.5,745.7,745.4,746.6z"/>
	<path class="st0" d="M753.7,742.6c-0.3-0.3-0.6-0.7-0.9-1.1c-0.4-0.6-0.6-1.2-0.6-1.3c0.1,0,0.5,0.4,0.9,1.1
		C753.4,741.7,753.6,742.1,753.7,742.6z"/>
	<path class="st0" d="M755.9,741.4c-0.4-0.2-0.7-0.4-1-0.7c-0.5-0.4-0.8-0.9-0.7-0.9c0.1-0.1,0.5,0.2,1,0.7S756,741.3,755.9,741.4z"
		/>
	<path class="st0" d="M757.4,738.8c-0.5,0.2-1,0.2-1.5,0.2c-0.5,0.1-1,0-1.5-0.2c0.5-0.2,1-0.2,1.5-0.2
		C756.5,738.6,757,738.6,757.4,738.8z"/>
	<path class="st0" d="M757.9,737c-0.5,0.3-1,0.5-1.6,0.5c-0.6,0.1-1.1,0-1.6-0.3c0.5-0.1,1.1-0.1,1.6,0
		C756.8,737,757.4,737,757.9,737z"/>
	<path class="st0" d="M752.8,740.1c-0.6,0.1-1.2,0.1-1.8,0c-0.6-0.1-1.3-0.2-1.9-0.4c-0.4-0.1-0.7-0.3-1.1-0.5
		c-0.2-0.1-0.4-0.3-0.4-0.6c0-0.3,0.1-0.5,0.3-0.7c1.7-0.8,3.6-0.1,4.4,1.6c0.1,0.2,0.2,0.4,0.2,0.6v0.5c-0.2-0.6-0.4-1.1-0.8-1.6
		c-0.4-0.5-0.9-0.8-1.5-1c-0.7-0.2-1.5-0.2-2.1,0.1c-0.3,0.2-0.2,0.6,0.1,0.7c0.3,0.2,0.6,0.3,1,0.4c0.6,0.2,1.2,0.4,1.8,0.5
		C752.1,740.1,752.8,740.1,752.8,740.1z"/>
	<path class="st0" d="M752.3,740.2c-0.2-0.4-0.3-0.8-0.2-1.2c0.1-0.5,0.2-0.9,0.5-1.3c0.3-0.5,0.9-0.9,1.5-0.9
		c0.4,0.1,0.6,0.5,0.5,0.8c0,0.3-0.2,0.6-0.3,0.8c-0.2,0.4-0.5,0.8-0.9,1.1c-0.3,0.3-0.6,0.6-1,0.7c0.3-0.3,0.6-0.6,0.9-0.9
		c0.3-0.3,0.6-0.7,0.8-1.1c0.2-0.4,0.4-1.1,0-1.1s-0.9,0.4-1.2,0.7c-0.3,0.3-0.4,0.7-0.5,1.1C752.3,739.4,752.3,739.8,752.3,740.2z"
		/>
	<path class="st0" d="M782.5,738.8c-0.7-0.1-1.4-0.1-2.1,0c-3.4,0.3-6.2,2.5-7.4,5.7c-0.5,1.2-0.5,2-0.6,2c0-0.2,0-0.4,0-0.6
		c0.1-0.5,0.2-1,0.3-1.5c1.1-3.4,4.1-5.7,7.6-5.9c0.5-0.1,1-0.1,1.5,0C782.1,738.6,782.3,738.7,782.5,738.8z"/>
	<path class="st0" d="M779.8,727.2c0.2,1.9,0.2,3.8,0.1,5.7c0,1.9,0,3.8-0.2,5.7C779.5,734.8,779.5,731,779.8,727.2z"/>
	<path class="st0" d="M769,743.9c-1.3,0.3-2.7,0.4-4.1,0.3c-1.4,0.1-2.7-0.1-4.1-0.4c0-0.1,1.8,0,4.1,0
		C766.3,743.8,767.7,743.8,769,743.9z"/>
	<path class="st0" d="M774.4,744c0,0-0.2,0.4-0.4,0.8c-0.2,0.4-0.3,0.8-0.4,0.8c-0.1,0-0.1-0.4,0.1-0.9S774.4,743.9,774.4,744z"/>
	<path class="st0" d="M776.5,741.5c-0.1,0.2-0.2,0.5-0.4,0.6c-0.3,0.3-0.6,0.5-0.6,0.4c-0.1-0.1,0.1-0.4,0.4-0.6
		C776.2,741.6,776.5,741.4,776.5,741.5z"/>
	<path class="st0" d="M779.5,740.3c0,0.1-0.4,0.1-0.8,0.2c-0.4,0.1-0.7,0.4-0.8,0.3s0.2-0.5,0.7-0.6S779.5,740.3,779.5,740.3z"/>
	<path class="st0" d="M781.6,739.8c0,0.1-0.1,0.2-0.4,0.3s-0.5,0.1-0.5,0c0-0.1,0.1-0.2,0.4-0.3S781.6,739.7,781.6,739.8z"/>
	<path class="st9" d="M782.5,738.1l-27.8-0.9l0.1-3.3l28,2.5L782.5,738.1z"/>
	<path class="st6" d="M694.6,739.7l0.4-14.9l27.9,0.6l-0.4,21.8h-1.7c-7.7,0.3-39.2,0.8-44.3-0.9
		C670.9,744.5,694.6,739.7,694.6,739.7z"/>
	<g class="st7">
		<path class="st8" d="M683.1,742.5c0,0-8.4,2.2-7.4,3.6c1,1.4,32.8,2.1,46.9,1.1v-0.6l-37.2-0.5
			C685.5,746.1,684.7,742.6,683.1,742.5z"/>
	</g>
	<path class="st0" d="M723.1,746.6h-1.9l-5.1,0.1h-16.7c-6.5,0-12.5-0.4-16.7-0.6l-5.1-0.3l-1.4-0.1h1.4l5.1,0.2
		c4.3,0.2,10.2,0.4,16.7,0.5s12.4,0.2,16.7,0.2h6.5L723.1,746.6z"/>
	<path class="st0" d="M685.5,746.5c-0.2-0.8-0.5-1.7-0.9-2.4c-0.5-0.7-1-1.4-1.6-2c0.9,0.3,1.6,1,2,1.8
		C685.4,744.7,685.6,745.6,685.5,746.5z"/>
	<path class="st0" d="M693.8,742.6c-0.4-0.3-0.6-0.7-0.9-1.1c-0.4-0.6-0.6-1.2-0.6-1.3c0.1,0,0.5,0.4,0.9,1.1
		C693.5,741.7,693.7,742.1,693.8,742.6z"/>
	<path class="st0" d="M696.1,741.4c0,0.1-0.5-0.2-1-0.7c-0.5-0.4-0.8-0.9-0.7-0.9c0.1-0.1,0.5,0.2,1,0.7S696.1,741.3,696.1,741.4z"
		/>
	<path class="st0" d="M697.6,738.8c-0.5,0.2-1,0.2-1.5,0.1c-0.5,0.1-1,0-1.5-0.2C695.6,738.5,696.6,738.5,697.6,738.8L697.6,738.8z"
		/>
	<path class="st0" d="M698.1,736.9c-0.5,0.3-1,0.5-1.6,0.5c-0.6,0.1-1.1,0-1.6-0.3c0.5-0.1,1.1-0.1,1.6-0.1
		C697,737,697.6,736.9,698.1,736.9z"/>
	<path class="st0" d="M692.9,740.1c-0.6,0.1-1.2,0.1-1.8,0c-0.6-0.1-1.3-0.3-1.9-0.5c-0.4-0.1-0.7-0.3-1.1-0.5
		c-0.2-0.1-0.4-0.3-0.4-0.6c0-0.3,0.1-0.5,0.3-0.7c1.4-0.7,3.1-0.2,4,1.1c0.3,0.4,0.5,0.8,0.5,1.2c0,0.2,0,0.3,0,0.5
		c-0.2-0.6-0.4-1.1-0.8-1.5c-0.4-0.5-0.9-0.8-1.5-1c-0.7-0.2-1.5-0.2-2.1,0.1c-0.3,0.2-0.2,0.5,0.1,0.7c0.3,0.2,0.6,0.3,1,0.5
		c0.6,0.2,1.2,0.4,1.8,0.5C691.7,739.9,692.3,740,692.9,740.1z"/>
	<path class="st0" d="M692.4,740.2c-0.2-0.4-0.3-0.8-0.2-1.3c0.1-0.5,0.2-0.9,0.5-1.3c0.3-0.5,0.9-0.9,1.5-0.9
		c0.2,0,0.3,0.1,0.4,0.3c0.1,0.1,0.1,0.2,0.1,0.3c0,0.1,0,0.2,0,0.3c0,0.3-0.1,0.6-0.3,0.8c-0.3,0.4-0.6,0.7-0.9,1.1
		c-0.3,0.3-0.6,0.6-1,0.7c0.3-0.3,0.6-0.6,0.9-0.9c0.3-0.3,0.6-0.7,0.8-1.1c0.3-0.4,0.4-1.1,0-1.1c-0.4-0.1-0.9,0.4-1.2,0.7
		c-0.3,0.3-0.4,0.7-0.5,1.1C692.5,739.3,692.4,739.8,692.4,740.2z"/>
	<path class="st0" d="M722.6,738.9c-0.7-0.1-1.4-0.1-2.1,0c-3.4,0.3-6.2,2.5-7.4,5.7c-0.5,1.2-0.5,2-0.6,2c0-0.2,0-0.4,0-0.6
		c0.1-0.5,0.2-1,0.3-1.5c1.1-3.3,4.1-5.7,7.6-5.8c0.5-0.1,1-0.1,1.5,0C722.3,738.7,722.5,738.8,722.6,738.9z"/>
	<path class="st0" d="M720,727.3c0.1,1.9,0.2,3.8,0.1,5.7c0,1.9,0,3.8-0.2,5.7c-0.2-1.9-0.2-3.8-0.1-5.7
		C719.7,731.1,719.8,729.2,720,727.3z"/>
	<path class="st0" d="M709.1,744c-1.3,0.3-2.7,0.4-4.1,0.3c-1.4,0-2.7-0.1-4.1-0.4c0-0.1,1.8,0,4.1,0
		C706.4,743.8,707.7,743.8,709.1,744z"/>
	<path class="st0" d="M714.6,744.1c0,0-0.2,0.4-0.4,0.8s-0.3,0.8-0.4,0.8c-0.1,0-0.1-0.4,0.1-0.9S714.5,744,714.6,744.1z"/>
	<path class="st0" d="M716.7,741.5c-0.1,0.2-0.2,0.5-0.4,0.6c-0.3,0.3-0.6,0.5-0.6,0.4s0.1-0.4,0.4-0.6S716.6,741.5,716.7,741.5z"/>
	<path class="st0" d="M719.6,740.4c0,0.1-0.4,0.1-0.8,0.2s-0.7,0.4-0.8,0.3s0.2-0.5,0.7-0.6C719.2,740.2,719.7,740.4,719.6,740.4z"
		/>
	<path class="st0" d="M721.7,739.9c0,0.1-0.1,0.2-0.4,0.3c-0.2,0.1-0.4,0.1-0.5,0c0-0.1,0.1-0.2,0.4-0.3
		C721.5,739.9,721.7,739.9,721.7,739.9z"/>
	<path class="st9" d="M722.6,738.2l-27.8-1.1l0.1-3.3l28,2.6L722.6,738.2z"/>
	<path class="st10" d="M593.7,291.6c2.1-0.9,7.3,10.7,7.6,7.6c0.3-3.1-7.9-13.4-5.6-14.2c3-1.1,8.1,11.1,8.6,12.1
		c0.5,1,2,0.3,1.5-0.6c-0.7-1.3-8.1-14.7-5.2-15.8c1.6-0.6,2.4,2.4,2.4,2.4s6,13.1,7.3,12.5c1.4-0.6-1.9-8.4-3.1-11
		c-1.3-2.6-0.6-4.2,1-3.8c1.1,0.3,5.2,8,6.4,10.6s4.4,9.6,5.7,4.9c1.3-4.8,4-7.9,5.4-8.3c0.3,0,0.6,0.1,0.9,0.2
		c0.8,0.5,1,1.4,0.6,2.2c0,0.1-0.1,0.1-0.1,0.2c-0.9,1.4-1.7,2.9-2.2,4.5c-0.5,1.3-0.7,2.6-0.7,3.9c-0.1,2.6,0.1,5.2,0.5,7.8
		l35.1,46.4l14.6-8.7l13.6,23.5l-19.5,11.1c-10.3,5.8-23.3,2.5-29.6-7.5l-36.2-64.5c-2.2-2.7-4.3-5.5-6.3-8.4
		C592.4,292.2,592.9,291.9,593.7,291.6z"/>
	<path class="st10" d="M759.4,323.8c-8.3,0.7-15.6-5.5-16.2-13.8c0-0.2,0-0.5,0-0.8c-0.3-8.2-0.6-16.5-0.6-16.5s-12.4-1.2-13.3-13.5
		s-0.2-40-0.2-40l-0.4-0.1c13.8-7.2,30.4-6.4,43.5,2.1l1.9,1.3l-0.6,66.3C773.3,316.7,767.2,323.2,759.4,323.8L759.4,323.8z"/>
	<path class="st0" d="M734.6,260.2c0.6-0.8,0.5-1.9-0.2-2.5c-0.7-0.6-1.7-0.6-2.4,0c-0.5,0.5-0.7,1.3-0.4,1.9
		c0.1,0.2,0.2,0.4,0.4,0.6c0.3,0.3,0.8,0.5,1.3,0.5c0.2,0,0.5-0.1,0.7-0.2C734.2,260.5,734.4,260.4,734.6,260.2z"/>
	<path class="st0" d="M729.8,258.2c0.2,0.2,1.4-0.8,3.1-0.9c1.7-0.1,3,0.7,3.2,0.5c0.3-0.2-0.1-0.5-0.7-0.9
		c-0.8-0.5-1.6-0.7-2.5-0.6c-0.9,0.1-1.7,0.4-2.4,1C729.8,257.7,729.7,258.1,729.8,258.2z"/>
	<path class="st0" d="M750.7,257.9c-0.8,0.6-1,1.7-0.4,2.5c0.3,0.4,0.7,0.7,1.2,0.7c0.7,0.1,1.4-0.2,1.8-0.8c0.4-0.6,0.4-1.4,0-2
		c-0.1-0.2-0.3-0.4-0.5-0.5C752.1,257.5,751.3,257.5,750.7,257.9z"/>
	<path class="st0" d="M748.3,258.5c0.2,0.2,1.4-0.8,3.1-0.9c1.7-0.1,3,0.7,3.2,0.5c0.2-0.2-0.1-0.5-0.7-0.9
		c-0.8-0.5-1.6-0.7-2.5-0.6c-0.9,0.1-1.7,0.4-2.4,1C748.4,258,748.2,258.5,748.3,258.5z"/>
	<path class="st0" d="M742.3,271.7c-0.9-0.3-1.8-0.5-2.8-0.4c-0.4,0-0.8-0.1-0.8-0.3c0-0.4,0-0.9,0.2-1.3c0.4-1.1,0.7-2.3,1.1-3.5
		c1.1-3,1.9-6.1,2.4-9.2c-1.4,2.9-2.5,5.9-3.2,9l-1.1,3.5c-0.2,0.6-0.3,1.2-0.1,1.9c0.1,0.2,0.2,0.3,0.3,0.4
		c0.1,0.1,0.3,0.2,0.5,0.2c0.3,0,0.5,0,0.8,0C740.5,272,741.4,271.9,742.3,271.7z"/>
	<path class="st5" d="M731.5,233.4c10.1-3.5,20.9-4.1,31.3-1.6c0,0,10.7,3.9,11.2,9.6c0.3,5,0.2,10-0.1,15.1h-0.7l0.3,11.2l-4.2-0.6
		l-0.6-13.9c0,0-7.3-5-7.4-12.8c-3.5-0.5-20.9-2.5-32.7,1.5v-2.7C728.6,237.5,729.9,234,731.5,233.4z"/>
	<path class="st11" d="M742.4,292.8c5.7-0.5,11.2-2.6,15.7-6.2c0,0-2.9,9.3-15.4,9.4L742.4,292.8z"/>
	<path class="st0" d="M748.4,253.8c1,0.5,2.1,0.7,3.2,0.7c1.8,0.1,3.2,0.1,3.2-0.2s-1.4-0.5-3.2-0.7
		C750,253.4,748.4,253.5,748.4,253.8z"/>
	<path class="st0" d="M730.9,251.6c0.1,0.2,1.4-0.3,3.1-0.1c1.6,0.2,2.8,0.9,3,0.7c0.1-0.2-1-1.4-2.9-1.5
		C732.1,250.4,730.7,251.4,730.9,251.6z"/>
	<path class="st12" d="M740.1,276.8c1.2,0.8,2.7,1,4,0.4c2.3-0.6,3.5-2.3,3.2-2.4c-1.1,0.6-2.3,1.2-3.5,1.6
		C742.6,276.6,741.3,276.7,740.1,276.8z"/>
	<path class="st5" d="M770.5,237.3c-1.5-1.2-2.8-2.7-3.8-4.4c-1-1.7-1.1-3.8-0.4-5.6c0.7-1.3,1.7-2.3,3-2.9c1.5-0.9,3.2-1.2,5-1
		c2.9,0.5,5.1,2.9,5.4,5.8c0.2,2.9-1.4,5.7-4,7c-2.7,1.2-5.8,0.9-8.1-0.9"/>
	<path class="st10" d="M772.8,256.2c0-1,0.8-1.8,1.8-1.9c2.3,0,6.1,0.9,6.5,7.2c0.5,9.1-8.2,6.8-8.2,6.5
		C772.8,267.8,772.8,259.7,772.8,256.2z"/>
	<path class="st11" d="M774.8,264.5c0.1,0.1,0.3,0.2,0.4,0.2c0.4,0.2,0.8,0.2,1.2,0c1.2-0.8,1.8-2.2,1.6-3.6c0-0.8-0.2-1.5-0.6-2.2
		c-0.2-0.6-0.7-1-1.2-1.1c-0.4-0.1-0.8,0.1-0.9,0.5c-0.1,0.3,0,0.4-0.1,0.5c-0.1,0-0.2-0.1-0.1-0.5c0-0.2,0.2-0.4,0.3-0.6
		c0.1-0.1,0.3-0.2,0.4-0.2c0.1,0,0.3-0.1,0.5-0.1c0.8,0.1,1.4,0.6,1.7,1.3c0.4,0.8,0.7,1.6,0.7,2.5c0.2,1.6-0.6,3.2-2.1,4
		c-0.2,0.1-0.5,0.1-0.7,0.1c-0.3,0-0.5-0.1-0.7-0.2C774.8,264.7,774.7,264.5,774.8,264.5z"/>
	<path class="st6" d="M740.7,307.3c-5.8,0.3-15.6,1.1-34.8,12.4c-4.2,2.5-47.4,31.5-47.4,31.5l19.1,24.4l35.2-19.9l-4.7,42.2
		l-5.8,40.9l87.7-5l0.4-37.2l0.7-34.3l5.5,45.8l33.8-3.2l-9.3-60.3c-1-7.4-4.1-14.3-8.9-20.1c-5.8-6.8-13.2-10.9-21.7-14
		c-5.2-1.6-10.5-2.5-15.9-2.9l0.3-10.1c0,0-15.2,1.4-19.2,11.2c0,0-5-11.5-14.8-12.5L740.7,307.3z"/>
	<path class="st0" d="M792.8,312.6c-0.2,0-0.4,0.1-0.5,0.2c-0.5,0.2-1,0.4-1.4,0.7c-1.7,1-3.2,2.4-4.4,3.9c-1.8,2.4-3,5.1-3.7,8
		c-0.7,3.5-0.8,7.1-0.2,10.7c0.6,3.5,1.5,7,2.7,10.3c1,3.1,2.1,5.9,2.9,8.2s1.4,4.2,1.8,5.5c0.2,0.7,0.4,1.4,0.7,2
		c0-0.7-0.1-1.4-0.3-2.1c-0.3-1.4-0.8-3.2-1.6-5.6c-1.4-4.7-4.1-11.1-5.2-18.4c-0.6-3.4-0.5-7,0.2-10.4c0.6-2.8,1.8-5.4,3.4-7.7
		C788.5,315.7,790.5,313.9,792.8,312.6z"/>
	<path class="st0" d="M711.8,365.1c0.2-0.7,0.3-1.3,0.4-2c0.2-1.5,0.4-3.3,0.7-5.6c0.6-4.9,1.4-11.3,2.2-18.3
		c0.9-7,1.6-13.5,2.2-18.4c0.3-2.2,0.5-4.1,0.7-5.5c0.1-0.7,0.2-1.4,0.2-2.1c-0.2,0.6-0.4,1.3-0.5,2c-0.2,1.3-0.6,3.2-0.9,5.5
		c-0.7,4.7-1.6,11.2-2.5,18.3c-0.9,7.2-1.6,13.7-2,18.4c-0.2,2.3-0.4,4.3-0.4,5.6C711.7,363.7,711.7,364.4,711.8,365.1z"/>
	<path class="st0" d="M758.4,304.9c1-0.2,2-0.1,2.8,0.4c0.9,0.5,1.6,1.4,2,2.3c0.3,0.6,0.5,1.2,0.6,1.8c0,0.3,0.1,0.7,0.3,1
		c0.1,0.4,0.3,0.8,0.5,1.2c0.2,0.2,0.5,0.4,0.7,0.4c0.2,0,0.5,0,0.7-0.1c0.4-0.2,0.6-0.3,1-0.5l1.8-0.9l3-1.6c1-0.4,1.9-1,2.7-1.6
		c-1,0.2-2,0.6-2.9,1.1l-3.1,1.4l-1.8,0.8l-0.9,0.4c-0.3,0.1-0.4,0.1-0.5,0c-0.3-0.6-0.5-1.2-0.6-1.8c-0.2-0.7-0.4-1.3-0.7-1.9
		c-0.5-1.1-1.4-2-2.4-2.5c-0.7-0.4-1.6-0.5-2.4-0.3C758.5,304.7,758.3,304.9,758.4,304.9z"/>
	<path class="st0" d="M740.5,306.6c2,2,4.2,3.9,6.6,5.5l0.5,0.4l0.1-0.7c0-0.3,0.1-0.6,0.2-0.9c-0.1-3.2,1.8-6,4.7-7.2
		c-1-0.1-2,0.3-2.6,1c-0.8,0.7-1.5,1.5-1.9,2.5c-0.5,1.2-0.8,2.4-1,3.6l-0.1,0.9l0.7-0.3C745.4,309.6,743,308,740.5,306.6z"/>
	<path class="st0" d="M753.5,332.5c0.1-0.1,0.2-0.2,0.2-0.3c0.3-1.2,0.9-5.8,1.5-11.4c0.3-3.2,0.6-6.2,0.7-8.3
		c0.1-1.2,0.1-2.3,0-3.5c-0.4,1.1-0.6,2.3-0.6,3.4c-0.3,2.1-0.6,5.1-1,8.3c-0.6,5.6-0.9,10.3-0.8,11.5
		C753.5,332.3,753.5,332.5,753.5,332.5z"/>
	<path class="st0" d="M797.9,406.6c1.4-0.3,2.8-0.6,4.1-1.1c2.5-0.8,5.9-1.8,9.8-2.8c3.9-1,7.4-1.6,9.9-2.2c1.4-0.2,2.8-0.5,4.1-0.9
		c-1.4-0.1-2.8,0.1-4.2,0.3c-6.8,1-13.4,2.6-19.9,5C800.4,405.3,799.1,405.9,797.9,406.6z"/>
	<path class="st0" d="M823.1,396.1c-1.4,0.1-2.7,0.4-4,0.8c-2.5,0.6-5.8,1.6-9.5,2.9c-1.8,0.6-3.6,1.3-5.1,1.9
		c-1.4,0.5-2.8,1.1-4.1,1.9c-1.3,0.6-2.3,1.8-2.7,3.1c0.8-1.1,1.8-2,3-2.6c1.3-0.6,2.7-1.2,4.1-1.6l5.1-1.8c3.7-1.3,7-2.4,9.4-3.2
		C820.6,397.2,821.9,396.7,823.1,396.1z"/>
	<path class="st0" d="M675,369.1c-0.3-1.1-0.8-2.2-1.4-3.2c-1.3-2.5-2.8-5-4.4-7.3c-1.6-2.4-3.4-4.6-5.2-6.8
		c-0.7-0.9-1.6-1.8-2.5-2.5c-0.2,0.2,3.2,4.3,7,9.7C672.2,364.4,674.7,369.2,675,369.1z"/>
	<path class="st0" d="M677.5,365.2c-0.3-1.1-0.8-2-1.5-2.9c-1.4-2.2-3.1-4.3-5-6.2c-1.9-1.8-4-3.5-6.2-4.9c-0.9-0.7-1.9-1.1-2.9-1.5
		c3,2.1,5.9,4.5,8.6,7C673,359.4,675.3,362.2,677.5,365.2z"/>
	<path class="st12" d="M769.7,332.9c0.8,0.3,1.4,1,1.6,1.7c0.5,1.7-0.2,3.5-1.7,4.4c-1.9,0.8-4,0-4.9-1.8c-0.1-0.2-0.2-0.5-0.2-0.7
		c-0.2-1.9,1-3.7,2.9-4.2c0.6-0.1,1.2,0,1.7,0.3L769.7,332.9z"/>
	<path class="st12" d="M817.1,369.4c0.8,0.3,1.4,1,1.6,1.7c0.5,1.7-0.2,3.5-1.7,4.4c-1.9,0.8-4.1,0-4.9-1.9
		c-0.1-0.2-0.2-0.4-0.2-0.7c-0.2-1.9,1.1-3.7,2.9-4.2c0.6-0.1,1.2,0,1.7,0.3L817.1,369.4z"/>
	<path class="st12" d="M704.6,333.1c0.4,0.2,0.7,0.4,1,0.7c0.3,0.3,0.5,0.7,0.6,1c0.5,1.7-0.2,3.5-1.7,4.4c-1.9,0.8-4,0-4.9-1.8
		c-0.1-0.2-0.2-0.5-0.2-0.7c-0.2-1.9,1.1-3.7,2.9-4.2c0.6-0.1,1.2,0,1.7,0.3L704.6,333.1z"/>
	<path class="st12" d="M719.2,419c0.8,0.3,1.4,1,1.6,1.7c0.5,1.7-0.2,3.5-1.7,4.4c-0.5,0.2-1,0.3-1.6,0.3c-1.7,0-3.2-1.2-3.5-2.9
		c-0.2-1.9,1.1-3.7,2.9-4.2c0.6-0.1,1.2,0,1.7,0.3L719.2,419z"/>
	<path class="st4" d="M774.7,419c0.8,0.3,1.4,1,1.6,1.7c0.5,1.7-0.2,3.5-1.7,4.4c-1.9,0.8-4,0-4.9-1.9c-0.1-0.2-0.2-0.5-0.2-0.7
		c-0.2-1.9,1-3.7,2.9-4.2c0.6-0.1,1.2,0,1.7,0.3L774.7,419z"/>
	<path class="st12" d="M752.6,387.8c0.8,0.3,1.4,1,1.6,1.7c0.5,1.7-0.2,3.5-1.7,4.4c-1.6,0.7-3.4,0.3-4.4-1.1
		c-0.3-0.4-0.6-0.9-0.7-1.5c-0.2-1.9,1.1-3.7,2.9-4.2c0.6-0.1,1.2,0,1.7,0.3L752.6,387.8z"/>
	<path class="st12" d="M739.2,351.1c0.4,0.2,0.7,0.5,0.9,1c0.3,1-0.1,2-1,2.5c-0.6,0.3-1.2,0.2-1.8,0c-0.3-0.1-0.5-0.3-0.7-0.6
		c-0.2-0.2-0.3-0.5-0.4-0.8c-0.1-1.1,0.6-2.1,1.6-2.4c0.3,0,0.7,0,1,0.2L739.2,351.1z"/>
	<path class="st12" d="M733,323.5c0.4,0.2,0.7,0.5,0.9,1c0.3,1-0.1,2-1,2.5c-0.6,0.3-1.2,0.2-1.8,0c-0.3-0.1-0.5-0.3-0.7-0.6
		c-0.2-0.2-0.3-0.5-0.4-0.8c-0.1-1.1,0.6-2.1,1.6-2.4c0.3,0,0.7,0,1,0.2L733,323.5z"/>
	<path class="st12" d="M772.4,371.9c0.4,0.2,0.7,0.5,0.9,1c0.3,1-0.1,2-1,2.5c-0.3,0.1-0.6,0.2-0.9,0.2c-1,0-1.8-0.7-2-1.6
		c-0.1-1.1,0.6-2.1,1.6-2.4c0.3,0,0.7,0,1,0.2L772.4,371.9z"/>
	<path class="st12" d="M806.7,332.4c0.4,0.2,0.7,0.5,0.9,1c0.3,1-0.1,2-1,2.5c-0.3,0.1-0.6,0.2-0.9,0.2c-1,0-1.8-0.7-2-1.6
		c-0.1-1.1,0.6-2.1,1.6-2.4c0.3,0,0.7,0,1,0.2L806.7,332.4z"/>
	<path class="st4" d="M743.8,414.9c0.2,0.1,0.4,0.2,0.6,0.4c0.2,0.2,0.3,0.4,0.3,0.6c0.3,1-0.1,2-1,2.5c-0.9,0.4-1.9,0.1-2.5-0.6
		c-0.2-0.2-0.3-0.5-0.4-0.8c-0.1-1.1,0.6-2.1,1.6-2.4c0.3,0,0.7,0,1,0.2L743.8,414.9z"/>
	<path class="st12" d="M727.1,385.1c0.4,0.2,0.7,0.5,0.9,1c0.3,1-0.1,2-1,2.5c-1,0.5-2.3,0-2.7-1.1c-0.1-0.1-0.1-0.3-0.1-0.4
		c-0.1-1.1,0.6-2.1,1.6-2.4c0.3-0.1,0.7,0,1,0.1L727.1,385.1z"/>
	<path class="st0" d="M789.8,433.5v303.9l-44-1.7L742,475.2L727,736.7l-43.8-1l19.1-296.9L789.8,433.5z"/>
	<path class="st5" d="M766.2,735.5c0.2,0,0.4-67.2,0.5-150.2c0-82.9-0.2-150.2-0.4-150.2c-0.2,0-0.4,67.2-0.4,150.2
		S766,735.5,766.2,735.5z"/>
	<path class="st5" d="M705.3,735.5c0-0.3,0-0.5,0.1-0.8c0.1-0.5,0.1-1.3,0.2-2.2c0.1-2,0.3-4.9,0.6-8.7c0.5-7.6,1.2-18.5,2.1-31.9
		c1.7-26.9,3.9-64.2,6.2-105.3s4.2-78.4,5.4-105.3c0.6-13.5,1-24.4,1.3-31.9c0.1-3.7,0.2-6.7,0.3-8.7v-2.3c0,0.5-0.1,1.3-0.1,2.2
		c-0.1,2-0.2,4.9-0.4,8.7c-0.4,7.6-0.9,18.5-1.6,31.9c-1.3,27-3.3,64.2-5.6,105.3s-4.4,78.3-6,105.3c-0.8,13.4-1.4,24.3-1.8,31.9
		c-0.2,3.8-0.3,6.7-0.5,8.7c0,0.8,0,1.5-0.1,2.3C705.3,735,705.3,735.3,705.3,735.5z"/>
	<path class="st5" d="M738.2,435.8c-0.3,1.7-0.4,3.4-0.4,5.1c-0.1,3.1-0.2,7.5-0.3,12.2v6.7c-0.1,1.9,0.2,3.8,0.9,5.5
		c0.5,1.2,1.4,2.2,2.5,2.8c0.4,0.3,0.8,0.4,1.3,0.4c0-0.1-0.5-0.2-1.1-0.7c-1-0.7-1.7-1.7-2.1-2.8c-0.6-1.7-0.8-3.5-0.7-5.3
		c0-2.1,0-4.4,0.1-6.7c0.1-4.9,0.1-9.1,0-12.2C738.5,439.2,738.5,437.5,738.2,435.8z"/>
	<path class="st5" d="M746.1,439.4c-0.1,0.1,0.6,0.5,0.6,1.5c0,0.5-0.2,1.1-0.6,1.4c-0.6,0.3-1.3,0.3-1.8-0.1
		c-0.2-0.1-0.3-0.3-0.5-0.5c-0.3-0.6-0.2-1.3,0.4-1.8c0.5-0.4,1.1-0.6,1.8-0.4v-0.3c-0.4,0.2-0.5,0.3-0.5,0.4h0.6l0.4-0.1l-0.3-0.3
		c-0.8-0.4-1.7-0.4-2.4,0.2c-1,0.6-1.2,1.9-0.6,2.9c0.1,0.2,0.3,0.4,0.6,0.6c0.8,0.6,1.9,0.6,2.7,0c0.3-0.3,0.5-0.6,0.7-0.9
		c0.1-0.4,0.2-0.8,0.1-1.1c-0.1-0.5-0.3-1-0.7-1.3C746.4,439.4,746.1,439.3,746.1,439.4z"/>
	<path class="st10" d="M713,392.5c1.2-1.5,15.4,0.9,15.4,0.9l-5.2-3.9c2.6-4.7,11.7,1,14.6,3.7c0.7,0.8,1.2,1.8,1.4,2.8l57.3,12.1
		l31.9-3.2c0,0,0.6,5.5,2.2,15.9c1.5,9.8-14.6,19.4-24.7,18.1c-9.2-1.3-65.1-17.2-74.6-19.9l-1.4-0.4c-3.1-1.1-10.5-3.7-11.2-5
		c-1-1.6-0.7-14.9-0.7-14.9l-5.3-2.3C712.2,395.1,712.3,393.6,713,392.5L713,392.5z"/>
</g>
</svg>
