<?xml version="1.0" encoding="utf-8"?>
<!-- Generator: Adobe Illustrator 26.0.1, SVG Export Plug-In . SVG Version: 6.00 Build 0)  -->
<svg version="1.1" id="Layer_1" xmlns="http://www.w3.org/2000/svg" xmlns:xlink="http://www.w3.org/1999/xlink" x="0px" y="0px"
	 viewBox="0 0 1080 730.6" style="enable-background:new 0 0 1080 730.6;" xml:space="preserve">
<style type="text/css">
	.st0{fill:#2F2E41;}
	.st1{fill:#FFB8B8;}
	.st2{fill:#3F3D56;}
	.st3{fill:#1E9CD7;}
	.st4{fill:#E6E6E6;}
	.st5{fill:#CCCCCC;}
	.st6{fill:#FFFFFF;}
	.st7{fill:#F2F2F2;}
</style>
<g>
	<path class="st0" d="M860.1,320.6l3.2-25.7c2.4-19,19.7-32.5,38.7-30.1c19,2.4,32.5,19.7,30.1,38.7l0,0l-3.2,25.7
		c-0.3,2.6-2.6,4.4-5.2,4.1l-59.6-7.4C861.6,325.5,859.8,323.2,860.1,320.6L860.1,320.6z"/>
	<path class="st1" d="M888.7,328.3c14.1,0,25.5-11.4,25.5-25.4c0-14.1-11.4-25.5-25.4-25.5c-14.1,0-25.5,11.4-25.5,25.4
		c0,0,0,0,0,0.1C863.2,316.9,874.6,328.3,888.7,328.3z"/>
	<path class="st0" d="M855,295.9c1.9-15,15.6-25.7,30.6-23.9l5.1,0.6c15,1.9,25.7,15.6,23.8,30.7l-0.1,0.5l-10.9-1.4l-2.4-10.9
		l-2,10.3l-5.6-0.7l-1.2-5.5l-1,5.2l-36.4-4.6L855,295.9z"/>
	<path class="st1" d="M764.3,393.7c2.9,5.8,10,8.1,15.7,5.2c0.6-0.3,1.2-0.7,1.8-1.1l23.1,13.6l11.6-12.1l-32.9-18.7
		c-4.3-4.9-11.7-5.4-16.6-1.2C763,383,761.8,388.9,764.3,393.7L764.3,393.7z"/>
	<path class="st2" d="M840,418.1c-17,0-47-7.6-48.7-8.1l-0.5-0.1l4.7-23.9l45.8,9.1l24.9-35.1l28.6-2.9L894,358
		c-0.4,0.5-37.2,49-42.9,57.2C849.6,417.3,845.5,418.1,840,418.1z"/>
	<path class="st2" d="M844.6,507.9l-0.7-0.3c-0.1-0.1-14.6-7.1-22.1-20.9c-7.5-13.7,27.5-71.8,29.9-75.9l0-18.5l12.5-34l16-9.1
		l-13.8,32.2L844.6,507.9z"/>
	<path class="st1" d="M828.5,706.4h-15.3l-7.3-59.2h22.6L828.5,706.4z"/>
	<path class="st0" d="M832.4,721.2h-49.4v-0.6c0-10.6,8.6-19.2,19.2-19.3h30.2L832.4,721.2z"/>
	<path class="st1" d="M993,692.9l-14.5,4.8l-25.3-54l21.5-7.1L993,692.9z"/>
	<path class="st0" d="M1001.3,705.8l-46.9,15.4l-0.2-0.6c-3.3-10.1,2.2-21,12.3-24.3l0,0l28.7-9.4L1001.3,705.8z"/>
	<path class="st0" d="M963.4,683.2l-43.6-73l-36.8-78l-33.2,68.9l-13.2,89.3l-46.2,0.6l0.2-0.7l70.7-281.5l55.4,8.3l-2.5,36.6
		l1.5,2.1c12.5,17.8,25.4,36.2,18,56.1l21,62.6l46.5,104.2L963.4,683.2z"/>
	<path class="st3" d="M863.7,469.8c-8,0-17.2-9.2-12.4-24.9l-0.3-0.2l11.4-50.5c-10-14.3,3.2-26,4.4-27.1l6.3-11.3l27.6-17.6
		l14,116.4l-0.2,0.2C904.4,464.6,870.5,469.8,863.7,469.8z"/>
	<path class="st2" d="M920.3,496.1c-1.1,0-2.2-0.1-3.3-0.3c-1.1-0.3-2.8-1.6-5.5-10.4c-10.7-34.9-23.3-139.8-14.1-150.1l0.2-0.2
		l15.1,2.5c1.3-0.9,7.8-5.5,13.9-4.7c2.5,0.3,4.8,1.7,6.3,3.7l0.1,0.1l4.8,68.4l17.6,80.5l-0.4,0.2
		C953.9,486.2,932,496.1,920.3,496.1z"/>
	<path class="st1" d="M910.2,469.4c6.5-0.2,11.5-5.7,11.3-12.1c0-0.7-0.1-1.4-0.2-2l22-15.2l-6-15.7l-30.8,21.9
		c-6.3,1.8-9.9,8.3-8.1,14.6C899.9,466,904.8,469.5,910.2,469.4L910.2,469.4z"/>
	<path class="st2" d="M936,452.2l-19.6-14.4L944,400l-21.2-37.5l9.5-27.1l0.6,1.2c0.3,0.5,28.6,54.5,33.5,63.2
		c5.1,9-28.6,50.2-30,52L936,452.2z"/>
	<path class="st4" d="M494.5,621.9l-16.7-7.1l-11.5-83.9H313.7l-12.4,83.6l-14.9,7.5c-1.8,0.9-2.5,3-1.6,4.8c0.6,1.2,1.8,2,3.2,2
		h205.2c2,0,3.6-1.6,3.5-3.6C496.6,623.7,495.8,622.4,494.5,621.9L494.5,621.9z"/>
	<path class="st5" d="M765.7,542.1H15.9c-8.2,0-14.8-6.7-14.8-14.9v-106h779.4v106C780.5,535.4,773.9,542,765.7,542.1L765.7,542.1z"
		/>
	<path class="st2" d="M781.3,471.3H0.4V17.9C0.4,8.1,8.4,0,18.3,0h745.1c9.9,0,17.9,8.1,17.9,17.9L781.3,471.3z"/>
	<path class="st6" d="M734.7,438.4H47.1c-7.6,0-13.8-6.2-13.8-13.8V46.7c0-7.6,6.2-13.8,13.8-13.8h687.6c7.6,0,13.8,6.2,13.8,13.8
		v377.8C748.5,432.2,742.3,438.4,734.7,438.4z"/>
	<path class="st5" d="M583.7,629.6H197.3c-0.8,0-1.5-0.5-1.8-1.3c-0.2-0.9,0.3-1.9,1.2-2.1c0.1,0,0.3-0.1,0.4-0.1h386.3
		c0.9,0,1.6,0.5,1.8,1.4c0.2,0.8-0.2,1.6-1,2C584.2,629.5,584,629.6,583.7,629.6z"/>
	<path class="st7" d="M727.3,94h-166v127.1h166L727.3,94z"/>
	<path class="st6" d="M719.1,100.3H569.6v114.5h149.5V100.3z"/>
	<path class="st2" d="M646.9,185.2L646.9,185.2c22.1-1.2,39-20,37.8-42c-1.1-20-16.8-36.2-36.9-37.7c-0.1,0-0.2,0-0.4,0
		c-0.1,0-0.2,0.1-0.3,0.2c-0.1,0.1-0.2,0.2-0.2,0.3c-0.1,0.1-0.1,0.2-0.1,0.4l-0.9,77.9C646,184.8,646.4,185.2,646.9,185.2
		C646.9,185.2,646.9,185.2,646.9,185.2L646.9,185.2z"/>
	<path class="st4" d="M615.7,118.4c0.3,0,0.6,0.1,0.8,0.4l26.8,27.4c0.1,0.1,0.2,0.2,0.2,0.4c0.1,0.1,0.1,0.3,0.1,0.4l-0.4,37.3
		c0,0.2,0,0.3-0.1,0.5c-0.1,0.1-0.2,0.3-0.3,0.4c-0.1,0.1-0.3,0.2-0.4,0.2c-0.2,0.1-0.3,0.1-0.5,0.1c-22.2-1.7-38.7-21.1-37-43.2
		c0.7-8.7,4.1-16.9,9.9-23.4C615,118.5,615.3,118.4,615.7,118.4L615.7,118.4z"/>
	<path class="st3" d="M642.9,105.2c0.3,0,0.6,0.1,0.8,0.3c0.1,0.1,0.2,0.2,0.3,0.4c0.1,0.1,0.1,0.3,0.1,0.5l-0.4,33.6
		c0,0.5-0.3,0.9-0.7,1.1c-0.4,0.2-0.9,0.1-1.3-0.3l-23.4-23.9c-0.2-0.2-0.3-0.5-0.3-0.9c0-0.3,0.2-0.6,0.4-0.8
		C625.2,109.2,633.8,105.6,642.9,105.2L642.9,105.2z"/>
	<path class="st3" d="M630.9,201.4c0,4-3.3,7.1-7.3,7.1c-4,0-7.1-3.3-7.1-7.3c0-4,3.3-7.1,7.3-7.1c1.9,0,3.7,0.8,5.1,2.2
		C630.1,197.6,630.9,199.5,630.9,201.4z"/>
	<path class="st2" d="M651.3,201.6c0,4-3.3,7.1-7.3,7.1s-7.1-3.3-7.1-7.3c0-4,3.3-7.1,7.3-7.1c1.9,0,3.7,0.8,5.1,2.2
		C650.6,197.9,651.3,199.7,651.3,201.6z"/>
	<path class="st4" d="M671.8,201.8c0,4-3.3,7.1-7.3,7.1c-4,0-7.1-3.3-7.1-7.3c0-4,3.3-7.1,7.3-7.1c1.9,0,3.7,0.8,5.1,2.2
		C671.1,198.1,671.8,199.9,671.8,201.8z"/>
	<path class="st7" d="M725.6,241.1h-166v127.1h166V241.1z"/>
	<path class="st6" d="M717.3,247.4H567.8v114.5h149.5V247.4z"/>
	<path class="st2" d="M593.2,285c3.4,0,6.2-2.8,6.2-6.2c0-3.4-2.8-6.2-6.2-6.2c-3.4,0-6.2,2.8-6.2,6.2c0,0,0,0,0,0
		C587,282.2,589.7,285,593.2,285L593.2,285z"/>
	<path class="st2" d="M692.9,274c2.3,0,4.2,1.9,4.2,4.2c0,2.3-1.9,4.2-4.2,4.2c0,0,0,0,0,0h-65.3c-2.3,0-4.2-1.9-4.2-4.2
		s1.9-4.2,4.2-4.2H692.9z M692.9,272.9h-65.3c-2.9,0-5.3,2.4-5.3,5.3c0,2.9,2.4,5.3,5.3,5.3h65.3c2.9,0,5.3-2.4,5.3-5.3
		C698.2,275.3,695.8,272.9,692.9,272.9L692.9,272.9z"/>
	<path class="st3" d="M667.2,283.4H618c-2.9,0-5.3-2.4-5.3-5.3c0-2.9,2.4-5.3,5.3-5.3h49.1c2.9,0,5.3,2.4,5.3,5.3
		C672.4,281.1,670.1,283.4,667.2,283.4z"/>
	<path class="st2" d="M593.2,310.9c3.4,0,6.2-2.8,6.2-6.2c0-3.4-2.8-6.2-6.2-6.2s-6.2,2.8-6.2,6.2c0,0,0,0,0,0
		C587,308.1,589.7,310.9,593.2,310.9z"/>
	<path class="st2" d="M692.9,299.8c2.3,0,4.2,1.9,4.2,4.2s-1.9,4.2-4.2,4.2h-65.3c-2.3,0-4.2-1.9-4.2-4.2s1.9-4.2,4.2-4.2H692.9z
		 M692.9,298.8h-65.3c-2.9,0.1-5.2,2.4-5.2,5.3c0.1,2.8,2.3,5.1,5.2,5.2h65.3c2.9-0.1,5.2-2.4,5.2-5.3
		C698,301.1,695.8,298.8,692.9,298.8z"/>
	<path class="st3" d="M685.7,309.3H618c-2.9-0.1-5.2-2.4-5.2-5.3c0.1-2.8,2.3-5.1,5.2-5.2h67.7c2.9,0.1,5.2,2.4,5.2,5.3
		C690.8,306.9,688.5,309.2,685.7,309.3z"/>
	<path class="st2" d="M593.2,336.7c3.4,0,6.2-2.8,6.2-6.2c0-3.4-2.8-6.2-6.2-6.2s-6.2,2.8-6.2,6.2c0,0,0,0,0,0
		C587,333.9,589.7,336.7,593.2,336.7z"/>
	<path class="st2" d="M692.9,325.6c1.7,0,3.2,1,3.9,2.6c0.7,1.6,0.3,3.4-0.9,4.6c-0.8,0.8-1.9,1.2-3,1.2h-65.3
		c-2.3,0-4.2-1.9-4.2-4.2c0-2.3,1.9-4.2,4.2-4.2L692.9,325.6z M692.9,324.6h-65.3c-2.9,0-5.2,2.4-5.2,5.3c0,2.9,2.3,5.2,5.2,5.2
		h65.3c2.9,0,5.2-2.4,5.2-5.3C698.1,327,695.8,324.6,692.9,324.6z"/>
	<path class="st3" d="M645.5,335.1H618c-1.4,0-2.7-0.5-3.7-1.5c-2.1-2.1-2.1-5.4,0-7.4c0.5-0.5,1.1-0.9,1.7-1.1
		c0.6-0.3,1.3-0.4,2-0.4h27.5c2.9,0,5.2,2.4,5.2,5.3C650.7,332.8,648.4,335.1,645.5,335.1L645.5,335.1z"/>
	<path class="st7" d="M522.9,116.5H59v238.2h463.8V116.5z"/>
	<path class="st6" d="M507.4,128.3H74.5v214.5h432.9V128.3z"/>
	<path class="st2" d="M453.7,310.1H138.1c-0.5,0-1-0.4-1-1c0,0,0,0,0,0V157.6c0-0.5,0.4-1,1-1c0,0,0,0,0,0c0.5,0,1,0.4,1,1v150.6
		h314.6c0.5,0,1,0.4,1,1C454.7,309.7,454.3,310.1,453.7,310.1C453.7,310.1,453.7,310.1,453.7,310.1L453.7,310.1z"/>
	<path class="st3" d="M205.5,299.2h-28.7c-1.6,0-2.9-1.3-2.9-2.9v-39.7c0-1.6,1.3-2.9,2.9-2.9h28.7c1.6,0,2.9,1.3,2.9,2.9v39.7
		C208.5,297.9,207.2,299.2,205.5,299.2z"/>
	<path class="st3" d="M257.9,299.2h-28.7c-1.6,0-2.9-1.3-2.9-2.9V219c0-1.6,1.3-2.9,2.9-2.9h28.7c1.6,0,2.9,1.3,2.9,2.9v77.3
		C260.8,297.9,259.5,299.2,257.9,299.2z"/>
	<path class="st3" d="M310.2,299.2h-28.7c-1.6,0-2.9-1.3-2.9-2.9v-39.7c0-1.6,1.3-2.9,2.9-2.9h28.7c1.6,0,2.9,1.3,2.9,2.9v39.7
		C313.2,297.9,311.9,299.2,310.2,299.2z"/>
	<path class="st3" d="M362.6,299.2h-28.7c-1.6,0-2.9-1.2-2.9-2.8v-92.4c0-1.6,1.3-2.8,2.9-2.8h28.7c1.6,0,2.9,1.2,2.9,2.8v92.4
		C365.5,298,364.2,299.3,362.6,299.2L362.6,299.2z"/>
	<path class="st3" d="M414.9,299.2h-28.7c-1.6,0-2.9-1.3-2.9-2.9V177.5c0-1.6,1.3-2.9,2.9-2.9h28.7c1.6,0,2.9,1.3,2.9,2.9v118.8
		C417.9,297.9,416.5,299.2,414.9,299.2z"/>
	<path class="st2" d="M191.2,241.8c3.3,0,5.9-2.6,6-5.9c0-3.3-2.6-5.9-5.9-6c-3.3,0-5.9,2.6-6,5.9c0,0,0,0,0,0
		C185.3,239.2,187.9,241.8,191.2,241.8L191.2,241.8z"/>
	<path class="st2" d="M243.5,203.2c3.3,0,5.9-2.6,6-5.9c0-3.3-2.6-5.9-5.9-6c-3.3,0-5.9,2.6-6,5.9c0,0,0,0,0,0
		C237.6,200.6,240.3,203.2,243.5,203.2z"/>
	<path class="st2" d="M295.9,241.8c3.3,0,5.9-2.6,6-5.9s-2.6-5.9-5.9-6c-3.3,0-5.9,2.6-6,5.9c0,0,0,0,0,0
		C290,239.2,292.6,241.8,295.9,241.8C295.9,241.8,295.9,241.8,295.9,241.8z"/>
	<path class="st2" d="M348.2,184.4c3.3,0,5.9-2.6,5.9-5.9c0-3.3-2.6-5.9-5.9-5.9c-3.3,0-5.9,2.6-6,5.9c0,0,0,0,0,0
		C342.3,181.8,345,184.4,348.2,184.4C348.2,184.4,348.2,184.4,348.2,184.4z"/>
	<path class="st2" d="M400.6,162.7c3.3,0,5.9-2.6,6-5.9c0-3.3-2.6-5.9-5.9-6c-3.3,0-5.9,2.6-6,5.9c0,0,0,0,0,0
		C394.6,160,397.3,162.7,400.6,162.7z"/>
	<path class="st2" d="M296,237.2l-52.5-39.4l-51.8,38.8l-1.2-1.6l52.9-39.7l52.2,39.2l51.9-56.9l0.2-0.1l52.3-21.1l0.7,1.8
		l-52.1,21.1L296,237.2z"/>
	<path class="st5" d="M1078.5,724.5H642.2c-0.6,0-1.1-0.6-1.1-1.2c0-0.6,0.5-1.1,1.1-1.1h436.2c0.6,0,1.1,0.6,1.1,1.2
		C1079.6,724,1079.1,724.5,1078.5,724.5z"/>
</g>
</svg>
