<?xml version="1.0" encoding="utf-8"?>
<!-- Generator: Adobe Illustrator 26.0.1, SVG Export Plug-In . SVG Version: 6.00 Build 0)  -->
<svg version="1.1" id="Layer_1" xmlns="http://www.w3.org/2000/svg" xmlns:xlink="http://www.w3.org/1999/xlink" x="0px" y="0px"
	 viewBox="0 0 1080 697.9" style="enable-background:new 0 0 1080 697.9;" xml:space="preserve">
<style type="text/css">
	.st0{opacity:0.1;}
	.st1{opacity:0.1;fill:#3F3D56;enable-background:new    ;}
	.st2{opacity:0.1;fill:#FF5300;enable-background:new    ;}
	.st3{opacity:0.1;enable-background:new    ;}
	.st4{fill:#C2DDF2;}
	.st5{fill:none;stroke:#3F3D56;stroke-width:4;stroke-miterlimit:10;}
	.st6{fill:#1E9CD7;}
	.st7{fill:#3F3D56;}
	.st8{fill:url(#SVGID_1_);}
	.st9{fill:#BE6F72;}
	.st10{opacity:0.8;fill:#1E9CD7;enable-background:new    ;}
	.st11{opacity:0.1;fill:none;stroke:#000000;stroke-miterlimit:10;enable-background:new    ;}
	.st12{fill:url(#SVGID_00000112614461125145239250000014640305980377958067_);}
	.st13{fill:#2F2E41;}
	.st14{fill:#FBBEBE;}
	.st15{fill:#E8E8F0;}
</style>
<g>
	<g class="st0">
		<path class="st1" d="M449.4,435.9c8.1,0,14.7-8.6,14.7-19.3c0-10.6-6.6-19.3-14.7-19.3s-14.7,8.6-14.7,19.3
			C434.7,427.3,441.3,435.9,449.4,435.9z"/>
		<path class="st1" d="M461,334.2c2-3.6,3.1-7.7,3.1-11.8c0-10.6-6.6-19.3-14.7-19.3s-14.7,8.7-14.7,19.3c0,4.1,1,8.2,3.1,11.8
			c-4.1,7.3-4.1,16.2,0,23.6c-4.1,7.3-4.1,16.2,0,23.6c-2,3.6-3.1,7.7-3.1,11.8c0,10.6,6.6,19.3,14.7,19.3s14.7-8.6,14.7-19.3
			c0-4.1-1-8.2-3.1-11.8c4.1-7.3,4.1-16.2,0-23.6C465,350.4,465,341.5,461,334.2L461,334.2z"/>
		<path class="st1" d="M449.4,318.1c8.1,0,14.7-8.6,14.7-19.3c0-10.6-6.6-19.3-14.7-19.3s-14.7,8.6-14.7,19.3
			C434.7,309.5,441.3,318.1,449.4,318.1z"/>
		<path class="st1" d="M449.4,294.6c8.1,0,14.7-8.6,14.7-19.3c0-10.6-6.6-19.3-14.7-19.3s-14.7,8.6-14.7,19.3
			C434.7,286,441.3,294.6,449.4,294.6z"/>
		<path class="st2" d="M394.6,114.1c-2-2.6-3.8-5.3-5.5-8.1l38.5-6.4l-41.6,0.3c-8.1-17.7-8.5-37.9-1.3-55.9l55.9,29.1l-51.5-38
			C408.4,1.5,451.4-10,485,9.4c33.6,19.4,45.2,62.4,25.8,96c-1.7,3-3.7,5.9-5.9,8.7c3.1,4,5.8,8.3,8,12.9l-50,26.2l53.3-18
			c7.6,22.6,3.4,47.5-11.3,66.2c24.1,30.7,18.7,75.2-12.1,99.2c-1.9,1.5-3.8,2.9-5.9,4.1c-32.8,20.6-76,10.7-96.6-22.1
			c-1.4-2.2-2.7-4.5-3.8-6.9c-11.7-24.3-8.6-53.2,8-74.4C374.5,175.7,374.5,139.8,394.6,114.1L394.6,114.1z"/>
		<path class="st3" d="M519.9,157.7c0,15.8-5.3,31.2-15,43.6c24.1,30.7,18.7,75.2-12.1,99.2c-1.9,1.5-3.8,2.9-5.9,4.1
			c-32.8,20.6-76,10.7-96.6-22.1c-1.4-2.2-2.7-4.5-3.8-6.9c-11.7-24.3-8.6-53.2,8-74.4C385.1,189.3,519.9,149.8,519.9,157.7z"/>
	</g>
	<g class="st0">
		<path class="st1" d="M621.2,388c6.1,0,11-6.4,11-14.4c0-8-4.9-14.4-11-14.4s-11,6.4-11,14.4C610.2,381.5,615.1,388,621.2,388z"/>
		<path class="st1" d="M629.8,311.9c1.5-2.7,2.3-5.7,2.3-8.8c0-8-4.9-14.4-10.9-14.4c-6,0-11,6.5-11,14.4c0,3.1,0.8,6.1,2.3,8.8
			c-3.1,5.5-3.1,12.1,0,17.6c-3.1,5.5-3.1,12.1,0,17.6c-1.5,2.7-2.3,5.7-2.3,8.8c0,8,4.9,14.4,11,14.4c6,0,10.9-6.5,10.9-14.4
			c0-3.1-0.8-6.1-2.3-8.8c3-5.5,3-12.1,0-17.6C632.8,324.1,632.8,317.4,629.8,311.9z"/>
		<path class="st1" d="M621.2,299.9c6.1,0,11-6.4,11-14.4s-4.9-14.4-11-14.4s-11,6.4-11,14.4C610.2,293.5,615.1,299.9,621.2,299.9z"
			/>
		<path class="st1" d="M621.2,282.3c6.1,0,11-6.4,11-14.4s-4.9-14.4-11-14.4s-11,6.4-11,14.4S615.1,282.3,621.2,282.3z"/>
		<path class="st2" d="M580.2,147.5c-1.5-1.9-2.9-3.9-4.1-6l28.8-4.7l-31.1,0.2c-6-13.2-6.4-28.3-1-41.8l41.7,21.8L576,88.5
			c14.6-25.1,46.8-33.5,71.8-18.9c25.1,14.6,33.5,46.8,18.9,71.8c-1.2,2.1-2.6,4.1-4.1,6c2.3,3,4.3,6.2,6,9.6l-37.3,19.5l39.8-13.4
			c5.7,16.9,2.5,35.5-8.5,49.5c18,23,14,56.2-9,74.2c-1.4,1.1-2.9,2.1-4.4,3.1c-24.5,15.4-56.8,8-72.2-16.5c-1-1.7-2-3.4-2.8-5.1
			c-8.8-18.2-6.4-39.7,6-55.6C565.3,193.5,565.3,166.6,580.2,147.5L580.2,147.5z"/>
		<path class="st3" d="M673.8,180.1c0,11.8-3.9,23.3-11.2,32.6c18,23,14,56.2-8.9,74.2c-1.4,1.1-2.9,2.1-4.4,3.1
			c-24.5,15.4-56.8,8-72.2-16.5c-1-1.7-2-3.4-2.8-5.2c-8.8-18.2-6.4-39.7,6-55.6C573.2,203.7,673.8,174.1,673.8,180.1z"/>
	</g>
	<g class="st0">
		<path class="st1" d="M1027.8,382.1c6.1,0,11-6.4,11-14.4c0-8-4.9-14.4-11-14.4c-6,0-11,6.4-11,14.4
			C1016.9,375.6,1021.8,382.1,1027.8,382.1z"/>
		<path class="st1" d="M1019.2,306.1c-1.5-2.7-2.3-5.7-2.3-8.8c0-8,4.9-14.4,10.9-14.4c6,0,11,6.5,11,14.4c0,3.1-0.8,6.1-2.3,8.8
			c3.1,5.5,3.1,12.1,0,17.6c3.1,5.5,3.1,12.1,0,17.6c1.5,2.7,2.3,5.7,2.3,8.8c0,8-4.9,14.4-11,14.4c-6,0-10.9-6.5-10.9-14.4
			c0-3.1,0.8-6.1,2.3-8.8c-3-5.5-3-12.1,0-17.6C1016.1,318.2,1016.1,311.5,1019.2,306.1z"/>
		<path class="st1" d="M1027.8,294.1c6.1,0,11-6.4,11-14.4s-4.9-14.4-11-14.4c-6,0-11,6.4-11,14.4S1021.8,294.1,1027.8,294.1z"/>
		<path class="st1" d="M1027.8,276.5c6.1,0,11-6.4,11-14.4c0-8-4.9-14.4-11-14.4c-6,0-11,6.4-11,14.4
			C1016.9,270,1021.8,276.5,1027.8,276.5z"/>
		<path class="st2" d="M1068.8,141.6c1.5-1.9,2.9-3.9,4.1-6l-28.8-4.7l31.1,0.2c6-13.2,6.4-28.3,1-41.8l-41.7,21.8l38.5-28.4
			c-14.6-25.1-46.8-33.5-71.8-18.9c-25.1,14.6-33.5,46.8-18.9,71.8c1.2,2.1,2.6,4.1,4.1,6.1c-2.3,3-4.3,6.2-6,9.6l37.3,19.5
			L978,157.3c-5.7,16.9-2.5,35.5,8.5,49.5c-18,23-14,56.2,9,74.2c1.4,1.1,2.9,2.1,4.4,3.1c24.5,15.4,56.8,8,72.2-16.5
			c1-1.7,2-3.4,2.8-5.2c8.8-18.2,6.4-39.7-6-55.6C1083.8,187.6,1083.8,160.7,1068.8,141.6L1068.8,141.6z"/>
		<path class="st3" d="M975.1,174.2c0,11.8,3.9,23.3,11.2,32.6c-18,23-14,56.2,8.9,74.2c1.4,1.1,2.9,2.1,4.4,3.1
			c24.5,15.4,56.8,8,72.2-16.5c1-1.7,2-3.4,2.8-5.2c8.8-18.2,6.4-39.7-6-55.6C1075.8,197.8,975.1,168.3,975.1,174.2z"/>
	</g>
	<g class="st0">
		<path class="st1" d="M52.9,382.1c6.1,0,11-6.4,11-14.4c0-8-4.9-14.4-11-14.4s-11,6.4-11,14.4C41.9,375.6,46.9,382.1,52.9,382.1z"
			/>
		<path class="st1" d="M61.6,306.1c1.5-2.7,2.3-5.7,2.3-8.8c0-8-4.9-14.4-10.9-14.4s-11,6.5-11,14.4c0,3.1,0.8,6.1,2.3,8.8
			c-3.1,5.5-3.1,12.1,0,17.6c-3.1,5.5-3.1,12.1,0,17.6c-1.5,2.7-2.3,5.7-2.3,8.8c0,8,4.9,14.4,11,14.4s10.9-6.5,10.9-14.4
			c0-3.1-0.8-6.1-2.3-8.8c3-5.5,3-12.1,0-17.6C64.6,318.2,64.6,311.5,61.6,306.1z"/>
		<path class="st1" d="M52.9,294.1c6.1,0,11-6.4,11-14.4s-4.9-14.4-11-14.4s-11,6.4-11,14.4S46.9,294.1,52.9,294.1z"/>
		<path class="st1" d="M52.9,276.5c6.1,0,11-6.4,11-14.4c0-8-4.9-14.4-11-14.4s-11,6.4-11,14.4C41.9,270,46.9,276.5,52.9,276.5z"/>
		<path class="st2" d="M11.9,141.6c-1.5-1.9-2.9-3.9-4.1-6l28.8-4.7L5.5,131c-6-13.2-6.4-28.3-1-41.8L46.2,111L7.7,82.6
			c14.6-25.1,46.8-33.5,71.8-18.9c25.1,14.6,33.5,46.8,18.9,71.8c-1.2,2.1-2.6,4.1-4.1,6.1c2.3,3,4.3,6.2,6,9.6L63,170.7l39.8-13.4
			c5.7,16.9,2.5,35.5-8.5,49.5c18,23,14,56.2-8.9,74.2c-1.4,1.1-2.9,2.1-4.4,3.1c-24.5,15.4-56.8,8-72.2-16.5c-1-1.7-2-3.4-2.8-5.2
			c-8.8-18.2-6.4-39.7,6-55.6C-3,187.6-3,160.7,11.9,141.6L11.9,141.6z"/>
		<path class="st3" d="M105.6,174.2c0,11.8-3.9,23.3-11.2,32.6c18,23,14,56.2-8.9,74.2c-1.4,1.1-2.9,2.1-4.4,3.1
			c-24.5,15.4-56.8,8-72.2-16.5c-1-1.7-2-3.4-2.8-5.2c-8.8-18.2-6.4-39.7,6-55.6C4.9,197.8,105.6,168.3,105.6,174.2z"/>
	</g>
	<path class="st4" d="M525.7,598.4c290.4,0,525.8-5.4,525.8-12s-235.4-12-525.8-12s-525.8,5.4-525.8,12
		C-0.1,593.1,235.3,598.4,525.7,598.4z"/>
	<path class="st4" d="M525.7,691.7c290.4,0,525.8-5.4,525.8-12c0-6.6-235.4-12-525.8-12s-525.8,5.4-525.8,12
		C-0.1,686.3,235.3,691.7,525.7,691.7z"/>
	<path class="st4" d="M525.7,401.2c290.4,0,525.8-5.4,525.8-12c0-6.6-235.4-12-525.8-12s-525.8,5.4-525.8,12
		C-0.1,395.9,235.3,401.2,525.7,401.2z"/>
	<path class="st4" d="M525.7,499.8c290.4,0,525.8-5.4,525.8-12c0-6.6-235.4-12-525.8-12s-525.8,5.4-525.8,12
		C-0.1,494.5,235.3,499.8,525.7,499.8z"/>
	<path class="st2" d="M873.4,91c-4.6-0.9-9.3-0.3-13.6,1.5c-5.2,2.3-11.2,2.3-16.4,0c-6.2-2.7-13.2-2.6-19.3,0.4
		c-1.7,0.9-3.6,1.4-5.5,1.4c-7.8,0-14.3-7.9-15.7-18.4c1.5-1.2,2.9-2.6,3.9-4.2c4.6-7.4,11.7-12.2,19.7-12.2s15,4.7,19.6,12.1
		c2.8,4.5,7.7,7.2,13,7.2h0.2C865.4,78.6,870.8,83.7,873.4,91z"/>
	<path class="st4" d="M897.2,58.2l-12.6,8l7.7-14c-2.2-1.7-4.9-2.7-7.6-2.7h-0.2c-0.9,0-1.7-0.1-2.6-0.2l-4.4,2.7l1.8-3.4
		c-3-1.1-5.7-3.1-7.5-5.7l-7.7,4.9L869,39c-4.1-5.3-10.4-8.5-17.2-8.7c-8,0-15.1,4.8-19.7,12.2c-2.7,4.5-7.7,7.2-13,7h-0.4
		c-8.8,0-15.9,10-15.9,22.4s7.1,22.4,15.9,22.4c1.9,0,3.8-0.5,5.5-1.4c6.1-3,13.1-3.1,19.3-0.4c5.2,2.4,11.2,2.4,16.4,0
		c6.1-2.7,13.1-2.5,19.1,0.4c1.7,0.9,3.6,1.4,5.5,1.4c8.8,0,15.9-10,15.9-22.4C900.6,67.1,899.5,62.4,897.2,58.2z"/>
	<path class="st2" d="M335.9,84c-3.2-0.6-6.6-0.2-9.6,1c-3.6,1.6-7.8,1.6-11.5,0c-4.3-1.9-9.3-1.8-13.5,0.3c-1.2,0.6-2.5,1-3.9,1
		c-5.5,0-10-5.5-11-12.8c1.1-0.8,2-1.8,2.7-3c3.8-7.6,13-10.7,20.6-6.9c3,1.5,5.4,3.9,6.9,6.8c1.9,3.2,5.4,5.1,9.1,5h0.1
		C330.3,75.4,334.1,78.9,335.9,84z"/>
	<path class="st4" d="M352.6,61.1l-8.8,5.6l5.4-9.8c-1.5-1.2-3.4-1.9-5.3-1.9h-0.2c-0.6,0-1.2,0-1.8-0.1l-3,1.9l1.3-2.4
		c-2.1-0.7-4-2.1-5.3-4l-5.4,3.4l3.4-6.2c-2.9-3.7-7.3-6-12-6.1c-5.8,0.2-11,3.5-13.8,8.5c-1.9,3.2-5.4,5-9.1,4.9h-0.3
		c-6.2,0-11.2,7-11.2,15.7s5,15.7,11.2,15.7c1.3,0,2.7-0.3,3.9-1c4.2-2.1,9.2-2.2,13.5-0.3c3.6,1.7,7.8,1.7,11.5,0.1
		c4.3-1.9,9.2-1.8,13.4,0.3c1.2,0.6,2.5,1,3.9,1c6.2,0,11.1-7,11.1-15.7C354.9,67.3,354.1,64,352.6,61.1z"/>
	<path class="st2" d="M179.3,185.4c3.2-0.6,6.5-0.2,9.6,1c3.7,1.6,7.8,1.6,11.5,0c4.3-1.9,9.3-1.8,13.5,0.3c1.2,0.6,2.5,1,3.9,1
		c5.5,0,10-5.6,11-12.9c-1.1-0.8-2-1.8-2.7-3c-3.8-7.6-13-10.7-20.6-6.9c-3,1.5-5.4,3.9-6.9,6.8c-1.9,3.2-5.4,5.1-9.1,5h-0.1
		C184.9,176.9,181.1,180.4,179.3,185.4z"/>
	<path class="st4" d="M162.6,162.5l8.9,5.6l-5.4-9.8c1.5-1.2,3.4-1.9,5.4-1.9h0.1c0.6,0,1.2,0,1.8-0.1l3,1.9l-1.3-2.3
		c2.1-0.7,4-2.1,5.2-4l5.4,3.4l-3.3-6.2c2.9-3.7,7.3-6,12-6.1c5.8,0.2,11,3.5,13.8,8.5c1.9,3.2,5.4,5,9.1,4.9h0.3
		c6.2,0,11.1,7,11.1,15.7s-5,15.7-11.1,15.7c-1.3,0-2.7-0.3-3.9-1c-4.2-2.1-9.2-2.2-13.5-0.3c-1.8,0.8-3.8,1.3-5.8,1.3
		c-2,0-3.9-0.4-5.7-1.2c-4.3-1.9-9.2-1.8-13.4,0.3c-1.2,0.6-2.5,1-3.9,1c-6.2,0-11.2-7-11.2-15.7C160.2,168.8,161,165.5,162.6,162.5
		z"/>
	<path class="st5" d="M687.4,582.4c3.3-6.3-0.4-13.9-4.8-19.5c-4.4-5.6-9.7-11.4-9.6-18.5c0.2-10.2,11-16.2,19.6-21.7
		c6.4-4,12.3-8.8,17.6-14.2c2.2-2.1,4-4.5,5.4-7.3c1.5-4.1,2.1-8.6,1.6-12.9c-0.4-14.6-1.1-29.1-2.2-43.7"/>
	<path class="st6" d="M731.4,443.9c-0.2-5.4-3.2-10.3-7.9-13.1l-3.6,7l0.1-8.5c-6.6-2-13.7,0.6-17.6,6.3c-4.9,7.3-3,17.2,4.3,22.1
		c1.4,0.9,2.9,1.7,4.6,2.1c6.6,1.9,13.7-0.8,17.5-6.5C730.6,450.6,731.5,447.3,731.4,443.9z"/>
	<path class="st6" d="M703.1,551.7c-4,7.8-13.6,10.8-21.4,6.8c-5-2.6-8.3-7.7-8.6-13.3c-0.1-2.2,0.2-4.4,1-6.5
		c3.2-8.2,12.3-12.2,20.5-9.1c4.2,1.6,7.5,5,9.1,9.2l-9.9,8.1l10.9-2.6C704.8,547,704.2,549.5,703.1,551.7z"/>
	<path class="st6" d="M695.3,520.8c-8.1,0.4-15.1-5.4-16.4-13.4c-1.3-8,3.6-15.7,11.4-17.9l-0.1,6.6l3.6-7.1
		c8.8-0.4,16.2,6.4,16.6,15.2c0,0,0,0,0,0C710.8,512.9,704,520.4,695.3,520.8L695.3,520.8z"/>
	<path class="st6" d="M733.8,495.1c-7.7,0.4-14.5-4.8-16.2-12.3c-1.8-7.5,2.1-15.2,9.1-18.2c4.6-2,9.8-1.7,14.2,0.7l-2.8,7.8
		l5.7-5.7c6.5,5.9,6.9,16,1,22.5C741.8,493,737.9,494.8,733.8,495.1L733.8,495.1z"/>
	<path class="st3" d="M729.2,448.2c-3.7,0.4-7.2,1.5-10.9,1.8c-3.7,0.5-7.4-0.8-10-3.5c-1.1-1.7-2.1-3.4-2.9-5.2
		c-1-1.6-2.4-2.9-4-3.8c-4,7.8-1,17.4,6.8,21.4c7.8,4,17.4,1,21.4-6.8c0.7-1.3,1.1-2.6,1.4-4C730.4,448.1,729.8,448.1,729.2,448.2z"
		/>
	<path class="st3" d="M733.8,495.1c-5.6,0.3-10.9-2.4-13.9-7.1c-3.1-4.7-3.5-10.6-1.1-15.6c1.3,0.9,2.3,1.9,3.2,3.2
		c0.9,1.8,2,3.6,3.1,5.3c2.8,2.8,6.6,4.1,10.5,3.7c3.8-0.2,7.5-1.3,11.3-1.6c0.5,0,1.1-0.1,1.6-0.1
		C746.8,489.7,740.8,494.7,733.8,495.1z"/>
	<path class="st3" d="M695.3,520.8c-5.5,0.3-10.8-2.4-13.8-6.9c-3.1-4.6-3.6-10.4-1.4-15.5c1.3,0.9,2.4,2,3.3,3.2
		c1,1.9,2.2,3.6,3.4,5.4c3,2.9,7.1,4.3,11.2,3.9c4-0.2,7.7-1,11.6-1.3C707.7,516,701.9,520.5,695.3,520.8L695.3,520.8z"/>
	<path class="st3" d="M703.1,551.7c-4,7.8-13.6,10.8-21.4,6.8c-5-2.6-8.3-7.7-8.6-13.3c-0.1-2.2,0.2-4.4,1-6.5
		c1.3,0.9,2.5,1.9,3.5,3.1c1.5,1.8,2.5,3.9,4.2,5.7c3.7,3.1,8.3,4.7,13.1,4.6C697.7,552.2,700.4,552,703.1,551.7z"/>
	<path class="st5" d="M41,489.3c3.3-6.3-0.4-13.9-4.8-19.5c-4.4-5.6-9.7-11.4-9.6-18.5c0.2-10.2,11-16.2,19.6-21.7
		c6.4-4,12.3-8.8,17.6-14.2c2.2-2.1,4-4.5,5.4-7.3c1.5-4.1,2.1-8.6,1.6-12.9c-0.4-14.6-1.1-29.1-2.1-43.7"/>
	<path class="st6" d="M84.9,350.8c-0.2-5.4-3.2-10.3-7.9-13.1l-3.6,7.1l0.1-8.5c-6.6-2-13.7,0.6-17.6,6.3c-4.9,7.3-3,17.2,4.3,22.1
		c1.4,0.9,2.9,1.7,4.6,2.1c6.6,1.9,13.7-0.8,17.5-6.5C84.2,357.5,85.1,354.2,84.9,350.8z"/>
	<path class="st6" d="M56.7,458.6c-4,7.8-13.6,10.8-21.4,6.8c-5-2.6-8.3-7.7-8.6-13.3c-0.1-2.2,0.2-4.4,1-6.5
		c3.2-8.2,12.3-12.2,20.5-9.1c4.2,1.6,7.5,5,9.1,9.2l-9.9,8.1l10.9-2.6C58.4,453.8,57.8,456.3,56.7,458.6z"/>
	<path class="st6" d="M48.8,427.7c-8.1,0.4-15.1-5.4-16.4-13.4c-1.3-8,3.6-15.7,11.4-17.9l-0.1,6.6l3.6-7.1
		c6.4-0.3,12.4,3.3,15.1,9.1c3.7,8,0.3,17.4-7.6,21.2C52.9,427.1,50.9,427.6,48.8,427.7L48.8,427.7z"/>
	<path class="st6" d="M87.3,401.9c-5,0.3-9.8-1.9-13-5.7c-5.7-6.7-4.8-16.7,1.9-22.4c5.1-4.3,12.3-5,18.1-1.7l-2.8,7.8l5.7-5.7
		c6.5,5.9,6.9,16,1,22.5C95.4,399.9,91.5,401.7,87.3,401.9L87.3,401.9z"/>
	<path class="st3" d="M82.8,355c-3.7,0.4-7.2,1.5-10.9,1.8c-3.7,0.5-7.4-0.8-10-3.5c-1.1-1.7-2.1-3.4-2.9-5.2c-1-1.6-2.4-2.9-4-3.8
		c-4,7.8-0.9,17.4,6.9,21.4c0.6,0.3,1.2,0.6,1.9,0.8c6.6,2.3,13.9,0.1,18.1-5.5c1.3-1.8,2.3-3.9,2.8-6.1C84,354.9,83.4,355,82.8,355
		z"/>
	<path class="st3" d="M87.3,401.9c-5.6,0.3-10.9-2.4-13.9-7.1c-3.1-4.7-3.5-10.6-1.1-15.6c1.3,0.9,2.3,1.9,3.2,3.2
		c0.9,1.8,2,3.6,3.1,5.3c2.8,2.8,6.6,4.1,10.5,3.7c3.8-0.2,7.5-1.3,11.3-1.6c0.5,0,1.1-0.1,1.6-0.1
		C100.4,396.6,94.4,401.6,87.3,401.9L87.3,401.9z"/>
	<path class="st3" d="M48.8,427.7c-5.5,0.3-10.8-2.4-13.8-6.9c-3.1-4.6-3.6-10.4-1.4-15.5c1.3,0.9,2.4,2,3.3,3.2
		c1,1.9,2.2,3.6,3.4,5.4c3,2.9,7.1,4.3,11.2,3.9c4-0.2,7.7-1,11.6-1.3C61.3,422.8,55.5,427.3,48.8,427.7z"/>
	<path class="st3" d="M56.7,458.6c-4,7.8-13.6,10.8-21.4,6.8c-5-2.6-8.3-7.7-8.6-13.3c-0.1-2.2,0.2-4.4,1-6.5
		c1.3,0.9,2.5,1.9,3.5,3.1c1.5,1.8,2.5,3.9,4.2,5.7c3.7,3.1,8.3,4.7,13.1,4.6C51.3,459.1,54,458.9,56.7,458.6z"/>
	<path class="st5" d="M425.1,382.7c-3.3-6.3,0.4-13.9,4.8-19.5c4.4-5.6,9.7-11.4,9.6-18.5c-0.2-10.2-10.9-16.2-19.6-21.7
		c-6.4-4-12.3-8.8-17.6-14.2c-2.2-2.1-4.1-4.5-5.4-7.3c-1.5-4.1-2-8.6-1.6-12.9c0.4-14.6,1.1-29.1,2.1-43.7"/>
	<path class="st6" d="M381.1,244.3c0.2-5.4,3.2-10.3,7.9-13.1l3.6,7.1l-0.1-8.5c1.7-0.5,3.5-0.7,5.2-0.6c6.4,0.3,12,4.4,14.2,10.5
		c2.2,6.1,0.5,12.8-4.2,17.2c-6.4,5.9-16.4,5.5-22.3-1c-0.7-0.8-1.4-1.6-1.9-2.6C381.8,250.5,381,247.4,381.1,244.3z"/>
	<path class="st6" d="M409.4,352c4,7.8,13.6,11,21.5,6.9c7.8-4,11-13.6,6.9-21.5c-4-7.8-13.6-11-21.5-6.9c-3.6,1.8-6.3,4.9-7.7,8.7
		l9.9,8.1l-10.9-2.6C407.6,347.3,408.2,349.8,409.4,352z"/>
	<path class="st6" d="M417.2,321.1c8.1,0.4,15.1-5.4,16.4-13.4c1.3-8-3.6-15.7-11.4-17.9l0.1,6.6l-3.6-7.1
		c-8.8-0.3-16.2,6.5-16.5,15.3C401.9,313.3,408.6,320.6,417.2,321.1L417.2,321.1z"/>
	<path class="st6" d="M378.7,295.4c5,0.3,9.8-1.9,13-5.7c5.6-6.8,4.7-16.8-2.1-22.5c-1.1-0.9-2.4-1.7-3.8-2.3
		c-4.6-2-9.8-1.7-14.2,0.7l2.8,7.8l-5.8-5.6c-3.1,2.8-5,6.8-5.1,11c-0.1,1.5,0.1,2.9,0.4,4.4C365.7,290.1,371.7,295.1,378.7,295.4
		L378.7,295.4z"/>
	<path class="st3" d="M383.3,248.5c3.7,0.4,7.2,1.5,10.9,1.8c3.7,0.5,7.4-0.8,10-3.5c1.1-1.7,2.1-3.4,2.9-5.2c1-1.6,2.4-2.9,4-3.8
		c4,7.8,0.9,17.4-6.9,21.4c-0.6,0.3-1.2,0.6-1.9,0.8c-6.6,2.3-13.9,0.1-18.1-5.6c-1.3-1.8-2.3-3.9-2.7-6.1
		C382.1,248.4,382.7,248.4,383.3,248.5z"/>
	<path class="st3" d="M378.7,295.4c5.6,0.2,10.8-2.4,13.9-7.1c3.1-4.7,3.5-10.6,1.1-15.6c-1.3,0.9-2.3,1.9-3.2,3.2
		c-0.9,1.8-2,3.6-3.1,5.3c-2.8,2.8-6.6,4.1-10.5,3.7c-3.8-0.2-7.5-1.3-11.3-1.6c-0.5,0-1.1-0.1-1.6-0.1
		C365.7,290,371.7,295,378.7,295.4L378.7,295.4z"/>
	<path class="st3" d="M417.2,321.1c5.5,0.3,10.8-2.4,13.8-6.9c3.1-4.6,3.6-10.4,1.4-15.5c-1.3,0.9-2.4,2-3.3,3.2
		c-1,1.9-2.2,3.6-3.4,5.4c-3,2.9-7.1,4.3-11.2,3.9c-4.1-0.2-7.7-1-11.6-1.3C404.7,316.3,410.5,320.8,417.2,321.1z"/>
	<path class="st3" d="M409.4,352c4,7.8,13.5,10.9,21.3,6.9c7.3-3.7,10.5-12.3,7.6-19.9c-1.3,0.9-2.5,1.9-3.5,3.1
		c-1.5,1.8-2.6,3.9-4.2,5.7c-3.7,3.1-8.3,4.7-13.1,4.6C414.7,352.5,412.1,352.4,409.4,352z"/>
	<path class="st7" d="M836,385.6c71.4,0.3,129.6-57.3,129.9-128.7c0.3-71.4-57.3-129.6-128.7-129.9
		c-71.4-0.3-129.6,57.3-129.9,128.7c0,0.2,0,0.4,0,0.6C707.2,327.6,764.8,385.5,836,385.6z"/>
	<path class="st6" d="M891.3,289.7c-6.2-5.5-13.2-10.1-20.6-13.8c-6.2-3-8.4-2.9-12.8,0.2c-3.6,2.6-6,5.1-10.2,4.2
		s-12.4-7.2-20.4-15.2s-14.2-16.3-15.1-20.5c-0.9-4.3,1.6-6.6,4.2-10.2c3.1-4.4,3.2-6.7,0.2-12.9c-3.7-7.4-8.3-14.4-13.8-20.7
		c-4.5-4.5-5.5-3.5-8-2.6c-2.5,1.1-5,2.4-7.3,3.9c-3.8,2.2-6.8,5.4-8.8,9.3c-1.8,3.8-3.8,10.8,6.5,29.1
		c15.3,28.2,38.4,51.3,66.5,66.8c18.3,10.3,25.2,8.3,29,6.5c3.9-1.9,7.1-5,9.2-8.8c1.5-2.3,2.8-4.8,3.9-7.3
		C894.8,295.2,895.8,294.2,891.3,289.7z"/>
	<path class="st3" d="M836,127c-52.2,0-99.2,31.6-119,79.8c-19.9,48.3-8.9,103.9,27.9,141c50.7,50.1,132.4,49.6,182.5-1.1
		c50.1-50.7,49.6-132.4-1.1-182.5C902.3,140.5,869.8,127.1,836,127L836,127z M836,368.4c-45.2-0.1-85.9-27.4-103.1-69.2
		c-17.3-41.9-7.7-90,24.2-122.2c43.6-43.6,114.3-43.5,157.8,0.1c21,21,32.7,49.5,32.6,79.1c0.1,45.3-27.1,86.1-68.9,103.6
		C865.2,365.5,850.7,368.4,836,368.4z"/>
	<path class="st7" d="M540.4,582c71.4,0.3,129.6-57.3,129.9-128.7c0.3-71.4-57.3-129.6-128.7-129.9
		c-71.4-0.3-129.6,57.3-129.9,128.7c0,0.2,0,0.4,0,0.6C411.5,524,469.1,581.9,540.4,582z"/>
	<path class="st6" d="M613.6,413.7L575,453c-0.1,0.1-0.1,0.1-0.2,0.2c0,0.1-0.1,0.2-0.1,0.3c0,0.1,0,0.2,0.1,0.3
		c0,0.1,0.1,0.2,0.2,0.2l27,28.9c1.8,1.8,1.8,4.8,0,6.6c-0.2,0.2-0.4,0.4-0.7,0.6c-1.8,1.2-4.3,1-5.9-0.6l-26.9-28.8
		c-0.3-0.3-0.7-0.3-1,0l-6.6,6.6c-5.4,5.6-12.8,8.7-20.6,8.7c-7.9,0-15.5-3.3-21-9l-6.3-6.5c-0.3-0.3-0.7-0.3-1,0l-26.8,28.7
		c-1.9,1.8-4.8,1.7-6.6-0.1c-1.8-1.8-1.8-4.7,0-6.5l26.9-28.8c0.2-0.3,0.2-0.7,0-1l-38.5-39.4c-0.2-0.2-0.5-0.3-0.8-0.2
		c-0.3,0.1-0.5,0.4-0.4,0.7v78.8c0,3,1.2,6,3.4,8.1c2.1,2.2,5,3.4,8.1,3.4h126c6.3,0,11.4-5.2,11.4-11.5v-78.8c0-0.1,0-0.3-0.1-0.4
		c-0.1-0.1-0.2-0.2-0.3-0.3C614.1,413.4,613.7,413.4,613.6,413.7L613.6,413.7z"/>
	<path class="st6" d="M540.4,466.8c5.3,0.1,10.4-2,14.1-5.8l56.1-57.4c-2-1.7-4.5-2.6-7.1-2.6H477.4c-2.6,0-5.1,0.9-7.1,2.6
		l56.1,57.4C530.1,464.7,535.1,466.8,540.4,466.8z"/>
	<path class="st3" d="M538.7,323.4c-52.2,0-99.2,31.6-119,79.8c-19.9,48.3-9,103.9,27.9,141c50.7,50.1,132.4,49.6,182.5-1.1
		c50.1-50.7,49.6-132.4-1.1-182.5C605,336.9,572.6,323.5,538.7,323.4L538.7,323.4z M538.7,564.8c-45.2-0.1-85.9-27.4-103.1-69.2
		c-17.3-41.9-7.7-90,24.2-122.2c43.9-43.4,114.7-43,158.2,0.9s43,114.7-0.9,158.2C596.3,553.2,568.1,564.8,538.7,564.8L538.7,564.8z
		"/>
	<path class="st7" d="M235,485.5c71.4,0.3,129.6-57.3,129.9-128.7c0.3-71.4-57.3-129.6-128.7-129.9
		c-71.4-0.3-129.6,57.3-129.9,128.7c0,0.2,0,0.4,0,0.6C106.1,427.4,163.7,485.3,235,485.5C235,485.5,235,485.5,235,485.5z"/>
	<path class="st6" d="M235,294.3l-51.3,118.9l4.8,4.8l46.5-20.6l46.5,20.6l4.8-4.8L235,294.3z"/>
	<path class="st3" d="M235,226.8c-52.2,0-99.2,31.5-119,79.8c-19.9,48.3-9,103.9,27.9,141c50.7,50.1,132.4,49.6,182.5-1
		c50.1-50.7,49.6-132.4-1-182.5C301.2,240.3,268.8,226.9,235,226.8L235,226.8z M235,468.2c-45.2-0.1-85.9-27.4-103.1-69.2
		c-17.3-41.9-7.7-90,24.2-122.2c44-43.4,114.8-43,158.2,1c43.4,44,43,114.8-1,158.2C292.4,456.6,264.3,468.2,235,468.2L235,468.2z"
		/>
	
		<linearGradient id="SVGID_1_" gradientUnits="userSpaceOnUse" x1="585.7613" y1="3603.427" x2="585.7613" y2="3380.8398" gradientTransform="matrix(1 0 0 1 234 -2918)">
		<stop  offset="0" style="stop-color:#808080;stop-opacity:0.25"/>
		<stop  offset="0.54" style="stop-color:#808080;stop-opacity:0.12"/>
		<stop  offset="1" style="stop-color:#808080;stop-opacity:0.1"/>
	</linearGradient>
	<path class="st8" d="M847.9,519c-1.2-2.9-2.4-5.7-3.6-8.6c-1-2.8-2.5-5.4-4.4-7.6c-0.7-0.8-1.6-1.5-2.6-1.9
		c-1.1-0.4-2.2-0.6-3.3-0.7c-1.8-0.2-3.5-0.3-5.3-0.1c-0.7-0.2-1.5-0.5-2.2-0.8c7.8-2.1,13.4-9,13.7-17.1v-0.8
		c0-7.4-4.4-14.2-11.3-17.1c-2.2-0.9-4.6-1.4-7-1.4c-3.4,0-6.7,0.9-9.6,2.8c-7.8-1.8-15.8,2.1-19.3,9.4c-4.3,4.2-6.7,9.9-6.6,15.9
		v0.8c0.3,10,6.8,18.1,15,18.9c-0.9,0.4-1.7,0.9-2.4,1.6c-2.5,2.4-2.9,6.3-3.2,9.8l-0.2,2.6l-4.3,1.6c-0.1,0-0.3,0.1-0.4,0.3
		c-0.1,0.1-0.2,0.3-0.2,0.4c0,0.1,0,0.3,0.1,0.4c0.1,0.1,0.2,0.3,0.3,0.3l4.1,3v0.7c0,0.3,0,0.6,0.1,0.8c-0.7,0.6-1.3,1.4-1.6,2.3
		c-0.4,1.4-0.5,2.8-0.4,4.2l0.2,3.6c0,2.7,0.3,5.4,1.1,8c0.5,1.6,2.9,5.5,4.6,5.5c-1.1,7.3-1.8,14.7-2,22.1
		c-0.2,0.2,0.3,0.4,1.3,0.5c0.9,7.1,4,27.2,9.3,36c0.8,2.9,1.5,5.8,2,8.7c0,0,1.5,19,3.6,24.7c1.7,4.8,3.1,16.7,3.5,20.1
		c-0.4,0.1-0.7,0.3-0.9,0.5c-0.3,0.3-0.4,0.6-0.5,0.9c-1,3.1-7.6,7.8-7.6,7.8c-2,1-3.9,2.2-5.7,3.7c-2.1,1.9-2,3.6,7.2,2.5
		c17.8-2.1,20.8-7.8,20.8-7.8s-0.3-1-0.7-2.2c-0.5-1.9-1.3-3.8-2.3-5.5c-0.3-0.2-0.5,0.2-0.8,0.8c-1.3-8.3-1.7-16.6-1.2-25
		c0.3-5.1-0.4-10.1-2-14.9c-0.6-3.2-0.6-6.5,0-9.8c1-4.1-4.1-24.2-4.1-24.2l-2.9-14.8c0.4,0.5,0.7,1.1,0.8,1.7l0.1,0.3l0.1,0.4
		c0,0.2,0.1,0.3,0.2,0.4c2,8.3,7.4,31.2,7.4,34.6c0,4.1,5.1,14.4,5.1,14.4s2,17,5.6,23.6c2.7,5.1,2.8,12.5,2.6,15.8
		c-0.2,1.8-0.8,3.6-1.6,5.3c-0.8,1-1.5,2.1-1.9,3.3l-0.1,0.2c0,0-1.5,3.1-0.5,3.6c3.9,1.5,8.1,2.1,12.2,1.5c0,0,2-2.6,2-3.6
		c0-0.6-0.1-1.2-0.2-1.8c-0.4-2.4-1.1-6.3-1.1-6.3c0-2.1-0.5-4.3-1.3-6.3l-0.5-14.4c0.9-9.7-0.3-19.6-3.6-28.8c0,0-2.6-9.2-2-11.8
		s-1-29.8-1-29.8l-0.2-0.4c-0.1-1.9-0.1-3.9,0.2-5.8c0.2-6.6-0.5-13.1-2-19.5c-0.4-1.4-0.7-2.8-0.7-4.3c0.1-1.1,0.5-4.2,0.9-8.1
		c5-0.2,10-0.6,15-1.3c0.5,0,0.9-0.2,1.3-0.5c0.2-0.3,0.3-0.7,0.3-1C853.6,533.7,850.8,526.2,847.9,519z M837.7,535.3
		c0.5-3.7,1.1-7.3,1.7-9.9l0.1,0.2c1,2.7,1.8,5.4,2.5,8.1C840.5,534.4,839.1,534.9,837.7,535.3L837.7,535.3z"/>
	<path class="st9" d="M798.2,577c0,0,3,27.5,9.6,38.1c0.8,2.8,1.5,5.7,2,8.6c0,0,1.5,18.8,3.5,24.4s3.5,20.9,3.5,20.9
		s7.1,8.1,9.6,1.5c-1.6-8.7-2.1-17.6-1.5-26.4c0.3-5-0.4-10-2-14.7c-0.6-3.2-0.6-6.5,0-9.6c1-4.1-4.1-23.9-4.1-23.9l-4-19.8
		L798.2,577z"/>
	<path class="st10" d="M830.1,675.6c0,0-3,5.6-20.7,7.6c-9.2,1-9.3-0.6-7.2-2.5c1.8-1.4,3.7-2.6,5.7-3.6c0,0,6.6-4.6,7.6-7.6
		c1-3.1,4.6-0.5,4.6-0.5c5.1,7.6,6.1-2,7.1-1c1,1.7,1.8,3.5,2.3,5.4C829.8,674.6,830.1,675.6,830.1,675.6z"/>
	<path class="st3" d="M830.1,675.6c0,0-3,5.6-20.7,7.6c-9.2,1-9.3-0.6-7.2-2.5c1.4,0.9,4.4,1.3,10.2-1.1c8.4-3.5,14.5-5.5,17-6.3
		C829.8,674.6,830.1,675.6,830.1,675.6z"/>
	<path class="st3" d="M825,644.1c0.3-5-0.4-10-2-14.7c-0.6-3.2-0.6-6.5,0-9.6c1-4.1-4.1-23.9-4.1-23.9l-4-19.8l-3.5,0.2l4,19.6
		c0,0,5.1,19.8,4.1,23.9c-0.6,3.2-0.6,6.5,0,9.6c1.6,4.7,2.3,9.7,2,14.7c-0.6,8.8-0.1,17.7,1.5,26.4c-0.3,0.8-0.8,1.6-1.5,2.1
		c1.5,1,3.6,0.5,4.6-1c0.2-0.3,0.4-0.7,0.4-1.1C825,661.8,824.4,652.9,825,644.1z"/>
	<path class="st7" d="M821.7,465.4c-3.4,0-6.7,0.9-9.6,2.7c-7.8-1.8-15.8,2-19.3,9.2c-4.3,4.1-6.7,9.8-6.6,15.7
		c0,10.8,7.2,19.6,16.2,19.6c6.4,0,12.1-4.6,14.7-11.3c1.5,0.4,3,0.6,4.6,0.6c10.1,0,18.3-8.2,18.3-18.3
		C840,473.6,831.8,465.4,821.7,465.4L821.7,465.4z"/>
	<path class="st9" d="M836.7,579.5l1.5,4.1c0,0,1.5,26.9,1,29.5c-0.5,2.5,2,11.6,2,11.6c3.3,9.1,4.5,18.8,3.5,28.5l0.5,14.2
		c0,0,2,5.6,1,6.6c-1,1-8.6-0.9-8.6-0.9s1-10.7-2.6-17.3s-5.6-23.4-5.6-23.4s-5.1-10.2-5.1-14.2c0-4.1-8.1-37.1-8.1-37.1
		L836.7,579.5z"/>
	<path class="st7" d="M797.2,579c0,0,0.5-18.3,2.6-23.9c1-2.6,1.8-5.3,2.3-8.1c0,0,30.6,5.6,33.2,3.5c0.1,2.6,0.5,5.1,1,7.6
		c1.5,6.3,2.2,12.8,2,19.3c-0.6,6.1,0,6.1,0,6.1s-20.8,3.1-21.3,0c-0.5-3.1-2-3-2-3S796.2,580,797.2,579z"/>
	<g class="st0">
		<path class="st3" d="M813.9,579c0,0-12.8-0.3-16.7-1v1c-1,1,17.7,1.5,17.7,1.5c0.3,0,0.5,0.1,0.7,0.3C815,579,813.9,579,813.9,579
			z"/>
		<path class="st3" d="M836.2,558.1c-0.6-2.5-0.9-5.1-1-7.6c-0.3,0.2-0.6,0.3-0.9,0.3c0.1,2,0.4,3.9,0.9,5.8
			c1.4,6.3,2.1,12.8,2,19.3c-0.6,6.1,0,6.1,0,6.1s-16.4,2.4-20.4,0.8c0,0.2,0.1,0.5,0.2,0.7c0.5,3.1,21.3,0,21.3,0s-0.5,0,0-6.1
			C838.3,571,837.7,564.5,836.2,558.1z"/>
	</g>
	<path class="st9" d="M819.5,497.4c0.4,1,1.1,1.8,1.9,2.5c0.5,0.4,1.2,0.7,1.8,0.8c-1.1,0.7-2.4,1.2-3.5,1.8
		c-1.8,1.2-3.5,2.5-5.1,3.9c-1.7,1.4-3.7,2.2-5.9,2.3c1.5-2.1,1.9-4.8,0.8-7.2c-0.5-0.8-0.8-1.6-0.9-2.5c0.2-1.5,1.2-2.7,2.5-3.4
		c1-0.7,2-1.3,3-1.9c0.8-0.5,2-1.5,3-1.5c1,0,1.1,0.9,1.3,1.8C818.6,495.2,819,496.3,819.5,497.4z"/>
	<path class="st3" d="M819.5,497.4c0.4,1,1.1,1.8,1.9,2.5c0.5,0.4,1.2,0.7,1.8,0.8c-1.1,0.7-2.4,1.2-3.5,1.8
		c-1.8,1.2-3.5,2.5-5.1,3.9c-1.7,1.4-3.7,2.2-5.9,2.3c1.5-2.1,1.9-4.8,0.8-7.2c-0.5-0.8-0.8-1.6-0.9-2.5c0.2-1.5,1.2-2.7,2.5-3.4
		c1-0.7,2-1.3,3-1.9c0.8-0.5,2-1.5,3-1.5c1,0,1.1,0.9,1.3,1.8C818.6,495.2,819,496.3,819.5,497.4z"/>
	<path class="st9" d="M831.3,527.4c6.5,0,11.7-5.2,11.7-11.6c0-6.5-5.2-11.7-11.6-11.7s-11.7,5.2-11.7,11.6c0,0,0,0,0,0.1
		C819.7,522.1,824.9,527.4,831.3,527.4C831.3,527.4,831.3,527.4,831.3,527.4z"/>
	<path class="st10" d="M847.8,681.7c0,1-2,3.6-2,3.6c-4.1,0.5-8.3,0-12.1-1.5c-1-0.5,0.5-3.6,0.5-3.6l0.1-0.2
		c0.5-1.2,1.1-2.3,1.9-3.3c0.9-1.6,1.4-3.4,1.6-5.2c3.1-5.2,8.7,2.2,8.7,2.2s0.7,3.9,1.1,6.2C847.7,680.7,847.8,681.4,847.8,681.7z"
		/>
	<path class="st3" d="M847.8,681.7c0,1-2,3.6-2,3.6c-4.1,0.5-8.3,0-12.1-1.5c-1-0.5,0.5-3.6,0.5-3.6l0.1-0.2c3.4,1.6,7.2,2.4,11,2.3
		l2.3-2.3C847.7,680.7,847.8,681.4,847.8,681.7z"/>
	<path class="st9" d="M808.1,502.7c6.3,0,11.5-5.1,11.5-11.4c0-6.3-5.1-11.5-11.4-11.5c-6.3,0-11.5,5.1-11.5,11.4c0,0,0,0,0,0
		C796.7,497.6,801.8,502.7,808.1,502.7C808.1,502.7,808.1,502.7,808.1,502.7z"/>
	<path class="st9" d="M798.9,514.2c-2.5,2.4-2.9,6.2-3.2,9.6l-0.4,5.1c-0.1,1.4-0.2,2.7-0.1,4.1c0,0.8,0.2,1.7,0.3,2.6
		c0.1,0.9,0.1,2,0.1,3v7.5c-0.1,1.5,0.2,3.1,0.8,4.5c0.7,1.4,2.4,2,3.9,1.4c0.8-0.6,1.4-1.5,1.6-2.5c1.3-3,2.1-6.2,2.6-9.5
		c0.1-1.1,0.1-2.3,0.2-3.4c0.1-1.1,0.3-2.3,0.5-3.4c0.7-4.8,1-9.6,1.4-14.4c0.1-1.4,1.4-7-0.5-7.6c-0.9-0.3-2.8,0.6-3.6,0.9
		C801.1,512.5,799.9,513.2,798.9,514.2z"/>
	<path class="st3" d="M798.9,514.2c-2.5,2.4-2.9,6.2-3.2,9.6l-0.4,5.1c-0.1,1.4-0.2,2.7-0.1,4.1c0,0.8,0.2,1.7,0.3,2.6
		c0.1,0.9,0.1,2,0.1,3v7.5c-0.1,1.5,0.2,3.1,0.8,4.5c0.7,1.4,2.4,2,3.9,1.4c0.8-0.6,1.4-1.5,1.6-2.5c1.3-3,2.1-6.2,2.6-9.5
		c0.1-1.1,0.1-2.3,0.2-3.4c0.1-1.1,0.3-2.3,0.5-3.4c0.7-4.8,1-9.6,1.4-14.4c0.1-1.4,1.4-7-0.5-7.6c-0.9-0.3-2.8,0.6-3.6,0.9
		C801.1,512.5,799.9,513.2,798.9,514.2z"/>
	<path class="st10" d="M822.5,498.7c0,0-8.6,6.6-13.7,8.1c0,0-3,3.4-3.5,4.3c-0.5,0.8-1.5,10-2.6,12c-1,2-3.5,6.6,0,11.2
		c0.5,2,0.7,4.1,0.5,6.1c-0.5,1.5-2.3,7.1-0.7,7.4c1.7,0.3,6.7,3.8,11.3,2.8s21.5,3.9,21.5,3.9s2.8-26.2,4.8-30.8l-4.6-1.5
		c0,0-12.6-7.6-5.1-19.3C830.6,502.7,823.5,501.2,822.5,498.7z"/>
	<path class="st7" d="M791.1,529.3l10.5,7.4c0.3,0.2,0.6,0.2,0.9,0l2.8-2.1c0.1-0.1,0.2-0.2,0.2-0.3c0.1-0.3,0.1-0.7-0.2-0.9l-8-7.2
		c-0.2-0.2-0.5-0.3-0.8-0.2l-5.2,1.9c-0.1,0-0.3,0.1-0.3,0.2c-0.1,0.1-0.2,0.2-0.2,0.4c0,0.1,0,0.3,0.1,0.4
		C790.9,529.1,791,529.2,791.1,529.3z"/>
	<path class="st9" d="M794.6,551.7c-0.7-2.6-1.1-5.2-1.1-7.9l-0.2-3.6c-0.2-1.4,0-2.8,0.4-4.1c0.8-1.9,2.4-3.3,4.3-3.8
		c1.9-0.5,3.9-0.7,5.9-0.4c0.3,0,0.5,0.1,0.8,0.2c0.2,0.2,0.3,0.4,0.4,0.7c0.6,1.2,0.7,2.5,0.2,3.7c-0.3,0.5-0.7,0.9-1.2,1.2
		c-1.4,1-3,1.7-4.4,2.8c-0.3,0.2-0.5,0.4-0.6,0.8c-0.1,0.3-0.1,0.5,0,0.8c0.2,0.7,0.4,1.4,0.7,2.1c0.1,0.3,0.3,0.6,0.6,0.9
		c0.2,0.2,0.6,0.3,0.8,0.5c0.6,0.4,1.7,1,1.6,1.8c-0.6,2.7-1.4,5.4-2.3,8C799.5,560.3,795.4,553.9,794.6,551.7z"/>
	<g class="st0">
		<path class="st3" d="M810.9,550.5h-0.3c1.1,0.2,2.2,0.2,3.3,0h0.3C813.1,550.4,812,550.4,810.9,550.5z"/>
		<path class="st3" d="M837.4,522.8c-1.8,4.1-4.5,26.3-5,30.7c1.8,0.5,2.9,0.8,2.9,0.8s2.8-26.1,4.8-30.8L837.4,522.8z"/>
	</g>
	<path class="st9" d="M831.7,516.1c0.2,1,0.8,1.9,1.7,2.5c1.1,0.9,2.1,1.9,2.9,3c1.3,1.8,2.3,3.8,2.9,5.9c1,2.6,1.8,5.3,2.4,8
		c-6.4,3-13.8,2.9-20.6,4.8c-3,0.8-5.6,2.4-7.7,4.6c-2.1,2.3-3.2,5.3-2.8,8.4c0,0.2,0.1,0.4,0.2,0.5c0.2,0.3,0.6,0.4,0.9,0.4
		c1.7,0,3.4-0.6,4.7-1.6c1.3-1.1,2.6-2.2,3.6-3.6c0.7-0.9,1.6-1.5,2.6-1.9c3.8-0.9,7.7-1.3,11.6-1.1c5.8-0.1,11.5-0.6,17.3-1.4
		c0.4,0.1,0.8-0.1,1.1-0.4c0.3-0.3,0.4-0.7,0.4-1.2c0.6-7.6-2.3-15.1-5.2-22.2c-1.2-2.8-2.4-5.7-3.6-8.5c-1-2.7-2.5-5.3-4.4-7.5
		c-0.7-0.8-1.6-1.5-2.6-1.9c-1.1-0.4-2.3-0.6-3.4-0.6c-1.9-0.3-3.8-0.3-5.7-0.1c-0.3,1-0.5,1.9-0.5,2.9c0.3,3.5,1.4,6.9,3.1,9.9
		C830.9,515.6,831.5,515.6,831.7,516.1z"/>
	<path class="st11" d="M811.1,522.6c-0.9,1.5-1.3,3.2-1.3,4.9c0,0.7,0.1,1.4,0.3,2c0.4,0.9,0.9,1.7,1.6,2.4c0.7,0.7,1.6,1.2,2.5,1.5
		"/>
	<path class="st7" d="M817.7,480.1c-0.6,0-1.3,0.1-1.9,0.3c-2.5-3-6.4-4.6-10.3-4.4c-6.2,0-11.1,3.2-11.1,7.1s5,7.1,11.1,7.1
		c2.3,0,4.6-0.5,6.7-1.4c1,2,2.9,3.3,5.1,3.4c2.2,0.1,4.3-1,5.5-2.8c1.8-2.8,0.9-6.6-1.9-8.4C819.9,480.4,818.8,480.1,817.7,480.1
		L817.7,480.1z"/>
	<path class="st3" d="M818.2,490.8c-2.3,0-4.5-1.3-5.5-3.5c-2.1,1-4.4,1.4-6.7,1.4c-6.1,0-11.1-3.2-11.1-7.1c0-0.2,0-0.5,0-0.7
		c-0.4,0.7-0.6,1.5-0.6,2.2c0,3.9,5,7.1,11.1,7.1c2.3,0,4.6-0.5,6.7-1.4c1.4,3,5.1,4.3,8.1,2.8c1.7-0.8,3-2.5,3.3-4.4
		C822.6,489.4,820.5,490.8,818.2,490.8L818.2,490.8z"/>
	<path class="st3" d="M792.9,480.4c3.5-7.2,11.5-11.1,19.3-9.2c8.3-5.2,19.2-2.8,24.7,5.3c1.7,2.6,2.8,5.6,3,8.7v-1.5
		c0-6.6-3.6-12.7-9.4-15.9c-5.8-3.2-12.8-3.1-18.4,0.4c-7.8-1.8-15.8,2-19.3,9.2c-4.3,4.1-6.7,9.8-6.6,15.7v1.5
		C786.5,489.2,788.9,484.1,792.9,480.4z"/>
	<path class="st5" d="M909,484.2c3.3-6.3-0.4-13.9-4.8-19.5c-4.4-5.6-9.7-11.4-9.6-18.5c0.2-10.2,10.9-16.2,19.6-21.7
		c6.4-4,12.3-8.8,17.6-14.2c2.2-2.1,4-4.5,5.4-7.3c1.5-4.1,2-8.6,1.6-12.9c-0.4-14.6-1.1-29.1-2.1-43.7"/>
	<path class="st6" d="M952.9,345.7c-0.2-5.4-3.2-10.3-7.9-13l-3.6,7.1l0.1-8.5c-1.7-0.5-3.5-0.7-5.2-0.6c-6.4,0.3-12,4.5-14.2,10.5
		c-2.2,6.1-0.5,12.8,4.2,17.2c6.4,5.9,16.4,5.4,22.3-1c0.7-0.8,1.4-1.6,1.9-2.6C952.3,352,953,348.9,952.9,345.7z"/>
	<path class="st6" d="M924.6,453.5c-4,7.8-13.6,10.9-21.5,6.9c-7.8-4-10.9-13.6-6.9-21.5c4-7.8,13.6-10.9,21.5-6.9
		c3.6,1.8,6.3,4.9,7.7,8.6l-9.9,8.1l10.9-2.6C926.4,448.7,925.8,451.3,924.6,453.5z"/>
	<path class="st6" d="M916.8,422.6c-8.1,0.4-15.1-5.4-16.4-13.4c-1.3-8,3.6-15.7,11.4-17.9l-0.1,6.6l3.6-7.1
		c8.8-0.4,16.2,6.5,16.6,15.3c0.1,2-0.2,4.1-0.9,6c-1.4,4-4.4,7.2-8.2,9C920.9,422,918.8,422.5,916.8,422.6L916.8,422.6z"/>
	<path class="st6" d="M955.3,396.9c-5,0.3-9.8-1.9-13-5.7c-5.6-6.8-4.7-16.8,2.1-22.5c1.1-0.9,2.4-1.7,3.8-2.3
		c4.6-2,9.8-1.7,14.2,0.8l-2.8,7.8l5.8-5.6c3.1,2.8,5,6.8,5.2,11c0.1,1.5-0.1,2.9-0.4,4.4C968.4,391.6,962.3,396.6,955.3,396.9
		L955.3,396.9z"/>
	<path class="st3" d="M950.8,350c-3.7,0.4-7.2,1.6-10.9,1.8c-3.7,0.5-7.4-0.8-10-3.5c-1.1-1.7-2.1-3.4-2.9-5.2c-1-1.6-2.4-2.9-4-3.8
		c-4,7.8-0.9,17.4,6.9,21.4c0.6,0.3,1.2,0.6,1.9,0.8c6.6,2.3,13.9,0.1,18.1-5.6c1.3-1.8,2.3-3.9,2.7-6.1
		C952,349.9,951.4,349.9,950.8,350z"/>
	<path class="st3" d="M955.3,396.9c-5.6,0.3-10.9-2.4-13.9-7.1c-3.1-4.7-3.5-10.6-1.2-15.6c1.3,0.8,2.3,1.9,3.2,3.2
		c0.9,1.8,2,3.6,3.1,5.3c2.8,2.8,6.6,4.1,10.5,3.7c3.8-0.2,7.5-1.3,11.3-1.6c0.5,0,1.1-0.1,1.6-0.1
		C968.4,391.5,962.4,396.5,955.3,396.9L955.3,396.9z"/>
	<path class="st3" d="M916.8,422.6c-8.5,0.4-15.8-6-16.5-14.5c-0.2-2.7,0.2-5.4,1.3-7.9c1.3,0.9,2.4,2,3.3,3.2
		c1.3,1.7,2,3.8,3.4,5.4c3,2.9,7.1,4.3,11.2,4c4.1-0.1,7.7-1.1,11.6-1.4C929.3,417.8,923.5,422.3,916.8,422.6L916.8,422.6z"/>
	<path class="st3" d="M924.6,453.5c-4.2,7.7-13.8,10.6-21.5,6.5c-6.9-3.7-10.1-12-7.4-19.4c1.3,0.9,2.5,1.9,3.5,3.1
		c1.5,1.8,2.5,3.9,4.2,5.7c3.7,3.1,8.3,4.7,13.1,4.6C919.3,454,922,453.8,924.6,453.5z"/>
	<path class="st5" d="M959.4,680.8c3.3-6.3-0.4-13.9-4.8-19.5c-4.4-5.6-9.7-11.4-9.6-18.5c0.2-10.2,10.9-16.2,19.6-21.7
		c6.4-4,12.3-8.8,17.6-14.2c2.2-2.1,4-4.5,5.4-7.3c1.5-4.1,2-8.6,1.6-12.9c-0.4-14.6-1.1-29.1-2.2-43.7"/>
	<path class="st6" d="M1003.4,542.4c-0.2-5.4-3.2-10.3-7.9-13l-3.6,7.1l0.1-8.5c-1.7-0.5-3.4-0.7-5.2-0.6c-6.4,0.3-12,4.5-14.2,10.5
		c-2.2,6.1-0.5,12.8,4.2,17.2c6.4,5.9,16.4,5.4,22.3-1c0.7-0.8,1.4-1.6,1.9-2.6C1002.8,548.6,1003.6,545.5,1003.4,542.4
		L1003.4,542.4z"/>
	<path class="st6" d="M975.1,650.1c-4,7.8-13.6,10.9-21.5,6.9c-7.8-4-10.9-13.6-6.9-21.5c4-7.8,13.6-10.9,21.5-6.9
		c3.6,1.8,6.3,4.9,7.7,8.7l-9.9,8.1l10.9-2.6C976.9,645.4,976.3,647.9,975.1,650.1z"/>
	<path class="st6" d="M967.3,619.2c-8.1,0.4-15.1-5.4-16.4-13.4c-1.3-8,3.6-15.7,11.4-17.9l-0.1,6.6l3.6-7.1
		c4.2-0.2,8.3,1.3,11.4,4.1c6.5,5.9,7,16,1,22.5c-1.4,1.5-3.1,2.8-5,3.7C971.4,618.6,969.3,619.1,967.3,619.2L967.3,619.2z"/>
	<path class="st6" d="M1005.8,593.5c-5,0.3-9.8-1.9-13-5.7c-5.6-6.8-4.7-16.8,2.1-22.5c1.1-0.9,2.4-1.7,3.8-2.3
		c4.6-2,9.8-1.7,14.2,0.7l-2.8,7.8l5.8-5.6c3.1,2.8,5,6.8,5.1,11c0.1,1.5-0.1,2.9-0.4,4.4C1018.9,588.2,1012.8,593.2,1005.8,593.5
		L1005.8,593.5z"/>
	<path class="st3" d="M1001.3,546.6c-3.7,0.4-7.2,1.6-10.9,1.8c-3.7,0.5-7.4-0.8-10-3.5c-1.1-1.7-2.1-3.4-2.9-5.2
		c-1-1.6-2.4-2.9-4-3.8c-3.2,6.2-1.9,13.8,3.1,18.7c6.3,6.1,16.3,5.9,22.4-0.4c2.1-2.1,3.5-4.8,4.1-7.7
		C1002.4,546.5,1001.9,546.5,1001.3,546.6z"/>
	<path class="st3" d="M1005.8,593.5c-8.6,0.4-15.9-6.2-16.5-14.7c-0.2-2.7,0.3-5.5,1.5-8c1.3,0.8,2.3,1.9,3.2,3.2
		c0.9,1.8,2,3.6,3.1,5.3c2.8,2.8,6.6,4.1,10.5,3.7c3.8-0.2,7.5-1.3,11.3-1.6c0.5,0,1.1-0.1,1.6-0.1
		C1018.9,588.1,1012.9,593.2,1005.8,593.5L1005.8,593.5z"/>
	<path class="st3" d="M967.3,619.2c-5.5,0.3-10.8-2.4-13.9-6.9c-3.1-4.6-3.6-10.5-1.3-15.5c1.3,0.9,2.4,2,3.3,3.2
		c1.3,1.7,2,3.8,3.4,5.4c3,2.9,7.1,4.3,11.2,4c4.1-0.1,7.7-1.1,11.6-1.4C979.8,614.4,974,618.9,967.3,619.2L967.3,619.2z"/>
	<path class="st3" d="M975.1,650.1c-4.1,7.7-13.8,10.6-21.5,6.5c-6.9-3.7-10.1-12-7.4-19.4c1.3,0.9,2.5,1.9,3.5,3.1
		c1.5,1.8,2.6,3.9,4.2,5.7c3.7,3.1,8.3,4.7,13.1,4.6C969.8,650.6,972.5,650.5,975.1,650.1z"/>
	
		<linearGradient id="SVGID_00000104700042500709923330000012521821279356402870_" gradientUnits="userSpaceOnUse" x1="127.2661" y1="89577.9453" x2="127.2661" y2="76401.8594" gradientTransform="matrix(1 0 0 1 234 -2918)">
		<stop  offset="0" style="stop-color:#808080;stop-opacity:0.25"/>
		<stop  offset="0.54" style="stop-color:#808080;stop-opacity:0.12"/>
		<stop  offset="1" style="stop-color:#808080;stop-opacity:0.1"/>
	</linearGradient>
	<path style="fill:url(#SVGID_00000104700042500709923330000012521821279356402870_);" d="M447.6,498.3c0-4-1.8-7.8-5-10.2
		c0-7.2-5.3-13.4-12.4-14.6c-1.1-5.2-4.8-9.4-9.9-11.1c-0.6-0.2-1.2-0.3-1.8-0.4h-2.2c-7.1,0.2-13,5.4-14,12.4
		c-4.5-1-8.7,0.3-9.4,3.2c-0.2,0.8-0.1,1.6,0.1,2.3c1.3,2.7,3.7,4.7,6.6,5.4l0.4,0.1l0.7,0.2h0.1c-1.6,3.5-1.4,7.5,0.5,10.8
		c1.1,1.8,2.6,3.2,4.4,4.2l-0.3,0.2c-0.4,0.4-0.8,0.8-1,1.4c-0.8,1.4-1.4,3-1.9,4.6c-0.3,1.4-0.4,2.8-0.8,4.2
		c-0.7,2.5-2.7,4.6-2.9,7.2c-0.1,1.2,0.1,2.6-0.7,3.3c-0.2,0.2-0.4,0.3-0.7,0.5c-0.6,0.4-1.1,0.9-1.4,1.5c-0.2,0.5-0.6,1-1,1.4
		c-0.7,0.6-2,0.5-2.3,1.4c-0.4,0.9,0.6,1.9,0.4,2.8c-0.2,0.9-1,1.1-1.6,1.7c-0.7,0.7-1.1,1.6-1.4,2.6c-2.5,0.5-5-0.2-7-1.8
		c0.3,0.8,0.6,1.7,0.7,2.6c-1.1-0.9-2.4-1.5-3.7-1.9c-1.5-0.7-2.9-1.7-4-3l2.1-0.3l-9.4-14.5l-2.8-0.6l2.5,4.8
		c-0.2,0.1-0.4,0.2-0.5,0.4c-0.1,0.2-0.3,0.4-0.3,0.6c-0.1,0.5-0.2,1.1-0.1,1.6c0.1,1.3,0.3,2.6,0.6,3.9l0.7,3.4
		c0.1,0.3,0.1,0.6,0.2,0.9c-0.9,0-1.9,0.1-2.8,0.3c-1.9-0.7-3.8-1.2-5.8-1.4c-0.4-0.1-0.9-0.1-1.3,0c-0.5,0.2-0.9,0.6-1.2,1
		c-1.6,1.9-3.1,3.9-4.3,6.1c-5.1,8.9-11.9,16.6-18.2,24.6c-4.4,1.8-8.8,3.5-13.2,5.2l-9.5,3.6c-1.9,0.8-3.9,1.3-5.9,1.3
		c-0.9,0-2-0.2-2.6,0.6c-0.2,0.4-0.4,0.8-0.6,1.3l-1,0.1c-0.4-1.6-1.2-3-2.3-4.2c-0.5,0.1-0.9,0.4-1.1,0.8c-0.2,0.4-0.4,0.9-0.6,1.3
		c-0.5,0.8-1.4,1.1-2,1.7c-0.6,0.6-1,1.6-1.7,2.3c-0.9,0.7-2.1,1.1-3.2,1.3c-1.8,0.4-3.5,1.1-5.1,1.9c-0.6,0.4-1.2,0.7-1.9,0.9
		c-0.7,0.1-1.5,0.2-2.2,0.1l-5-0.4c-0.5-0.1-0.9,0-1.4,0.1c-1,0.4-1.7,1.5-1.6,2.6c0.1,1.1,0.7,2.1,1.6,2.8c0.9,0.6,1.8,1.1,2.9,1.5
		c4.3,1.7,8.8,3,13.4,4v1c3.2,1.6,6.7,2.5,10.3,2.5c0.3,0,0.5,0,0.8-0.1c0.3-0.2,0.6-0.6,0.6-1c1.1-3.2,1.7-6.5,2-9.9
		c0.6,0,1.2-0.2,1.8-0.5c1.7-0.5,3.4,0.7,5.2,0.9c2.2-0.1,4.4-0.7,6.3-1.8l0.9-0.3c-0.6,0.8-1.3,1.4-2.1,2c-0.9,0.6-1.8,1.1-2.7,1.7
		c-0.7,0.6-1.5,1.2-2.3,1.8c-0.6,0.3-1.1,0.5-1.7,0.7c-0.9,0.3-1.7,0.8-2.5,1.3c-0.7,0.4-1.3,1-1.7,1.7c-0.4,0.7-0.5,1.6-0.1,2.3
		c0.4,0.6,1,1,1.7,1.2c0.7,0.1,1.4,0.1,2,0c2.7-0.2,5.4-0.4,8.2-0.7c1.1-0.1,2.3-0.2,3.4-0.5c0.6-0.1,1.2-0.3,1.8-0.5
		c1-0.3,2.1-0.4,3.1-0.5c0.3,0,0.6,0,0.9,0.1c0.6,0.2,1.1,0.9,1.7,1c0.4,0.1,0.9,0,1.3-0.2c2-0.4,4-0.6,6-0.6c0.9,0.1,1.8-0.3,2.3-1
		c0.4-0.8-0.3-2.2-0.7-3.3c-0.2-0.7-0.3-1.4-0.3-2.1c-0.2-1.8-0.7-3.5-1.5-5.1c-0.4-0.7-0.8-1.5-1.1-2.3c3.9-1.5,7.6-3.4,11.1-5.7
		c1.9-1.4,4.1-2.4,6.3-3.1c2.7-0.3,5.4,0,8,0.9c6.2,1.8,12.3,3.9,18.2,6.4c2.8,1.2,5.7,2.4,8.6,3.3c0.9,1.2,1.9,2.2,3.1,3
		c2,1.1,4.3,1.8,6.6,1.8c3.1,0.3,6.2,0.4,9.3,0.3c2.4,0.1,4.8-0.3,7-1.3c0.5-0.3,1-0.6,1.5-1c1.7,0.1,3.4-0.5,4.6-1.7
		c1.7-1.5,2.9-3.4,3.5-5.5c0.8-2.9,0.2-6.5,2-8.8c0.5-0.6,1.1-1.2,1.6-1.8c0.6-0.9,0.9-1.9,0.8-3c0,0,0-0.1,0.1-0.1
		c0.4-1,0.7-2,0.8-3c0.2-0.8,0.5-1.6,0.8-2.4c0.9-2.3,1.7-4.6,2.4-7c0.5-1.6,0.8-3.2,1.1-4.8c0.2-1.3,0.3-2.6,0.4-3.9
		c0.1-2,0.5-4.1,1.2-6c1.6-4.6,2.5-9.4,2.7-14.3v-0.3c4.9-0.6,8.6-4.8,8.5-9.8c0-1.4-0.3-2.9-0.9-4.2
		C447,502.9,447.6,500.6,447.6,498.3z M401.5,554.6c0.1,0.5,0.3,1,0.5,1.5c-0.8-0.7-1.5-1.5-2.3-2.3c0.3,0.1,0.6,0.2,0.9,0.3
		C400.9,554.2,401.2,554.4,401.5,554.6L401.5,554.6z M397.9,552.1c-4.5-3.9-9.6-6.9-14.2-10.7c2.5,1.2,4.9,2.7,7.3,4
		c2.8,1.6,5.7,3.2,8.6,4.7C399.2,550.9,398.5,551.6,397.9,552.1L397.9,552.1z M399.8,542.3l0.2-0.2v1.5l-1.2-0.4
		C399.1,542.9,399.4,542.6,399.8,542.3L399.8,542.3z M360.6,552.8c1.8-2.1,3.4-4.4,4.7-6.8c2,2.9,4.4,5.6,7.1,7.9
		C368.5,553.4,364.5,553,360.6,552.8L360.6,552.8z"/>
	<path class="st13" d="M366.9,515.1l2.8,0.6l9.6,14.2l-4.2,0.6L366.9,515.1z"/>
	<path class="st14" d="M298.9,572.8c0.8,2.5,1.7,5,2.8,7.3c3.2-0.7,6.3-1.6,9.3-2.7c-0.6-0.9-1.2-1.8-1.9-2.6
		c-0.8-0.8-1.6-1.5-2.6-2c-1.1-0.2-2.2-0.2-3.2,0C301.8,572.8,300.3,572.8,298.9,572.8z"/>
	<path class="st13" d="M306.4,576.6c-1.5-0.7-2.7-2-3.2-3.6c-0.5-1.6-1.3-3.1-2.4-4.4c-0.2,0-0.5,0.1-0.6,0.3
		c-0.2,0.1-0.3,0.3-0.4,0.5c-0.2,0.4-0.4,0.9-0.6,1.3c-0.5,0.7-1.4,1.1-2.1,1.7c-0.6,0.6-1,1.6-1.7,2.2c-1,0.7-2.1,1.2-3.3,1.3
		c-1.8,0.4-3.5,1-5.2,1.9c-0.6,0.4-1.2,0.6-1.9,0.9c-0.7,0.1-1.5,0.1-2.2,0l-5.1-0.4c-0.4-0.1-0.9-0.1-1.3,0c-0.5,0.2-1,0.5-1.3,1
		c-0.3,0.5-0.4,1-0.4,1.6c0.1,1.1,0.7,2.1,1.6,2.7c0.9,0.6,1.9,1.1,2.9,1.5c4.4,1.7,9,3,13.6,3.9v1c3.2,1.6,6.8,2.4,10.4,2.4
		c0.3,0,0.5,0,0.8-0.1c0.3-0.2,0.6-0.6,0.6-1c1.2-3.6,1.9-7.3,2.1-11.1c0.1-1,0-1.9-0.2-2.9c-0.3-0.9,0.7-0.5-0.2-0.9"/>
	<path class="st13" d="M403.7,557.4c-15,0.9-29.9-3.5-45-4c-1.9-0.1-3.7,0-5.6,0.4c-1.9,0.5-3.8,1.2-5.5,2.2
		c-8.1,3.8-16.4,6.9-24.8,10l-9.6,3.6c-1.9,0.8-3.9,1.3-5.9,1.3c-0.9,0-2-0.2-2.6,0.6c-1.6,2.3-0.8,5.7,0.2,8.3
		c0.3,0.8,0.9,1.8,1.8,1.9c0.6,0,1.3-0.2,1.8-0.5c1.7-0.5,3.5,0.7,5.3,0.9c2.2-0.1,4.4-0.7,6.4-1.8c3.6-1,7.2-1.6,10.9-1.9
		c6.1-1.3,11.9-3.7,17.1-7.1c1.9-1.4,4.1-2.4,6.4-3c2.7-0.3,5.5,0,8,0.9c6.2,1.8,12.4,3.9,18.4,6.3c3.1,1.4,6.3,2.5,9.6,3.5
		c7.1,1.9,14.7,1.4,21.5-1.3c2.4-1,5-2.6,5.1-5.3c0.1-1.5-1.1-2.8-1.8-4.1c-0.5-0.8-1-1.6-1.5-2.4
		C411.4,562.1,408.3,557.1,403.7,557.4z"/>
	<path class="st3" d="M403.7,557.4c-15,0.9-29.9-3.5-45-4c-1.9-0.1-3.7,0-5.6,0.4c-1.9,0.5-3.8,1.2-5.5,2.2
		c-8.1,3.8-16.4,6.9-24.8,10l-9.6,3.6c-1.9,0.8-3.9,1.3-5.9,1.3c-0.9,0-2-0.2-2.6,0.6c-1.6,2.3-0.8,5.7,0.2,8.3
		c0.3,0.8,0.9,1.8,1.8,1.9c0.6,0,1.3-0.2,1.8-0.5c1.7-0.5,3.5,0.7,5.3,0.9c2.2-0.1,4.4-0.7,6.4-1.8c3.6-1,7.2-1.6,10.9-1.9
		c6.1-1.3,11.9-3.7,17.1-7.1c1.9-1.4,4.1-2.4,6.4-3c2.7-0.3,5.5,0,8,0.9c6.2,1.8,12.4,3.9,18.4,6.3c3.1,1.4,6.3,2.5,9.6,3.5
		c7.1,1.9,14.7,1.4,21.5-1.3c2.4-1,5-2.6,5.1-5.3c0.1-1.5-1.1-2.8-1.8-4.1c-0.5-0.8-1-1.6-1.5-2.4
		C411.4,562.1,408.3,557.1,403.7,557.4z"/>
	<path class="st14" d="M327.7,573.5c2.4,0.8,4.7,1.5,7.1,2.2c1.3-2.2,3.9-3.8,4.4-6.3c0-0.1,0-0.2,0-0.3c-0.1-0.1-0.2-0.2-0.3-0.2
		c-1.7-0.9-3.6-1.5-5.6-1.6c-1.5-0.1-2.3,1.5-2.9,2.7C330.2,570.4,328.4,573.7,327.7,573.5z"/>
	<path class="st13" d="M331,571.9c-1.4-0.2-2.7-1.1-3.5-2.3c-0.3-0.6-0.7-1.4-1.4-1.3c-0.7,0.1-0.9,0.8-1,1.4
		c-0.4,2.3-1.1,4.5-1.9,6.7c-0.8,2.2-2.3,4.1-4.2,5.5c-0.9,0.6-1.8,1.1-2.7,1.7c-0.7,0.6-1.5,1.2-2.3,1.7c-0.6,0.3-1.2,0.5-1.8,0.6
		c-0.9,0.3-1.7,0.8-2.5,1.3c-0.7,0.4-1.3,1-1.7,1.6c-0.4,0.7-0.5,1.6-0.1,2.3c0.2,0.3,0.4,0.6,0.7,0.8c0.3,0.2,0.6,0.3,1,0.4
		c0.7,0.1,1.4,0.1,2.1,0c2.7-0.2,5.5-0.4,8.2-0.7c1.2-0.1,2.3-0.2,3.4-0.5l1.8-0.5c1-0.3,2.1-0.4,3.1-0.5c0.3,0,0.6,0,0.9,0.1
		c0.6,0.2,1.1,0.8,1.7,1c0.4,0,0.9,0,1.3-0.2c2-0.4,4-0.6,6.1-0.6c0.9,0.1,1.8-0.3,2.4-1c0.5-1-0.3-2.1-0.7-3.2
		c-0.2-0.7-0.3-1.4-0.3-2.1c-0.2-1.8-0.7-3.5-1.5-5c-0.7-1.3-1.6-2.7-1.2-4.1c0.2-0.4,0.4-0.9,0.5-1.4
		C337.4,571.4,332.3,572.2,331,571.9z"/>
	<path class="st14" d="M381.2,533.1c-2.7-1.2-4.8-3.3-6-6c-0.2-0.6-0.4-1.2-0.7-1.7c-0.8-1.9-2-3.6-3.6-5c-0.2-0.2-0.4-0.3-0.6-0.4
		c-0.2-0.1-0.5-0.1-0.7-0.1c-0.2,0.1-0.5,0.2-0.6,0.4c-0.2,0.2-0.3,0.4-0.3,0.7c-0.1,0.5-0.2,1.1-0.1,1.6c0.1,1.3,0.3,2.5,0.6,3.8
		l0.7,3.3c0.1,0.5,0.2,1,0.4,1.5c0.3,0.6,0.7,1.1,1.2,1.5c0.7,0.6,1.4,1.2,2,1.8c0.4,0.3,0.8,0.6,1.3,0.9c0.7,0.3,1.5,0.6,2.3,0.7
		c3.1,0.4,6,1.5,8.5,3.3v-2.5c0-0.6-0.3-1.3-0.6-1.8C383.9,534.1,382.6,533.5,381.2,533.1z"/>
	<path class="st3" d="M381.2,533.1c-2.7-1.2-4.8-3.3-6-6c-0.2-0.6-0.4-1.2-0.7-1.7c-0.8-1.9-2-3.6-3.6-5c-0.2-0.2-0.4-0.3-0.6-0.4
		c-0.2-0.1-0.5-0.1-0.7-0.1c-0.2,0.1-0.5,0.2-0.6,0.4c-0.2,0.2-0.3,0.4-0.3,0.7c-0.1,0.5-0.2,1.1-0.1,1.6c0.1,1.3,0.3,2.5,0.6,3.8
		l0.7,3.3c0.1,0.5,0.2,1,0.4,1.5c0.3,0.6,0.7,1.1,1.2,1.5c0.7,0.6,1.4,1.2,2,1.8c0.4,0.3,0.8,0.6,1.3,0.9c0.7,0.3,1.5,0.6,2.3,0.7
		c3.1,0.4,6,1.5,8.5,3.3v-2.5c0-0.6-0.3-1.3-0.6-1.8C383.9,534.1,382.6,533.5,381.2,533.1z"/>
	<path class="st13" d="M411.8,507.6c2,0,3.7-1.6,3.7-3.7c0-2-1.6-3.7-3.7-3.7c-2,0-3.7,1.6-3.7,3.7c0,0,0,0,0,0
		C408.1,505.9,409.7,507.6,411.8,507.6L411.8,507.6z"/>
	<path class="st13" d="M409.5,501.7c-1-0.2-2-0.1-2.9,0.4c-0.4,0.4-0.8,0.8-1,1.4c-0.8,1.4-1.5,2.9-1.9,4.5
		c-0.3,1.3-0.4,2.8-0.8,4.1c-0.7,2.5-2.7,4.5-2.9,7.1c-0.1,1.1,0.1,2.5-0.7,3.3c-0.2,0.2-0.4,0.3-0.7,0.5c-0.6,0.4-1.1,0.9-1.4,1.5
		c-0.3,0.5-0.6,1-1,1.4c-0.7,0.6-2,0.5-2.3,1.3c-0.4,0.8,0.6,1.9,0.4,2.8s-1,1.1-1.6,1.6c-0.7,0.7-1.2,1.6-1.4,2.6
		c-2.5,0.5-5-0.2-7-1.7c0.8,2.6,1.2,5.3,1.1,8c0.1,0.9-0.1,1.8-0.6,2.5c2.9,0.2,5.8,0.7,8.6,1.5c1.2,0.4,2.5,0.4,3.7,0
		c0.7-0.4,1.2-0.8,1.7-1.4c1.7-1.4,2.9-3.3,3.5-5.5c0.1-1.2,0.1-2.5,0.1-3.7c0.1-1.5,0.5-3,0.9-4.5c0.8-3,1.4-6.1,1.6-9.3
		c0.2-1.9,1.8-3.5,2.7-5.2c1.9-3.2,3.1-6.7,3.5-10.3C411.1,503.3,410.7,501.8,409.5,501.7z"/>
	<path class="st3" d="M409.5,501.7c-1-0.2-2-0.1-2.9,0.4c-0.4,0.4-0.8,0.8-1,1.4c-0.8,1.4-1.5,2.9-1.9,4.5c-0.3,1.3-0.4,2.8-0.8,4.1
		c-0.7,2.5-2.7,4.5-2.9,7.1c-0.1,1.1,0.1,2.5-0.7,3.3c-0.2,0.2-0.4,0.3-0.7,0.5c-0.6,0.4-1.1,0.9-1.4,1.5c-0.3,0.5-0.6,1-1,1.4
		c-0.7,0.6-2,0.5-2.3,1.3c-0.4,0.8,0.6,1.9,0.4,2.8s-1,1.1-1.6,1.6c-0.7,0.7-1.2,1.6-1.4,2.6c-2.5,0.5-5-0.2-7-1.7
		c0.8,2.6,1.2,5.3,1.1,8c0.1,0.9-0.1,1.8-0.6,2.5c2.9,0.2,5.8,0.7,8.6,1.5c1.2,0.4,2.5,0.4,3.7,0c0.7-0.4,1.2-0.8,1.7-1.4
		c1.7-1.4,2.9-3.3,3.5-5.5c0.1-1.2,0.1-2.5,0.1-3.7c0.1-1.5,0.5-3,0.9-4.5c0.8-3,1.4-6.1,1.6-9.3c0.2-1.9,1.8-3.5,2.7-5.2
		c1.9-3.2,3.1-6.7,3.5-10.3C411.1,503.3,410.7,501.8,409.5,501.7z"/>
	<path class="st13" d="M406.1,560.6c-3-1.8-5.7-4.1-8-6.7c-4.8-4.6-10.7-7.8-15.8-12.1c-3.2-3-6.6-5.9-10.1-8.5
		c-3.3-2.1-7-3.4-10.8-3.8c-0.4-0.1-0.9-0.1-1.3,0c-0.5,0.2-0.9,0.5-1.2,1c-1.6,1.9-3.1,3.9-4.4,6c-6.4,11-15.6,20.2-23.2,30.4
		c-0.2,0.2-0.3,0.5-0.4,0.7c0,0.4,0.1,0.8,0.3,1.1l1.5,3c0.9,1.7,2.3,3.7,4.1,3.3c0.8-0.2,1.6-0.7,2.1-1.4l6.9-6.7l7.3-7
		c4.5-3.9,8.3-8.4,11.4-13.5c2.2,3.8,6,6.3,8.6,9.7c1,1.3,1.8,2.8,2.7,4.2c1.4,2.2,3.1,4.3,4.7,6.5l8.3,10.7
		c1.1,1.5,2.4,2.8,3.9,3.9c2.1,1.1,4.3,1.7,6.7,1.8c3.1,0.3,6.3,0.4,9.4,0.3c2.4,0.1,4.8-0.3,7-1.3c2.3-1,3.7-3.2,3.8-5.7
		c-0.1-1.3-0.5-2.5-1.2-3.5C415.9,567.8,411.5,563.3,406.1,560.6z"/>
	<path class="st15" d="M414,509.3c1.6,0,2.9-1.2,2.9-2.8c0-1.6-1.2-2.9-2.8-2.9c-1.6,0-2.9,1.2-2.9,2.8c0,0,0,0,0,0
		C411.2,508,412.5,509.3,414,509.3C414,509.3,414,509.3,414,509.3z"/>
	<path class="st14" d="M413.4,504.3c0.6,1.3,0.7,2.7,0.3,4.1c-0.4,1.3-1.1,2.6-1.8,3.8c-0.7,1.2-1.4,2.3-2.4,3.4
		c4.4,0,8.7-1.3,12.4-3.6c3.2-1.5,5.9-3.8,7.8-6.8c-1,0.2-2,0-2.9-0.5c-0.8-0.6-1.6-1.3-2.2-2.1l-2.2-2.5c-0.5-0.5-0.9-1.1-1.3-1.8
		c-0.5-0.9-0.7-1.9-0.6-2.9c-0.9,0.9-1.8,1.7-2.9,2.4c-1.6,1-3.3,1.8-4.8,2.8c-0.5,0.4-1.8,0.9-1.5,1.7
		C411.8,503,413,503.5,413.4,504.3z"/>
	<path class="st3" d="M413.4,504.3c0.6,1.3,0.7,2.7,0.3,4.1c-0.4,1.3-1.1,2.6-1.8,3.8c-0.7,1.2-1.4,2.3-2.4,3.4
		c4.4,0,8.7-1.3,12.4-3.6c3.2-1.5,5.9-3.8,7.8-6.8c-1,0.2-2,0-2.9-0.5c-0.8-0.6-1.6-1.3-2.2-2.1l-2.2-2.5c-0.5-0.5-0.9-1.1-1.3-1.8
		c-0.5-0.9-0.7-1.9-0.6-2.9c-0.9,0.9-1.8,1.7-2.9,2.4c-1.6,1-3.3,1.8-4.8,2.8c-0.5,0.4-1.8,0.9-1.5,1.7
		C411.8,503,413,503.5,413.4,504.3z"/>
	<path class="st15" d="M413.5,504.7c-0.9,1.3-0.9,3,0,4.3c0.1,0.2,0.6,1.1,0.8,1.1c0.2,0,0.4-0.1,0.5-0.3c1-1,1.9-2.1,2.8-3.3
		c0.9-1.2,2.1-2,3.5-2.3c1.7-0.1,3.4,0.5,4.8,1.5c1.3,0.5,2.2,1.7,2.2,3.1c0.4,3.9,0.6,7.8,0.5,11.8c0.1,2.8-0.1,5.7-0.6,8.5
		c-0.3,1.4-0.7,2.8-0.9,4.3c-0.2,1.3-0.2,2.6-0.2,3.9v5.4c0,1,0,2,0.2,3c0.3,1.2,0.8,2.3,1.2,3.4c0.4,1.3,0.6,2.7,0.8,4l0.7,5.6
		c0.4,1.7,0.2,3.6-0.7,5.2c-0.5,0.6-1.1,1.2-1.6,1.8c-1.8,2.4-1.3,5.8-2,8.7c-0.6,2.1-1.8,4-3.5,5.4c-1.2,1.2-2.9,1.8-4.6,1.7
		c-2.2-0.8-3.9-2.7-4.2-5c-0.3-2.3-1.1-4.5-2.2-6.6c-1.2-1.4-2.7-2.6-4.3-3.6c-1.6-1-2.8-2.5-3.3-4.4c-0.1-0.8,0-1.7-0.1-2.5
		c-0.2-2.1-1.6-3.9-3.6-4.7c-1.2-0.4-2.6-0.6-3.2-1.7c1.7-1,2.9-2.7,3.4-4.6c0.5-1.9,0.8-3.8,0.8-5.8l0.4-6.5c0-2.9,0.5-5.7,1.5-8.4
		c0.6-1.2,1.3-2.3,1.9-3.4c0.8-1.6,1.5-3.3,2-5c0.9-2.7,1.9-5.3,2.7-8c0.3-1.3,0.8-2.6,1.5-3.7C411.2,506.5,412.2,505,413.5,504.7z"
		/>
	<path class="st13" d="M399.1,547h1.7l0.4-2.6c0-0.5,0.2-1,0.4-1.5c0.3-0.5,0.6-1,1-1.4c1.7-2.4,1.6-5.6,2-8.5
		c0.7-3.8,2-7.6,3.8-11.1l3.3-7.4c0.3-0.6,0.5-1.2,0.7-1.9c0.1-0.7,0.2-1.5,0.2-2.2c0-1.2,0.4-5.3,0.4-6.5c0-0.4-0.9-0.2-1.1-0.6
		c-0.4-0.8-1,1.4-1.8,1.9c-0.7,0.6-1.3,1.4-1.5,2.3c-0.7,1.9-1.2,3.9-1.8,5.7c-0.6,1.9-1.6,3.7-3.1,5.1c-0.7,0.6-1.5,1.1-2.1,1.7
		c-2.1,2-2.3,5.3-2.3,8.2C399.1,530,398.7,547,399.1,547z"/>
	<path class="st13" d="M423.7,501.6c-1.6,0.9-2.7,2.4-3.1,4.2c-0.3,1.8-0.8,3.5-1.5,5.2c-2.1,3.6-7.4,4.7-8.9,8.7
		c-0.4,1.3-0.6,2.7-0.6,4.1c-0.3,2.8-1.2,5.6-1.5,8.4c-0.1,2.2-0.1,4.4,0.2,6.6l1.9,22.3c0.4,3.3,0.2,6.6-0.6,9.8
		c1.9,0.3,3.9-0.1,5.6-0.9c1.7-0.8,3.3-1.9,5-2.8c3-1.3,5.9-3,8.6-4.9c0.5-0.4,0.8-0.8,1.2-1.3c0.4-0.9,0.6-1.9,0.8-2.9
		c0.2-0.8,0.5-1.6,0.8-2.3c0.9-2.2,1.7-4.5,2.4-6.9c0.5-1.5,0.8-3.1,1.1-4.7c0.2-1.3,0.3-2.6,0.4-3.9c0.1-2,0.5-4,1.2-5.9
		c1.6-4.5,2.5-9.3,2.7-14.1c0-0.7,0-1.4-0.1-2.1c-0.3-0.8-0.7-1.6-1.1-2.4c-0.8-1.5-1.3-3.1-2-4.6c-1.8-3.3-4.4-6-7.6-8
		C427.4,501.9,425.5,501.3,423.7,501.6z"/>
	<path class="st14" d="M384.9,538c-1.3-0.7-2.5-1.6-3.5-2.7c-0.5-0.5-0.9-1.1-1.3-1.7c-1.2-1.3-2.8-2.2-4.5-2.6
		c-1.7-0.4-3.4-0.5-5.1-0.5c-1.2-0.1-2.3,0.1-3.4,0.4c-1.1,0.4-2,1.3-2.3,2.5c-0.1,1.4,0.6,2.8,1.7,3.6c1,0.8,2.2,1.4,3.5,1.7
		c1,0.2,2.1,0.3,3.1,0.4c6.2,0.6,11.7,4,17,7.1c4.7,2.7,9.6,5.2,14.5,7.6c0.2-1.5,0.3-3,0.2-4.5c0-1.1-0.1-2.8-1.1-3.5
		c-1.5-0.6-3-1.1-4.6-1.4c-3.2-1-6.3-2.3-9.3-3.8C388.1,539.8,386.4,539,384.9,538z"/>
	<path class="st14" d="M411.8,503.1c6.1,0.1,11.1-4.8,11.2-11c0.1-6.1-4.8-11.1-11-11.2c-6.1-0.1-11.1,4.8-11.2,11c0,0,0,0.1,0,0.1
		C400.8,498.1,405.7,503,411.8,503.1C411.8,503.1,411.8,503.1,411.8,503.1z"/>
	<path class="st13" d="M426.9,514.2c-0.9,1.2-1.6,2.6-2.1,4c-1.3,2.8-3.5,5.2-4.5,8.1s-1.1,6.8-3.3,9.2c-0.4,0.4-0.8,0.9-1,1.4
		c0,0.3,0,0.7-0.1,1c-0.3,0.9-1.8,0.9-2,1.8c-0.1,0.3,0,0.5-0.1,0.8c-0.2,0.6-1,0.7-1.5,1c-1.1,0.7-0.8,2.4-1.6,3.5
		c-0.7,0.8-1.7,1.2-2.7,1c-1-0.2-2-0.6-2.8-1.1c-0.3-0.2-0.7-0.3-1-0.3c-0.4,0-0.8,0.2-1.2,0.4c-2,1.5-3.1,3.8-3,6.3
		c0.1,2.4,0.7,4.8,1.7,7c0.1,0.4,0.3,0.7,0.6,1c0.8,0.6,1.9,0.7,2.7,0.2c0.8-0.5,1.7-0.9,2.7-1.2c1.7-0.3,3.3,0.9,5.1,0.8
		c1.3-0.2,2.4-0.7,3.4-1.5c1.7-1,3.3-2.4,4.6-3.9c0.7-1,1.3-2.1,2-3.2c0.9-1.3,1.8-2.5,2.8-3.7l6.3-7.8c0.6-0.7,1.2-1.5,1.7-2.4
		c0.6-1.1,1-2.3,1.3-3.6c0.7-2,1.1-4.2,1.3-6.3c0-1.8-0.1-3.6-0.5-5.3c-0.2-1.7-0.6-3.4-1.3-5.1
		C432.8,513.6,429.5,511.2,426.9,514.2z"/>
	<path class="st10" d="M448.9,499.8c0-4-1.9-7.7-5.1-10.1c-0.1-7.2-5.4-13.3-12.5-14.4c-1.5-7.7-9-12.7-16.7-11.2
		c-5.9,1.2-10.5,6-11.3,12c-4.6-1-8.7,0.3-9.5,3.1c-0.8,2.8,2.5,6.5,7.3,7.8c1.5,0.4,3.1,0.6,4.7,0.5c2.3,3.3,5.8,5.6,9.8,6.1
		c1.2,5.4,5.3,9.7,10.7,11.1c0.7,1.8,1.9,3.3,3.3,4.6v1.1c0,3.8,2.3,7.2,5.7,8.6c4.7,2,10.2-0.3,12.1-5c0,0,0,0,0,0
		c0.5-1.1,0.7-2.3,0.7-3.6c0-1.4-0.3-2.8-0.9-4.1C448.4,504.2,448.9,502,448.9,499.8z"/>
	<path class="st3" d="M396.9,479.8c0.8-2.8,4.9-4.2,9.5-3.1c1.1-7,7.1-12.2,14.2-12.3h0.9c-1.3-0.4-2.7-0.6-4-0.6
		c-7.1,0.1-13.1,5.3-14.2,12.3c-4.6-1-8.7,0.3-9.5,3.1c-0.8,2.8,2.5,6.5,7.3,7.8c0.9,0.3,1.8,0.4,2.8,0.5
		C399.2,486,396.1,482.7,396.9,479.8z"/>
	<path class="st3" d="M432.6,510.9c0-0.4,0-0.7,0-1.1c-1.5-1.2-2.6-2.8-3.3-4.6c-5.4-1.4-9.5-5.7-10.7-11.1c-4-0.6-7.6-2.8-9.8-6.1
		c-0.9,0.1-1.8,0.1-2.7-0.1c2.3,3.1,5.7,5.1,9.5,5.7c1.2,5.4,5.3,9.7,10.7,11.1c0.7,1.8,1.9,3.3,3.3,4.6v1.1c-0.1,5.2,4,9.5,9.2,9.6
		C435,518.5,432.5,514.9,432.6,510.9L432.6,510.9z"/>
	<path class="st14" d="M416.8,496c0.8-0.8,0.7-2,0-2.8c-0.8-0.6-1.9-0.4-2.5,0.4c-0.6,0.8-0.4,1.9,0.4,2.5
		C415.3,496.5,416.2,496.5,416.8,496z"/>
</g>
</svg>
