<?xml version="1.0" encoding="utf-8"?>
<!-- Generator: Adobe Illustrator 26.0.1, SVG Export Plug-In . SVG Version: 6.00 Build 0)  -->
<svg version="1.1" id="Layer_1" xmlns="http://www.w3.org/2000/svg" xmlns:xlink="http://www.w3.org/1999/xlink" x="0px" y="0px"
	 viewBox="0 0 1080 682.6" style="enable-background:new 0 0 1080 682.6;" xml:space="preserve">
<style type="text/css">
	.st0{fill:#E0E0E0;}
	.st1{fill:#F0F0F0;}
	.st2{fill:#263238;}
	.st3{fill:#1E9CD7;}
	.st4{opacity:0.2;}
	.st5{opacity:0.2;enable-background:new    ;}
	.st6{fill:#FFFFFF;}
	.st7{fill:#E6E6E6;}
	.st8{opacity:0.1;}
	.st9{opacity:0.1;enable-background:new    ;}
	.st10{fill:#455A64;}
	.st11{fill:#E5BAAB;}
	.st12{fill:#D78776;}
</style>
<g>
	<path class="st0" d="M930.5,376.1l10.7,18.6l10.7,18.6l10.8-18.5l10.8-18.5l-14.8,0l0.2-71.6l-13.2,0l-0.2,71.6L930.5,376.1z"/>
	<path class="st0" d="M968.5,326.9l6.4,11.1l6.4,11.1l6.4-11.1l6.4-11.1l-8.8,0l0.1-42.7l-7.9,0l-0.1,42.7L968.5,326.9z"/>
	<path class="st0" d="M236,37.1l-10.7-18.6L214.6,0l-10.7,18.5l-10.8,18.5l14.8,0l-0.1,71.6l13.2,0l0.1-71.6L236,37.1z"/>
	<path class="st0" d="M193.8,84.3L187.4,73l-6.5-11.2L174.4,73l-6.5,11.2l8.9,0l-0.1,43.3l8,0l0.1-43.3L193.8,84.3z"/>
	<path class="st1" d="M975.1,613.9c-26.5-17.3-33.2-50.5-32.9-80.4c0-5-0.6-10.3,1.7-14.7c2.3-4.4,7.9-7.6,12.4-5.6
		c3.8,1.6,5.6,5.9,7.7,9.4c3,4.7,7.2,8.5,12.2,10.9c3.3,1.6,7.3,2.5,10.4,0.7c4.3-2.5,4.7-8.4,4.5-13.4l-0.8-27.8
		c-0.4-5,0-10,1.2-14.8c1.4-4.8,4.8-9.2,9.6-10.6c4.8-1.4,10.8,1.2,11.9,6c0.2,2,0.3,4.1,0.3,6.2c0,2.1,1.3,4,3.2,4.8
		c2,0.5,4-0.9,5.5-2.4c5.1-5.1,8.4-11.7,11.6-18.2c3.1-6.5,6.2-13.2,10.8-18.8c4.6-5.6,11-10.1,18.2-10.6c7.2-0.5,15,3.5,17,10.6
		c2,7.1-2,14.2-6.3,20c-6.5,8.6-14.2,16.2-22.9,22.6c-1.7,1-3,2.5-3.8,4.2c-1,3.3,2.2,6.5,5.6,7.6c3.8,1.1,7.9,0.7,11.8,1
		c3.9,0.4,8.2,2,9.8,5.6c2.2,5-2,10.5-6.1,14c-8.3,7.2-17.8,12.9-28.1,16.9c-3.7,1.4-7.5,2.7-10.5,5.3s-4.6,7.2-2.7,10.6
		c1.9,3.4,6.6,4.5,10.4,3.7c3.9-0.8,7.3-3,11-4.4c6.9-2.7,15.8-2.5,20.4,3.3c2.8,4,3.6,9.2,2,13.9c-1.6,4.6-4.1,8.9-7.3,12.5
		c-10.7,13.3-24.7,23.5-40.7,29.6c-15.9,5.9-30.8,7.7-46.9,2.4"/>
	<path class="st0" d="M1071.9,438.5c-0.1,0.2-0.3,0.3-0.5,0.5l-1.5,1.3c-1.3,1.2-3.2,2.9-5.6,5.3c-6.8,6.5-13,13.5-18.8,20.9
		c-3.6,4.7-7.4,10-11.4,15.8c-3.9,5.8-8.1,12-12.2,18.7c-4.4,6.9-8.3,14.1-11.9,21.4c-1.9,3.9-3.5,7.9-5.1,12
		c-1.6,4.1-3.3,8.2-5,12.4c-6.5,15.8-12,31.9-16.7,48.4c-3.8,13.4-6.2,27.1-7.4,41c-0.8,9.4-0.7,18.8,0.2,28.1
		c0.3,3.3,0.7,5.9,1,7.6l0.3,2c0,0.2,0,0.4,0,0.7c-0.7-3.4-1.2-6.8-1.6-10.2c-1-9.4-1.2-18.8-0.5-28.2c1.1-13.9,3.5-27.7,7.2-41.2
		c4.6-16.4,10.2-32.6,16.7-48.3l5.1-12.4c1.7-4.1,3.3-8.1,5.2-12c3.6-7.4,7.6-14.6,12-21.6c4.2-6.7,8.3-12.9,12.3-18.6
		c4-5.8,7.8-11.1,11.4-15.7c5.8-7.4,12.1-14.4,19-20.8c2.4-2.3,4.4-4,5.7-5.1l1.5-1.3L1071.9,438.5z"/>
	<path class="st0" d="M1009.7,522.1c-0.2-0.7-0.4-1.4-0.5-2.1c-0.3-1.4-0.6-3.4-1-5.8c-0.8-4.9-1.8-11.8-2.7-19.3s-2-14.4-2.9-19.3
		c-0.4-2.4-0.8-4.4-1.1-5.8c-0.2-0.7-0.3-1.4-0.4-2.1c0.3,0.7,0.5,1.4,0.6,2.1c0.4,1.3,0.8,3.3,1.4,5.7c1.1,4.9,2.2,11.7,3.1,19.3
		c1,7.6,1.8,14.3,2.5,19.4c0.3,2.4,0.6,4.3,0.8,5.9C1009.6,520.6,1009.7,521.4,1009.7,522.1z"/>
	<path class="st0" d="M1074.1,508.6l-0.7,0.1l-1.9,0.2c-1.6,0.2-4.1,0.4-7.1,0.8c-5.9,0.8-14.1,2.1-23,4c-8.9,1.9-16.9,3.9-22.6,5.6
		c-2.9,0.8-5.2,1.5-6.8,2l-1.8,0.6c-0.4,0.1-0.7,0.2-0.7,0.1c0.2-0.1,0.4-0.2,0.6-0.3l1.8-0.7c1.6-0.6,3.9-1.4,6.7-2.3
		c5.7-1.8,13.7-3.9,22.6-5.9c8.9-1.9,17.1-3.1,23-3.8c3-0.3,5.4-0.5,7.1-0.6h1.9C1073.9,508.6,1074.1,508.6,1074.1,508.6z"/>
	<path class="st0" d="M983.3,593.8c-0.2-0.2-0.3-0.5-0.4-0.8l-1.1-2.3c-1-2-2.4-4.9-4-8.5c-3.3-7.3-7.5-17.4-12-28.7
		c-4.5-11.3-8.7-21.4-11.9-28.7l-3.8-8.6c-0.4-1-0.8-1.8-1-2.4c-0.1-0.3-0.2-0.5-0.3-0.8c0.2,0.3,0.3,0.5,0.5,0.8l1.1,2.3
		c1,2,2.4,4.9,4,8.5c3.3,7.3,7.5,17.4,12,28.7c4.5,11.3,8.7,21.4,11.8,28.7l3.8,8.6c0.4,1,0.8,1.8,1,2.3
		C983.1,593.2,983.2,593.5,983.3,593.8z"/>
	<path class="st0" d="M1068.6,564.4c-0.3,0.1-0.6,0.3-0.8,0.3l-2.5,0.9l-9.1,3.1c-7.7,2.7-18.3,6.5-30.1,10.6
		c-11.7,4.1-22.4,8-30.1,10.5c-3.9,1.3-7.1,2.3-9.2,2.9l-2.5,0.7c-0.3,0.1-0.6,0.2-0.9,0.2c0.3-0.1,0.6-0.3,0.8-0.3l2.5-0.9l9.1-3.1
		c7.7-2.7,18.3-6.5,30.1-10.7c11.7-4.2,22.4-8,30.1-10.5c3.9-1.3,7.1-2.3,9.2-2.9l2.5-0.7C1068,564.4,1068.3,564.4,1068.6,564.4z"/>
	<path class="st2" d="M1071.5,671.8c0,0.2-239.9,0.5-535.7,0.5S0,672.1,0,671.8s239.8-0.5,535.8-0.5S1071.5,671.6,1071.5,671.8z"/>
	<path class="st3" d="M110.2,616.9c-6.4-3-13.6-3.9-20.6-2.5c-3.7,0.6-7.6,1.8-10.1,4.5c-2.5,2.8-3,7.7-0.1,10.1
		c1.9,1.3,4.1,1.8,6.4,1.6c5.4,0,11.5-1,15.8,2.2c2.5,1.9,4.1,5,7.1,5.9c3,0.7,6.2-0.7,7.7-3.4c1.4-2.7,1.7-5.9,0.9-8.8
		C116.5,622.4,113.9,618.9,110.2,616.9L110.2,616.9z"/>
	<path class="st3" d="M124.5,589.3c-3.8,5.5-11.2,3.6-14.7,0.3c-3.5-3.3-4.9-8.2-6.2-12.8c-3-10.5-6.1-21.6-3.8-32.3
		c0.5-3.3,2-6.3,4.1-8.8c2.2-2.5,5.6-3.6,8.8-3c3.7,1,6.1,4.7,7.7,8.1c5,10.3,7.6,21.6,7.6,33C128.1,579.2,127.5,584.8,124.5,589.3"
		/>
	<g class="st4">
		<path class="st5" d="M124.5,589.3c-3.8,5.5-11.3,3.6-14.7,0.3c-3.4-3.3-4.9-8.2-6.2-12.8c-3-10.5-6.1-21.6-3.8-32.3
			c0.5-3.3,1.9-6.3,4.1-8.8c2.2-2.5,5.6-3.6,8.8-3c3.7,1,6.1,4.7,7.7,8.1c5,10.3,7.6,21.6,7.6,33
			C128.1,579.2,127.5,584.8,124.5,589.3"/>
	</g>
	<path class="st3" d="M135,597.1c-4-5.2-5.1-12.1-3.1-18.3c2.1-6.1,5.8-11.6,10.8-15.7c5.7-5,12.3-8.9,19.5-11.4
		c2.8-1.1,5.7-1.6,8.7-1.5c3,0.2,5.7,1.8,7.3,4.4c2.1,3.9,0.1,8.6-2,12.5c-3.7,6.8-8,13.3-12.7,19.5c-3.8,4.9-8.2,9.8-14,12
		c-5.8,2.2-11.9,2-14.9-2.1"/>
	<path class="st2" d="M124.8,671.6c-0.2-0.8-0.3-1.6-0.3-2.5c-0.2-1.8-0.4-4.1-0.7-6.8c-0.3-3.3-0.8-6.6-1.5-9.9
		c-0.9-4-2.1-7.9-3.5-11.7c-1.5-3.8-3.5-7.4-6-10.6c-2-2.6-4.6-4.8-7.6-6.3c-2-1-4.2-1.7-6.4-2c-0.8,0-1.7-0.1-2.5-0.3
		c0.8-0.1,1.7-0.1,2.5,0c2.3,0.2,4.5,0.8,6.6,1.8c3.1,1.5,5.9,3.6,8,6.3c2.6,3.3,4.7,6.9,6.2,10.8c1.5,3.9,2.7,7.8,3.5,11.9
		c0.6,3.3,1.1,6.7,1.3,10.1c0.2,2.9,0.3,5.2,0.3,6.8C124.9,670,124.9,670.8,124.8,671.6z"/>
	<path class="st2" d="M124.3,666.4c0-0.4,0-0.8,0-1.1V662c0-2.9,0-7-0.1-12.1c-0.3-10.2-1.1-24.3-2.8-39.8c-1.7-15.5-4-29.4-6-39.4
		c-0.5-2.5-1-4.8-1.5-6.7c-0.5-2-0.8-3.7-1.2-5.1s-0.6-2.4-0.8-3.2c-0.1-0.4-0.2-0.7-0.2-1.1c0.2,0.3,0.3,0.7,0.4,1.1l1,3.1
		c0.4,1.4,0.9,3.1,1.4,5c0.5,2,1.1,4.2,1.6,6.7c2.8,13,4.9,26.2,6.4,39.5c1.5,13.2,2.4,26.6,2.5,39.9c0,5.1,0,9.3-0.2,12.1
		c0,1.3-0.1,2.4-0.2,3.3C124.5,665.7,124.4,666.1,124.3,666.4z"/>
	<path class="st2" d="M124.3,639.2c-0.1-1.1-0.1-2.3,0-3.4c0.1-2.2,0.4-5.4,1-9.3c0.8-4.6,1.8-9.1,3-13.6c1.5-5.5,3.4-10.8,5.7-16.1
		c3.9-9.6,9.6-18.4,16.7-25.9c1.2-1.3,2.5-2.5,3.9-3.7c0.6-0.5,1.1-1,1.7-1.4l1.5-1c0.9-0.7,1.9-1.3,2.9-1.8
		c-3.3,2.6-6.5,5.5-9.5,8.5c-6.8,7.6-12.3,16.4-16.3,25.9c-2.2,5.2-4.1,10.5-5.7,15.9c-1.5,5-2.5,9.6-3.2,13.4
		c-0.8,3.9-1.1,7.1-1.4,9.2C124.6,637,124.5,638.1,124.3,639.2z"/>
	<path class="st6" d="M807.9,63.8H264.2v423.1h543.7V63.8z"/>
	<path class="st2" d="M807.9,486.9c0-3.2-0.2-167.7-0.4-423.1l0.4,0.4H264.3l0.5-0.5v423.1l-0.4-0.4L807.9,486.9l-543.6,0.3h-0.4
		v-424h544.6v0.4C808.2,319.2,807.9,483.7,807.9,486.9z"/>
	<path class="st2" d="M413.7,451.3c-0.3,0-0.5-46-0.5-102.7s0.2-102.7,0.5-102.7c0.3,0,0.5,46,0.5,102.7S414,451.3,413.7,451.3z"/>
	<path class="st2" d="M649.7,451.3c-0.3,0-0.5-46-0.5-102.7s0.2-102.7,0.5-102.7c0.3,0,0.5,46,0.5,102.7S649.9,451.3,649.7,451.3z"
		/>
	<path class="st2" d="M494.3,451.3c-0.2,0-0.5-58.8-0.5-131.3s0.2-131.3,0.5-131.3s0.5,58.8,0.5,131.3
		C494.7,392.6,494.5,451.3,494.3,451.3z"/>
	<path class="st2" d="M331,451.3c-0.3,0-0.5-58.8-0.5-131.3s0.2-131.3,0.5-131.3c0.3,0,0.5,58.8,0.5,131.3
		C331.4,392.6,331.2,451.3,331,451.3z"/>
	<path class="st2" d="M742.3,451.3c-0.2,0-0.5-58.8-0.5-131.3s0.2-131.3,0.5-131.3c0.2,0,0.5,58.8,0.5,131.3
		C742.7,392.6,742.5,451.3,742.3,451.3z"/>
	<path class="st2" d="M564.9,451.3c-0.3,0-0.5-67.9-0.5-151.6s0.2-151.6,0.5-151.6c0.3,0,0.5,67.9,0.5,151.6
		S565.2,451.3,564.9,451.3z"/>
	<path class="st2" d="M415.6,245.9c0,1.1-0.9,1.9-1.9,1.9c-1.1,0-1.9-0.9-1.9-1.9c0-1.1,0.9-1.9,1.9-1.9c0.5,0,1,0.2,1.4,0.6
		C415.4,244.9,415.6,245.4,415.6,245.9z"/>
	<path class="st2" d="M494.3,190.6c1.1,0,1.9-0.9,1.9-1.9c0-1.1-0.9-1.9-1.9-1.9c-1.1,0-1.9,0.9-1.9,1.9
		C492.3,189.8,493.2,190.6,494.3,190.6C494.3,190.6,494.3,190.6,494.3,190.6z"/>
	<path class="st2" d="M494.3,195.4c-3.7,0-6.8-3-6.8-6.8c0-3.7,3-6.8,6.8-6.8c3.7,0,6.8,3,6.8,6.8c0,1.8-0.7,3.5-2,4.8
		C497.8,194.7,496,195.4,494.3,195.4z M494.3,182.4c-3.5,0-6.3,2.8-6.4,6.3c0,3.5,2.8,6.3,6.3,6.4c3.5,0,6.3-2.8,6.4-6.3
		c0-1.7-0.7-3.3-1.9-4.5C497.5,183,495.9,182.4,494.3,182.4L494.3,182.4z"/>
	<path class="st2" d="M564.9,150c1.1,0,1.9-0.9,1.9-1.9c0-1.1-0.9-1.9-1.9-1.9c-1.1,0-1.9,0.9-1.9,1.9v0
		C563,149.1,563.8,150,564.9,150z"/>
	<path class="st2" d="M649.7,249.7c1.1,0,1.9-0.9,1.9-1.9s-0.9-1.9-1.9-1.9c-1.1,0-1.9,0.9-1.9,1.9c0,0,0,0,0,0
		C647.7,248.9,648.6,249.7,649.7,249.7C649.7,249.7,649.7,249.7,649.7,249.7z"/>
	<path class="st2" d="M742.3,190.6c1.1,0,1.9-0.9,1.9-1.9s-0.9-1.9-1.9-1.9c-1.1,0-1.9,0.9-1.9,1.9
		C740.4,189.8,741.3,190.6,742.3,190.6C742.3,190.6,742.3,190.6,742.3,190.6z"/>
	<path class="st2" d="M332.9,190.6c0,1.1-0.9,1.9-1.9,1.9c-1.1,0-1.9-0.9-1.9-1.9c0-1.1,0.9-1.9,1.9-1.9c0.2,0,0.5,0.1,0.7,0.1
		c0.2,0.1,0.4,0.2,0.6,0.4c0.2,0.2,0.3,0.4,0.4,0.6C332.8,190.1,332.9,190.4,332.9,190.6z"/>
	<path class="st3" d="M760.5,281.6c-0.5,0.2-1,0.4-1.5,0.5c-1.5,0.4-2.9,0.9-4.4,1.5c-5.4,2.5-10.2,6.1-14,10.6
		c-5.3,5.7-10.5,13.6-17.1,22.5c-3.5,4.8-7.4,9.3-11.6,13.5c-2.4,2.3-4.9,4.4-7.6,6.2c-2.9,2-5.9,3.6-9.1,5
		c-6.9,2.8-14.3,4-21.8,3.7c-3.9-0.1-7.9-0.6-11.7-1.5c-4.1-0.9-8-2.6-11.4-5c-3.5-2.5-6.5-5.7-8.8-9.3c-2.4-3.5-4.6-7.3-6.8-11.1
		c-4.2-7.7-8.6-15.4-13.6-23.1c-5-7.7-9.5-16.1-14.5-24.2c-4.9-8.4-10.9-16.1-17.8-23c-3.6-3.4-7.6-6.3-12-8.6
		c-4.4-2.3-9.2-3.7-14.2-4.2c-10.2-1-20.5,1.2-29.5,6.3c-8.9,5.3-16.5,12.5-22.4,20.9c-5.9,8.2-11.3,16.8-16,25.8
		c-4.7,8.7-9.9,17.2-15.5,25.3c-5.4,7.8-11.7,15-18.8,21.4c-1.7,1.5-3.6,3-5.4,4.3c-1.9,1.4-3.8,2.6-5.8,3.8
		c-3.9,2.3-8.1,4-12.5,5.2c-2.1,0.6-4.3,1-6.5,1.2c-1.1,0.1-2.2,0.2-3.3,0.2h-3.3c-4.3-0.2-8.5-1-12.5-2.3
		c-7.6-2.7-14.7-6.4-21.2-11.1c-6.3-4.3-12-8.8-17.7-12.9c-5.2-4-10.8-7.4-16.8-10.2c-5.3-2.4-10.9-4-16.7-4.8c-5-0.6-10.1-0.3-15,1
		c-1.1,0.3-2.2,0.6-3.3,1c-1,0.3-2.1,0.7-3,1.2c-1.8,0.8-3.6,1.8-5.3,2.9c-2.8,1.9-5.5,4-8,6.4l-2.8,3c-0.8,0.8-1.5,1.7-2.2,2.6
		l-2.8,3.7c-0.3,0.4-0.7,0.8-1,1.2c0.2-0.5,0.5-1,0.8-1.4l2.6-3.9c0.7-0.9,1.4-1.9,2.1-2.7l2.7-3.2c2.4-2.5,5.1-4.7,8-6.7
		c1.7-1.2,3.5-2.2,5.3-3.1c1-0.5,2-1,3.1-1.3c1.1-0.5,2.2-0.8,3.3-1.1c5.1-1.4,10.3-1.8,15.5-1.2c6,0.6,11.8,2.2,17.3,4.7
		c6.1,2.8,11.9,6.2,17.2,10.2c5.7,4,11.5,8.5,17.7,12.7c6.4,4.5,13.3,8.1,20.7,10.6c3.9,1.2,7.9,1.9,12,2.1h3.1c1,0,2.1,0,3.1-0.2
		c2.1-0.2,4.2-0.6,6.2-1.2c8.5-2.4,16.3-6.8,22.8-12.7c6.9-6.3,13-13.3,18.3-21c5.6-8.1,10.7-16.4,15.3-25
		c4.8-9,10.2-17.8,16.2-26.1c6.2-8.8,14.1-16.2,23.3-21.7c4.7-2.7,9.8-4.6,15.1-5.7c5.2-1.1,10.6-1.4,15.9-0.9
		c5.3,0.5,10.4,2,15.2,4.5c4.6,2.4,8.8,5.4,12.6,9c7,7.1,13.1,15,18.2,23.5c5.1,8.2,9.6,16.5,14.5,24.3c4.8,7.8,9.4,15.7,13.6,23.3
		s8.4,15.1,14.8,19.7c3.2,2.3,6.8,3.9,10.6,4.7c3.7,0.9,7.5,1.4,11.3,1.5c7.2,0.4,14.3-0.7,21-3.3c3.1-1.3,6.1-2.9,8.8-4.7
		c2.6-1.8,5.1-3.8,7.4-6c4.2-4.1,8.1-8.5,11.6-13.2c6.7-8.8,12.1-16.7,17.6-22.3c4-4.5,9-8.1,14.6-10.4c1.5-0.6,3-1,4.5-1.3
		C759.5,281.8,760,281.7,760.5,281.6z"/>
	<path class="st2" d="M423.9,111.3h-94.8v5.3h94.8V111.3z"/>
	<path class="st2" d="M375.9,123.6h-46.8v5.3h46.8L375.9,123.6z"/>
	<path class="st2" d="M271.5,29.3H800c4.4,0,8,3.6,8,8l0,0v26.5H263.5V37.2C263.5,32.8,267.1,29.3,271.5,29.3
		C271.5,29.3,271.5,29.3,271.5,29.3L271.5,29.3z"/>
	<path class="st6" d="M291.8,47.2c0,2.1-1.7,3.7-3.7,3.7c-2.1,0-3.7-1.7-3.7-3.7c0-2.1,1.7-3.7,3.7-3.7c1,0,1.9,0.4,2.6,1.1
		C291.4,45.2,291.8,46.2,291.8,47.2z"/>
	<path class="st6" d="M308,47.2c0,2.1-1.7,3.7-3.7,3.7c-2.1,0-3.7-1.7-3.7-3.7c0-2.1,1.7-3.7,3.7-3.7c1,0,1.9,0.4,2.6,1.1
		C307.6,45.2,308,46.2,308,47.2z"/>
	<path class="st6" d="M324.2,47.2c0,2.1-1.7,3.7-3.7,3.7c-2.1,0-3.7-1.7-3.7-3.7c0-2.1,1.7-3.7,3.7-3.7c1,0,1.9,0.4,2.6,1.1
		C323.8,45.2,324.2,46.2,324.2,47.2z"/>
	<path class="st7" d="M272.1,312.7H60.2c-3.2,0-5.7,2.6-5.7,5.7v51.2c0,3.2,2.6,5.7,5.7,5.7h211.8c3.2,0,5.7-2.6,5.7-5.7v-51.2
		C277.8,315.3,275.2,312.7,272.1,312.7C272.1,312.7,272.1,312.7,272.1,312.7z"/>
	<path class="st6" d="M101.6,354.5c-4.7,5.9-13.3,6.8-19.1,2.1c-5.9-4.7-6.8-13.3-2.1-19.1c4.7-5.9,13.3-6.8,19.1-2.1
		c4.3,3.4,6.1,9.1,4.5,14.4C103.5,351.5,102.7,353.1,101.6,354.5z"/>
	<path class="st2" d="M98.6,341.3c-2.2,2.8-4.7,5.4-7.4,7.8c-0.6,0.6-1.2,1.2-1.8,1.8l-0.3,0.3l-0.3-0.3c-2-1.9-3.9-3.9-5.5-6.1
		c2.2,1.6,4.3,3.5,6.1,5.5h-0.6l1.8-1.8C93.1,345.9,95.8,343.5,98.6,341.3z"/>
	<path class="st2" d="M256,339.4c0,0.2-28.3,0.5-63.4,0.5s-63.4-0.2-63.4-0.5c0-0.2,28.3-0.5,63.4-0.5S256,339.2,256,339.4z"/>
	<path class="st2" d="M204,351.8c0,0.2-16.4,0.5-36.7,0.5s-36.7-0.2-36.7-0.5s16.4-0.5,36.6-0.5S204,351.6,204,351.8z"/>
	<path class="st0" d="M335.9,161.9H125c-2.6,0-4.6,2.1-4.6,4.6l0,0v82.1c0,2.6,2.1,4.6,4.6,4.6l0,0h210.8c2.6,0,4.6-2.1,4.6-4.6l0,0
		v-82.1C340.5,164,338.5,161.9,335.9,161.9C335.9,161.9,335.9,161.9,335.9,161.9z"/>
	<path class="st3" d="M166.1,190.8c0,5.7-4.6,10.3-10.3,10.3c-5.7,0-10.3-4.6-10.3-10.3c0-5.7,4.6-10.3,10.3-10.3
		c4.2,0,7.9,2.5,9.5,6.3C165.9,188.1,166.1,189.5,166.1,190.8z"/>
	<path class="st3" d="M247.9,183.7h-71.5v4h71.5V183.7z"/>
	<path class="st6" d="M315.5,192.7H176.4v4h139.1L315.5,192.7z"/>
	<path class="st3" d="M166.1,222.3c0,5.7-4.6,10.2-10.3,10.2c-5.7,0-10.2-4.6-10.2-10.3c0-5.7,4.6-10.2,10.3-10.2
		c4.1,0,7.9,2.5,9.4,6.3C165.9,219.7,166.1,221,166.1,222.3z"/>
	<path class="st3" d="M212.9,215.3h-36.5v4h36.5V215.3z"/>
	<path class="st6" d="M315.5,224.3H176.4v4h139.1L315.5,224.3z"/>
	<path class="st0" d="M436.2,402.3h-270c-3.9,0-7,3.1-7,7V516c0,3.9,3.1,7,7,7c0,0,0,0,0,0h270c3.9,0,7-3.1,7-7l0,0V409.3
		C443.2,405.4,440.1,402.3,436.2,402.3z"/>
	<path class="st3" d="M211.2,460.6l-0.2-24.5c-7.5,0.1-14.6,2.9-20.2,7.9c-7.3,6.3-10.9,15.8-9.7,25.3c0.1,1.2,0.3,2.4,0.6,3.5
		c0,0,0,0.1,0,0.1l29.5-6.6L211.2,460.6z"/>
	<path class="st3" d="M241.6,453.1c-4.4-9.4-13.5-15.8-23.8-16.7l-0.9-0.1h-2.5l0.2,24.5v5.7l29.5,6.3c0.5-2.1,0.7-4.2,0.7-6.4
		C244.6,461.9,243.6,457.3,241.6,453.1z"/>
	<g class="st4">
		<path class="st5" d="M241.6,453.1c-4.4-9.4-13.5-15.8-23.8-16.7l-0.9-0.1h-2.5l0.2,24.5v5.7l29.5,6.3c0.5-2.1,0.7-4.2,0.7-6.4
			C244.6,461.9,243.6,457.3,241.6,453.1z"/>
	</g>
	<path class="st3" d="M212.7,469.4l-29.5,6.7c3.7,16.3,19.9,26.5,36.2,22.8c11.4-2.6,20.4-11.6,22.9-23L212.7,469.4"/>
	<g class="st8">
		<path class="st9" d="M212.7,469.4l-29.5,6.7c3.7,16.3,19.9,26.5,36.2,22.8c11.4-2.6,20.4-11.6,22.9-23L212.7,469.4"/>
	</g>
	<path class="st6" d="M414.4,443.5H264.5v6.8h149.9V443.5z"/>
	<path class="st6" d="M414.4,461.4H264.5v6.8h149.9V461.4z"/>
	<path class="st6" d="M345.5,481.2h-81v6.8h81V481.2z"/>
	<path class="st7" d="M771.5,316.7H505.1c-8.2,0-14.9,6.7-14.9,14.9l0,0v255.4c0,8.2,6.7,14.9,14.9,14.9c0,0,0,0,0,0h266.4
		c8.2,0,14.9-6.7,14.9-14.9c0,0,0,0,0,0V331.6C786.4,323.4,779.7,316.7,771.5,316.7L771.5,316.7z"/>
	<path class="st2" d="M520.6,512h-9.7v2.8h9.7V512z"/>
	<path class="st2" d="M545.4,527h-12.4v2.8h12.4V527z"/>
	<path class="st2" d="M588.6,527h-12.4v2.8h12.4L588.6,527z"/>
	<path class="st2" d="M631.9,527h-12.4v2.8h12.4V527z"/>
	<path class="st2" d="M675.2,527h-12.4v2.8h12.4L675.2,527z"/>
	<path class="st2" d="M718.4,527H706v2.8h12.4L718.4,527z"/>
	<path class="st2" d="M761.7,527h-12.4v2.8h12.4V527z"/>
	<path class="st2" d="M520.6,474.6h-9.7v2.8h9.7V474.6z"/>
	<path class="st2" d="M520.6,404.2h-9.7v2.8h9.7V404.2z"/>
	<path class="st2" d="M520.6,368.9h-9.7v2.8h9.7V368.9z"/>
	<path class="st2" d="M521.1,439.4h-9.7v2.8h9.7V439.4z"/>
	<path class="st2" d="M761.3,514.8h-4.1l-11.8,0.1l-43.3,0.1l-142.7,0.1h-34.3v-0.4c0-47.8,0.1-89.7,0.2-119.8c0-15,0.1-27,0.1-35.4
		v-12c0-0.3,0-0.6,0-0.8c0,0.3,0,0.6,0,0.8v12c0,8.3,0.1,20.4,0.1,35.4c0,30.1,0.1,72.1,0.2,119.8l-0.5-0.5h33.8l142.7,0.1l43.3,0.1
		l11.8,0.1h3.1L761.3,514.8z"/>
	<path class="st2" d="M764.1,440.8c0,0.3-51.3,0.5-114.5,0.5s-114.5-0.2-114.5-0.5c0-0.3,51.3-0.5,114.5-0.5
		S764.1,440.6,764.1,440.8z"/>
	<path class="st2" d="M764.1,405.7c0,0.2-51.3,0.5-114.5,0.5s-114.5-0.2-114.5-0.5s51.3-0.5,114.5-0.5S764.1,405.4,764.1,405.7z"/>
	<path class="st2" d="M764.1,370.3c0,0.2-51.3,0.5-114.5,0.5s-114.5-0.2-114.5-0.5s51.3-0.5,114.5-0.5S764.1,370,764.1,370.3z"/>
	<path class="st2" d="M764.1,476c0,0.2-51.3,0.5-114.5,0.5s-114.5-0.2-114.5-0.5s51.3-0.5,114.5-0.5S764.1,475.8,764.1,476z"/>
	<path class="st3" d="M537.5,507.2V476l19.5-30.2l13.2,10.1l27.1-42.1l15.9,11.3l22.3-38.9l18.1,14.7l27.1-51.5l29.2,57.6l23.6-28.8
		l27.8-8v137L537.5,507.2z"/>
	<path class="st2" d="M764.1,359.2h-7.6l-21.3,0.1h0.2l-22.9,29.9l-0.1,0.1h-0.2l-57.2,0.1l0.4-0.2l-24.1,40.1l-23.6,39.3l-0.3,0.6
		l-0.4-0.5l-31-42.6h0.6L548.2,470c-3.4,5.3-6,9.3-7.9,12.2c-0.9,1.4-1.6,2.4-2.1,3.2c-0.5,0.8-0.7,1.1-0.7,1.1s0.2-0.4,0.7-1.1
		c0.4-0.7,1.1-1.9,2-3.3l7.7-12.3l28-44.2l0.3-0.5l0.3,0.4c9.3,12.7,19.8,27,31.1,42.6h-0.7l23.6-39.3l24.1-40.1l0.1-0.2h57.5
		l-0.3,0.1l23-29.8v-0.1h0.1l21.3,0.1h7.1L764.1,359.2z"/>
	<path class="st2" d="M585.6,435.8c0,1.2-0.9,2.2-2.1,2.3c-1.2,0-2.2-0.9-2.3-2.1c0-1.2,0.9-2.2,2.1-2.3c0,0,0,0,0.1,0
		C584.6,433.6,585.5,434.5,585.6,435.8C585.6,435.7,585.6,435.7,585.6,435.8z"/>
	<path class="st2" d="M651.6,398.2c0,1.2-0.9,2.2-2.1,2.2c-1.2,0-2.2-0.9-2.2-2.1c0-1.2,0.9-2.2,2.1-2.2c0.3,0,0.6,0,0.8,0.2
		C651.1,396.5,651.6,397.3,651.6,398.2z"/>
	<path class="st2" d="M702.9,389c0,1.2-0.9,2.3-2.1,2.3c-1.2,0-2.3-0.9-2.3-2.1c-0.1-1.2,0.9-2.3,2.1-2.3c0,0,0.1,0,0.1,0
		C701.9,386.8,702.9,387.8,702.9,389C702.9,389,702.9,389,702.9,389z"/>
	<path class="st6" d="M547.1,578.1c7.6-0.3,13.4-6.6,13.2-14.2c-0.3-7.6-6.6-13.4-14.2-13.2c-7.3,0.3-13.2,6.3-13.2,13.7
		C533.1,572.1,539.4,578.2,547.1,578.1z"/>
	<path class="st6" d="M749.3,555.3H582.4v5.1h166.9V555.3z"/>
	<path class="st6" d="M651.7,568h-69.3v5.1h69.3V568z"/>
	<path class="st7" d="M878.9,95.3H699.8c-4.8,0-8.7,3.9-8.7,8.7v145.6c0,4.8,3.9,8.7,8.7,8.7h179.1c4.8,0,8.7-3.9,8.7-8.7
		c0,0,0,0,0,0V104C887.6,99.2,883.7,95.3,878.9,95.3z"/>
	<path class="st3" d="M735.9,160.6h-10.6v80h10.6V160.6z"/>
	<path class="st3" d="M784.1,154.1h-10.6v86.5h10.6V154.1z"/>
	<path class="st3" d="M834,143.1h-10.6v97.5H834V143.1z"/>
	<path class="st3" d="M810.6,201.6H800v39h10.6V201.6z"/>
	<g class="st4">
		<path class="st5" d="M828,201.6h-10.6v39H828V201.6z"/>
	</g>
	<path class="st3" d="M748.3,152h-10.6v88.6h10.6V152z"/>
	<g class="st8">
		<path class="st9" d="M748.3,152h-10.6v88.6h10.6V152z"/>
	</g>
	<path class="st3" d="M797.3,133.4h-10.6v107.1h10.6V133.4z"/>
	<g class="st8">
		<path class="st9" d="M797.3,133.4h-10.6v107.1h10.6V133.4z"/>
	</g>
	<path class="st3" d="M861.4,133.4h-10.6v107.1h10.6V133.4z"/>
	<g class="st4">
		<path class="st5" d="M861.4,133.4h-10.6v107.1h10.6V133.4z"/>
	</g>
	<path class="st3" d="M847.5,112.3h-10.6v128.3h10.6V112.3z"/>
	<g class="st8">
		<path class="st9" d="M847.5,112.3h-10.6v128.3h10.6V112.3z"/>
	</g>
	<path class="st3" d="M761.3,184.3h-10.6v56.2h10.6V184.3z"/>
	<g class="st4">
		<path class="st5" d="M761.3,184.3h-10.6v56.2h10.6V184.3z"/>
	</g>
	<path class="st2" d="M876.5,245.4c0,0.3-37.8,0.5-84.5,0.5s-84.5-0.2-84.5-0.5c0-0.3,37.8-0.5,84.5-0.5S876.5,245.2,876.5,245.4z"
		/>
	<path class="st2" d="M709.1,226.3h-6.5v2.1h6.5L709.1,226.3z"/>
	<path class="st2" d="M709.1,197.9h-6.5v2.1h6.5L709.1,197.9z"/>
	<path class="st2" d="M709.1,144.3h-6.5v2.1h6.5L709.1,144.3z"/>
	<path class="st2" d="M709.1,117.3h-6.5v2.1h6.5L709.1,117.3z"/>
	<path class="st2" d="M709.5,171.1H703v2.1h6.5V171.1z"/>
	<path class="st3" d="M660.6,82H470.4c-3.2,0-5.7,2.6-5.7,5.7v45.1c0,3.2,2.6,5.7,5.7,5.7h190.2c3.2,0,5.7-2.6,5.7-5.7V87.7
		C666.3,84.6,663.8,82,660.6,82L660.6,82z"/>
	<path class="st6" d="M507.1,119.7c-4.2,5.4-12,6.3-17.4,2c-5.4-4.2-6.3-12-2-17.4c4.2-5.4,12-6.3,17.4-2c2.6,2.1,4.3,5.1,4.6,8.4
		C510.1,113.9,509.2,117.2,507.1,119.7z"/>
	<path class="st2" d="M497.5,124.4c-6.8-0.4-12.1-6.2-11.7-13c0.3-5.8,4.6-10.6,10.4-11.6c0.5,0,0.9,0,1.4,0
		c6.8,0.1,12.3,5.7,12.3,12.5c0,2.7-1,5.4-2.7,7.5c-2,2.6-5,4.2-8.3,4.5C498.5,124.4,498,124.4,497.5,124.4z M497.5,99.8
		c-0.5,0-0.9,0-1.4,0c-6.8,0.7-11.7,6.8-10.9,13.6c0.7,6.8,6.8,11.7,13.6,10.9c6.8-0.7,11.7-6.8,10.9-13.6
		C509.1,104.5,503.8,99.8,497.5,99.8L497.5,99.8z"/>
	<path class="st3" d="M504.5,107.8c-2,2.6-4.2,4.9-6.6,7.1l-1.6,1.6l-0.3,0.3l-0.3-0.3c-1.8-1.7-3.5-3.5-4.9-5.6
		c2,1.4,3.9,3.1,5.6,4.9h-0.6l1.6-1.6C499.4,111.9,501.9,109.7,504.5,107.8z"/>
	<path class="st6" d="M646.6,106.1c0,0.2-25.6,0.5-57.2,0.5c-31.6,0-57.3-0.2-57.3-0.5s25.6-0.5,57.3-0.5
		C621,105.7,646.6,105.9,646.6,106.1z"/>
	<path class="st6" d="M599.7,117.3c0,0.2-14.8,0.5-33.1,0.5s-33.1-0.2-33.1-0.5c0-0.2,14.8-0.5,33.1-0.5S599.7,117.1,599.7,117.3z"
		/>
	<path class="st2" d="M975.6,189.6c0,0-0.2,0.3-0.7,0.8c-0.5,0.5-1.2,1.4-2.2,2.4c-3.1,2.8-6.5,5.2-10.3,7.1
		c-1.3,0.7-2.6,1.3-3.9,1.8l-2.2,0.8l-2.3,0.6c-1.7,0.4-3.3,0.7-5,1c-0.9,0.1-1.8,0.1-2.7,0.2c-0.9,0.1-1.9,0.1-2.8,0
		c-8.7-0.1-17.1-2.8-24.2-7.8h0.3l-21.1,4.2l-1.2,0.2l0.8-0.9l11.6-13.3v0.5c-2.1-2.9-3.8-6-5.2-9.2c-1.4-3.4-2.3-7-2.8-10.6
		c-3-23.3,13.4-44.6,36.7-47.6c12.8-1.6,25.7,2.6,35,11.6c13.2,12.6,16.7,32.4,8.7,48.8c-0.4,0.8-0.8,1.6-1.2,2.3
		c-0.4,0.7-0.8,1.3-1.2,1.9c-0.6,1-1.3,2-2.1,2.9l-1.4,1.8c-0.1,0.2-0.3,0.4-0.5,0.6c0.1-0.2,0.3-0.4,0.4-0.6l1.3-1.8
		c0.7-0.9,1.4-1.9,2-3c0.3-0.6,0.8-1.2,1.2-1.9c0.4-0.7,0.7-1.5,1.1-2.3c7.7-16.2,4.1-35.6-8.9-48c-2.8-2.8-6.1-5.1-9.6-6.9
		c-3.7-2-7.7-3.3-11.8-4.1c-22.6-4.1-44.4,10.8-48.5,33.5c-0.8,4.2-0.9,8.6-0.3,12.8c0.5,3.6,1.4,7,2.7,10.4c1.3,3.2,3,6.2,5.1,9
		l0.2,0.3l-0.2,0.3l-11.6,13l-0.4-0.7l21.1-4h0.3c6.9,4.9,15.2,7.7,23.8,7.8c0.9,0.1,1.8,0.1,2.8,0c0.9,0,1.8,0,2.7-0.2
		c1.7-0.2,3.3-0.5,5-0.9l2.3-0.6l2.2-0.8c1.3-0.5,2.6-1,3.9-1.6c3.7-1.8,7.2-4.1,10.3-6.9c1.1-1,1.8-1.8,2.3-2.3
		C975,190,975.3,189.8,975.6,189.6z"/>
	<path class="st2" d="M944.3,153.1l-7.1-2.4l-7.1-2.4l1.5,7.3l1.5,7.3l3.9-3.4l16.6,18.7l3.5-3.1l-16.6-18.7L944.3,153.1z"/>
	<path class="st3" d="M909.9,645.9l-11.4-11.5l21.4-21.6l16.9,16.7l-1.2,1.4c-5.6,6.3-28.8,31.6-33.9,34.4
		C895.8,668.3,909.9,645.9,909.9,645.9z"/>
	<path class="st2" d="M928.8,637.1c-1.5-2.1-2.2-4.7-1.9-7.3c0.3-2.6,1.5-4.9,3.4-6.6l6.1,6L928.8,637.1z"/>
	<path class="st2" d="M903.3,657.2c0,0-4.5,8.3-2.7,8.5s26.3-24.4,36.1-36.2l-0.5-0.4L908,658C908,658,904.6,656,903.3,657.2z"/>
	<path class="st10" d="M936.6,628.6c-0.1,0.1-0.2,0.3-0.3,0.4c-0.3,0.3-0.6,0.7-1,1.1l-3.7,4.1c-3.2,3.4-7.6,8.1-12.6,13.2
		c-5,5.1-9.6,9.6-13,12.8l-4,3.8l-1.1,1c-0.1,0.1-0.3,0.2-0.4,0.3l0.3-0.4l1.1-1.1l4-3.8c3.3-3.3,7.9-7.8,13-12.8s9.5-9.7,12.7-13.1
		l3.8-4l1-1.1C936.4,628.8,936.5,628.7,936.6,628.6z"/>
	<path class="st10" d="M908.3,658.3c-0.8-0.5-1.7-0.8-2.6-1.1c-0.9-0.2-1.9-0.2-2.8-0.2c0.9-0.4,2-0.5,2.9-0.2
		C906.8,657,907.7,657.5,908.3,658.3z"/>
	<path class="st10" d="M911.4,648.8c-0.5,0.1-1,0-1.5-0.1c-0.5-0.1-1-0.2-1.4-0.5c0-0.1,0.7,0,1.5,0.1
		C910.8,648.4,911.5,648.6,911.4,648.8z"/>
	<path class="st10" d="M912.2,646.1c0,0.1-0.6,0.2-1.3,0.3c-0.4,0.1-0.9,0-1.3-0.1c0-0.1,0.6-0.2,1.3-0.3
		C911.6,645.9,912.2,646,912.2,646.1z"/>
	<path class="st10" d="M911.3,643c-0.3,0.5-0.6,0.9-1,1.3c-0.6,0.6-1.2,1.1-1.2,1c-0.1-0.1,0.3-0.7,1-1.3
		C910.4,643.6,910.8,643.2,911.3,643z"/>
	<path class="st10" d="M910.2,641.2c-0.1,0.6-0.4,1.2-0.9,1.6c-0.4,0.5-0.9,0.9-1.5,1.1c0-0.1,0.5-0.6,1.2-1.4
		S910.1,641.1,910.2,641.2z"/>
	<path class="st10" d="M908.8,647.6c-0.4,0.5-0.8,1-1.4,1.4c-0.6,0.4-1.1,0.8-1.8,1.2c-0.4,0.2-0.8,0.4-1.2,0.5
		c-0.2,0.1-0.5,0.1-0.8,0c-0.1-0.1-0.2-0.2-0.3-0.3c-0.1-0.1-0.1-0.3-0.1-0.4c0.6-1.9,2.6-2.9,4.5-2.3c0.2,0.1,0.5,0.2,0.7,0.3
		c0.3,0.2,0.4,0.3,0.4,0.3c-0.5-0.3-1.1-0.5-1.8-0.5c-0.7,0-1.4,0.1-1.9,0.4c-0.7,0.4-1.3,1-1.5,1.8c0,0.4,0.3,0.5,0.7,0.4
		c0.3-0.2,0.7-0.3,1-0.6c0.6-0.3,1.2-0.7,1.8-1.1C907.7,648.3,908.3,648,908.8,647.6z"/>
	<path class="st10" d="M908.5,648c-0.5-0.1-0.9-0.4-1.1-0.8c-0.3-0.4-0.5-0.9-0.6-1.4c-0.1-0.3-0.1-0.6,0-0.9
		c0.1-0.3,0.2-0.6,0.4-0.8c0.4-0.2,0.8-0.1,1.1,0.2c0.2,0.3,0.3,0.5,0.4,0.8c0.1,0.5,0.2,1,0.2,1.5
		C908.9,647.1,908.8,647.6,908.5,648l0.1-1.4c0-0.5-0.1-0.9-0.3-1.4c-0.1-0.5-0.5-1.1-0.9-0.8c-0.2,0.2-0.3,0.5-0.3,0.7
		c-0.1,0.3-0.1,0.5,0,0.8c0.1,0.5,0.3,0.9,0.5,1.3C907.9,647.5,908.2,647.8,908.5,648z"/>
	<path class="st10" d="M930.2,623.3c-0.6,0.5-1.1,1-1.5,1.6c-2.3,2.9-2.7,6.8-1.1,10.1c0.6,1.3,1.2,1.9,1.2,1.9
		c-0.1,0-0.2-0.1-0.4-0.4c-0.4-0.4-0.7-0.9-0.9-1.4c-1.8-3.4-1.4-7.5,1.1-10.4c0.4-0.4,0.8-0.8,1.2-1.2
		C929.9,623.5,930,623.3,930.2,623.3z"/>
	<path class="st10" d="M919,616.6c1.6,1.3,3.2,2.7,4.6,4.2c1.5,1.4,3,2.9,4.4,4.5c-1.6-1.3-3.2-2.7-4.6-4.2
		C921.9,619.6,920.4,618.1,919,616.6z"/>
	<path class="st10" d="M924.1,637.7c-0.8,1.3-1.7,2.5-2.8,3.5c-1,1.1-2.1,2.1-3.4,2.9c0,0,1.4-1.4,3.1-3.2
		C922.7,639.3,924,637.7,924.1,637.7z"/>
	<path class="st10" d="M928.2,633.5c0.1,0,0.2,0.4,0.4,0.9c0.2,0.5,0.4,0.8,0.3,0.9c-0.1,0.1-0.5-0.2-0.7-0.8
		S928.1,633.5,928.2,633.5z"/>
	<path class="st10" d="M927.8,629.9c0.1,0,0.2,0.4,0.2,0.8c0,0.4,0,0.8-0.2,0.8c-0.2,0-0.2-0.3-0.2-0.8
		C927.6,630.3,927.7,629.9,927.8,629.9z"/>
	<path class="st10" d="M929.2,626.8c0,0-0.2,0.4-0.4,0.8s-0.2,0.8-0.3,0.8c-0.1,0-0.2-0.5,0-1S929.1,626.7,929.2,626.8z"/>
	<path class="st10" d="M930.4,624.7v0.5c0,0.2-0.3,0.4-0.3,0.4c-0.1-0.1,0-0.3,0-0.5S930.2,624.6,930.4,624.7z"/>
	<path class="st3" d="M822.3,664.9l0.4-16.2l30.4,0.5l-0.3,23.8l-1.9,0.1c-8.4,0.3-42.7,1-48.3-0.8
		C796.3,670.3,822.3,664.9,822.3,664.9z"/>
	<path class="st2" d="M841.8,672.5c0.5-2.6,1.9-4.8,4-6.4c2-1.5,4.5-2.3,7.1-2.1l-0.1,8.5H841.8z"/>
	<path class="st2" d="M809.6,667.9c0,0-9.1,2.5-8,4c1.1,1.5,35.8,2.1,51.1,1v-0.7l-40.5-0.3C812.2,671.9,811.4,668.1,809.6,667.9z"
		/>
	<path class="st10" d="M853.2,672.3h-2l-5.5,0.1c-4.7,0.1-11.1,0.1-18.3,0c-7.1-0.1-13.6-0.3-18.2-0.6l-5.5-0.3l-1.5-0.1h-0.5
		c0.2,0,0.3,0,0.5,0h1.5l5.5,0.2c4.7,0.2,11.1,0.4,18.2,0.5c7.1,0.1,13.6,0.1,18.2,0.1h7.1C852.9,672.2,853,672.2,853.2,672.3z"/>
	<path class="st10" d="M812.2,672.4c-0.3-1.9-1.3-3.6-2.8-4.8c0.9,0.4,1.7,1.1,2.2,1.9C812.1,670.4,812.3,671.4,812.2,672.4z"/>
	<path class="st10" d="M821.2,668c-0.4-0.4-0.7-0.8-0.9-1.2c-0.4-0.7-0.7-1.3-0.6-1.4c0.1-0.1,0.5,0.5,0.9,1.2
		C821,667.3,821.3,667.9,821.2,668z"/>
	<path class="st10" d="M823.7,666.7c0,0.1-0.5-0.2-1.1-0.7c-0.5-0.5-0.9-0.9-0.8-1c0.1-0.1,0.5,0.2,1.1,0.7
		C823.4,666.2,823.8,666.7,823.7,666.7z"/>
	<path class="st10" d="M825.4,664c-0.5,0.2-1.1,0.2-1.6,0.2c-0.5,0.1-1.1,0-1.6-0.2c0.5-0.2,1.1-0.2,1.6-0.2
		C824.3,663.7,824.8,663.8,825.4,664z"/>
	<path class="st10" d="M825.8,661.9c-1.1,0.6-2.4,0.6-3.5,0.2c0.6-0.1,1.2-0.1,1.8-0.1C824.7,661.9,825.3,661.9,825.8,661.9z"/>
	<path class="st10" d="M820.3,665.3c-0.7,0.1-1.3,0.1-2,0c-0.7-0.1-1.4-0.3-2.1-0.5c-0.4-0.1-0.8-0.3-1.2-0.5
		c-0.2-0.1-0.4-0.4-0.5-0.6c-0.1-0.3,0.1-0.6,0.3-0.8c1.5-0.7,3.4-0.3,4.4,1.1c0.3,0.4,0.5,0.8,0.6,1.3c0,0.2,0,0.3,0,0.5
		c-0.2-0.6-0.5-1.2-0.9-1.7c-0.4-0.5-1-0.9-1.6-1.1c-0.8-0.3-1.6-0.2-2.3,0.1c-0.3,0.2-0.2,0.6,0.1,0.8c0.3,0.2,0.7,0.4,1.1,0.5
		c0.7,0.2,1.3,0.4,2,0.5C819,665.1,819.6,665.2,820.3,665.3z"/>
	<path class="st10" d="M819.8,665.4c-0.2-0.4-0.3-0.9-0.2-1.4c0.1-0.5,0.3-1,0.5-1.4c0.3-0.6,1-0.9,1.6-1c0.1,0,0.2,0.1,0.3,0.1
		c0.1,0.1,0.2,0.1,0.2,0.2c0.1,0.1,0.1,0.2,0.1,0.3c0,0.1,0,0.2,0,0.3c0,0.3-0.2,0.6-0.3,0.9c-0.3,0.4-0.6,0.8-1,1.2
		c-0.3,0.4-0.7,0.6-1.1,0.8c0.3-0.3,0.7-0.6,1-1c0.3-0.4,0.6-0.7,0.8-1.1c0.3-0.4,0.5-1.2,0-1.3c-0.5-0.1-1,0.4-1.3,0.8
		c-0.3,0.4-0.5,0.8-0.6,1.3C819.8,664.5,819.7,665,819.8,665.4z"/>
	<path class="st10" d="M852.7,664c-0.7-0.1-1.5-0.1-2.2,0c-3.7,0.3-6.8,2.7-8.1,6.2c-0.5,1.3-0.5,2.2-0.6,2.2c0-0.2,0-0.4,0-0.6
		c0.1-0.6,0.2-1.1,0.3-1.6c1.2-3.6,4.5-6.2,8.3-6.4c0.6-0.1,1.1-0.1,1.7,0C852.5,663.8,852.7,664,852.7,664z"/>
	<path class="st10" d="M849.8,651.2c0.2,2.1,0.2,4.2,0.2,6.3c0.1,2.1,0,4.2-0.2,6.2c-0.2-2.1-0.2-4.2-0.2-6.2
		C849.5,655.4,849.6,653.3,849.8,651.2z"/>
	<path class="st10" d="M837.9,669.5c-1.5,0.3-3,0.4-4.5,0.3c-1.5,0-3-0.1-4.4-0.4c0-0.1,2,0,4.4,0
		C835,669.3,836.5,669.4,837.9,669.5z"/>
	<path class="st10" d="M843.9,669.6c0,0-0.2,0.4-0.4,0.9c-0.2,0.4-0.3,0.8-0.4,0.8c-0.1,0-0.2-0.5,0-1
		C843.3,669.8,843.8,669.5,843.9,669.6z"/>
	<path class="st10" d="M846.2,666.8c-0.1,0.3-0.2,0.5-0.4,0.7c-0.3,0.3-0.6,0.5-0.7,0.4c-0.1-0.1,0.1-0.4,0.4-0.7
		S846.1,666.7,846.2,666.8z"/>
	<path class="st10" d="M849.4,665.6c0,0.1-0.4,0.1-0.9,0.2s-0.8,0.4-0.9,0.3c-0.1-0.1,0.2-0.5,0.7-0.7
		C849,665.3,849.5,665.5,849.4,665.6z"/>
	<path class="st10" d="M851.7,665c0,0.1-0.1,0.2-0.4,0.3c-0.2,0.1-0.5,0.1-0.5,0c0-0.1,0.1-0.2,0.4-0.3
		C851.4,665,851.7,664.9,851.7,665z"/>
	<path class="st11" d="M838.6,317.1c-11.3,33.3-31.6,93.5-31.6,93.5c-2.7,1.6-5.5,2.9-8.4,4c-2,0.5-4.1,0.7-6.2,0.6
		c-1-0.2-2.1,0.4-2.3,1.5c-0.1,0.6,0,1.2,0.4,1.7c1.2,1.2,6.5,2.1,12.4,0.3c5.9-1.8,1.5,7.2-0.4,10.2c-1.9,3-7.4,12.7-7.1,14
		c0.6,1.9,3,1.1,4.9-1.9c1.9-3,7.5-11.7,8.3-11.3c1.6,0.9-8.1,16.4-8.1,16.4s-2.2,2.7-0.5,4c3.1,2.4,12.6-14.2,13.4-15.9
		c0.6-1.1,1.4-0.2,0.7,0.9c-0.7,1.2-9,14.8-6.5,16.3c2.5,1.6,8.4-12,10.7-14.5c2.7-2.8-5.4,11.4-3.1,13c0.9,0.6,1.6,1,5.7-7.2
		c3.5-8,6.6-16.3,9.2-24.7c8.7-17.4,33.5-71,41.7-107.6"/>
	<path class="st3" d="M844.5,235.9c0,0,24.1-7,28.9,29.9c3,23.1,9.8,79,12.4,107.7c0.2,2.7-1.5,1.6-1.3,3.9c0.2,2.6,2.5,4.7,2.5,6.6
		c0,5.9-6.8,5.8-6.8,5.8l-63,3c0,0-5.9,0.1-5.9-5c0-3.9,2.5-5.6,2.7-8c2.7-34.5,2.6-120.5,6.5-132.4
		C824.3,236.1,826.7,235.9,844.5,235.9z"/>
	<path class="st2" d="M849.3,237.6c0.5,0.5,1,1,1.5,1.6c0.9,1,2.1,2.4,3.4,3.9c1.3,1.5,2.4,3,3.2,4.1c0.4,0.6,0.8,1.1,1.2,1.8
		c-0.5-0.5-1-1.1-1.4-1.7c-0.8-1-1.9-2.5-3.3-4c-1.3-1.5-2.5-2.9-3.4-4C850.1,238.8,849.7,238.2,849.3,237.6z"/>
	<path class="st2" d="M852.1,237c-0.3,0.2-0.7,0.3-1,0.5l-2.8,1.1c-2.4,1-5.7,2.2-9.3,3.5c-3.7,1.3-7.1,2.3-9.5,3.1l-2.9,0.8
		c-0.4,0.1-0.7,0.2-1.1,0.2c0.3-0.2,0.7-0.3,1-0.4l2.9-0.9c2.4-0.8,5.8-1.9,9.4-3.1c3.7-1.3,7-2.5,9.4-3.4l2.8-1
		C851.4,237.2,851.7,237.1,852.1,237z"/>
	<path class="st2" d="M825.8,239.4c0.3,2.2,0.3,4.5,0,6.7C825.6,243.9,825.6,241.6,825.8,239.4z"/>
	<path class="st0" d="M868.9,249c0,0.1-10.7,0.2-23.9,0.2s-23.9,0-23.9-0.2s10.7-0.2,23.9-0.2S868.9,248.9,868.9,249z"/>
	<path class="st0" d="M872,256.9c-0.2,0-0.3,0-0.5,0h-1.6l-5.7-0.2l-18.8-0.6l-18.8-0.3H819c0.2,0,0.4,0,0.5,0h7.2
		c4.8,0,11.4,0,18.8,0.2c7.3,0.2,14,0.5,18.8,0.7l5.7,0.3l1.5,0.1L872,256.9z"/>
	<path class="st0" d="M872.8,263.8c0,0.1-12.1,0.2-27,0.2c-14.9,0-27-0.1-27-0.2s12.1-0.2,27-0.2S872.8,263.8,872.8,263.8z"/>
	<path class="st0" d="M874.1,271.4c0,0.1-12.5,0.2-28,0.2c-15.5,0-28-0.1-28-0.2s12.5-0.2,28-0.2S874.1,271.2,874.1,271.4z"/>
	<path class="st0" d="M875.4,279.7c0,0.1-12.8,0.2-28.7,0.2c-15.8,0-28.7,0-28.7-0.2c0-0.2,12.8-0.2,28.7-0.2
		C862.6,279.5,875.4,279.6,875.4,279.7z"/>
	<path class="st0" d="M876.2,287.9c0,0.1-13,0.2-29.1,0.2c-16,0-29.1,0-29.1-0.2c0-0.2,13-0.2,29.1-0.2
		C863.2,287.7,876.2,287.8,876.2,287.9z"/>
	<path class="st0" d="M877.1,296.8c0,0.1-13.2,0.2-29.6,0.2s-29.6,0-29.6-0.2s13.2-0.2,29.6-0.2S877.1,296.7,877.1,296.8z"/>
	<path class="st0" d="M878.2,304.5c0,0.1-13.5,0.2-30.1,0.2s-30.1,0-30.1-0.2c0-0.2,13.4-0.2,30.1-0.2
		C864.8,304.3,878.2,304.4,878.2,304.5z"/>
	<path class="st0" d="M879.5,312.9c0,0.1-13.7,0.2-30.7,0.2s-30.7,0-30.7-0.2s13.7-0.2,30.7-0.2S879.5,312.8,879.5,312.9z"/>
	<path class="st0" d="M880.2,321.4c0,0-13.9,0.2-31,0.2c-17.1,0-31-0.1-31-0.2s13.9-0.2,31-0.2C866.3,321.2,880.2,321.2,880.2,321.4
		z"/>
	<path class="st0" d="M881.2,329.8c0,0.1-14.2,0.2-31.5,0.2c-17.4,0-31.5-0.1-31.5-0.2c0-0.1,14.2-0.2,31.5-0.2
		C867,329.6,881.2,329.6,881.2,329.8z"/>
	<path class="st0" d="M882.1,338.2c0,0.1-14.3,0.2-32,0.2s-32-0.1-32-0.2c0-0.1,14.3-0.2,32-0.2C867.8,338,882.1,338.1,882.1,338.2z
		"/>
	<path class="st0" d="M883.1,346.6c0,0.1-14.9,0.2-33.2,0.2s-33.2,0-33.2-0.2c0-0.2,14.9-0.2,33.2-0.2S883.1,346.5,883.1,346.6z"/>
	<path class="st0" d="M884,355.1c0,0.1-15.4,0.2-34.3,0.2c-18.9,0-34.3,0-34.3-0.2c0-0.2,15.4-0.2,34.3-0.2
		C868.6,354.9,884,355,884,355.1z"/>
	<path class="st0" d="M884.8,363.5c0,0.1-15.6,0.2-34.8,0.2s-34.9,0-34.9-0.2c0-0.2,15.6-0.2,34.9-0.2
		C869.2,363.3,884.8,363.4,884.8,363.5z"/>
	<path class="st0" d="M885.7,371.9c0,0.1-15.8,0.2-35.3,0.2c-19.5,0-35.3-0.1-35.3-0.2s15.8-0.2,35.3-0.2
		C869.9,371.8,885.7,371.9,885.7,371.9z"/>
	<path class="st0" d="M885.2,380.4c0,0.1-15.9,0-35.5-0.1c-19.6-0.1-35.6-0.4-35.6-0.5c0-0.1,15.9,0,35.6,0.1
		C869.3,380,885.2,380.3,885.2,380.4z"/>
	<path class="st0" d="M885.2,388.2c0,0.1-16.5,0.3-36.8,0.5c-20.3,0.2-36.8,0.3-36.8,0.2c0-0.1,16.5-0.3,36.8-0.5
		C868.7,388.1,885.2,388,885.2,388.2z"/>
	<path class="st3" d="M837.6,348.6c4.1,0.5,8.2-0.6,11.5-3c3.2-2.5,6-5.6,8.2-9.1c8.4-12.4,13.3-26.8,14.3-41.8
		c0.4-7.6,0.4-15.2-0.1-22.9c-2,14.8-5.7,29.3-11.1,43.2c-4.5,11.7-11.1,22.5-19.2,31.9"/>
	<g class="st4">
		<path class="st5" d="M837.6,348.6c4.1,0.5,8.2-0.6,11.5-3c3.2-2.5,6-5.6,8.2-9.1c8.4-12.4,13.3-26.8,14.3-41.8
			c0.4-7.6,0.4-15.2-0.1-22.9c-2,14.8-5.7,29.3-11.1,43.2c-4.5,11.7-11.1,22.5-19.2,31.9"/>
	</g>
	<path class="st2" d="M877.4,356.3c-2,2.1-4.1,4.1-6.3,5.9c-8.3,7-18,12.2-28.3,15.5c-3,0.9-6,1.7-9.1,2.3c-2.8,0.6-5.7,0.9-8.6,1.1
		l0.6-0.1l1.8-0.2c1.5-0.2,3.5-0.5,6.2-1c3.1-0.6,6.1-1.4,9.1-2.4c3.6-1.2,7.2-2.6,10.6-4.2c3.4-1.7,6.8-3.5,10-5.6
		c2.6-1.7,5.1-3.6,7.6-5.5c2.1-1.8,3.7-3.1,4.8-4.2l1.3-1.2L877.4,356.3z"/>
	<path class="st2" d="M860.1,316.4c-0.1,0-0.2,0-0.3-0.1l-1-0.3l-3.6-1.3l-11.9-4.4c-4.6-1.8-8.8-3.1-12-4l-3.7-1l-1-0.3l-0.3-0.1
		h0.3l1,0.2c0.9,0.2,2.2,0.5,3.7,0.9c3.1,0.8,7.4,2.2,12.1,3.9s8.8,3.4,11.8,4.5l3.5,1.4l1,0.4L860.1,316.4z"/>
	<path class="st2" d="M860.1,316.4c0,0,0.1-0.5,0.5-1.4l1.4-3.9c1.2-3.4,3-8.4,4.7-14.6c1.8-7.4,3.2-14.9,4.1-22.4
		c0.9-4.4,0.7-8.9-0.6-13.3c-0.8-2.2-2-4.3-3.5-6c-0.8-0.9-1.7-1.7-2.6-2.5c-0.9-0.8-1.9-1.5-3-2c-2.2-1-4.7-1.2-7.1-0.7
		c-2.3,0.4-4.5,1.3-6.5,2.7c-4,2.5-5.8,7-7.2,11c-2.7,8.1-5.1,15.5-7.2,21.7l-4.9,14.6c-0.6,1.6-1,3-1.3,4s-0.5,1.4-0.5,1.4l0.4-1.4
		l1.3-4c1.2-3.5,2.8-8.5,4.8-14.6c2-6.1,4.5-13.5,7.1-21.7c0.7-2.1,1.5-4.1,2.6-6.1c1.1-2,2.8-3.8,4.7-5.1c2-1.4,4.2-2.3,6.6-2.7
		c2.4-0.5,5-0.2,7.3,0.7c1.1,0.5,2.2,1.2,3.1,2.1c0.9,0.8,1.8,1.7,2.6,2.6c1.6,1.8,2.8,3.9,3.5,6.2c1.3,4.4,1.5,9,0.6,13.4
		c-1,7.6-2.4,15-4.2,22.4c-1.8,6.3-3.5,11.2-4.8,14.6S860.1,316.4,860.1,316.4z"/>
	<path class="st2" d="M875,417.7l1.4,102.8c0.1,7.1,0.8,14.2,2.2,21.1c1.9,9.5,5.3,21.9,10.8,29.5c8.3,11.6,37.7,44.6,37.7,44.6
		l-24.8,28.9c0,0-52.4-41.8-55.8-80.3c-1.8-19.6,0-136.7,0-136.7L875,417.7z"/>
	<path class="st2" d="M817.2,392.7l-0.6,266.1h41l7.2-231.5c0,0,11.9-7.8,13.9-17.8c2.8-13.5,1.6-19.8,1.6-19.8L817.2,392.7z"/>
	<path class="st10" d="M859.3,652.4h-44.5v6.4h44.5V652.4z"/>
	<path class="st10" d="M926.3,609.8l-30.6,32.3l4.7,4.4l30.6-32.3L926.3,609.8z"/>
	<path class="st2" d="M924.6,612.1c-0.1,0.1-0.2,0.2-0.2,0.3l-0.8,0.8l-2.8,3c-2.4,2.6-5.6,6.2-9.4,10.1c-3.7,3.9-7.1,7.1-9.7,9.7
		l-3,2.9l-0.8,0.8c-0.1,0.1-0.2,0.2-0.3,0.3c0.1-0.1,0.1-0.2,0.2-0.3l0.8-0.8l2.9-3l9.6-9.8l9.4-10l2.9-3l0.8-0.8
		C924.3,612.3,924.4,612.2,924.6,612.1z"/>
	<path class="st10" d="M848.5,391.4c0,0.2-0.1,0.5-0.1,0.7c-0.4,1.7-1.2,3.3-2.4,4.7c-1,1.1-2,2.2-3.1,3.2c-1.4,1.3-2.6,2.6-3.7,4.1
		c-1.2,1.8-1.1,4.1-1.2,6.4c-0.2,4.8-0.3,10.2-0.5,16.2s-0.4,12.6-0.7,19.6c-0.2,7-0.4,14.6-0.6,22.5c-0.4,15.9-1,33.3-1.4,51.6
		c-0.6,36.6-1.2,69.7-1.6,93.8c-0.4,23.4-0.7,36.4-0.7,38.9v-2.7c0-1.8,0-4.4,0.1-7.7c0-6.8,0.2-16.5,0.4-28.4
		c0.4-24,0.9-57.2,1.5-93.8c0.4-18.3,1-35.8,1.4-51.6c0.2-7.9,0.5-15.5,0.7-22.5c0.2-7,0.5-13.6,0.7-19.6c0.2-6,0.4-11.4,0.6-16.2
		c0.1-2.3,0-4.7,1.3-6.5c1.1-1.5,2.4-2.9,3.8-4.1c1.1-1,2.1-2,3.1-3.1c0.7-0.8,1.3-1.7,1.8-2.7c0.3-0.6,0.5-1.2,0.7-1.9L848.5,391.4
		z"/>
	<path class="st10" d="M824,394.6c-0.2-0.2-0.4-0.4-0.6-0.7c-0.2-0.4-0.3-0.8-0.2-0.9c0.1,0,0.3,0.3,0.6,0.7
		C824,394.1,824.1,394.5,824,394.6z"/>
	<path class="st10" d="M826.3,397.2c-0.3-0.1-0.5-0.3-0.8-0.5c-0.3-0.3-0.6-0.7-0.5-0.8c0.1-0.1,0.4,0.2,0.8,0.5
		C826.1,396.8,826.4,397.1,826.3,397.2z"/>
	<path class="st10" d="M829.4,399.1c0,0.1-0.4,0-0.9-0.2c-0.4-0.2-0.7-0.5-0.7-0.6c0-0.1,0.4,0,0.9,0.2
		C829.1,398.7,829.4,399,829.4,399.1z"/>
	<path class="st10" d="M832.7,400c0,0.1-0.4,0.1-0.9,0c-0.5-0.1-0.8-0.3-0.8-0.3s0.4-0.1,0.9,0S832.7,399.9,832.7,400z"/>
	<path class="st10" d="M836.2,399.9c0,0.1-0.3,0.2-0.8,0.3c-0.5,0.1-0.9,0-0.9-0.1s0.4-0.2,0.9-0.3
		C835.8,399.8,836.2,399.8,836.2,399.9z"/>
	<path class="st10" d="M839.6,398.6c-0.2,0.2-0.5,0.4-0.7,0.5c-0.5,0.2-0.8,0.3-0.9,0.2c0-0.1,0.3-0.3,0.7-0.5
		C838.9,398.7,839.2,398.6,839.6,398.6z"/>
	<path class="st10" d="M842.4,396.6c-0.1,0.3-0.3,0.5-0.5,0.7c-0.4,0.3-0.7,0.5-0.8,0.4c-0.1-0.1,0.2-0.4,0.5-0.7
		C841.9,396.7,842.3,396.5,842.4,396.6z"/>
	<path class="st10" d="M844.5,393.8c0.1,0,0,0.4-0.3,0.8c-0.3,0.4-0.5,0.7-0.6,0.6c-0.1-0.1,0-0.4,0.3-0.8S844.4,393.7,844.5,393.8z
		"/>
	<path class="st10" d="M845.4,391.5c0.1,0.1,0.1,0.2,0,0.3c-0.1,0.2-0.2,0.3-0.3,0.2c-0.1-0.1-0.1-0.2-0.1-0.3
		C845.1,391.6,845.3,391.5,845.4,391.5z"/>
	<path class="st10" d="M834.6,406.8c-0.1,0-0.2-0.4-0.2-0.9c0-0.5,0.1-0.9,0.2-0.9s0.2,0.4,0.2,0.9
		C834.8,406.4,834.7,406.8,834.6,406.8z"/>
	<path class="st10" d="M834.4,410.3c-0.1,0-0.2-0.4-0.2-0.9c0-0.5,0.1-0.9,0.2-0.9c0.1,0,0.2,0.4,0.2,0.9
		C834.6,409.9,834.5,410.3,834.4,410.3z"/>
	<path class="st10" d="M834.3,413.9c-0.1-0.3-0.1-0.6-0.1-0.9c0-0.5,0.1-0.9,0.2-0.9s0.2,0.4,0.2,0.9S834.4,413.9,834.3,413.9z"/>
	<path class="st10" d="M834.2,417.4c-0.1,0-0.2-0.4-0.2-0.9s0.1-0.9,0.2-0.9s0.2,0.4,0.2,0.9C834.4,417,834.3,417.4,834.2,417.4z"/>
	<path class="st10" d="M834.1,421c-0.1,0-0.2-0.4-0.2-0.9c0-0.5,0.1-0.9,0.2-0.9s0.2,0.4,0.2,0.9S834.2,421,834.1,421z"/>
	<path class="st10" d="M834,424.5c-0.1,0-0.2-0.4-0.2-0.9s0.1-0.9,0.2-0.9s0.2,0.4,0.2,0.9C834.2,424.1,834.1,424.5,834,424.5z"/>
	<path class="st10" d="M833.9,428c-0.1,0-0.2-0.4-0.2-0.9c0-0.5,0.1-0.9,0.2-0.9c0.1,0,0.2,0.4,0.2,0.9
		C834.1,427.6,834,428,833.9,428z"/>
	<path class="st10" d="M833.8,431.6c-0.1,0-0.2-0.4-0.2-0.9c0-0.5,0.1-0.9,0.2-0.9s0.2,0.4,0.2,0.9
		C834,431.2,833.9,431.6,833.8,431.6z"/>
	<path class="st10" d="M833.7,435.1c-0.1-0.3-0.2-0.6-0.2-0.9c0-0.5,0.1-0.9,0.2-0.9s0.2,0.4,0.2,0.9
		C833.9,434.7,833.8,435.1,833.7,435.1z"/>
	<path class="st10" d="M833.6,438.7c-0.1,0-0.2-0.4-0.2-0.9c0-0.5,0.1-0.9,0.2-0.9s0.2,0.4,0.2,0.9S833.7,438.7,833.6,438.7z"/>
	<path class="st10" d="M833.5,442.2c-0.1,0-0.2-0.4-0.2-0.9s0.1-0.9,0.2-0.9s0.2,0.4,0.2,0.9C833.7,441.8,833.6,442.2,833.5,442.2z"
		/>
	<path class="st10" d="M833.4,445.7c-0.1,0-0.2-0.4-0.2-0.9c0-0.5,0.1-0.9,0.2-0.9c0.1,0,0.2,0.4,0.2,0.9
		C833.6,445.4,833.5,445.7,833.4,445.7z"/>
	<path class="st10" d="M833.3,449.3c-0.1,0-0.2-0.4-0.2-0.9c0-0.5,0.1-0.9,0.2-0.9c0.1,0,0.2,0.4,0.2,0.9S833.4,449.3,833.3,449.3z"
		/>
	<path class="st10" d="M833.2,452.8c-0.1,0-0.2-0.4-0.2-0.9c0-0.5,0-0.9,0.2-0.9c0.2,0,0.2,0.4,0.2,0.9
		C833.4,452.4,833.3,452.8,833.2,452.8z"/>
	<path class="st10" d="M833.1,456.4c-0.1,0-0.2-0.4-0.2-0.9c0-0.5,0.1-0.9,0.2-0.9s0.2,0.4,0.2,0.9
		C833.3,456,833.2,456.4,833.1,456.4z"/>
	<path class="st10" d="M833,459.9c-0.1,0-0.2-0.4-0.2-0.9s0-0.9,0.2-0.9c0.2,0,0.2,0.4,0.2,0.9C833.2,459.5,833.2,459.9,833,459.9z"
		/>
	<path class="st10" d="M832.9,463.5c-0.1,0-0.2-0.4-0.2-0.9c0-0.5,0.1-0.9,0.2-0.9c0.1,0,0.2,0.4,0.2,0.9S833.1,463.5,832.9,463.5z"
		/>
	<path class="st10" d="M832.9,467c-0.1,0-0.2-0.4-0.2-0.9s0.1-0.9,0.2-0.9s0.2,0.4,0.2,0.9C833.1,466.4,833.1,466.7,832.9,467z"/>
	<path class="st10" d="M832.8,470.5c-0.1,0-0.2-0.4-0.2-0.9c0-0.5,0.1-0.9,0.2-0.9s0.2,0.4,0.2,0.9
		C833,470.2,832.9,470.5,832.8,470.5z"/>
	<path class="st10" d="M832.7,474.1c-0.1,0-0.2-0.4-0.2-0.9s0.1-0.9,0.2-0.9c0.1,0,0.2,0.4,0.2,0.9S832.8,474.1,832.7,474.1z"/>
	<path class="st10" d="M832.6,477.6c-0.1,0-0.2-0.4-0.2-0.9c0-0.5,0.1-0.9,0.2-0.9s0.2,0.4,0.2,0.9S832.7,477.6,832.6,477.6z"/>
	<path class="st10" d="M832.6,481.2c-0.1-0.3-0.2-0.6-0.2-0.9c0-0.5,0.1-0.9,0.2-0.9c0.1,0,0.2,0.4,0.2,0.9
		C832.8,480.8,832.7,481.2,832.6,481.2z"/>
	<path class="st10" d="M832.5,484.7c-0.1,0-0.2-0.4-0.2-0.9s0.1-0.9,0.2-0.9c0.1,0,0.2,0.4,0.2,0.9
		C832.7,484.3,832.6,484.7,832.5,484.7z"/>
	<path class="st10" d="M832.4,488.3c-0.1,0-0.2-0.4-0.2-0.9s0.1-0.9,0.2-0.9s0.2,0.4,0.2,0.9C832.6,487.9,832.5,488.3,832.4,488.3z"
		/>
	<path class="st10" d="M832.3,491.8c-0.1,0-0.2-0.4-0.2-0.9c0-0.5,0.1-0.9,0.2-0.9c0.1,0,0.2,0.4,0.2,0.9
		C832.5,491.4,832.4,491.8,832.3,491.8z"/>
	<path class="st10" d="M832.2,495.4c-0.1-0.3-0.2-0.6-0.2-0.9c0-0.5,0.1-0.9,0.2-0.9s0.2,0.4,0.2,0.9
		C832.5,495,832.4,495.4,832.2,495.4z"/>
	<path class="st10" d="M832.2,498.9c-0.1,0-0.2-0.4-0.2-0.9c0-0.5,0.1-0.9,0.2-0.9c0.1,0,0.2,0.4,0.2,0.9
		C832.4,498.5,832.3,498.9,832.2,498.9z"/>
	<path class="st10" d="M832.1,502.5c-0.1-0.3-0.2-0.6-0.2-0.9c0-0.5,0.1-0.9,0.2-0.9c0.1,0,0.2,0.4,0.2,0.9
		C832.3,502.1,832.2,502.5,832.1,502.5z"/>
	<path class="st10" d="M832,506c-0.1-0.3-0.2-0.6-0.2-0.9c0-0.5,0.1-0.9,0.2-0.9c0.1,0,0.2,0.4,0.2,0.9S832.1,506,832,506z"/>
	<path class="st10" d="M832,509.6c-0.1,0-0.2-0.4-0.2-0.9s0.1-0.9,0.2-0.9s0.2,0.4,0.2,0.9C832.2,509.2,832.1,509.6,832,509.6z"/>
	<path class="st10" d="M831.9,513.1c-0.1,0-0.2-0.4-0.2-0.9c0-0.5,0.1-0.9,0.2-0.9s0.2,0.4,0.2,0.9
		C832.1,512.7,832,513.1,831.9,513.1z"/>
	<path class="st10" d="M831.8,516.7c-0.1,0-0.2-0.4-0.2-0.9s0.1-0.9,0.2-0.9s0.2,0.4,0.2,0.9C832,516.3,832,516.7,831.8,516.7z"/>
	<path class="st10" d="M831.8,520.2c-0.1,0-0.2-0.4-0.2-0.9c0-0.5,0-0.9,0.2-0.9c0.2,0,0.2,0.4,0.2,0.9S831.9,520.2,831.8,520.2z"/>
	<path class="st10" d="M831.7,523.8c-0.1-0.3-0.2-0.6-0.2-0.9c0-0.5,0-0.9,0.2-0.9c0.2,0,0.2,0.4,0.2,0.9
		C831.9,523.4,831.8,523.8,831.7,523.8z"/>
	<path class="st10" d="M831.6,527.3c-0.1,0-0.2-0.4-0.2-0.9c0-0.5,0.1-0.9,0.2-0.9c0.1,0,0.2,0.4,0.2,0.9
		C831.8,526.9,831.7,527.3,831.6,527.3z"/>
	<path class="st10" d="M831.6,530.9c-0.1,0-0.2-0.4-0.2-0.9c0-0.5,0.1-0.9,0.2-0.9s0.2,0.4,0.2,0.9
		C831.8,530.4,831.7,530.9,831.6,530.9z"/>
	<path class="st10" d="M831.5,534.4c-0.1,0-0.2-0.4-0.2-0.9c0-0.5,0-0.9,0.2-0.9c0.2,0,0.2,0.4,0.2,0.9
		C831.7,534,831.6,534.4,831.5,534.4z"/>
	<path class="st10" d="M831.5,538c-0.1,0-0.2-0.4-0.2-0.9c0-0.5,0.1-0.9,0.2-0.9c0.1,0,0.2,0.4,0.2,0.9
		C831.6,537.6,831.5,538,831.5,538z"/>
	<path class="st10" d="M831.4,541.5c-0.1,0-0.2-0.4-0.2-0.9c0-0.5,0.1-0.9,0.2-0.9c0.1,0,0.2,0.4,0.2,0.9
		C831.6,541.1,831.5,541.5,831.4,541.5z"/>
	<path class="st10" d="M831.3,545.1c-0.1,0-0.2-0.4-0.2-0.9s0-0.9,0.2-0.9c0.2,0,0.2,0.4,0.2,0.9S831.4,545.1,831.3,545.1z"/>
	<path class="st10" d="M831.3,548.6c-0.1,0-0.2-0.4-0.2-0.9c0-0.5,0.1-0.9,0.2-0.9c0.1,0,0.2,0.4,0.2,0.9
		C831.4,548.2,831.3,548.6,831.3,548.6z"/>
	<path class="st10" d="M831.1,552.2c-0.1,0-0.2-0.4-0.2-0.9s0.1-0.9,0.2-0.9c0.1,0,0.2,0.4,0.2,0.9
		C831.3,551.8,831.3,552.2,831.1,552.2z"/>
	<path class="st10" d="M831.1,555.7c-0.1,0-0.2-0.4-0.2-0.9s0.1-0.9,0.2-0.9s0.2,0.4,0.2,0.9C831.4,555.1,831.3,555.4,831.1,555.7z"
		/>
	<path class="st10" d="M831,559.3c-0.1,0-0.2-0.4-0.2-0.9s0.1-0.9,0.2-0.9c0.1,0,0.2,0.4,0.2,0.9S831.2,559.3,831,559.3z"/>
	<path class="st10" d="M831,562.8c-0.1,0-0.2-0.4-0.2-0.9s0.1-0.9,0.2-0.9s0.2,0.4,0.2,0.9C831.2,562.4,831.1,562.8,831,562.8z"/>
	<path class="st10" d="M830.9,566.3c-0.1,0-0.2-0.4-0.2-0.9c0-0.5,0.1-0.9,0.2-0.9s0.2,0.4,0.2,0.9C831.1,566,831,566.4,830.9,566.3
		z"/>
	<path class="st10" d="M830.9,569.9c-0.1,0-0.2-0.4-0.2-0.9c0-0.5,0-0.9,0.2-0.9c0.2,0,0.2,0.4,0.2,0.9
		C831.1,569.5,831,569.9,830.9,569.9z"/>
	<path class="st10" d="M830.8,573.5c-0.1,0-0.2-0.4-0.2-0.9c0-0.5,0.1-0.9,0.2-0.9c0.1,0,0.2,0.4,0.2,0.9S830.9,573.5,830.8,573.5z"
		/>
	<path class="st10" d="M830.7,577c-0.1,0-0.2-0.4-0.2-0.9c0-0.5,0.1-0.9,0.2-0.9c0.1,0,0.2,0.4,0.2,0.9
		C830.9,576.6,830.8,577,830.7,577z"/>
	<path class="st10" d="M830.7,580.5c-0.1,0-0.2-0.4-0.2-0.9s0.1-0.9,0.2-0.9s0.2,0.4,0.2,0.9C830.8,580.2,830.8,580.5,830.7,580.5z"
		/>
	<path class="st10" d="M830.6,584.1c-0.1,0-0.2-0.4-0.2-0.9c0-0.5,0-0.9,0.2-0.9s0.2,0.4,0.2,0.9S830.7,584.1,830.6,584.1z"/>
	<path class="st10" d="M830.5,587.6c-0.1,0-0.2-0.4-0.2-0.9s0.1-0.9,0.2-0.9s0.2,0.4,0.2,0.9C830.7,587.2,830.6,587.6,830.5,587.6z"
		/>
	<path class="st10" d="M830.4,591.2c-0.1,0-0.2-0.4-0.2-0.9c0-0.5,0-0.9,0.2-0.9c0.2,0,0.2,0.4,0.2,0.9S830.6,591.2,830.4,591.2z"/>
	<path class="st10" d="M830.4,594.7c-0.1,0-0.2-0.4-0.2-0.9c0-0.5,0-0.9,0.2-0.9c0.2,0,0.2,0.4,0.2,0.9
		C830.6,594.3,830.5,594.7,830.4,594.7z"/>
	<path class="st10" d="M830.3,598.3c-0.1,0-0.2-0.4-0.2-0.9c0-0.5,0.1-0.9,0.2-0.9s0.2,0.4,0.2,0.9
		C830.5,597.9,830.4,598.3,830.3,598.3z"/>
	<path class="st10" d="M830.2,601.8c-0.1,0-0.2-0.4-0.2-0.9c0-0.5,0.1-0.9,0.2-0.9s0.2,0.4,0.2,0.9
		C830.4,601.4,830.3,601.8,830.2,601.8z"/>
	<path class="st10" d="M830.2,605.4c-0.1,0-0.2-0.4-0.2-0.9s0.1-0.9,0.2-0.9c0.1,0,0.2,0.4,0.2,0.9
		C830.3,605,830.3,605.4,830.2,605.4z"/>
	<path class="st10" d="M830.1,608.9c-0.1-0.3-0.2-0.6-0.2-0.9c0-0.5,0.1-0.9,0.2-0.9s0.2,0.4,0.2,0.9
		C830.3,608.5,830.2,608.9,830.1,608.9z"/>
	<path class="st10" d="M830,612.4c-0.1,0-0.2-0.4-0.2-0.9c0-0.5,0-0.9,0.2-0.9s0.2,0.4,0.2,0.9C830.2,612.1,830.1,612.5,830,612.4z"
		/>
	<path class="st10" d="M829.9,616c-0.1,0-0.2-0.4-0.2-0.9c0-0.5,0.1-0.9,0.2-0.9c0.1,0,0.2,0.4,0.2,0.9
		C830.1,615.6,830,616,829.9,616z"/>
	<path class="st10" d="M829.8,619.5c-0.1,0-0.2-0.4-0.2-0.9s0.1-0.9,0.2-0.9c0.1,0,0.2,0.4,0.2,0.9S830,619.5,829.8,619.5z"/>
	<path class="st10" d="M829.8,623.1c-0.1,0-0.2-0.4-0.2-0.9c0-0.5,0.1-0.9,0.2-0.9c0.1,0,0.2,0.4,0.2,0.9
		C830,622.7,829.9,623.1,829.8,623.1z"/>
	<path class="st10" d="M829.7,626.6c-0.1,0-0.2-0.4-0.2-0.9c0-0.5,0-0.9,0.2-0.9c0.2,0,0.2,0.4,0.2,0.9
		C829.9,626.2,829.8,626.6,829.7,626.6z"/>
	<path class="st10" d="M829.6,630.2c-0.1,0-0.2-0.4-0.2-0.9c0-0.5,0.1-0.9,0.2-0.9c0.1,0,0.2,0.4,0.2,0.9
		C829.8,629.8,829.7,630.2,829.6,630.2z"/>
	<path class="st10" d="M829.5,633.7c-0.1,0-0.2-0.4-0.2-0.9c0-0.5,0.1-0.9,0.2-0.9s0.2,0.4,0.2,0.9
		C829.7,633.3,829.6,633.7,829.5,633.7z"/>
	<path class="st10" d="M829.4,637.2c-0.1,0-0.2-0.4-0.2-0.9s0.1-0.9,0.2-0.9s0.2,0.4,0.2,0.9C829.6,636.9,829.5,637.2,829.4,637.2z"
		/>
	<path class="st10" d="M829.4,640.8c-0.1,0-0.2-0.4-0.2-0.9s0.1-0.9,0.2-0.9s0.2,0.4,0.2,0.9C829.6,640.2,829.5,640.5,829.4,640.8z"
		/>
	<path class="st10" d="M829.2,644.3c-0.1,0-0.2-0.4-0.2-0.9c0-0.5,0.1-0.9,0.2-0.9c0.1,0,0.2,0.4,0.2,0.9
		C829.5,643.9,829.4,644.3,829.2,644.3z"/>
	<path class="st10" d="M829.2,647.9c-0.1,0-0.2-0.4-0.2-0.9c0-0.5,0.1-0.9,0.2-0.9c0.1,0,0.2,0.4,0.2,0.9
		C829.3,647.4,829.2,647.9,829.2,647.9z"/>
	<path class="st10" d="M829.1,651.2c-0.1,0-0.2-0.3-0.2-0.8c0-0.4,0.1-0.8,0.2-0.8s0.2,0.3,0.2,0.8
		C829.2,650.9,829.2,651.2,829.1,651.2z"/>
	<path class="st11" d="M826.2,245.2C826,241.6,825,226,825,226s-11.1-0.7-12.2-11.6c-1.2-10.9-1.6-36.2-1.6-36.2
		c12.1-6.6,26.9-6.2,38.7,1.1l2.8,1.8l0.3,12.8l-0.6,11.5l-0.5,31.4l-25.6,8.5C826.2,245.3,826.2,245.2,826.2,245.2z"/>
	<path class="st2" d="M812.9,195.7c0,0.6,0.4,1.1,0.9,1.3c0.2,0.1,0.4,0.1,0.5,0.1c0.6,0,1.1-0.4,1.3-0.9c0.1-0.3,0.1-0.5,0-0.8
		c-0.1-0.8-0.9-1.3-1.6-1.1C813.3,194.4,812.8,195,812.9,195.7L812.9,195.7z"/>
	<path class="st2" d="M812.8,195.3c0.2,0.2,1.2-0.8,2.7-0.9c1.5-0.1,2.7,0.5,2.8,0.3c0.2-0.2-0.1-0.4-0.6-0.7
		c-0.7-0.4-1.5-0.6-2.3-0.5c-0.8,0.1-1.5,0.4-2.1,1C812.8,194.8,812.7,195.2,812.8,195.3z"/>
	<path class="st2" d="M830,193.9c-0.3,0.2-0.5,0.5-0.5,0.9c0,0.2,0,0.4,0,0.5c0,0.2,0.1,0.3,0.2,0.5c0.5,0.6,1.3,0.7,2,0.3
		c0.1-0.1,0.3-0.3,0.4-0.4c0.1-0.2,0.2-0.3,0.2-0.5c0-0.4-0.1-0.7-0.3-1c-0.4-0.5-1-0.6-1.5-0.5C830.3,193.7,830.1,193.8,830,193.9
		L830,193.9z"/>
	<path class="st2" d="M829.5,194.5c0.2,0.2,1.2-0.7,2.7-0.9c1.5-0.2,2.7,0.5,2.8,0.3c0.1-0.2-0.1-0.4-0.6-0.7
		c-0.7-0.4-1.5-0.6-2.3-0.5c-0.8,0.1-1.5,0.4-2.1,1C829.5,194.1,829.4,194.4,829.5,194.5z"/>
	<path class="st2" d="M824.6,207.6c-0.8,0.2-1.6,0.3-2.5,0.3c-0.5,0.1-1.1-0.1-1.4-0.6c-0.2-0.5-0.2-1.1,0-1.6
		c0.3-1.1,0.5-2.1,0.8-3.2c0.6-2.8,1.5-5.5,2.6-8c-0.4,2.8-1,5.6-1.9,8.3c-0.3,1-0.6,2.1-0.9,3.2c-0.2,0.4-0.2,0.8-0.2,1.2
		c0,0.2,0.4,0.3,0.8,0.3C822.9,207.2,823.8,207.3,824.6,207.6z"/>
	<path class="st6" d="M829.6,208.7c1.5-1.1-4.1,2.7-7.2,2.8c1.2,1.5,3.3,2,5.1,1.2C830.7,211.2,829.6,208.7,829.6,208.7z"/>
	<path class="st12" d="M825,226.2c5.2-0.4,10.1-2.4,14.3-5.5c0,0-2.9,8.2-13.9,8.2L825,226.2z"/>
	<path class="st2" d="M846.9,171.8c-3-2.6-6.4-4.7-10.1-6.3c-3.7-1.6-7.9-1.7-11.6-0.2c-1.6,0.8-3.1,2-4.8,2.6
		c-3.5,1.4-8,0.3-11.1,2.6c-2.8,2.3-3.5,6.3-1.8,9.5c1.8,3.1,5,5.1,8.6,5.4c3.5,0.3,7.1-0.2,10.4-1.5c1.9-1,4-1.2,6-0.8
		c1.8,0.7,3.1,2.7,5.1,2.9c2,0.2,3.7-1.1,5,0c0.5,0.5,0.7,1.2,0.8,1.9c0.7,3.8,2.9,11.4,3.5,15.1c2.5,1.1,3.7-2.2,6.3-2.3
		c0.4-8.3,4-16.7,1.9-24.8c-0.4-2-1.5-3.9-3.2-5.1c-1.7-1.2-4.1-1-5.6,0.6"/>
	<path class="st11" d="M848.6,192.2c0.2-0.1,7.3-2.7,8.6,6.1c1.3,8.8-8,7.2-8.1,6.9S848.6,192.2,848.6,192.2z"/>
	<path class="st12" d="M851.3,201.7c0.1,0.1,0.3,0.1,0.4,0.2c0.4,0.1,0.8,0.1,1.2-0.1c1-0.9,1.5-2.3,1.3-3.7
		c-0.1-0.8-0.3-1.5-0.7-2.1c-0.1-0.3-0.3-0.5-0.5-0.7c-0.2-0.2-0.5-0.3-0.8-0.3c-0.4,0-0.7,0.2-0.8,0.5v0.5c0,0-0.2-0.1-0.2-0.5
		c0-0.2,0.1-0.4,0.3-0.6c0.2-0.2,0.5-0.3,0.8-0.3c0.7,0.1,1.4,0.5,1.8,1.2c0.5,0.7,0.8,1.5,0.9,2.4c0.3,1.6-0.4,3.2-1.8,4.1
		c-0.5,0.2-1,0.2-1.5,0C851.3,201.9,851.3,201.7,851.3,201.7z"/>
	<path class="st2" d="M845,165.9c0.2,0,0.8,1.3,1.2,3.1s0.5,3.3,0.3,3.3c-0.2,0.1-0.8-1.3-1.2-3.1C844.9,167.5,844.7,166,845,165.9z
		"/>
	<path class="st2" d="M848.8,166.4c0.2,0-0.2,1.5-0.9,3.2c-0.7,1.7-1.5,2.9-1.8,2.8c-0.3-0.1,0.2-1.5,0.9-3.2
		C847.8,167.5,848.6,166.2,848.8,166.4z"/>
	<path class="st11" d="M827.5,305.3c-0.6,2.5-1.6,4.9-3.1,7c-5,5.5-48.5-41.7-48.5-41.7c-0.4-3.1-0.5-6.1-0.3-9.2c0.4-2,1-4,1.9-5.8
		c0.6-0.9,0.4-2.1-0.5-2.7c-0.5-0.3-1.1-0.4-1.6-0.3c-1.6,0.6-4.4,5-5.1,11.1c-0.7,6-7.1-1.5-9-4.4c-2-2.9-8.5-11.7-9.9-11.8
		c-2-0.2-2.2,2.3-0.2,5.1c2,2.9,7.7,11.4,6.9,11.9c-1.5,1.1-11.6-13.7-11.6-13.7s-1.6-3.1-3.5-2.1c-3.4,1.8,7.9,17,9.1,18.4
		c0.8,1-0.3,1.4-1.1,0.3c-0.8-1.1-9.9-14-12.2-12.4c-2.4,1.6,7.6,12.4,8.9,15.4c1.5,3.5-8.1-9.4-10.6-7.9c-0.9,0.5-1.5,1.1,4.3,8
		c5.9,6.3,12.2,12.3,18.8,17.9c12.4,14.7,55,63.5,75,60.7c4.5-0.5,8.6-3,11-6.8c5.3-8.3,9.9-17,13.6-26.1L827.5,305.3z"/>
	<path class="st3" d="M357.9,661.6l-0.4-16.2l-30.4,0.5l0.3,23.7l1.9,0.1c8.4,0.3,42.7,1,48.3-0.8
		C383.9,666.9,357.9,661.6,357.9,661.6z"/>
	<path class="st2" d="M338.4,669.3c-0.5-2.6-1.9-4.8-4-6.4c-2-1.6-4.5-2.3-7.1-2.1l0.2,8.5H338.4z"/>
	<path class="st2" d="M370.6,664.6c0,0,9.1,2.5,8,4c-1.1,1.5-35.8,2.1-51.1,1V669l40.5-0.3C368,668.6,368.9,664.7,370.6,664.6z"/>
	<path class="st10" d="M327,668.9h7.6c4.7,0,11.1,0,18.2-0.1c7.1-0.1,13.6-0.3,18.2-0.5l5.5-0.2h1.5c0.2,0,0.4,0,0.5,0h-0.5
		l-1.5,0.1l-5.5,0.3c-4.7,0.2-11.1,0.5-18.3,0.6c-7.1,0.1-13.6,0-18.2,0L329,669h-1.5L327,668.9z"/>
	<path class="st10" d="M368,669.1c-0.1-1,0.1-2,0.7-2.8c0.5-0.9,1.2-1.6,2.2-2c-0.7,0.7-1.3,1.4-1.8,2.2
		C368.6,667.3,368.3,668.2,368,669.1z"/>
	<path class="st10" d="M359,664.7c0.1-0.5,0.3-1,0.6-1.4c0.4-0.7,0.8-1.2,0.9-1.2c0.1,0.1-0.2,0.7-0.6,1.4S359.1,664.7,359,664.7z"
		/>
	<path class="st10" d="M356.5,663.4c0.2-0.4,0.5-0.7,0.8-1c0.5-0.5,1-0.8,1-0.7c0.1,0.1-0.3,0.5-0.8,1S356.5,663.5,356.5,663.4z"/>
	<path class="st10" d="M354.9,660.6c0.5-0.2,1.1-0.2,1.6-0.2c0.5-0.1,1.1,0,1.6,0.2c-0.5,0.2-1.1,0.3-1.6,0.2
		C355.9,660.8,355.4,660.8,354.9,660.6z"/>
	<path class="st10" d="M354.3,658.6c0.6,0,1.2,0,1.8,0.1c0.6,0,1.2,0,1.8,0.1c-0.5,0.3-1.2,0.4-1.8,0.3
		C355.4,659.1,354.8,659,354.3,658.6z"/>
	<path class="st10" d="M359.9,662c0.6,0,1.3-0.1,1.9-0.3c0.7-0.1,1.3-0.3,2-0.5c0.4-0.1,0.7-0.3,1.1-0.5c0.3-0.2,0.5-0.6,0.1-0.8
		c-0.7-0.3-1.6-0.4-2.3-0.1c-0.6,0.2-1.2,0.6-1.6,1.1c-0.4,0.5-0.7,1.1-0.9,1.7c0-0.2,0-0.4,0-0.5c0.1-0.5,0.3-0.9,0.6-1.3
		c1-1.4,2.9-1.9,4.4-1.1c0.1,0.1,0.2,0.2,0.3,0.3c0.1,0.1,0.1,0.3,0,0.4c-0.1,0.3-0.2,0.5-0.5,0.6c-0.4,0.2-0.8,0.4-1.2,0.5
		c-0.7,0.2-1.4,0.4-2.1,0.5C361.2,662.1,360.6,662.1,359.9,662z"/>
	<path class="st10" d="M360.5,662.2c0-0.4,0-0.9,0-1.3c-0.1-0.5-0.3-0.9-0.6-1.3c-0.3-0.4-0.8-0.9-1.3-0.8c-0.5,0.1-0.3,0.8,0,1.2
		c0.2,0.4,0.5,0.8,0.8,1.2c0.5,0.6,1,0.9,0.9,1c-0.4-0.2-0.8-0.4-1.1-0.8c-0.4-0.3-0.7-0.7-0.9-1.2c-0.2-0.3-0.3-0.6-0.3-0.9
		c0-0.2,0-0.4,0.1-0.6c0.1-0.2,0.3-0.3,0.5-0.3c0.7,0,1.3,0.4,1.6,1c0.3,0.4,0.5,0.9,0.5,1.4C360.8,661.3,360.7,661.8,360.5,662.2z"
		/>
	<path class="st10" d="M327.5,660.6c0.2-0.1,0.4-0.1,0.6-0.2c0.6-0.1,1.1-0.1,1.7,0c1.9,0.1,3.6,0.8,5.1,1.9
		c1.5,1.1,2.6,2.7,3.2,4.5c0.2,0.5,0.3,1.1,0.3,1.6c0,0.2,0,0.4,0,0.6c-0.1-0.7-0.4-1.5-0.6-2.2c-1.3-3.5-4.4-5.9-8.1-6.2
		C329,660.7,328.3,660.6,327.5,660.6z"/>
	<path class="st10" d="M330.5,647.9c0.2,2.1,0.3,4.2,0.2,6.2c0,2.1,0,4.2-0.2,6.3c-0.2-2.1-0.3-4.2-0.2-6.2
		C330.3,652.1,330.3,650,330.5,647.9z"/>
	<path class="st10" d="M342.3,666.2c0-0.1,2,0,4.4,0c1.5-0.1,3-0.1,4.4,0c-1.5,0.3-2.9,0.5-4.4,0.4
		C345.2,666.6,343.7,666.5,342.3,666.2z"/>
	<path class="st10" d="M336.3,666.3c0.3,0.2,0.6,0.4,0.7,0.7c0.2,0.5,0.2,1,0.1,1s-0.2-0.4-0.4-0.8
		C336.5,666.7,336.2,666.3,336.3,666.3z"/>
	<path class="st10" d="M334.1,663.5c0.3,0.1,0.5,0.2,0.7,0.4c0.3,0.3,0.5,0.6,0.5,0.7c-0.1,0.1-0.4-0.1-0.7-0.4
		S333.9,663.6,334.1,663.5z"/>
	<path class="st10" d="M330.8,662.3c0-0.1,0.4-0.3,1-0.1c0.5,0.2,0.8,0.6,0.7,0.7c-0.1,0.1-0.4-0.2-0.8-0.3
		C331.2,662.4,330.8,662.4,330.8,662.3z"/>
	<path class="st10" d="M328.5,661.7c0-0.1,0.3-0.1,0.5,0c0.3,0.1,0.4,0.2,0.4,0.3c0,0.1-0.3,0.1-0.5,0
		C328.6,662,328.5,661.8,328.5,661.7z"/>
	<path class="st11" d="M464.4,206.3c0,0,25.9-26.8,28.3-25.6c2.4,1.2-9.5,12.1-7.9,13.5c1.6,1.4,14.2,10.9-6.1,26L464.4,206.3z"/>
	<path class="st12" d="M486.8,198.5c-0.1,0.3-0.2,0.5-0.4,0.8c-0.4,0.7-0.8,1.4-1.3,2.1c-0.4,0.7-1.3,2-1.9,3
		c-0.4,0.6-0.9,1.2-1.5,1.6c-0.8,0.4-1.7,0.3-2.3-0.3c-0.4-0.7-0.4-1.7,0.1-2.3c0.4-0.7,0.8-1.2,1.1-1.8c0.7-1,1.3-2,2-3l1.4-2
		c0.2-0.3,0.3-0.5,0.5-0.7c-0.1,0.3-0.2,0.6-0.4,0.8l-1.3,2.1c-0.6,1-1.2,2-1.9,3.1l-1.1,1.8c-0.4,0.6-0.5,1.3-0.2,1.9
		c0.5,0.4,1.2,0.5,1.8,0.2c0.6-0.4,1.1-0.8,1.4-1.4l2-3l1.4-2C486.3,199,486.5,198.7,486.8,198.5z"/>
	<path class="st12" d="M488.1,201.5c0,0.3,0,0.5-0.1,0.8c-0.2,0.7-0.4,1.4-0.7,2c-0.4,0.9-1,1.8-1.7,2.6c-0.4,0.5-0.9,0.9-1.4,1.2
		c-0.6,0.4-1.5,0.4-2-0.2c-0.2-0.3-0.4-0.6-0.4-1c0-0.4,0-0.7,0.2-1.1c0.2-0.6,0.6-1.1,1-1.6c0.7-0.9,1.2-1.8,1.7-2.6
		c0.4-0.6,0.7-1.2,1.2-1.8c0.1-0.2,0.3-0.4,0.5-0.6c-0.1,0.2-0.2,0.5-0.4,0.7c-0.3,0.6-0.7,1.2-1,1.8c-0.3,0.6-1,1.7-1.6,2.7
		c-0.4,0.5-0.7,1-0.9,1.5c-0.1,0.3-0.2,0.6-0.1,0.9c0,0.3,0.1,0.6,0.3,0.8c0.4,0.4,1.1,0.4,1.6,0.1c0.5-0.3,1-0.7,1.3-1.1
		c0.7-0.8,1.2-1.6,1.7-2.5C487.5,203.2,487.8,202.4,488.1,201.5z"/>
	<path class="st11" d="M472.5,200.8l9.5-0.6c0.2,0,0.3,0,0.5,0c0.5,0.2,0.6,0.9,0.5,1.4c-0.5,1.6-1.7,3-3.3,3.5
		c-1.6,0.5-3.2,0.8-4.9,0.8l-4.6,0.3"/>
	<path class="st12" d="M470.3,206.1c0.3-0.1,0.7-0.1,1-0.1l2.8-0.2c1.4-0.1,2.7-0.2,4.1-0.5c1.6-0.3,3.1-1.2,4.1-2.5
		c0.4-0.7,0.8-1.6,0.4-2.2c-0.2-0.3-0.6-0.2-1-0.2l-1.2,0.1l-4.1,0.2l-2.8,0.1c-0.3,0-0.7,0-1,0c0.3-0.1,0.7-0.1,1-0.1l2.8-0.2
		l4.1-0.3h1.2c0.2,0,0.4,0,0.6,0c0.3,0,0.5,0.1,0.7,0.3c0.1,0.2,0.2,0.5,0.2,0.7c0,0.2,0,0.5-0.1,0.7c-0.1,0.4-0.3,0.9-0.6,1.3
		c-1,1.4-2.6,2.4-4.3,2.7c-1.4,0.2-2.8,0.4-4.2,0.4l-2.8,0.1C471,206.3,470.6,206.2,470.3,206.1z"/>
	<path class="st12" d="M489.7,204c0,0-0.1,0.2-0.2,0.6c-0.2,0.5-0.4,1-0.5,1.6c-0.2,0.8-0.5,1.6-0.9,2.3c-0.3,0.4-0.6,0.8-1.1,1.1
		c-0.3,0.2-0.6,0.2-0.8,0.2c-0.2,0-0.3-0.1-0.4-0.2c-0.1-0.1-0.2-0.2-0.3-0.3c-0.3-0.5-0.3-1.1-0.1-1.6c0.2-0.5,0.4-0.9,0.6-1.4
		l1-2.2c0.3-0.7,0.6-1.4,1-2c-0.2,0.7-0.5,1.4-0.8,2.1l-0.9,2.3c-0.3,0.8-1,1.8-0.5,2.7c0.1,0.1,0.1,0.2,0.2,0.2
		c0.2,0.1,0.4,0.2,0.6,0.1c0.1,0,0.2-0.1,0.3-0.1c0.4-0.2,0.7-0.6,1-1c0.4-0.7,0.7-1.4,0.9-2.2C488.9,205.3,489.3,204.6,489.7,204z"
		/>
	<path class="st12" d="M477.7,213.7c-0.1,0,0.4-1.8,0.5-4.1s-0.1-4.1,0-4.1c0.4,1.3,0.5,2.7,0.4,4.1
		C478.5,211.1,478.2,212.5,477.7,213.7z"/>
	<path class="st2" d="M354.3,197.4c0,7,3.7,13.5,9.6,17.2c1.7,0.8,3.2,1.8,4.8,2.8c1.5,1.1,2.5,2.8,2.6,4.7c-0.1,2.9-3.1,4.7-5.6,6
		c2.9,2.7,3.1,7.2,0.4,10.1c-2.7,2.9-7.2,3.1-10.1,0.4c-0.2-0.2-0.4-0.4-0.5-0.6c-0.4,5.5-4.3,10.2-9.7,11.7
		c-5.3,1.3-11,0.2-15.4-3.1c-4.3-3.3-7.7-7.7-9.8-12.7"/>
	<path class="st11" d="M341.1,247.9c-0.5-2.7,0.6-14.2,0.6-14.2s10.5-1.1,11.1-11.5s0-34.4,0-34.4l-19.1-9.3l-21,15.9l3.2,52
		L341.1,247.9z"/>
	<path class="st2" d="M350.9,205.3c0,0.7-0.6,1.3-1.3,1.3c-0.1,0-0.2,0-0.3,0c-0.7-0.1-1.2-0.8-1-1.6c0.1-0.7,0.8-1.2,1.6-1
		C350.4,204.1,350.9,204.6,350.9,205.3z"/>
	<path class="st2" d="M352.1,203.8c-0.2,0.2-1.1-0.7-2.6-0.7c-1.4-0.1-2.5,0.6-2.7,0.4c-0.2-0.2,0.1-0.4,0.6-0.7
		c1.3-0.9,3-0.7,4.2,0.3C352.1,203.4,352.2,203.8,352.1,203.8z"/>
	<path class="st2" d="M335.4,205.3c0,0.5-0.3,1.1-0.8,1.3c-0.7,0.3-1.5,0-1.8-0.6c-0.3-0.7,0-1.5,0.6-1.8c0.7-0.3,1.5,0,1.8,0.6
		C335.4,204.9,335.4,205.1,335.4,205.3z"/>
	<path class="st2" d="M336.3,203.8c-0.2,0.2-1.2-0.7-2.6-0.7c-1.4-0.1-2.5,0.6-2.7,0.4c-0.1-0.2,0.1-0.4,0.6-0.7
		c1.3-0.9,3-0.7,4.2,0.3C336.2,203.4,336.3,203.8,336.3,203.8z"/>
	<path class="st2" d="M341.4,215.9c0.8-0.2,1.5-0.3,2.3-0.3c0.3,0,0.7,0,0.8-0.3c0.1-0.4,0-0.8-0.2-1.2l-1-3c-0.7-2.1-1.3-4-1.7-5.4
		c-0.3-0.7-0.4-1.5-0.5-2.3c0.4,0.7,0.7,1.4,0.9,2.2c0.5,1.4,1.2,3.3,1.8,5.3c0.3,1,0.6,2,0.9,3c0.2,0.5,0.3,1,0.1,1.5
		c-0.1,0.2-0.3,0.4-0.5,0.5c-0.2,0.1-0.5,0.1-0.7,0.1C343,216,342.2,215.9,341.4,215.9z"/>
	<path class="st6" d="M336.7,217.3c-1.5-1,4,2.4,6.9,2.4c-1.1,1.5-3.1,2.1-4.8,1.3C337.2,220.6,336.3,219,336.7,217.3
		C336.7,217.3,336.7,217.3,336.7,217.3z"/>
	<path class="st12" d="M341.8,233.7c-4.9-0.2-9.7-1.8-13.8-4.7c0,0,3.1,7.6,13.6,7.2L341.8,233.7z"/>
	<path class="st2" d="M348.6,180.1c-10.3-10.7-17.4-8.5-21.5-8.5c-9,1-17.2,5.7-22.5,13c-2.9,3-7.1,12.8-7.5,16.2
		c-0.2,3.5-0.2,6.9,0,10.4c0.3,3.5-1,7-3.4,9.5c-1.6,1.5-4,2.3-5,4.3c-0.9,2.5,0,5.3,2.3,6.7c2.3,1.3,4.9,1.8,7.4,1.5
		c-0.4,5.3,3.2,10.1,8.5,11.2c2.6,0.3,5.3-0.4,7.5-2c1.7,1.7,3.6,3.3,5.5,4.8c0.4-15.2,0.1-30.3-1-45.4c7-1.2,19.5-5,21.6-16.1
		c2.8,6.3,7,9.8,12.6,14.6C353.2,200.3,358.8,190.9,348.6,180.1z"/>
	<path class="st2" d="M319.9,197.8c1.4-0.2,2.8-0.2,4.3,0c3.3,0.4,6.7,0,9.9-1.2c1.7-0.7,3.1-1.8,4.1-3.3c0.8-1.2,1.4-2.6,1.6-4.1
		c0.5-2.5,0.2-4.2,0.4-4.2c0.5,1.4,0.5,2.9,0.2,4.3c-0.2,1.6-0.8,3.1-1.6,4.5c-1.1,1.7-2.6,3-4.5,3.7c-3.3,1.2-6.8,1.5-10.3,1
		C322.7,198.4,321.3,198.1,319.9,197.8z"/>
	<path class="st2" d="M292.7,223.3c0.6,0,1.2-0.1,1.8-0.2c1.5-0.6,2.5-1.8,2.8-3.4c0.3-2.3-0.2-4.7-1.3-6.7
		c-0.6-1.3-1.1-2.7-1.5-4.1c-0.4-1.5-0.5-3.1-0.3-4.7c0.4-3,1.4-5.9,3.1-8.4c1.4-2,2.9-3.9,4.7-5.5c1.5-1.4,2.8-2.5,3.7-3.2
		c0.4-0.4,0.9-0.8,1.4-1c0.1,0.1-1.8,1.8-4.7,4.7c-1.7,1.7-3.1,3.5-4.4,5.5c-1.6,2.4-2.6,5.2-2.9,8c-0.2,1.5-0.1,2.9,0.2,4.4
		c0.4,1.3,0.8,2.7,1.4,3.9c1.1,2.2,1.5,4.8,1.1,7.2c-0.4,1.7-1.7,3-3.4,3.5c-0.4,0.1-0.9,0.1-1.4,0
		C293.1,223.4,292.9,223.3,292.7,223.3z"/>
	<path class="st2" d="M368.4,208.4c0.2,0.4,0.4,0.8,0.3,1.2c-0.1,1.2-0.7,2.4-1.8,3.1c-1.6,0.9-3.6,0.9-5.2,0
		c-1.9-1.1-3.4-2.7-4.4-4.6c-1.9-3.3-3.2-7-3.7-10.8c-0.3-1.6-0.3-3.1,0-4.7c0.2,0,0.2,1.8,0.7,4.6c0.7,3.7,1.9,7.2,3.8,10.4
		c0.9,1.8,2.3,3.3,4,4.3c1.4,0.8,3.1,0.9,4.5,0.1c0.9-0.5,1.6-1.5,1.8-2.5C368.4,208.9,368.3,208.4,368.4,208.4z"/>
	<path class="st2" d="M352.3,372.1c0,0,35.4,115.1,33.2,152.3c-2.2,37.2-28.2,129.5-28.2,129.5L352.3,372.1z"/>
	<path class="st2" d="M302.2,352.5c-0.8-0.2-16.3,22.6-16.9,42.3c0,1.9,0,3.9,0.2,5.8c0.7,6.9,2.3,13.6,4.9,20
		c13.2,33.2,26.7,72.5,26.9,81.6c0.6,27.6,6,154.7,6,154.7l38.2-2.7l-1.3-152l-9.3-150.9L302.2,352.5z"/>
	<path class="st10" d="M323,351.8c0.2,0,0.3,4.2,0.3,12s-0.3,18.9,0.2,32.6c0.1,3.4,0.3,7.1,0.6,10.8s0.6,7.7,1,11.7
		c0.8,8.1,2,16.6,3.4,25.7c1.4,9,3.1,18.4,4.4,28.3c1.4,9.9,2.5,20,3,30.6c0.6,10.5,0.5,20.8,0.7,30.7c0.2,9.9,0.4,19.5,0.7,28.6
		c0.5,18.2,1.2,34.6,1.8,48.4l1.2,32.6c0.1,3.8,0.2,6.8,0.3,8.8c0.1,2,0,3.1,0,3.1c-0.1-2.5-0.7-17.5-1.8-44.6
		c-0.6-13.8-1.2-30.2-1.8-48.4c-0.3-9.1-0.5-18.7-0.7-28.6c-0.2-9.9,0-20.2-0.7-30.7c-0.7-10.5-1.6-20.7-3.1-30.5
		c-1.5-9.8-3-19.3-4.4-28.3c-1.4-9-2.6-17.6-3.4-25.7c-0.4-4-0.7-7.9-1-11.7c-0.2-3.8-0.4-7.4-0.5-10.8c-0.5-13.8,0-25,0-32.7v-8.8
		C323.3,353.9,323.2,352.8,323,351.8z"/>
	<path class="st10" d="M361.6,651.4h-38.4v5.8h38.4V651.4z"/>
	<path class="st10" d="M325.7,353c-0.1,0-0.2-0.4-0.2-0.9c0-0.5,0-0.9,0.2-0.9c0.2,0,0.2,0.4,0.2,0.9
		C325.8,352.6,325.7,353,325.7,353z"/>
	<path class="st10" d="M325.7,356.5c-0.1,0-0.2-0.4-0.2-0.9c0-0.5,0-0.9,0.2-0.9c0.2,0,0.2,0.4,0.2,0.9
		C325.9,356.1,325.8,356.5,325.7,356.5z"/>
	<path class="st10" d="M325.8,360.1c-0.1,0-0.2-0.4-0.2-0.9c0-0.5,0-0.9,0.2-0.9c0.2,0,0.2,0.4,0.2,0.9
		C326,359.7,325.9,360.1,325.8,360.1z"/>
	<path class="st10" d="M325.9,363.6c-0.1,0-0.2-0.4-0.2-0.9c0-0.5,0-0.9,0.2-0.9c0.2,0,0.2,0.4,0.2,0.9
		C326.1,363.2,326.1,363.6,325.9,363.6z"/>
	<path class="st10" d="M326.1,367.1c-0.1,0-0.2-0.4-0.2-0.9c0-0.5,0-0.9,0.2-0.9s0.2,0.4,0.2,0.9
		C326.2,366.7,326.2,367.1,326.1,367.1z"/>
	<path class="st10" d="M326.2,370.7c-0.1,0-0.2-0.4-0.2-0.9c0-0.5,0-0.9,0.2-0.9s0.2,0.4,0.2,0.9S326.3,370.7,326.2,370.7z"/>
	<path class="st10" d="M326.3,374.2c-0.1,0-0.2-0.4-0.2-0.9c0-0.5,0-0.9,0.2-0.9c0.2,0,0.2,0.4,0.2,0.9
		C326.4,373.8,326.4,374.2,326.3,374.2z"/>
	<path class="st10" d="M326.4,377.7c-0.1,0-0.2-0.4-0.2-0.9c0-0.5,0-0.9,0.2-0.9c0.2,0,0.2,0.4,0.2,0.9S326.5,377.7,326.4,377.7z"/>
	<path class="st10" d="M326.5,381.3c-0.1,0-0.2-0.4-0.2-0.9s0-0.9,0.1-0.9c0.1,0,0.2,0.4,0.2,0.9
		C326.6,380.9,326.6,381.3,326.5,381.3z"/>
	<path class="st10" d="M326.6,384.8c-0.1,0-0.2-0.4-0.2-0.9c0-0.5,0-0.9,0.2-0.9c0.2,0,0.2,0.4,0.2,0.9S326.7,384.8,326.6,384.8z"/>
	<path class="st10" d="M326.7,388.3c-0.1,0-0.2-0.4-0.2-0.9c0-0.5,0-0.9,0.2-0.9c0.2,0,0.2,0.4,0.2,0.9
		C326.8,388,326.8,388.3,326.7,388.3z"/>
	<path class="st10" d="M326.7,391.9c-0.1,0-0.2-0.4-0.2-0.9c0-0.5,0-0.9,0.2-0.9c0.2,0,0.2,0.4,0.2,0.9S326.8,391.9,326.7,391.9z"/>
	<path class="st10" d="M326.7,395.4c-0.1,0-0.2-0.4-0.2-0.9s0-0.9,0.2-0.9c0.2,0,0.2,0.4,0.2,0.9S326.8,395.4,326.7,395.4z"/>
	<path class="st10" d="M326.8,399c-0.1-0.3-0.2-0.6-0.2-0.9c0-0.5,0-0.9,0.2-0.9c0.2,0,0.2,0.4,0.2,0.9S327,399,326.8,399z"/>
	<path class="st10" d="M327,402.5c-0.1,0-0.2-0.4-0.2-0.9c0-0.5,0-0.9,0.1-0.9c0.1,0,0.2,0.4,0.2,0.9
		C327.2,401.9,327.1,402.2,327,402.5z"/>
	<path class="st10" d="M327.1,406.1c-0.1,0-0.2-0.4-0.2-0.9s0-0.9,0.1-0.9c0.1,0,0.2,0.4,0.2,0.9
		C327.3,405.6,327.2,406.1,327.1,406.1z"/>
	<path class="st10" d="M327.3,409.6c-0.1,0-0.2-0.4-0.2-0.9c0-0.5,0-0.9,0.1-0.9c0.1,0,0.2,0.4,0.2,0.9S327.4,409.6,327.3,409.6z"/>
	<path class="st10" d="M327.5,413.1c-0.1,0-0.2-0.4-0.2-0.9s0-0.9,0.1-0.9c0.1,0,0.2,0.4,0.2,0.9
		C327.7,412.7,327.6,413.1,327.5,413.1z"/>
	<path class="st10" d="M327.8,416.7c-0.1,0-0.2-0.4-0.2-0.9c0-0.5,0-0.9,0.1-0.9c0.1,0,0.2,0.4,0.3,0.9S327.9,416.6,327.8,416.7z"/>
	<path class="st10" d="M328.1,420.2c-0.1,0-0.2-0.4-0.3-0.9s0-0.9,0.1-0.9s0.2,0.4,0.2,0.9C328.2,419.8,328.2,420.2,328.1,420.2z"/>
	<path class="st10" d="M328.4,423.7c-0.1,0-0.2-0.4-0.3-0.8c0-0.3,0-0.6,0-0.9c0.2,0.3,0.2,0.6,0.3,0.9
		C328.5,423.3,328.5,423.7,328.4,423.7z"/>
	<path class="st10" d="M328.8,427.2c-0.1,0-0.2-0.4-0.3-0.8s0-0.9,0.1-0.9c0.1,0,0.2,0.4,0.3,0.8S328.9,427.2,328.8,427.2z"/>
	<path class="st10" d="M329.2,430.7c-0.1,0-0.2-0.4-0.3-0.9c0-0.3,0-0.6,0-0.9c0.2,0.3,0.3,0.6,0.3,0.9
		C329.3,430.3,329.3,430.7,329.2,430.7z"/>
	<path class="st10" d="M329.7,434.2c-0.1,0-0.2-0.4-0.3-0.8c0-0.3,0-0.6,0-0.9c0.2,0.3,0.3,0.5,0.3,0.8
		C329.8,433.8,329.8,434.2,329.7,434.2z"/>
	<path class="st10" d="M330.2,437.7c-0.1,0-0.2-0.4-0.3-0.8c0-0.3,0-0.6,0-0.9c0.2,0.3,0.3,0.5,0.3,0.8
		C330.2,437.3,330.3,437.7,330.2,437.7z"/>
	<path class="st10" d="M330.7,441.2c-0.1,0-0.2-0.3-0.3-0.8c-0.1-0.3-0.1-0.6,0-0.9c0.2,0.3,0.3,0.5,0.3,0.8
		C330.8,440.8,330.8,441.2,330.7,441.2z"/>
	<path class="st10" d="M331.3,444.7c-0.1,0-0.2-0.4-0.3-0.8c0-0.3,0-0.6,0-0.9c0.2,0.3,0.3,0.5,0.3,0.8
		C331.3,444.3,331.4,444.7,331.3,444.7z"/>
	<path class="st10" d="M331.8,448.1c-0.1,0-0.2-0.3-0.3-0.8c0-0.3,0-0.6,0-0.9c0.2,0.3,0.3,0.5,0.3,0.8
		C331.9,447.7,331.9,448.1,331.8,448.1z"/>
	<path class="st10" d="M332.4,451.7c-0.1,0-0.2-0.4-0.3-0.8c0-0.3,0-0.6,0-0.9c0.2,0.3,0.3,0.5,0.3,0.8
		C332.5,451.2,332.5,451.7,332.4,451.7z"/>
	<path class="st10" d="M333,455.2c-0.1,0-0.2-0.4-0.3-0.8c-0.1-0.3-0.1-0.6,0-0.9c0.2,0.3,0.3,0.5,0.3,0.8
		C333.1,454.8,333.1,455.2,333,455.2z"/>
	<path class="st10" d="M333.6,458.6c-0.1,0-0.2-0.3-0.3-0.8c0-0.3,0-0.6,0-0.9c0.2,0.3,0.3,0.5,0.3,0.8
		C333.7,458.2,333.7,458.6,333.6,458.6z"/>
	<path class="st10" d="M334.2,462.1c-0.1,0-0.2-0.4-0.3-0.8c0-0.3,0-0.6,0-0.9c0.2,0.3,0.3,0.5,0.3,0.8
		C334.2,461.7,334.3,462.1,334.2,462.1z"/>
	<path class="st10" d="M334.8,465.6c-0.1,0-0.2-0.3-0.3-0.8c-0.1-0.3-0.1-0.6,0-0.9c0.2,0.3,0.3,0.5,0.3,0.8
		C334.8,465.2,334.8,465.6,334.8,465.6z"/>
	<path class="st10" d="M335.3,469.1c-0.1,0-0.2-0.3-0.3-0.8c0-0.3,0-0.6,0-0.9c0.2,0.3,0.3,0.5,0.3,0.8
		C335.4,468.7,335.4,469.1,335.3,469.1z"/>
	<path class="st10" d="M335.8,472.6c-0.1,0-0.2-0.3-0.3-0.8c0-0.3,0-0.6,0-0.9c0.2,0.2,0.3,0.5,0.3,0.8
		C335.9,472.1,335.9,472.5,335.8,472.6z"/>
	<path class="st10" d="M336.3,476.1c-0.1,0-0.2-0.4-0.3-0.8c0-0.3,0-0.6,0-0.9c0.2,0.3,0.3,0.5,0.3,0.8
		C336.4,475.6,336.4,476,336.3,476.1z"/>
	<path class="st10" d="M336.8,479.6c-0.1,0-0.2-0.3-0.3-0.8c0-0.3,0-0.6,0-0.9c0.2,0.3,0.3,0.5,0.3,0.8
		C336.9,479.1,336.9,479.6,336.8,479.6z"/>
	<path class="st10" d="M337.2,483c-0.1,0-0.2-0.4-0.3-0.8c0-0.3,0-0.6,0-0.9c0.2,0.3,0.3,0.6,0.3,0.9
		C337.3,482.7,337.4,483,337.2,483z"/>
	<path class="st10" d="M337.6,486.6c-0.1,0-0.2-0.4-0.3-0.9c-0.1-0.5,0-0.9,0.1-0.9c0.1,0,0.2,0.4,0.3,0.9
		C337.7,486.2,337.7,486.6,337.6,486.6z"/>
	<path class="st10" d="M338,490.1c-0.1,0-0.2-0.4-0.3-0.8c0-0.5,0-0.9,0.1-0.9c0.1,0,0.2,0.4,0.3,0.9S338.1,490.1,338,490.1z"/>
	<path class="st10" d="M338.3,493.6c-0.1,0-0.2-0.4-0.3-0.9c-0.1-0.5,0-0.9,0.1-0.9s0.2,0.4,0.3,0.9
		C338.5,493.2,338.4,493.6,338.3,493.6z"/>
	<path class="st10" d="M338.6,497.1c-0.1,0-0.2-0.4-0.2-0.9c0-0.5,0-0.9,0.1-0.9c0.1,0,0.2,0.4,0.2,0.9S338.7,497.1,338.6,497.1z"/>
	<path class="st10" d="M338.8,500.7c-0.1,0-0.2-0.4-0.2-0.9c0-0.5,0-0.9,0.1-0.9c0.1,0,0.2,0.4,0.2,0.9
		C339,500.2,339,500.7,338.8,500.7z"/>
	<path class="st10" d="M339,504.2c-0.1,0-0.2-0.4-0.2-0.9s0-0.9,0.1-0.9c0.1,0,0.2,0.4,0.2,0.9S339.1,504.2,339,504.2z"/>
	<path class="st10" d="M339.2,507.7c-0.1-0.3-0.2-0.6-0.2-0.9c0-0.5,0-0.9,0.1-0.9c0.1,0,0.2,0.4,0.2,0.9S339.4,507.7,339.2,507.7z"
		/>
	<path class="st10" d="M339.4,511.2c-0.1,0-0.2-0.4-0.2-0.9c0-0.5,0-0.9,0.2-0.9s0.2,0.4,0.2,0.9
		C339.5,510.6,339.5,510.9,339.4,511.2z"/>
	<path class="st10" d="M339.4,514.8c-0.1-0.3-0.2-0.6-0.2-0.9c0-0.5,0-0.9,0.2-0.9c0.2,0,0.2,0.4,0.2,0.9
		C339.6,514.3,339.5,514.8,339.4,514.8z"/>
	<path class="st10" d="M339.5,518.3c-0.1,0-0.2-0.4-0.2-0.9c0-0.5,0-0.9,0.2-0.9c0.2,0,0.2,0.4,0.2,0.9
		C339.6,517.9,339.6,518.3,339.5,518.3z"/>
	<path class="st10" d="M339.5,521.8c-0.1,0-0.2-0.4-0.2-0.9s0-0.9,0.2-0.9c0.2,0,0.2,0.4,0.2,0.9
		C339.7,521.5,339.6,521.8,339.5,521.8z"/>
	<path class="st10" d="M339.5,525.4c-0.1,0-0.2-0.4-0.2-0.9c0-0.5,0-0.9,0.2-0.9c0.2,0,0.2,0.4,0.2,0.9S339.6,525.4,339.5,525.4z"/>
	<path class="st10" d="M339.6,528.9c-0.1,0-0.2-0.4-0.2-0.9c0-0.5,0-0.9,0.2-0.9c0.2,0,0.2,0.4,0.2,0.9
		C339.8,528.5,339.7,528.9,339.6,528.9z"/>
	<path class="st10" d="M339.6,532.5c-0.1,0-0.2-0.4-0.2-0.9s0-0.9,0.2-0.9c0.2,0,0.2,0.4,0.2,0.9C339.8,532,339.7,532.4,339.6,532.5
		z"/>
	<path class="st10" d="M339.7,536c-0.1,0-0.2-0.4-0.2-0.9s0-0.9,0.2-0.9c0.2,0,0.2,0.4,0.2,0.9C339.8,535.6,339.8,536,339.7,536z"/>
	<path class="st10" d="M339.7,539.5c-0.1,0-0.2-0.4-0.2-0.9s0-0.9,0.2-0.9c0.2,0,0.2,0.4,0.2,0.9
		C339.9,539.1,339.8,539.5,339.7,539.5z"/>
	<path class="st10" d="M339.8,543.1c-0.1,0-0.2-0.4-0.2-0.9s0-0.9,0.2-0.9c0.2,0,0.2,0.4,0.2,0.9C340,542.6,339.9,543.1,339.8,543.1
		z"/>
	<path class="st10" d="M339.9,546.6c-0.1-0.3-0.2-0.6-0.2-0.9c0-0.5,0-0.9,0.2-0.9c0.2,0,0.2,0.4,0.2,0.9
		C340.1,546.2,340,546.6,339.9,546.6z"/>
	<path class="st10" d="M340,550.1c-0.1,0-0.2-0.4-0.2-0.9c0-0.5,0-0.9,0.2-0.9s0.2,0.4,0.2,0.9C340.1,549.7,340.1,550.1,340,550.1z"
		/>
	<path class="st10" d="M340,553.7c-0.1,0-0.2-0.4-0.2-0.9c0-0.5,0-0.9,0.2-0.9c0.2,0,0.2,0.4,0.2,0.9
		C340.2,553.3,340.2,553.7,340,553.7z"/>
	<path class="st10" d="M340.1,557.2c-0.1,0-0.2-0.4-0.2-0.9c0-0.5,0-0.9,0.2-0.9s0.2,0.4,0.2,0.9
		C340.3,556.8,340.2,557.2,340.1,557.2z"/>
	<path class="st10" d="M340.2,560.7c-0.1,0-0.2-0.4-0.2-0.9c0-0.5,0-0.9,0.2-0.9c0.2,0,0.2,0.4,0.2,0.9
		C340.4,560.4,340.3,560.7,340.2,560.7z"/>
	<path class="st10" d="M340.3,564.3c-0.1,0-0.2-0.4-0.2-0.9c0-0.5,0-0.9,0.2-0.9c0.2,0,0.2,0.4,0.2,0.9
		C340.5,563.9,340.5,564.3,340.3,564.3z"/>
	<path class="st10" d="M340.5,567.8c-0.1,0-0.2-0.4-0.2-0.9c0-0.5,0-0.9,0.2-0.9s0.2,0.4,0.2,0.9
		C340.6,567.4,340.6,567.8,340.5,567.8z"/>
	<path class="st10" d="M340.6,571.4c-0.1,0-0.2-0.4-0.2-0.9c0-0.5,0-0.9,0.2-0.9s0.2,0.4,0.2,0.9C340.8,571,340.7,571.4,340.6,571.4
		z"/>
	<path class="st10" d="M340.7,574.9c-0.1,0-0.2-0.4-0.2-0.9c0-0.5,0-0.9,0.2-0.9c0.2,0,0.2,0.4,0.2,0.9
		C340.9,574.5,340.8,574.9,340.7,574.9z"/>
	<path class="st10" d="M340.8,578.4c-0.1,0-0.2-0.4-0.2-0.9c0-0.5,0-0.9,0.2-0.9s0.2,0.4,0.2,0.9C341,578,340.9,578.4,340.8,578.4z"
		/>
	<path class="st10" d="M341,582c-0.1,0-0.2-0.4-0.2-0.9c0-0.5,0-0.9,0.2-0.9s0.2,0.4,0.2,0.9C341.1,581.6,341,582,341,582z"/>
	<path class="st10" d="M341.1,585.5c-0.1,0-0.2-0.4-0.2-0.9c0-0.5,0-0.9,0.1-0.9c0.1,0,0.2,0.4,0.2,0.9
		C341.3,584.9,341.2,585.2,341.1,585.5z"/>
	<path class="st10" d="M341.1,589c-0.1,0-0.2-0.4-0.2-0.9c0-0.5,0-0.9,0.1-0.9c0.1,0,0.2,0.4,0.2,0.9
		C341.3,588.6,341.3,589,341.1,589z"/>
	<path class="st10" d="M341.3,592.6c-0.1,0-0.2-0.4-0.2-0.9c0-0.5,0-0.9,0.2-0.9c0.2,0,0.2,0.4,0.2,0.9
		C341.5,592.2,341.4,592.6,341.3,592.6z"/>
	<path class="st10" d="M341.5,596.1c-0.1,0-0.2-0.4-0.2-0.9c0-0.5,0-0.9,0.2-0.9c0.2,0,0.2,0.4,0.2,0.9
		C341.6,595.7,341.6,596.1,341.5,596.1z"/>
	<path class="st10" d="M341.6,599.6c-0.1,0-0.2-0.4-0.2-0.9c0-0.5,0-0.9,0.1-0.9c0.1,0,0.2,0.4,0.2,0.9
		C341.8,599.2,341.7,599.6,341.6,599.6z"/>
	<path class="st10" d="M341.7,603.2c-0.1,0-0.2-0.4-0.2-0.9c0-0.5,0-0.9,0.1-0.9s0.2,0.4,0.2,0.9
		C341.9,602.8,341.9,603.2,341.7,603.2z"/>
	<path class="st10" d="M341.9,606.7c-0.1,0-0.2-0.4-0.2-0.9s0-0.9,0.1-0.9s0.2,0.4,0.2,0.9C342,606.3,342,606.7,341.9,606.7z"/>
	<path class="st10" d="M342,610.2c-0.1,0-0.2-0.4-0.2-0.9c0-0.5,0-0.9,0.2-0.9c0.2,0,0.2,0.4,0.2,0.9
		C342.2,609.9,342.1,610.2,342,610.2z"/>
	<path class="st10" d="M342.2,613.8c-0.1,0-0.2-0.4-0.2-0.9c0-0.5,0-0.9,0.2-0.9c0.2,0,0.2,0.4,0.2,0.9
		C342.3,613.4,342.3,613.8,342.2,613.8z"/>
	<path class="st10" d="M342.3,617.3c-0.1,0-0.2-0.4-0.2-0.9s0-0.9,0.2-0.9c0.2,0,0.2,0.4,0.2,0.9
		C342.5,616.9,342.4,617.3,342.3,617.3z"/>
	<path class="st10" d="M342.5,620.9c-0.1,0-0.2-0.4-0.2-0.9c0-0.5,0-0.9,0.2-0.9c0.2,0,0.2,0.4,0.2,0.9
		C342.6,620.4,342.5,620.9,342.5,620.9z"/>
	<path class="st10" d="M342.6,624.4c-0.1,0-0.2-0.4-0.2-0.9c0-0.5,0-0.9,0.2-0.9s0.2,0.4,0.2,0.9C342.8,624,342.7,624.4,342.6,624.4
		z"/>
	<path class="st10" d="M342.7,627.9c-0.1,0-0.2-0.4-0.2-0.9c0-0.5,0-0.9,0.1-0.9c0.1,0,0.2,0.4,0.2,0.9
		C342.9,627.5,342.9,627.9,342.7,627.9z"/>
	<path class="st10" d="M342.9,631.5c-0.1,0-0.2-0.4-0.2-0.9c0-0.5,0-0.9,0.1-0.9c0.1,0,0.2,0.4,0.2,0.9
		C343.1,630.9,343,631.2,342.9,631.5z"/>
	<path class="st10" d="M343,635c-0.1,0-0.2-0.4-0.2-0.9c0-0.5,0-0.9,0.2-0.9c0.2,0,0.2,0.4,0.2,0.9C343.2,634.6,343.1,635,343,635z"
		/>
	<path class="st10" d="M343.1,638.5c-0.1,0-0.2-0.4-0.2-0.9c0-0.5,0-0.9,0.1-0.9s0.2,0.4,0.2,0.9
		C343.3,638.1,343.2,638.5,343.1,638.5z"/>
	<path class="st10" d="M343.3,642.1c-0.1,0-0.2-0.4-0.2-0.9c0-0.5,0-0.9,0.2-0.9c0.2,0,0.2,0.4,0.2,0.9
		C343.4,641.7,343.4,642.1,343.3,642.1z"/>
	<path class="st10" d="M343.4,645.6c-0.1,0-0.2-0.4-0.2-0.9s0-0.9,0.2-0.9s0.2,0.4,0.2,0.9S343.5,645.6,343.4,645.6z"/>
	<path class="st10" d="M343.5,649.2c-0.1,0-0.2-0.4-0.2-0.9s0-0.9,0.1-0.9c0.1,0,0.2,0.4,0.2,0.9
		C343.7,648.8,343.6,649.1,343.5,649.2z"/>
	<path class="st10" d="M343.6,652.7c-0.1-0.3-0.2-0.6-0.2-0.9c0-0.5,0-0.9,0.2-0.9c0.2,0,0.2,0.4,0.2,0.9
		C343.8,652.3,343.7,652.7,343.6,652.7z"/>
	<path class="st10" d="M343.7,655.3c-0.1,0-0.2-0.2-0.2-0.4s0-0.4,0.2-0.4c0.2,0,0.2,0.2,0.2,0.4
		C343.9,655.1,343.8,655.3,343.7,655.3z"/>
	<path class="st10" d="M353.8,391.7c-0.5,0.3-1.1,0.3-1.6,0.1c-0.6-0.2-1.2-0.6-1.6-1.2c-0.5-0.7-0.7-1.6-0.8-2.5
		c-0.3-3.8-0.6-9-0.9-14.8c-0.3-5.8-0.5-10.8-0.8-14.8L348,354v-1.2c0-0.1,0-0.3,0-0.4c0,0.1,0,0.3,0,0.4c0,0.4,0,0.8,0.1,1.2
		c0.1,1.3,0.2,2.8,0.3,4.5c0.2,4,0.5,9.1,0.9,14.8c0.3,5.6,0.6,10.7,0.8,14.8c0.1,0.8,0.3,1.7,0.7,2.4c0.3,0.5,0.8,0.9,1.4,1.2
		C352.7,391.8,353.3,391.8,353.8,391.7z"/>
	<path class="st10" d="M290.2,418.8c0.5-0.1,0.9-0.2,1.4-0.4c1.2-0.6,2.1-1.6,2.6-2.9c0.6-1.9,0.8-3.9,0.6-5.8
		c-0.1-2.4-0.3-4.9-0.7-7.3c-0.7-4.3-1.8-8.5-3.4-12.6l0.1,0.1l-4.2,0.7l-1.2,0.2h-0.4c0.1-0.1,0.3-0.1,0.4-0.1l1.1-0.2l4.2-0.8h0.1
		v0.1c1.7,4.1,2.8,8.3,3.5,12.6c0.4,2.4,0.6,4.9,0.7,7.3c0.2,2-0.1,4.1-0.7,6c-0.5,1.3-1.5,2.3-2.8,2.9
		C291.2,418.8,290.7,418.9,290.2,418.8z"/>
	<path class="st10" d="M292.1,395.2c-1.1,0.4-2.2,0.8-3.4,1c-1.2,0.3-2.3,0.5-3.5,0.6c1.1-0.4,2.2-0.8,3.4-1
		C289.8,395.5,291,395.3,292.1,395.2z"/>
	<path class="st10" d="M483.7,220.9l-19.8-16.2c-53.8,48.6-123.3,43.1-123.3,43.1v0.1c-3.1-0.5-19.5-3.1-24.9-3.2
		c-4.2,0-14-0.8-20.9,5.7c-0.2,0.2-0.4,0.3-0.5,0.5c-6.3,6.1-69,67.9-62.3,83.1c7.1,16.1,66.6,51.1,66.6,51.1l14.4-26.2
		c0,0-4.5-2.9-10.6-7.1l48.6-1.3l2.1-36.4c0,0,8.3-9.3,8.3-15.9c0-4.6-2.6-12.4-5.9-20.2C432.4,271.6,483.7,220.9,483.7,220.9z
		 M268.1,325.3c0.6-1.9,13-15.5,24.3-27.6c3.9,23.8,9.2,51.2,9.7,53.9C288.6,342.4,267.4,327.7,268.1,325.3L268.1,325.3z"/>
	<path class="st6" d="M358.7,306.2c-0.6,0-1.2,0-1.8,0c-1.7,0-3.4-0.2-5.1-0.6c-2.7-0.7-5-2.5-6.2-5c-0.8-1.6-0.8-3.5,0-5
		c0.8-1.8,2.7-3,4.7-3c2.2,0.3,4,2,4.5,4.2c0.4,2.3-0.2,4.7-1.8,6.5c-3.3,4-8.4,6.1-13.5,5.6c-2.8-0.2-5.4-1.1-7.7-2.6
		c-2.5-1.6-4.3-4-5.1-6.8c-0.4-1.5-0.3-3,0.2-4.4c0.7-1.4,1.8-2.5,3.3-3.1c1.5-0.7,3.2-0.4,4.5,0.6c1.2,1.1,1.8,2.7,1.6,4.3
		c-0.2,1.6-0.7,3.1-1.5,4.4c-0.9,1.3-1.9,2.4-3.1,3.3c-2.4,1.8-5.2,3-8.1,3.3c-5.7,0.9-11.4-1.2-15.1-5.6c-0.8-1.1-1.4-2.3-1.7-3.6
		c-0.2-1.3-0.1-2.7,0.5-3.9c0.5-1.2,1.6-2.1,2.8-2.5c1.2-0.3,2.5-0.2,3.7,0.3c2.2,1,3.6,3.1,3.8,5.5c0,2.2-0.9,4.2-2.4,5.8
		c-2.6,2.6-6.2,4-9.9,3.8c-2.7-0.1-5.4-1-7.7-2.5c-1.5-0.9-2.7-2.1-3.7-3.5c-0.4-0.5-0.7-1-0.9-1.5c0.3,0.5,0.6,1,1,1.5
		c1,1.4,2.3,2.5,3.8,3.4c2.3,1.4,4.9,2.3,7.6,2.4c3.6,0.2,7.1-1.1,9.6-3.7c1.4-1.5,2.3-3.4,2.3-5.5c-0.1-2.2-1.5-4.2-3.5-5.1
		c-1-0.5-2.2-0.6-3.3-0.3c-1.1,0.4-2,1.2-2.5,2.3c-0.5,1.1-0.7,2.3-0.4,3.5c0.3,1.2,0.8,2.4,1.6,3.4c3.6,4.2,9.1,6.2,14.6,5.3
		c2.9-0.4,5.6-1.5,7.9-3.2c1.2-0.9,2.2-1.9,3-3.1c0.8-1.2,1.3-2.7,1.5-4.1c0.2-1.4-0.3-2.9-1.4-3.9c-1.1-0.9-2.6-1.1-3.9-0.5
		c-1.3,0.5-2.4,1.5-3,2.8c-0.5,1.3-0.6,2.7-0.2,4.1c0.8,2.7,2.5,4.9,4.9,6.4c2.2,1.5,4.8,2.4,7.5,2.6c5,0.5,9.9-1.5,13.1-5.3
		c1.5-1.7,2.1-3.9,1.7-6.1c-0.4-2-2-3.6-4.1-3.9c-1.9,0-3.6,1.1-4.3,2.8c-0.7,1.5-0.7,3.3,0,4.8c1.2,2.4,3.4,4.2,6,4.9
		c1.6,0.5,3.3,0.7,5.1,0.7L358.7,306.2L358.7,306.2z"/>
	<path class="st6" d="M351.7,339.8l-0.9,0.6c-0.6,0.4-1.4,0.9-2.6,1.6c-1.4,0.9-2.8,1.6-4.3,2.1c-2.1,0.7-4.2,0.9-6.4,0.6
		c-2.6-0.1-5.2-1.1-7.2-2.9c-1.1-1-1.8-2.4-2-3.9c-0.2-1.6,0.5-3.2,1.8-4.2c0.7-0.5,1.5-0.8,2.3-0.9c0.9,0,1.8,0.3,2.4,0.8
		c1.3,1.2,1.9,3.1,1.5,4.8c-0.5,1.7-1.5,3.3-2.9,4.4c-1.4,1.1-3,2.1-4.7,2.7c-3.4,1.3-7,1.5-10.5,0.7c-3.3-0.6-6.2-2.5-8.2-5.3
		c-0.9-1.4-1.1-3.1-0.4-4.6c0.7-1.4,2-2.4,3.5-2.6c0.7-0.1,1.5,0.1,2.1,0.6c0.5,0.5,0.9,1.1,1.1,1.8c0.3,1.3,0,2.6-0.7,3.7
		c-1.4,1.7-3.2,3-5.3,3.6c-1.5,0.5-3.2,0.8-4.8,0.7c-1,0-2-0.2-3-0.5c-0.3-0.1-0.7-0.2-1-0.3c1.3,0.4,2.7,0.6,4,0.6
		c1.6,0,3.2-0.3,4.7-0.8c2-0.7,3.7-1.9,5-3.5c0.7-1,1-2.2,0.7-3.4c-0.3-1.3-1.4-2.1-2.7-2c-1.4,0.2-2.5,1.1-3.1,2.3
		c-0.5,1.4-0.4,2.9,0.4,4.1c1.9,2.6,4.7,4.5,7.9,5.1c3.4,0.8,6.9,0.6,10.2-0.6c1.6-0.6,3.2-1.5,4.5-2.6c1.3-1,2.3-2.5,2.7-4.1
		c0.4-1.6-0.1-3.2-1.3-4.3c-1.2-1-2.9-1-4.1,0c-1.2,0.9-1.8,2.3-1.6,3.8c0.2,1.4,0.8,2.6,1.8,3.6c1.9,1.7,4.4,2.6,6.9,2.8
		c2.1,0.3,4.2,0.1,6.2-0.5c1.5-0.5,3-1.2,4.3-2l2.6-1.5C351.4,339.9,351.7,339.8,351.7,339.8z"/>
	<path class="st6" d="M378.3,245.4c0.7,0.3,1.4,0.8,2,1.4c1.6,1.5,2.7,3.6,2.9,5.8c0.2,1.5,0,3.1-0.5,4.5c-0.6,1.6-1.7,3.1-3.1,4.2
		c-1.5,1.2-3.4,2-5.3,2.3c-1,0.2-2.1,0.2-3.1,0c-1.1-0.1-2.1-0.7-2.8-1.6c-0.4-0.5-0.5-1.2-0.3-1.8c0.2-0.6,0.5-1,1-1.4
		c0.9-0.6,1.9-0.9,3-0.9c2,0,3.9,0.9,5.3,2.3c1.2,1.3,1.9,3,2,4.8c0.1,1.5-0.2,3.1-0.8,4.5c-0.9,2-2.4,3.7-4.3,4.8
		c-0.5,0.3-1,0.6-1.6,0.8c-0.2,0.1-0.4,0.2-0.6,0.2c0.7-0.3,1.4-0.7,2.1-1.2c1.8-1.2,3.3-2.8,4.2-4.8c0.6-1.3,0.8-2.8,0.7-4.3
		c-0.1-1.7-0.8-3.3-1.9-4.5c-1.3-1.3-3-2.1-4.9-2.1c-0.9,0-1.9,0.2-2.7,0.8c-0.8,0.5-1,1.5-0.6,2.3c0.6,0.7,1.5,1.2,2.5,1.3
		c1,0.1,2,0.1,2.9,0c1.8-0.3,3.6-1,5-2.2c4.1-3.2,4.8-9,1.6-13.1c-0.2-0.3-0.5-0.6-0.8-0.9C379.6,246.4,379,245.9,378.3,245.4z"/>
	<path class="st6" d="M404.2,239.1c0.4,0.3,0.7,0.7,0.9,1.1c0.3,0.5,0.4,1.1,0.3,1.6c-0.1,0.7-0.3,1.4-0.7,2
		c-0.9,1.7-1.9,3.2-3.2,4.5c-1.6,1.5-3.1,3.2-4.3,5.1c-2.2,3.4-3.2,7.5-2.9,11.5c0.2,1.7,0.5,3.3,0.9,5c-0.2-0.4-0.4-0.8-0.5-1.3
		c-0.4-1.2-0.6-2.4-0.8-3.7c-0.4-4.2,0.6-8.3,2.8-11.9c1.3-1.9,2.8-3.6,4.4-5.1c1.3-1.3,2.4-2.7,3.2-4.3c0.4-0.6,0.6-1.2,0.8-1.9
		c0.1-0.5,0-1-0.2-1.5C404.5,239.5,404.2,239.2,404.2,239.1z"/>
	<path class="st6" d="M423.7,260c-0.8,0.4-1.7,0.6-2.6,0.5c-2.6,0-4.9-1.3-6.4-3.4c-1.8-3.3-2-7.2-0.3-10.6c0.8-2,2.2-3.8,3.9-5.2
		c1.9-1.5,4.4-2,6.8-1.4c2.4,0.6,4.1,2.9,3.9,5.4c0,1.2-0.6,2.3-1.5,3.1c-0.9,0.7-1.9,1.1-3,1.1c-2,0.1-4-0.7-5.5-2.1
		c-1.3-1.2-2.2-2.7-2.7-4.4c-0.7-2.4-0.6-5,0.4-7.3c0.4-0.8,0.9-1.6,1.5-2.2c-0.5,0.7-0.9,1.5-1.3,2.3c-0.9,2.3-1,4.8-0.3,7.1
		c0.5,1.6,1.4,3,2.6,4.2c1.4,1.3,3.2,2,5.1,1.9c1,0,2-0.4,2.7-1c0.8-0.7,1.2-1.7,1.3-2.7c0.1-2.3-1.4-4.3-3.5-4.9
		c-2.2-0.6-4.5-0.1-6.3,1.3c-1.7,1.3-3,3-3.8,4.9c-1.6,3.3-1.5,7.1,0.2,10.3c1.3,2,3.6,3.3,6,3.4C422,260.4,422.9,260.3,423.7,260z"
		/>
	<path class="st6" d="M437.7,224.3c0.4,0.1,0.7,0.2,1.1,0.4c0.9,0.5,1.8,1.1,2.7,1.8c1.2,1,2.3,2.2,3,3.6c1,1.7,1.6,3.5,2,5.4
		c0.7,3.5,0.3,7.1-1.2,10.3c-0.4,1-1,1.9-1.6,2.8c-0.2,0.3-0.5,0.6-0.8,0.9c0.7-1.2,1.4-2.5,2-3.8c1.3-3.2,1.7-6.7,1-10.1
		c-0.4-1.9-1-3.6-1.9-5.3c-0.8-1.3-1.7-2.5-2.8-3.5C440.1,225.9,438.9,225,437.7,224.3z"/>
	<path class="st6" d="M466.7,235c-0.7,0.3-1.5,0.5-2.2,0.5c-0.9,0.1-1.8,0-2.7-0.2c-1.2-0.4-2.2-1-3.1-1.9c-2.2-2.4-3.2-5.6-2.7-8.8
		c0.2-1.9,1.3-3.6,2.9-4.8c0.8-0.6,1.8-0.9,2.9-1c1.1,0,2.1,0.3,3,1c0.8,0.7,1.4,1.6,1.6,2.7c0.1,1-0.2,2.1-0.9,2.9
		c-1.3,1.5-3.2,2.2-5.2,1.9c-3.2-0.3-6.1-2.1-7.8-4.9c-0.7-1-1.1-2.3-1-3.5c0.1-0.9,0.3-1.8,0.7-2.6c0.3-0.7,0.6-1.2,0.7-1.6
		c0.1-0.2,0.2-0.4,0.3-0.5c0,0.2-0.1,0.4-0.2,0.6c-0.2,0.5-0.4,1-0.6,1.6c-0.4,0.8-0.6,1.7-0.6,2.6c0,1.2,0.4,2.3,1.1,3.3
		c1.7,2.6,4.5,4.3,7.5,4.6c1.8,0.2,3.5-0.4,4.7-1.8c0.6-0.7,0.9-1.6,0.8-2.5c-0.1-0.9-0.6-1.8-1.4-2.4c-1.5-1.2-3.6-1.2-5.2,0
		c-1.5,1-2.4,2.6-2.7,4.4c-0.5,3.1,0.4,6.2,2.5,8.5c1.4,1.6,3.4,2.4,5.5,2.2C465.2,235.1,466,235.1,466.7,235z"/>
	<path class="st6" d="M352,322.5c-0.5,0.6-1,1.1-1.6,1.5c-1.7,1.2-3.5,2-5.5,2.5c-2.9,0.7-5.9,0.8-8.9,0.5
		c-3.6-0.5-7.2-1.2-10.7-2.1c-3.5-0.9-7-1.5-10.6-1.8c-3-0.2-6,0.2-8.8,1.2c-1.9,0.7-3.6,1.7-5.1,3c-1,1-1.5,1.6-1.5,1.6
		c0.4-0.6,0.9-1.2,1.4-1.8c1.5-1.4,3.2-2.5,5.1-3.2c2.8-1,5.8-1.5,8.8-1.4c3.6,0.2,7.3,0.8,10.8,1.8c3.5,1,7,1.7,10.6,2.2
		c3,0.3,5.9,0.2,8.8-0.4C347.4,325.5,349.8,324.3,352,322.5z"/>
	<path class="st6" d="M277,268.4c1-0.6,2.2-0.9,3.3-0.6c1.3,0.3,2.6,0.9,3.6,1.8c1.3,0.9,2.6,2.1,4.1,3.3c1.6,1.2,3,2.8,4.8,4.2
		c1.9,1.5,4.2,2.5,6.5,2.9c5.5,0.8,11.2,0,16.3-2.3c5.5-2.2,10.6-4.9,15.6-6.2c2.4-0.7,4.8-1.1,7.3-1.1c2.2,0.1,4.3,0.4,6.3,1.2
		c3,0.9,5.6,2.8,7.4,5.4c0.3,0.4,0.5,0.8,0.7,1.3c0.2,0.3,0.3,0.6,0.4,1c0.1,0.3,0.2,0.6,0.2,0.8c-0.4-1-0.9-2-1.6-3
		c-1.8-2.5-4.4-4.3-7.3-5.2c-2-0.6-4.1-1-6.2-1c-2.4,0-4.8,0.4-7.2,1.1c-5,1.4-10,4-15.6,6.3c-5.2,2.3-10.9,3.1-16.6,2.3
		c-2.5-0.5-4.8-1.5-6.7-3c-1.8-1.5-3.3-3-4.7-4.3c-1.5-1.3-2.8-2.4-4.1-3.3c-1-0.8-2.2-1.5-3.5-1.8C279.2,267.8,278,268,277,268.4z"
		/>
	<path class="st6" d="M357.4,247.7c0.1,0.5,0.2,0.9,0.3,1.4c0.1,1.4,0,2.8-0.3,4.2c-0.5,2.2-1.5,4.2-2.9,5.9
		c-1.9,2.3-4.5,3.8-7.5,4.3c-3.6,0.6-7.2-0.2-10.2-2.2c-1.7-1.1-3.1-2.6-3.9-4.5c-0.5-1-0.3-2.2,0.3-3.1c0.7-0.9,1.8-1.4,2.9-1.5
		c1.2-0.1,2.3,0.2,3.2,1c0.8,0.9,1.3,2,1.4,3.1c0.2,2.4-0.9,4.7-2.9,6.2c-1.9,1.4-4.2,2.4-6.5,3c-2.4,0.7-4.8,1-7.3,0.9
		c-2.5-0.1-4.9-1-6.9-2.6c-2-1.5-3.1-3.8-3.2-6.3c-0.1-2.4,1.1-4.7,3.2-5.9c2.1-1.1,4.6-0.8,6.4,0.7c1.6,1.6,2,4,1,6
		c-0.8,1.9-2.4,3.3-4.2,4.1c-3.3,1.4-6.9,1.9-10.4,1.3c-5.1-0.7-9.8-3.2-13.3-7.1c-0.9-1-1.7-2.1-2.4-3.3c-0.5-0.8-0.7-1.3-0.7-1.3
		c0.9,1.6,2,3.1,3.3,4.5c3.5,3.7,8.2,6.1,13.2,6.8c3.5,0.5,7,0,10.2-1.4c1.8-0.8,3.2-2.2,4-3.9c0.9-1.8,0.5-4-0.9-5.5
		c-1.6-1.4-3.9-1.6-5.8-0.6c-1.9,1.1-3.1,3.2-2.9,5.4c0.1,2.3,1.2,4.5,3,5.9c1.9,1.5,4.2,2.3,6.6,2.4c2.4,0.1,4.8-0.2,7.1-0.9
		c2.3-0.5,4.4-1.5,6.3-2.9c1.8-1.3,2.8-3.5,2.7-5.7c-0.1-1.1-0.5-2-1.2-2.8c-0.4-0.3-0.8-0.6-1.3-0.8c-0.5-0.2-1-0.2-1.5-0.2
		c-1,0.1-1.9,0.5-2.6,1.3c-0.6,0.8-0.7,1.8-0.3,2.7c0.8,1.7,2.1,3.2,3.7,4.2c2.9,2,6.4,2.8,9.9,2.2c2.8-0.5,5.4-1.9,7.3-4.1
		c1.4-1.7,2.4-3.6,3-5.7C357.6,251.4,357.7,249.5,357.4,247.7z"/>
	<path class="st6" d="M267.1,278.6c0.2-0.1,0.5-0.2,0.7-0.3c0.5-0.2,1.2-0.4,2.1-0.7c2.6-0.8,5.4-0.7,7.9,0.3
		c1.8,0.7,3.3,1.8,4.6,3.2c1.5,1.6,2.3,3.7,2.4,5.9c0.1,4.8-3.7,8.8-8.5,8.9c-0.4,0-0.9,0-1.3-0.1c-1.3-0.1-2.6-0.7-3.5-1.6
		c-1-0.9-1.4-2.2-1.2-3.5c0.3-1.2,1.1-2.3,2.1-3c0.9-0.7,2-1.2,3.2-1.5c6.5-1.7,13,2.2,14.7,8.7c0.1,0.4,0.2,0.8,0.3,1.2
		c0.2,1,0.2,2,0,2.9c0-1-0.1-1.9-0.2-2.9c-0.5-2.6-1.8-5-3.8-6.8c-3-2.6-7-3.6-10.8-2.6c-1.1,0.3-2.1,0.7-3,1.4
		c-0.9,0.6-1.6,1.6-1.9,2.7c-0.3,1.1,0.1,2.3,1,3.1c0.9,0.8,2.1,1.3,3.3,1.5c4.5,0.6,8.6-2.6,9.1-7.1c0-0.4,0.1-0.8,0.1-1.2
		c-0.1-2.1-0.9-4-2.2-5.6c-1.2-1.4-2.7-2.4-4.3-3.1c-2.5-1-5.2-1.2-7.7-0.5c-0.9,0.2-1.6,0.4-2.1,0.5
		C267.6,278.7,267.4,278.7,267.1,278.6z"/>
	<path class="st6" d="M274.7,317c0.2-0.5,0.2-1,0.2-1.5c-0.3-1.4-0.9-2.7-1.8-3.9c-1.3-1.7-3.4-2.5-5.5-2.2c-2.4,0-4.9,1.2-7.8,0.9
		c-5.2-0.2-9.2-4.6-9-9.8c-0.1-1.5,0.3-3,1.1-4.2c0.3-0.5,0.7-0.9,1.1-1.2c-0.4,0.4-0.7,0.8-0.9,1.3c-0.7,1.3-1,2.7-0.9,4.1
		c0,2.1,0.7,4.2,2,5.8c1.7,2,4.1,3.2,6.7,3.4c2.7,0.2,5.3-0.8,7.8-0.9c1.2-0.1,2.4,0.1,3.5,0.5c1,0.4,1.8,1.1,2.4,2
		c0.9,1.2,1.4,2.6,1.6,4.1C275.2,316,275.1,316.6,274.7,317L274.7,317z"/>
	<path class="st6" d="M255.2,356.5c0.8-0.1,1.7-0.3,2.4-0.6c0.9-0.4,1.6-1.2,2-2.1c0.5-1.2,0.6-2.5,0.4-3.8
		c-0.2-1.6-0.6-3.1-1.1-4.6c-0.5-1.8-1.3-3.4-2.4-4.8c-1.2-1.5-3.2-2.3-5.2-1.9c-1,0.3-1.8,1-2.2,1.9c-0.4,1-0.4,2.1,0,3.1
		c0.8,2,2.8,3.2,4.9,3.1c2,0,3.9-0.7,5.4-2c2.6-2.2,4.7-5,6.2-8c1-2.1,1.7-4.3,2-6.6c0.2-1.6,0-2.5,0.1-2.5c0.1,0.8,0.2,1.7,0.1,2.6
		c-0.2,2.3-0.8,4.6-1.9,6.7c-1.5,3.2-3.6,6-6.2,8.3c-1.6,1.4-3.6,2.1-5.7,2.2c-1.1,0-2.2-0.3-3.2-0.8c-1-0.6-1.8-1.5-2.2-2.7
		c-0.4-1.1-0.4-2.3,0-3.4c0.4-1.1,1.4-1.9,2.5-2.2c2.1-0.4,4.3,0.4,5.7,2.1c1.1,1.5,1.9,3.2,2.4,5c0.5,1.5,0.9,3.1,1.1,4.7
		c0.2,1.3,0,2.7-0.5,4c-0.5,0.9-1.2,1.7-2.2,2.1c-0.6,0.3-1.2,0.4-1.9,0.5C255.6,356.6,255.4,356.6,255.2,356.5z"/>
	<path class="st6" d="M278.5,370.1c0.5-0.1,0.9-0.2,1.4-0.3c1.2-0.5,2.1-1.5,2.5-2.7c0.6-1.8,0.5-3.8-0.3-5.5c-0.7-2-2-4.1-2.8-6.6
		c-0.4-1.2-0.6-2.5-0.5-3.8c0.1-1.2,0.6-2.3,1.3-3.3c1.2-1.6,3-2.7,4.9-3.2c1.3-0.3,2.6-0.4,4-0.2c0.5,0,1,0.1,1.4,0.3
		c-1.8-0.2-3.6-0.1-5.3,0.3c-1.8,0.5-3.5,1.6-4.6,3.1c-0.7,0.9-1.1,2-1.2,3.1c-0.1,1.2,0.1,2.4,0.5,3.5c0.7,2.4,2.1,4.4,2.8,6.5
		c0.8,1.9,0.9,4,0.1,5.9c-0.5,1.3-1.5,2.3-2.8,2.8C279.4,370.2,278.9,370.2,278.5,370.1z"/>
	<path class="st2" d="M289.4,301c0.5-0.8,1.1-1.5,1.8-2.2c1.1-1.4,2.8-3.4,4.9-5.8c2.1-2.4,4.6-5.3,7.3-8.5c1.3-1.6,2.7-3.3,4.1-5.2
		c1.5-1.8,2.8-3.8,3.8-5.9c2.2-4,3.4-8.4,3.5-12.9c0.1-3.7-1.2-7.3-3.7-10c-1.7-1.8-3.9-3.1-6.4-3.5c-0.9-0.1-1.8-0.2-2.7-0.2
		c0.2,0,0.5-0.1,0.7-0.2c0.7-0.1,1.4-0.1,2.1,0c2.6,0.4,5,1.6,6.8,3.5c2.6,2.8,4.1,6.6,4.1,10.5c-0.1,4.7-1.3,9.3-3.5,13.4
		c-1.1,2.1-2.4,4.2-3.9,6c-1.4,1.8-2.8,3.5-4.2,5.2c-2.7,3.2-5.3,6-7.5,8.4l-5.1,5.6C290.8,299.7,290.1,300.3,289.4,301z"/>
	<path class="st2" d="M269.6,325.3c-1.9,1.1-4,1.8-6.1,2.3c-2,0.8-4.2,1.3-6.4,1.4c1.9-1.1,4-1.8,6.1-2.3
		C265.3,325.9,267.4,325.5,269.6,325.3z"/>
	<path class="st2" d="M268.8,325.1c0.1,0.2-2,1.5-4,3.7c-2,2.2-3.2,4.4-3.4,4.3C262.5,329.4,265.2,326.4,268.8,325.1L268.8,325.1z"
		/>
	<path class="st2" d="M357.9,283.1c-0.8-1.1-1.5-2.4-2.1-3.7c-1.5-3-2.7-6.2-3.9-9.3c-1.1-3.2-2.1-6.4-2.8-9.7
		c-0.4-1.3-0.6-2.7-0.7-4.1c0.6,1.3,1,2.6,1.3,4c0.7,2.5,1.8,5.9,3.1,9.6c1.3,3.7,2.6,7.1,3.5,9.4
		C357.1,280.4,357.6,281.7,357.9,283.1z"/>
	<path class="st2" d="M339.2,300c-0.5,1.3-1.3,2.5-2.3,3.5c-4.7,5.3-11.5,8.3-18.6,8c-1.4,0-2.9-0.2-4.2-0.8c0-0.2,1.6,0.2,4.2,0.1
		c6.8-0.1,13.3-2.9,18.1-7.8C338.2,301.3,339.1,299.9,339.2,300z"/>
	<path class="st11" d="M327,387.5c0,0-12.2,2.7-13.9,1.3c-1.6-1.3,2.3-2.8,2.3-2.8s-3.5,0.4-3.5-0.8c0.1-0.9,0.6-1.7,1.3-2.2
		L327,387.5z"/>
	<path class="st11" d="M310.4,363.7c0,0,17.2,7.7,17.4,8.4c0.2,0.6,0.7,12.8-0.9,15.4c-1.6,2.5-24.2-9.8-24.2-9.8L310.4,363.7z"/>
	<path class="st12" d="M323.1,384.6c-0.3,0-0.6,0-0.9,0l-2.3-0.3c-2.6-0.3-5.1-0.9-7.6-1.6c-2.5-0.7-4.9-1.9-7.1-3.4l-1.9-1.3
		c-0.5-0.3-0.7-0.5-0.7-0.5c0.3,0.1,0.5,0.3,0.8,0.4l2,1.2c2.1,1.4,4.5,2.5,7,3.3c2.5,0.7,5,1.3,7.5,1.8l2.3,0.4
		C322.5,384.5,322.8,384.5,323.1,384.6z"/>
	<path class="st12" d="M323,384.9c-1.3,0.5-2.6,0.9-3.9,1c-1.3,0.3-2.7,0.3-4.1,0.2c0-0.1,1.8-0.2,4-0.6S323,384.8,323,384.9z"/>
</g>
</svg>
