<?xml version="1.0" encoding="utf-8"?>
<!-- Generator: Adobe Illustrator 26.0.1, SVG Export Plug-In . SVG Version: 6.00 Build 0)  -->
<svg version="1.1" id="Layer_1" xmlns="http://www.w3.org/2000/svg" xmlns:xlink="http://www.w3.org/1999/xlink" x="0px" y="0px"
	 viewBox="0 0 390 313" style="enable-background:new 0 0 390 313;" xml:space="preserve">
<style type="text/css">
	.st0{fill:none;}
	.st1{fill:#C2DDF2;fill-opacity:0.75;}
	.st2{fill:#FFFFFF;}
</style>
<rect class="st0" width="390" height="313"/>
<rect x="62" y="42" class="st1" width="266" height="230"/>
<path class="st2" d="M190.8,111.2v4.2h-10.4v29.2h29.2v-10.4h4.2v12.5c0,0.6-0.2,1.1-0.6,1.5s-0.9,0.6-1.5,0.6h-33.3
	c-0.6,0-1.1-0.2-1.5-0.6s-0.6-0.9-0.6-1.5v-33.3c0-0.6,0.2-1.1,0.6-1.5s0.9-0.6,1.5-0.6H190.8z M206.6,115.4h-9.6v-4.2h16.7v16.7
	h-4.2v-9.6L195,132.9l-2.9-2.9L206.6,115.4z"/>
<path class="st2" d="M112.2,198l4.1,0l3.4-12.4l3.3,12.4h4.1l4.9-17.4h-3.8l-3.1,13.5l-3.4-13.5h-3.9l-3.6,13.6l-3.1-13.6h-3.8
	L112.2,198z M140.3,186.8c1.8,0,3.2,1.1,3.3,3H137C137.3,187.9,138.6,186.8,140.3,186.8z M146.9,193.6h-3.8
	c-0.5,0.9-1.3,1.7-2.8,1.7c-1.8,0-3.1-1.1-3.3-3.2h10.1c0.1-0.4,0.1-0.9,0.1-1.4c0-4.1-2.8-6.8-6.8-6.8c-4.1,0-6.9,2.8-6.9,7.1
	c0,4.4,2.9,7.2,6.9,7.2C143.8,198.2,146.1,196.2,146.9,193.6z M153.3,186.2v-6.7h-3.5V198h3.5v-2c0.9,1.2,2.4,2.2,4.6,2.2
	c3.6,0,6.3-2.9,6.3-7.2c0-4.3-2.8-7.1-6.3-7.1C155.7,183.9,154.1,184.9,153.3,186.2z M160.6,191c0,2.6-1.8,4.1-3.7,4.1
	c-1.9,0-3.6-1.4-3.6-4.1s1.8-4.1,3.6-4.1C158.8,187,160.6,188.4,160.6,191z M171.7,183.4h4.6V198h3.5v-14.6h4.6v-2.8h-12.8V183.4z
	 M193,186.8c1.8,0,3.2,1.1,3.3,3h-6.6C190,187.9,191.4,186.8,193,186.8z M199.6,193.6h-3.8c-0.4,0.9-1.3,1.7-2.8,1.7
	c-1.8,0-3.1-1.1-3.3-3.2h10.1c0.1-0.4,0.1-0.9,0.1-1.4c0-4.1-2.8-6.8-6.8-6.8c-4.1,0-6.9,2.8-6.9,7.1c0,4.4,2.9,7.2,6.9,7.2
	C196.6,198.2,198.9,196.2,199.6,193.6z M221.9,198h3.5v-8.1c0-3.8-2.4-5.9-5.7-5.9c-2,0-3.9,1.1-4.8,2.7c-0.9-1.7-2.7-2.7-4.9-2.7
	c-1.7,0-3.2,0.7-4.1,1.9v-1.7h-3.5V198h3.5v-7.6c0-2.2,1.2-3.4,3.1-3.4c1.8,0,3.1,1.1,3.1,3.4v7.6h3.5v-7.6c0-2.2,1.2-3.4,3.1-3.4
	c1.8,0,3.1,1.1,3.1,3.4V198z M232.2,186.1v-2h-3.5v20.5h3.5V196c0.9,1.1,2.4,2.2,4.6,2.2c3.6,0,6.3-2.9,6.3-7.2
	c0-4.3-2.8-7.1-6.3-7.1C234.6,183.9,233,185,232.2,186.1z M239.5,191c0,2.6-1.8,4.1-3.7,4.1c-1.9,0-3.6-1.4-3.6-4.1s1.8-4.1,3.6-4.1
	C237.8,187,239.5,188.4,239.5,191z M245.7,198h3.5v-18.5h-3.5V198z M251.7,191c0,4.3,2.8,7.2,6.3,7.2c2.2,0,3.8-1.1,4.6-2.2v2h3.5
	v-13.9h-3.5v2c-0.8-1.1-2.4-2.2-4.6-2.2C254.5,183.9,251.7,186.7,251.7,191z M262.6,191.1c0,2.6-1.8,4.1-3.7,4.1
	c-1.9,0-3.7-1.5-3.7-4.1s1.8-4,3.7-4C260.9,187,262.6,188.4,262.6,191.1z M270.1,193.7c0,3.2,1.8,4.3,4.4,4.3h2.2v-2.9h-1.6
	c-1.1,0-1.5-0.4-1.5-1.3V187h3.1v-2.9h-3.1v-3.4h-3.5v3.4h-1.6v2.9h1.6V193.7z M285.2,186.8c1.8,0,3.2,1.1,3.3,3h-6.6
	C282.2,187.9,283.5,186.8,285.2,186.8z M291.8,193.6H288c-0.4,0.9-1.3,1.7-2.8,1.7c-1.8,0-3.1-1.1-3.3-3.2H292
	c0.1-0.4,0.1-0.9,0.1-1.4c0-4.1-2.8-6.8-6.8-6.8c-4.1,0-7,2.8-7,7.1c0,4.4,2.9,7.2,7,7.2C288.7,198.2,291,196.2,291.8,193.6z"/>
</svg>
