<svg id="Layer_1" data-name="Layer 1" xmlns="http://www.w3.org/2000/svg" viewBox="0 0 137 139">
  <defs>
    <style>
      .cls-1 {
        fill: #1e9cd7;
      }

      .cls-2 {
        fill: #fff;
      }
    </style>
  </defs>
  <g>
    <circle class="cls-1" cx="68.766" cy="81.681" r="35"/>
    <path class="cls-2" d="M65.016,69.185v0H78.763a1.257,1.257,0,0,1,1.253,1.24v22.52a1.241,1.241,0,0,1-1.241,1.24H58.757a1.259,1.259,0,0,1-.881-.372,1.262,1.262,0,0,1-.268-.408,1.249,1.249,0,0,1-.092-.479V76.681Zm-3.963,7.5h3.963V72.718Zm6.463-5v6.25a1.25,1.25,0,0,1-1.25,1.25h-6.25v12.5h17.5v-20Z"/>
  </g>
</svg>
