<svg id="Layer_1" data-name="Layer 1" xmlns="http://www.w3.org/2000/svg" viewBox="0 0 102 95">
  <defs>
    <style>
      .cls-1 {
        fill: #1e9cd7;
      }

      .cls-2 {
        fill: none;
        stroke: #fff;
        stroke-linecap: round;
        stroke-linejoin: round;
        stroke-width: 2px;
      }
    </style>
  </defs>
  <g>
    <circle class="cls-1" cx="48.5" cy="49.5" r="37.5"/>
    <path class="cls-2" d="M52.575,39.5A7.5,7.5,0,0,1,58.5,45.425Zm0-6A13.5,13.5,0,0,1,64.5,45.41ZM63,57.38v4.5a3,3,0,0,1-3.27,3,29.682,29.682,0,0,1-12.945-4.6,29.255,29.255,0,0,1-9-9,29.678,29.678,0,0,1-4.6-13A3,3,0,0,1,36.165,35h4.5a3,3,0,0,1,3,2.58,19.257,19.257,0,0,0,1.05,4.215,3,3,0,0,1-.675,3.165l-1.905,1.905a24,24,0,0,0,9,9L53.04,53.96a3,3,0,0,1,3.165-.675,19.257,19.257,0,0,0,4.215,1.05A3,3,0,0,1,63,57.38Z"/>
  </g>
</svg>
