<svg width="80" height="80" viewBox="0 0 80 80" fill="none" xmlns="http://www.w3.org/2000/svg">
<g clip-path="url(#clip0)">
<path d="M71.4688 59.5574H4.02422C1.80172 59.5574 0 57.7557 0 55.5332V5.63378C0 3.41128 1.80172 1.60956 4.02422 1.60956H71.4688C73.6912 1.60956 75.493 3.41128 75.493 5.63378V55.5332C75.493 57.7557 73.6912 59.5574 71.4688 59.5574Z" fill="#736572"/>
<path d="M80.0002 5.63378V55.5332C80.0002 57.7561 78.1989 59.5574 75.9759 59.5574H71.147C73.37 59.5574 75.1712 57.7561 75.1712 55.5332V53.9235L68.3477 35.4263L75.1712 7.24347V5.63378C75.1712 3.41081 73.37 1.60956 71.147 1.60956H75.9759C78.1989 1.60971 80.0002 3.41096 80.0002 5.63378Z" fill="#615260"/>
<path d="M74.3664 54.7285H5.63395C5.18941 54.7285 4.8291 54.3682 4.8291 53.9236V16.9014L45.2914 11.67L75.1711 16.9014V53.9236C75.1713 54.368 74.8108 54.7285 74.3664 54.7285Z" fill="white"/>
<path d="M65.5133 32.5152H52.636L48.7856 30.1007L52.636 27.6862H65.5133C66.8467 27.6862 67.9278 28.7671 67.9278 30.1007C67.9277 31.4341 66.8467 32.5152 65.5133 32.5152Z" fill="#FCF1F2"/>
<path d="M52.6352 32.5152H14.4863C13.1529 32.5152 12.0718 31.4343 12.0718 30.1007C12.0718 28.7673 13.1527 27.6862 14.4863 27.6862H52.6352V32.5152Z" fill="#BAF39A"/>
<path d="M68.8643 11.8413L64.7083 16.9014H4.8291V7.24344C4.8291 6.79891 5.18941 6.4386 5.63394 6.4386H64.7083L68.8643 11.8413Z" fill="#FFE077"/>
<path d="M23.742 13.2797C22.8545 13.2797 22.1323 12.5575 22.1323 11.67C22.1323 10.7825 22.8545 10.0603 23.742 10.0603C24.6295 10.0603 25.3517 10.7825 25.3517 11.67C25.3517 12.5575 24.6295 13.2797 23.742 13.2797Z" fill="#FFC263"/>
<path d="M18.1077 13.2797C17.2202 13.2797 16.498 12.5575 16.498 11.67C16.498 10.7825 17.2202 10.0603 18.1077 10.0603C18.9952 10.0603 19.7174 10.7825 19.7174 11.67C19.7174 12.5575 18.9952 13.2797 18.1077 13.2797Z" fill="#FFC263"/>
<path d="M12.4744 13.2797C11.5869 13.2797 10.8647 12.5575 10.8647 11.67C10.8647 10.7825 11.5869 10.0603 12.4744 10.0603C13.3619 10.0603 14.0841 10.7825 14.0841 11.67C14.0841 12.5575 13.3619 13.2797 12.4744 13.2797Z" fill="#FFC263"/>
<path d="M64.708 6.4386H74.366C74.8105 6.4386 75.1708 6.79891 75.1708 7.24344V16.9014H64.708V6.4386Z" fill="#FFC263"/>
<path d="M40.0001 51.7505C39.3333 51.7505 38.793 51.21 38.793 50.5433V44.7485C38.793 44.0816 39.3334 43.5413 40.0001 43.5413C40.6669 43.5413 41.2073 44.0817 41.2073 44.7485V50.5433C41.2073 51.21 40.667 51.7505 40.0001 51.7505Z" fill="#FCF1F2"/>
<path d="M46.5197 48.2897V47.3239C46.5197 44.375 48.502 41.8892 51.2069 41.1264C51.7637 40.9694 54.51 42.3017 55.5833 44.5295L62.3176 58.5084C63.9975 61.9953 64.8697 65.8159 64.8697 69.6863V71.9517C64.8697 75.5077 61.987 78.3903 58.4311 78.3903H58.753C55.197 78.3903 52.3144 75.5077 52.3144 71.9517C52.3144 70.4094 51.9919 68.8839 51.3675 67.4736L50.8492 66.3027C50.3336 65.1377 49.1794 64.3864 47.9055 64.3864H32.0958C30.8219 64.3864 29.6676 65.1377 29.152 66.3027L28.6337 67.4736C28.0094 68.8841 27.6869 70.4094 27.6869 71.9517C27.6869 75.5077 24.8042 78.3903 21.2483 78.3903H17.0631C13.5072 78.3903 10.6245 75.5077 10.6245 71.9517V69.6863C10.6245 65.8159 11.4969 61.9953 13.1767 58.5084L19.9111 44.5295C20.9844 42.3017 23.2387 40.8853 25.7117 40.8853H27.0431C30.599 40.8853 33.4817 43.768 33.4817 47.3239V48.2897C33.4817 49.1788 34.2023 49.8994 35.0914 49.8994H44.9103C45.799 49.8994 46.5197 49.1788 46.5197 48.2897Z" fill="#BCF1F8"/>
<path d="M69.3757 69.6869V71.9518C69.3757 75.5075 66.4929 78.3904 62.9372 78.3904H58.752C58.6473 78.3904 58.5428 78.3871 58.4398 78.3822C61.8411 78.21 64.5468 75.3963 64.5468 71.9516V69.6868C64.5468 65.8155 63.6743 61.9958 61.9956 58.5077L55.2607 44.5294C54.4479 42.8425 52.9573 41.6208 51.2061 41.1266C51.7631 40.9688 52.3506 40.8852 52.9573 40.8852H54.2886C56.7611 40.8852 59.0161 42.3018 60.0898 44.5294L66.8247 58.5077C68.5034 61.996 69.3757 65.8157 69.3757 69.6869Z" fill="#91F2F2"/>
<path d="M24.7078 61.167C22.4853 61.167 20.6836 59.3653 20.6836 57.143C20.6836 54.9205 22.4853 53.1188 24.7078 53.1188C26.9303 53.1188 28.732 54.9205 28.732 57.143C28.7319 59.3653 26.9303 61.167 24.7078 61.167Z" fill="white"/>
<path d="M59.3154 55.9357H56.4985V53.1188C56.4985 52.4519 55.958 51.9116 55.2913 51.9116C54.6244 51.9116 54.0841 52.4521 54.0841 53.1188V55.9357H51.2672C50.6004 55.9357 50.0601 56.4761 50.0601 57.1429C50.0601 57.8096 50.6005 58.3501 51.2672 58.3501H54.0841V61.1669C54.0841 61.8338 54.6246 62.3741 55.2913 62.3741C55.9582 62.3741 56.4985 61.8336 56.4985 61.1669V58.3501H59.3154C59.9823 58.3501 60.5226 57.8096 60.5226 57.1429C60.5226 56.4761 59.9821 55.9357 59.3154 55.9357Z" fill="white"/>
<path d="M45.6336 60.7645H42.4142C41.7473 60.7645 41.207 60.2241 41.207 59.5573C41.207 58.8906 41.7475 58.3502 42.4142 58.3502H45.6336C46.3005 58.3502 46.8408 58.8906 46.8408 59.5573C46.8408 60.2241 46.3005 60.7645 45.6336 60.7645Z" fill="#7DE8F9"/>
<path d="M37.5857 60.7645H34.3664C33.6995 60.7645 33.1592 60.2241 33.1592 59.5573C33.1592 58.8906 33.6996 58.3502 34.3664 58.3502H37.5857C38.2526 58.3502 38.7929 58.8906 38.7929 59.5573C38.7929 60.2241 38.2526 60.7645 37.5857 60.7645Z" fill="#7DE8F9"/>
<path d="M39.9995 46.1167C38.4437 46.1167 37.1826 44.8556 37.1826 43.2998C37.1826 41.7441 38.4437 40.483 39.9995 40.483C41.5553 40.483 42.8164 41.7441 42.8164 43.2998C42.8164 44.8555 41.5553 46.1167 39.9995 46.1167Z" fill="#CBB0F2"/>
</g>
<defs>
<clipPath id="clip0">
<rect width="80" height="80" fill="white"/>
</clipPath>
</defs>
</svg>
