<svg width="80" height="80" viewBox="0 0 80 80" fill="none" xmlns="http://www.w3.org/2000/svg">
<path d="M50.6771 68.3489V61.9321H29.3225V68.3489C29.4111 73.6909 26.374 78.8282 26.374 78.8282H53.6255C53.6255 78.8282 50.5885 73.691 50.6771 68.3489Z" fill="#ACACAC"/>
<path d="M29.3218 63.198H50.677V66.3716H29.3218V63.198Z" fill="#9C9C9C"/>
<path d="M77.4549 63.1987H2.54376C1.48027 63.1987 0.618164 62.3366 0.618164 61.2731V15.2198C0.618164 14.1563 1.48027 13.2942 2.54376 13.2942H77.4549C78.5184 13.2942 79.3805 14.1563 79.3805 15.2198V61.2733C79.3805 62.3366 78.5184 63.1987 77.4549 63.1987Z" fill="#ACACAC"/>
<path d="M79.3802 15.22V61.2736C79.3802 62.3368 78.5185 63.1984 77.4538 63.1984H74.2817C75.3449 63.1984 76.2066 62.3368 76.2066 61.2736V15.22C76.2066 14.1568 75.3449 13.2936 74.2817 13.2936H77.4538C78.5185 13.2936 79.3802 14.1568 79.3802 15.22Z" fill="#9C9C9C"/>
<path d="M6.74805 54.0045V20.7245C6.74805 19.7485 7.50157 18.9573 8.43117 18.9573H71.5671C72.4967 18.9573 73.2503 19.7485 73.2503 20.7245V54.0045H6.74805Z" fill="#C4E2FF"/>
<path d="M73.2512 20.7244V54.0043H70.0776V20.7244C70.0776 19.7486 69.324 18.9568 68.394 18.9568H71.5677C72.4974 18.9568 73.2512 19.7486 73.2512 20.7244Z" fill="#A5D5F9"/>
<path d="M58.1117 80H21.8886C21.2414 80 20.7168 79.4754 20.7168 78.8283C20.7168 78.1811 21.2414 77.6565 21.8886 77.6565H58.1117C58.7589 77.6565 59.2835 78.1811 59.2835 78.8283C59.2835 79.4754 58.7589 80 58.1117 80Z" fill="#5A5A5A"/>
<path d="M65.997 54.0046H14.001V1.29348C14.001 0.579489 14.5798 0.000793457 15.2937 0.000793457H64.7042C65.4182 0.000793457 65.9969 0.579645 65.9969 1.29348V54.0046H65.997Z" fill="#EAF6FF"/>
<path d="M65.9977 1.29332V54.0051H62.8241V1.29332C62.8241 0.579321 62.2449 0 61.5308 0H64.7044C65.4185 0 65.9977 0.579164 65.9977 1.29332Z" fill="#D8ECFE"/>
<path d="M33.7112 8.49921C32.18 8.49921 30.9389 9.74034 30.9389 11.2714V22.1329C30.9389 22.5296 30.9389 23.2678 29.4864 23.9993C29.0842 24.2018 28.6412 24.3002 28.1321 24.3002C28.1304 24.3002 28.1285 24.3002 28.127 24.3002C27.5858 24.2996 27.1202 24.1698 26.7031 23.9032C25.5943 23.1949 25.504 22.6876 25.504 22.1443V11.2714C25.504 9.74034 24.2628 8.49921 22.7317 8.49921C21.2006 8.49921 19.9595 9.74034 19.9595 11.2714V22.1445C19.9595 24.8186 21.224 26.9825 23.718 28.5758C25.0327 29.4157 26.5135 29.8428 28.1196 29.845H28.1321C29.5084 29.845 30.8031 29.5444 31.9805 28.9515C34.8845 27.4891 36.4839 25.0675 36.4839 22.1331V11.2716C36.4834 9.74034 35.2423 8.49921 33.7112 8.49921Z" fill="#97D729"/>
<path d="M59.475 25.5081L54.237 18.6062L58.5929 12.8294C59.5147 11.6069 59.271 9.86859 58.0484 8.9468C56.8256 8.02454 55.0874 8.26874 54.1658 9.49128L50.7536 14.0165L47.3141 9.4844C46.3884 8.26483 44.6493 8.02657 43.4298 8.95195C42.21 9.87765 41.9718 11.6167 42.8973 12.8363L47.2846 18.6171L42.2943 25.2354C41.3725 26.458 41.6162 28.1962 42.8387 29.118C43.3385 29.495 43.9244 29.6769 44.5058 29.6769C45.3462 29.6769 46.1765 29.2963 46.7215 28.5736L50.768 23.207L55.0582 28.8601C55.6036 29.5786 56.4312 29.9566 57.2686 29.9566C57.8527 29.9566 58.4415 29.7727 58.9425 29.3925C60.1623 28.4667 60.4007 26.7276 59.475 25.5081Z" fill="#97D729"/>
<path d="M36.4835 11.271V22.1326C36.4835 25.0681 34.8855 27.4896 31.9801 28.951C30.8043 29.5444 29.5094 29.8444 28.1322 29.8444H28.1195C27.6133 29.8428 27.1198 29.8016 26.6406 29.7175C27.4562 29.5763 28.2338 29.3209 28.9653 28.951C31.8706 27.4896 33.4686 25.0681 33.4686 22.1326V11.271C33.4686 10.2951 32.9655 9.43819 32.2039 8.9448C32.6371 8.66232 33.1544 8.4989 33.7114 8.4989C35.2425 8.4989 36.4835 9.73972 36.4835 11.271Z" fill="#8BC727"/>
<path d="M58.9433 29.3922C58.4419 29.7731 57.8533 29.9572 57.2692 29.9572C56.7393 29.9572 56.2125 29.8049 55.7602 29.5097C55.8173 29.4732 55.8728 29.4336 55.9284 29.3922C57.1486 28.4672 57.3867 26.728 56.4617 25.5078L51.6563 19.1769C51.4004 18.8396 51.3996 18.3734 51.6545 18.0353L55.5794 12.8293C56.5013 11.6075 56.257 9.86828 55.0351 8.94634C54.9812 8.90666 54.9271 8.86853 54.8717 8.83369C55.8206 8.21797 57.0932 8.22438 58.0499 8.94634C59.2717 9.86828 59.5162 11.6073 58.5943 12.8293L54.2386 18.6068L59.4765 25.5078C60.4016 26.728 60.1635 28.4672 58.9433 29.3922Z" fill="#8BC727"/>
<path d="M60.0384 37.134H19.9589C19.3117 37.134 18.7871 36.6094 18.7871 35.9622C18.7871 35.3151 19.3117 34.7905 19.9589 34.7905H60.0384C60.6855 34.7905 61.2102 35.3151 61.2102 35.9622C61.2102 36.6094 60.6855 37.134 60.0384 37.134Z" fill="#96CCED"/>
<path d="M60.0384 41.9615H19.9589C19.3117 41.9615 18.7871 41.4369 18.7871 40.7898C18.7871 40.1426 19.3117 39.618 19.9589 39.618H60.0384C60.6855 39.618 61.2102 40.1426 61.2102 40.7898C61.2102 41.4369 60.6855 41.9615 60.0384 41.9615Z" fill="#96CCED"/>
<path d="M60.0384 46.789H19.9589C19.3117 46.789 18.7871 46.2644 18.7871 45.6173C18.7871 44.9701 19.3117 44.4455 19.9589 44.4455H60.0384C60.6855 44.4455 61.2102 44.9701 61.2102 45.6173C61.2102 46.2644 60.6855 46.789 60.0384 46.789Z" fill="#96CCED"/>
<path d="M79.3805 54.0045V61.2736C79.3805 62.3368 78.5188 63.1984 77.4541 63.1984H2.54455C1.4798 63.1984 0.618164 62.3368 0.618164 61.2736V54.0045H79.3805Z" fill="#5A5A5A"/>
<path d="M79.3802 54.0051V61.2743C79.3802 62.3375 78.5185 63.1991 77.4538 63.1991H74.2817C75.3449 63.1991 76.2066 62.3375 76.2066 61.2743V54.0051H79.3802Z" fill="#444444"/>
<path d="M42.3795 59.7732H37.619C36.9719 59.7732 36.4473 59.2485 36.4473 58.6014C36.4473 57.9543 36.9719 57.4296 37.619 57.4296H42.3795C43.0267 57.4296 43.5513 57.9543 43.5513 58.6014C43.5513 59.2485 43.0267 59.7732 42.3795 59.7732Z" fill="#333333"/>
</svg>
