<svg id="Layer_1" data-name="Layer 1" xmlns="http://www.w3.org/2000/svg" viewBox="0 0 137 139">
  <defs>
    <style>
      .cls-1 {
        fill: #1e9cd7;
      }

      .cls-2 {
        fill: #fff;
      }
    </style>
  </defs>
  <g>
    <circle class="cls-1" cx="68.766" cy="84.681" r="35"/>
    <path class="cls-2" d="M56.266,84.681a12.521,12.521,0,0,1,.4-3.13A3.749,3.749,0,0,0,60,75.765a12.492,12.492,0,0,1,5.419-3.132,3.75,3.75,0,0,0,6.685,0,12.487,12.487,0,0,1,5.419,3.132,3.75,3.75,0,0,0,3.344,5.787,12.595,12.595,0,0,1,0,6.259A3.75,3.75,0,0,0,77.526,93.6a12.485,12.485,0,0,1-5.419,3.131,3.751,3.751,0,0,0-6.685,0A12.49,12.49,0,0,1,60,93.6,3.749,3.749,0,0,0,56.66,87.81,12.588,12.588,0,0,1,56.266,84.681Zm6.005,3.75a6.244,6.244,0,0,1,.7,4.405,10.012,10.012,0,0,0,1.621.937,6.255,6.255,0,0,1,8.338,0,10.055,10.055,0,0,0,1.621-.937,6.25,6.25,0,0,1,4.168-7.218,10.3,10.3,0,0,0,0-1.875,6.248,6.248,0,0,1-4.169-7.217,9.953,9.953,0,0,0-1.622-.938,6.249,6.249,0,0,1-8.336,0,9.986,9.986,0,0,0-1.621.938,6.249,6.249,0,0,1-4.167,7.217,10.124,10.124,0,0,0,0,1.875,6.243,6.243,0,0,1,3.463,2.813Zm6.5,0a3.749,3.749,0,1,1,2.652-1.1A3.752,3.752,0,0,1,68.766,88.431Zm0-2.5a1.25,1.25,0,1,0-.884-.366A1.252,1.252,0,0,0,68.766,85.931Z"/>
  </g>
</svg>
