<svg id="Layer_1" data-name="Layer 1" xmlns="http://www.w3.org/2000/svg" viewBox="0 0 149 121">
  <defs>
    <style>
      .cls-1 {
        fill: #fff;
      }

      .cls-2 {
        fill: #1e9cd7;
      }
    </style>
  </defs>
  <g>
    <rect class="cls-1" x="38.713" y="24.583" width="72.353" height="72.353"/>
    <path class="cls-2" d="M93.271,49.284a15.167,15.167,0,0,1-4.345,1.19,7.58,7.58,0,0,0,3.328-4.185,15.115,15.115,0,0,1-4.8,1.836,7.565,7.565,0,0,0-12.89,6.9,21.482,21.482,0,0,1-15.592-7.905,7.575,7.575,0,0,0,2.341,10.1,7.548,7.548,0,0,1-3.426-.946v.094a7.572,7.572,0,0,0,6.068,7.418,7.621,7.621,0,0,1-3.418.13A7.563,7.563,0,0,0,67.6,69.17,15.171,15.171,0,0,1,56.4,72.3,21.4,21.4,0,0,0,68,75.7c13.915,0,21.525-11.528,21.525-21.525,0-.326-.009-.655-.024-.977a15.361,15.361,0,0,0,3.775-3.916Z"/>
  </g>
</svg>
