<svg id="Layer_1" data-name="Layer 1" xmlns="http://www.w3.org/2000/svg" viewBox="0 0 149 121">
  <defs>
    <style>
      .cls-1 {
        fill: #fff;
      }

      .cls-2 {
        fill: #1e9cd7;
      }
    </style>
  </defs>
  <g>
    <rect class="cls-1" x="37.904" y="24.583" width="72.353" height="72.353"/>
    <path class="cls-2" d="M76.45,75.954A15.374,15.374,0,0,1,58.887,58.39,9.5,9.5,0,0,1,71.711,45.566,15.374,15.374,0,0,1,89.275,63.13,9.5,9.5,0,0,1,76.45,75.954Zm-2.275-5.868H74.1c5.2,0,7.783-2.507,7.783-5.866,0-2.167-1-4.469-4.931-5.35l-3.587-.8c-1.365-.311-2.934-.724-2.934-2.017s1.122-2.194,3.119-2.194c4.033,0,3.666,2.764,5.663,2.764a1.79,1.79,0,0,0,1.977-1.682c0-2.479-3.974-4.342-7.336-4.342-3.656,0-7.549,1.554-7.549,5.687,0,1.986.713,4.106,4.631,5.089L75.8,62.592c1.476.366,1.841,1.192,1.841,1.939,0,1.243-1.237,2.457-3.469,2.457-4.372,0-3.759-3.359-6.1-3.359a1.718,1.718,0,0,0-1.814,1.756c0,2.015,2.445,4.7,7.917,4.7Z"/>
  </g>
</svg>
