<svg id="Layer_1" data-name="Layer 1" xmlns="http://www.w3.org/2000/svg" viewBox="0 0 149 121">
  <defs>
    <style>
      .cls-1 {
        fill: #fff;
      }

      .cls-2 {
        fill: #1e9cd7;
      }
    </style>
  </defs>
  <g>
    <rect class="cls-1" x="38.521" y="24.583" width="72.353" height="72.353"/>
    <path class="cls-2" d="M74.7,42.671c4.914,0,5.528.018,7.456.109a13.307,13.307,0,0,1,4.392.841,9.241,9.241,0,0,1,5.291,5.291,13.394,13.394,0,0,1,.841,4.392c.085,1.928.108,2.541.108,7.456s-.018,5.527-.108,7.456a13.4,13.4,0,0,1-.841,4.391A9.233,9.233,0,0,1,86.546,77.9a13.353,13.353,0,0,1-4.392.841c-1.928.085-2.542.109-7.456.109s-5.528-.018-7.456-.109A13.353,13.353,0,0,1,62.85,77.9a9.233,9.233,0,0,1-5.291-5.291,13.341,13.341,0,0,1-.841-4.391c-.085-1.929-.108-2.542-.108-7.456s.018-5.528.108-7.456a13.342,13.342,0,0,1,.841-4.392,9.241,9.241,0,0,1,5.291-5.291,13.3,13.3,0,0,1,4.392-.841C69.17,42.7,69.783,42.671,74.7,42.671Zm0,9.044a9.044,9.044,0,1,0,6.4,2.649,9.043,9.043,0,0,0-6.4-2.649Zm11.757-.452a2.26,2.26,0,1,0-.662,1.6A2.263,2.263,0,0,0,86.455,51.263ZM74.7,55.333a5.429,5.429,0,1,1-3.837,1.59,5.426,5.426,0,0,1,3.837-1.59Z"/>
  </g>
</svg>
