<?xml version="1.0" encoding="utf-8"?>
<!-- Generator: Adobe Illustrator 26.0.1, SVG Export Plug-In . SVG Version: 6.00 Build 0)  -->
<svg version="1.1" id="Layer_1" xmlns="http://www.w3.org/2000/svg" xmlns:xlink="http://www.w3.org/1999/xlink" x="0px" y="0px"
	 viewBox="0 0 1080 564.1" style="enable-background:new 0 0 1080 564.1;" xml:space="preserve">
<style type="text/css">
	.st0{clip-path:url(#SVGID_00000078759619078642355360000009035079329738842026_);}
	.st1{fill:#F2F2F2;}
	.st2{fill:#CCCCCC;}
	.st3{fill:#A0616A;}
	.st4{fill:#FF5300;}
	.st5{fill:#2F2E41;}
	.st6{fill:#1E9CD7;}
	.st7{fill:#FFFFFF;}
	.st8{fill:#3F3D56;}
	.st9{fill:#E6E6E6;}
	.st10{fill:#FF6584;}
	.st11{fill:#FFB8B8;}
</style>
<g>
	<defs>
		<rect id="SVGID_1_" width="1080" height="555.8"/>
	</defs>
	<clipPath id="SVGID_00000027570511059228053330000001334197880237501336_">
		<use xlink:href="#SVGID_1_"  style="overflow:visible;"/>
	</clipPath>
	<g style="clip-path:url(#SVGID_00000027570511059228053330000001334197880237501336_);">
		<g>
			<path class="st1" d="M337.7,69.1c4.3,0,7.8-3.5,7.8-7.8c0-4.3-3.5-7.8-7.8-7.8c-4.3,0-7.8,3.5-7.8,7.8
				C329.9,65.6,333.4,69.1,337.7,69.1z"/>
			<path class="st1" d="M306.6,69.1c4.3,0,7.8-3.5,7.8-7.8s-3.5-7.8-7.8-7.8c-4.3,0-7.8,3.5-7.8,7.8
				C298.8,65.6,302.3,69.1,306.6,69.1C306.6,69.1,306.6,69.1,306.6,69.1z"/>
			<path class="st1" d="M275.6,69.1c4.3,0,7.8-3.5,7.8-7.8s-3.5-7.8-7.8-7.8c-4.3,0-7.8,3.5-7.8,7.8
				C267.8,65.6,271.3,69.1,275.6,69.1C275.6,69.1,275.6,69.1,275.6,69.1z"/>
			<path class="st1" d="M244.5,69.1c4.3,0,7.8-3.5,7.8-7.8s-3.5-7.8-7.8-7.8c-4.3,0-7.8,3.5-7.8,7.8
				C236.8,65.6,240.2,69.1,244.5,69.1C244.5,69.1,244.5,69.1,244.5,69.1z"/>
			<path class="st1" d="M337.7,101.5c4.3,0,7.8-3.5,7.8-7.8s-3.5-7.8-7.8-7.8c-4.3,0-7.8,3.5-7.8,7.8
				C329.9,98,333.4,101.5,337.7,101.5z"/>
			<path class="st1" d="M306.6,101.5c4.3,0,7.8-3.5,7.8-7.8s-3.5-7.8-7.8-7.8c-4.3,0-7.8,3.5-7.8,7.8
				C298.8,98,302.3,101.5,306.6,101.5C306.6,101.5,306.6,101.5,306.6,101.5z"/>
			<path class="st1" d="M275.6,101.5c4.3,0,7.8-3.5,7.8-7.8s-3.5-7.8-7.8-7.8c-4.3,0-7.8,3.5-7.8,7.8
				C267.8,98,271.3,101.5,275.6,101.5z"/>
			<path class="st1" d="M244.5,101.5c4.3,0,7.8-3.5,7.8-7.8s-3.5-7.8-7.8-7.8c-4.3,0-7.8,3.5-7.8,7.8
				C236.8,98,240.2,101.5,244.5,101.5C244.5,101.5,244.5,101.5,244.5,101.5z"/>
			<path class="st1" d="M337.7,134c4.3,0,7.8-3.5,7.8-7.8c0-4.3-3.5-7.8-7.8-7.8c-4.3,0-7.8,3.5-7.8,7.8
				C329.9,130.5,333.4,134,337.7,134z"/>
			<path class="st1" d="M306.6,134c4.3,0,7.8-3.5,7.8-7.8s-3.5-7.8-7.8-7.8c-4.3,0-7.8,3.5-7.8,7.8C298.8,130.5,302.3,134,306.6,134
				C306.6,134,306.6,134,306.6,134z"/>
			<path class="st1" d="M275.6,134c4.3,0,7.8-3.5,7.8-7.8s-3.5-7.8-7.8-7.8c-4.3,0-7.8,3.5-7.8,7.8C267.8,130.5,271.3,134,275.6,134
				C275.6,134,275.6,134,275.6,134z"/>
			<path class="st1" d="M244.5,134c4.3,0,7.8-3.5,7.8-7.8s-3.5-7.8-7.8-7.8c-4.3,0-7.8,3.5-7.8,7.8C236.8,130.5,240.2,134,244.5,134
				C244.5,134,244.5,134,244.5,134z"/>
			<path class="st1" d="M337.7,166.5c4.3,0,7.8-3.5,7.8-7.8s-3.5-7.8-7.8-7.8c-4.3,0-7.8,3.5-7.8,7.8
				C329.9,163,333.4,166.5,337.7,166.5L337.7,166.5z"/>
			<path class="st1" d="M306.6,166.5c4.3,0,7.8-3.5,7.8-7.8s-3.5-7.8-7.8-7.8c-4.3,0-7.8,3.5-7.8,7.8
				C298.8,163,302.3,166.5,306.6,166.5L306.6,166.5z"/>
			<path class="st1" d="M275.6,166.5c4.3,0,7.8-3.5,7.8-7.8s-3.5-7.8-7.8-7.8c-4.3,0-7.8,3.5-7.8,7.8
				C267.8,163,271.3,166.5,275.6,166.5L275.6,166.5z"/>
			<path class="st1" d="M244.5,166.5c4.3,0,7.8-3.5,7.8-7.8s-3.5-7.8-7.8-7.8c-4.3,0-7.8,3.5-7.8,7.8
				C236.8,163,240.2,166.5,244.5,166.5L244.5,166.5z"/>
			<path class="st1" d="M337.7,198.9c4.3,0,7.8-3.5,7.8-7.8s-3.5-7.8-7.8-7.8c-4.3,0-7.8,3.5-7.8,7.8
				C329.9,195.4,333.4,198.9,337.7,198.9z"/>
			<path class="st1" d="M306.6,198.9c4.3,0,7.8-3.5,7.8-7.8s-3.5-7.8-7.8-7.8c-4.3,0-7.8,3.5-7.8,7.8
				C298.8,195.4,302.3,198.9,306.6,198.9C306.6,198.9,306.6,198.9,306.6,198.9z"/>
			<path class="st1" d="M275.6,198.9c4.3,0,7.8-3.5,7.8-7.8s-3.5-7.8-7.8-7.8c-4.3,0-7.8,3.5-7.8,7.8
				C267.8,195.4,271.3,198.9,275.6,198.9z"/>
			<path class="st1" d="M244.5,198.9c4.3,0,7.8-3.5,7.8-7.8s-3.5-7.8-7.8-7.8c-4.3,0-7.8,3.5-7.8,7.8
				C236.8,195.4,240.2,198.9,244.5,198.9C244.5,198.9,244.5,198.9,244.5,198.9z"/>
			<path class="st1" d="M337.7,231.4c4.3,0,7.8-3.5,7.8-7.8c0-4.3-3.5-7.8-7.8-7.8c-4.3,0-7.8,3.5-7.8,7.8
				C329.9,227.9,333.4,231.4,337.7,231.4z"/>
			<path class="st1" d="M306.6,231.4c4.3,0,7.8-3.5,7.8-7.8s-3.5-7.8-7.8-7.8c-4.3,0-7.8,3.5-7.8,7.8
				C298.8,227.9,302.3,231.4,306.6,231.4C306.6,231.4,306.6,231.4,306.6,231.4z"/>
			<path class="st1" d="M275.6,231.4c4.3,0,7.8-3.5,7.8-7.8s-3.5-7.8-7.8-7.8c-4.3,0-7.8,3.5-7.8,7.8
				C267.8,227.9,271.3,231.4,275.6,231.4C275.6,231.4,275.6,231.4,275.6,231.4z"/>
			<path class="st1" d="M244.5,231.4c4.3,0,7.8-3.5,7.8-7.8s-3.5-7.8-7.8-7.8c-4.3,0-7.8,3.5-7.8,7.8
				C236.8,227.9,240.2,231.4,244.5,231.4C244.5,231.4,244.5,231.4,244.5,231.4z"/>
			<path class="st2" d="M269.2,435.7v2.4c0,8.3,6.8,15,15.1,15h108.4c8.3,0,15-6.7,15.1-15v-2.4c0-3.5-1.2-6.9-3.5-9.6
				c-0.8-0.9-1.6-1.7-2.5-2.4c0,0-59.6-1.3-59.6-3h-57.8C276,420.7,269.2,427.4,269.2,435.7L269.2,435.7z"/>
			<path class="st2" d="M347.2,452.5h-15.7v101h15.7V452.5z"/>
			<path class="st2" d="M391.7,553c0,1.7-23.7,0.7-53,0.7s-53,1-53-0.7c0-1.7,23.7-15.1,53-15.1S391.7,551.3,391.7,553z"/>
			<path class="st3" d="M370.2,433.7c4.3-5.7,3.1-13.8-2.6-18.1c-0.6-0.5-1.3-0.9-2-1.2l-33.2-112.9l-25.3,12.4l40.6,107.1
				c-2.8,6.6,0.4,14.2,7,17C360.3,440.3,366.7,438.5,370.2,433.7L370.2,433.7z"/>
			<path class="st4" d="M340,320.4l-28.3,7.6c-3.1,0.8-6.3-1-7.1-4.1c-0.1-0.3-0.1-0.6-0.2-0.8l-3.4-29c-2.3-8.6,2.8-17.4,11.4-19.7
				c8.6-2.3,17.4,2.8,19.7,11.4l11.7,26.6c1.3,2.9-0.1,6.3-3,7.6C340.5,320.2,340.2,320.3,340,320.4z"/>
			<path class="st3" d="M377.6,541.2h14.8l7-38.2h-21.8L377.6,541.2z"/>
			<path class="st5" d="M373.8,536.3h29.1c10.2,0,18.5,8.3,18.5,18.5c0,0,0,0,0,0v0.6h-47.6L373.8,536.3z"/>
			<path class="st5" d="M394.8,520.7c-0.2,0-0.3,0-0.5,0l-20.4-1.5c-3-0.3-5.2-2.9-4.9-5.9c0-0.5,0.1-0.9,0.3-1.4l27.3-61.3
				c0.8-2.2-0.3-4.6-2.5-5.4c-0.1,0-0.3-0.1-0.4-0.1c-12.9-3.4-45.9-12.3-74.4-22.7c-12.2-4.5-19.9-11-22.9-19.2
				c-3.9-10.9,1.9-20.9,2.1-21.3l0.2-0.3l26.9,2.4l29.1,2.5l63.9,34.2c11.1,6,15.7,19.5,10.6,31l-29.4,65.9
				C398.8,519.4,396.9,520.7,394.8,520.7L394.8,520.7z"/>
			<path class="st3" d="M330.2,262.6c16.3,0,29.5-13.3,29.5-29.6s-13.3-29.5-29.6-29.5c-16.3,0-29.5,13.2-29.5,29.5
				C300.6,249.4,313.9,262.6,330.2,262.6z"/>
			<path class="st3" d="M369.2,540h14.8l7-38.2h-21.8L369.2,540z"/>
			<path class="st5" d="M365.4,535.1h29.1c10.2,0,18.5,8.3,18.5,18.5c0,0,0,0,0,0v0.6h-47.6L365.4,535.1z"/>
			<path class="st5" d="M386.3,524.3c-0.2,0-0.3,0-0.5,0l-20.4-1.5c-3-0.3-5.2-2.9-4.9-5.9c0-0.5,0.1-0.9,0.3-1.4l27.3-61.3
				c0.4-1.1,0.3-2.3-0.2-3.4c-0.5-1.1-1.5-1.8-2.7-2.1c-12.9-3.4-45.9-12.3-74.4-22.7c-12.2-4.5-19.9-11-22.9-19.2
				c-3.9-10.9,1.9-20.9,2.1-21.3l0.2-0.3l26.9,2.4l29.1,2.5l63.9,34.2c11.1,6,15.7,19.5,10.6,31l-29.4,65.9
				C390.4,523,388.5,524.3,386.3,524.3L386.3,524.3z"/>
			<path class="st5" d="M339.3,279.3L308,268.5c0,0-19.7,15.1-10.2,52.5c4.9,19.3,3.5,39.7-4.1,58.1c-0.9,2.3-2,4.5-3.2,6.6
				c0,0,34.9,42.1,67.4,10.8l-12.6-60.7C345.3,335.8,365.2,295.5,339.3,279.3z"/>
			<path class="st5" d="M333.9,263.6c-4.2-6.3-7.5-15-2.9-21c4.6-5.9,13.6-5,20.6-7.7c9.8-3.6,15.4-15.1,13.7-25.3
				c-1.8-10.3-10-18.8-19.8-22.2c-9.8-3.5-20.9-2.3-30.5,1.7c-11.8,4.9-22,14.5-26.3,26.5c-4.3,12.1-2,26.6,6.9,35.9
				c9.5,9.9,24.3,12.6,38.1,12.4"/>
			<path class="st5" d="M306.4,209.9c-5.3,4.3-13.4,2.4-19.1-1.4c-5.7-3.8-10.3-9.2-16.5-12.1c-10.9-5.2-24-1.8-34.6,4
				s-19.9,13.8-31.1,18.3s-25.4,4.8-33.9-3.8c-5.6,16.2,3.1,33.8,19.3,39.4c8.7,3,18.3,1.9,26.2-2.8c12.2-7.4,19-23,32.7-27.1
				c7.6-2.3,15.8-0.4,23.4,1.5c7.7,2,15.7,4.1,23.4,2.4c7.7-1.7,15-8.6,14-16.5L306.4,209.9z"/>
			<path class="st6" d="M402.7,488.1c-3.1-20.3-3.1-41,0-61.3c0.4-2.5,2.6-4.3,5.1-4.3h48c2.9,0,5.2,2.3,5.2,5.2
				c0,0.4-0.1,0.8-0.1,1.2c-4.5,18.8-4.5,38.4,0,57.1c0.4,1.6,0,3.2-1,4.5c-1,1.2-2.5,2-4,2h-48
				C405.2,492.5,403.1,490.6,402.7,488.1z"/>
			<path class="st7" d="M441,452.2h-25.2c-2,0-3.6-1.6-3.6-3.6v-1.4c0-2,1.6-3.6,3.6-3.6H441c2,0,3.6,1.6,3.6,3.6v1.4
				C444.6,450.6,443,452.2,441,452.2z"/>
			<path class="st7" d="M441,467h-25.2c-2,0-3.6-1.6-3.6-3.6V462c0-2,1.6-3.6,3.6-3.6H441c2,0,3.6,1.6,3.6,3.6v1.4
				C444.6,465.4,443,467,441,467z"/>
			<path class="st3" d="M415.3,428.3c2.7-6.6-0.5-14.1-7.1-16.8c-0.7-0.3-1.4-0.5-2.2-0.7l-60.4-101L324.3,328l66.1,93.6
				c-1,7.1,3.9,13.7,11,14.7C407.3,437.1,413,433.8,415.3,428.3L415.3,428.3z"/>
			<path class="st5" d="M357.6,326.1l-25.5,14.5c-2.8,1.6-6.3,0.6-7.9-2.2c-0.1-0.2-0.3-0.5-0.4-0.8l-10.6-27.2
				c-4.3-7.8-1.5-17.6,6.3-21.9c7.7-4.3,17.4-1.6,21.8,6.1l17.9,22.9c2,2.5,1.5,6.2-1,8.1C358.1,325.8,357.9,326,357.6,326.1
				L357.6,326.1z"/>
			<path class="st8" d="M628.7,361.6h-489c-4.3,0-7.8,3.5-7.8,7.8s3.5,7.8,7.8,7.8h13.9v170.1c0.1,4.3,3.6,7.8,7.9,7.7
				c4.2-0.1,7.7-3.5,7.7-7.7V392.2L257,551c2.2,3.7,7,5,10.7,2.8c3.7-2.2,5-6.9,2.9-10.6l-91.8-166H598v0.1l-91.7,165.9
				c-2.1,3.8-0.8,8.5,3,10.6c3.7,2.1,8.4,0.8,10.5-2.8L598,409.7v137.7c0.1,4.3,3.6,7.8,7.9,7.7c4.2-0.1,7.7-3.5,7.7-7.7v-166
				l2.3-4.1h12.8c4.3,0,7.8-3.5,7.8-7.8C636.5,365.1,633,361.6,628.7,361.6L628.7,361.6z"/>
			<path class="st2" d="M426.3,356.8h-95.2c-2.3,0-4.2,1.9-4.2,4.2c0,2.3,1.9,4.2,4.2,4.2h95.2c2.3,0,4.2-1.9,4.2-4.2
				C430.5,358.7,428.7,356.8,426.3,356.8L426.3,356.8z"/>
			<path class="st2" d="M490.2,365.2H383c-4.3,0-7.8-3.5-7.8-7.8v-58.9c0-4.3,3.5-7.8,7.8-7.8h107.2c4.3,0,7.8,3.5,7.8,7.8v58.9
				C498,361.7,494.5,365.2,490.2,365.2L490.2,365.2z"/>
			<path class="st7" d="M436.6,335.1c4,0,7.2-3.2,7.2-7.2c0-4-3.2-7.2-7.2-7.2c-4,0-7.2,3.2-7.2,7.2
				C429.4,331.9,432.6,335.1,436.6,335.1z"/>
			<path class="st9" d="M572,220V9c0-5,4.1-9,9.1-9h167.1c5,0,9,4,9.1,9v211c0,5-4.1,9-9.1,9H581C576,229.1,572,225,572,220L572,220
				z M581,2c-3.9,0-7,3.1-7,7v211c0,3.9,3.2,7,7,7h167.1c3.9,0,7-3.1,7-7V9c0-3.9-3.2-7-7-7L581,2z"/>
			<path class="st6" d="M674,96.9V53.6c0-2.5,2-4.5,4.5-4.5h36.8c2.5,0,4.5,2,4.5,4.5v43.3c0,2.5-2,4.5-4.5,4.5h-36.8
				C676,101.4,674,99.4,674,96.9L674,96.9z"/>
			<path class="st2" d="M602.5,117V73.7c0-2.5,2-4.5,4.5-4.5h36.8c2.5,0,4.5,2,4.5,4.5V117c0,2.5-2,4.5-4.5,4.5H607
				C604.5,121.5,602.5,119.5,602.5,117z"/>
			<path class="st10" d="M659.9,178.3V135c0-2.5,2-4.5,4.5-4.5h36.8c2.5,0,4.5,2,4.5,4.5v43.3c0,2.5-2,4.5-4.5,4.5h-36.8
				C661.9,182.8,659.9,180.8,659.9,178.3z"/>
			<path class="st1" d="M940.4,22c4.3,0,7.8-3.5,7.8-7.8c0-4.3-3.5-7.8-7.8-7.8c-4.3,0-7.8,3.5-7.8,7.8
				C932.6,18.5,936.1,22,940.4,22C940.4,22,940.4,22,940.4,22z"/>
			<path class="st1" d="M940.4,53c4.3,0,7.8-3.5,7.8-7.8c0-4.3-3.5-7.8-7.8-7.8c-4.3,0-7.8,3.5-7.8,7.8
				C932.6,49.5,936.1,53,940.4,53C940.4,53,940.4,53,940.4,53z"/>
			<path class="st1" d="M940.4,84c4.3,0,7.8-3.5,7.8-7.8c0-4.3-3.5-7.8-7.8-7.8c-4.3,0-7.8,3.5-7.8,7.8
				C932.6,80.5,936.1,84,940.4,84C940.4,84,940.4,84,940.4,84z"/>
			<path class="st1" d="M940.4,114.9c4.3,0,7.8-3.5,7.8-7.8c0-4.3-3.5-7.8-7.8-7.8c-4.3,0-7.8,3.5-7.8,7.8
				C932.6,111.5,936.1,115,940.4,114.9z"/>
			<path class="st1" d="M907.8,22c4.3,0,7.8-3.5,7.8-7.8c0-4.3-3.5-7.8-7.8-7.8c-4.3,0-7.8,3.5-7.8,7.8
				C900.1,18.5,903.5,22,907.8,22C907.8,22,907.8,22,907.8,22z"/>
			<path class="st1" d="M907.8,53c4.3,0,7.8-3.5,7.8-7.8c0-4.3-3.5-7.8-7.8-7.8c-4.3,0-7.8,3.5-7.8,7.8
				C900.1,49.5,903.5,53,907.8,53C907.8,53,907.8,53,907.8,53z"/>
			<path class="st1" d="M907.8,84c4.3,0,7.8-3.5,7.8-7.8c0-4.3-3.5-7.8-7.8-7.8c-4.3,0-7.8,3.5-7.8,7.8
				C900.1,80.5,903.5,84,907.8,84C907.8,84,907.8,84,907.8,84z"/>
			<path class="st1" d="M907.8,114.9c4.3,0,7.8-3.5,7.8-7.8c0-4.3-3.5-7.8-7.8-7.8c-4.3,0-7.8,3.5-7.8,7.8
				C900.1,111.5,903.5,115,907.8,114.9z"/>
			<path class="st1" d="M875.3,22c4.3,0,7.8-3.5,7.8-7.8c0-4.3-3.5-7.8-7.8-7.8c-4.3,0-7.8,3.5-7.8,7.8C867.5,18.5,871,22,875.3,22
				C875.3,22,875.3,22,875.3,22z"/>
			<path class="st1" d="M875.3,53c4.3,0,7.8-3.5,7.8-7.8c0-4.3-3.5-7.8-7.8-7.8c-4.3,0-7.8,3.5-7.8,7.8C867.5,49.5,871,53,875.3,53
				C875.3,53,875.3,53,875.3,53z"/>
			<path class="st1" d="M875.3,84c4.3,0,7.8-3.5,7.8-7.8c0-4.3-3.5-7.8-7.8-7.8c-4.3,0-7.8,3.5-7.8,7.8C867.5,80.5,871,84,875.3,84
				C875.3,84,875.3,84,875.3,84z"/>
			<path class="st1" d="M875.3,114.9c4.3,0,7.8-3.5,7.8-7.8c0-4.3-3.5-7.8-7.8-7.8c-4.3,0-7.8,3.5-7.8,7.8
				C867.5,111.5,871,115,875.3,114.9z"/>
			<path class="st1" d="M842.8,22c4.3,0,7.8-3.5,7.8-7.8c0-4.3-3.5-7.8-7.8-7.8c-4.3,0-7.8,3.5-7.8,7.8C835,18.5,838.5,22,842.8,22
				C842.8,22,842.8,22,842.8,22z"/>
			<path class="st1" d="M842.8,53c4.3,0,7.8-3.5,7.8-7.8c0-4.3-3.5-7.8-7.8-7.8c-4.3,0-7.8,3.5-7.8,7.8C835,49.5,838.5,53,842.8,53
				C842.8,53,842.8,53,842.8,53z"/>
			<path class="st1" d="M842.8,84c4.3,0,7.8-3.5,7.8-7.8c0-4.3-3.5-7.8-7.8-7.8c-4.3,0-7.8,3.5-7.8,7.8C835,80.5,838.5,84,842.8,84
				C842.8,84,842.8,84,842.8,84z"/>
			<path class="st1" d="M842.8,114.9c4.3,0,7.8-3.5,7.8-7.8c0-4.3-3.5-7.8-7.8-7.8c-4.3,0-7.8,3.5-7.8,7.8
				C835,111.5,838.5,115,842.8,114.9z"/>
			<path class="st1" d="M810.3,22c4.3,0,7.8-3.5,7.8-7.8c0-4.3-3.5-7.8-7.8-7.8c-4.3,0-7.8,3.5-7.8,7.8C802.5,18.5,806,22,810.3,22
				C810.3,22,810.3,22,810.3,22z"/>
			<path class="st1" d="M810.3,53c4.3,0,7.8-3.5,7.8-7.8c0-4.3-3.5-7.8-7.8-7.8c-4.3,0-7.8,3.5-7.8,7.8C802.5,49.5,806,53,810.3,53
				C810.3,53,810.3,53,810.3,53z"/>
			<path class="st1" d="M810.3,84c4.3,0,7.8-3.5,7.8-7.8c0-4.3-3.5-7.8-7.8-7.8c-4.3,0-7.8,3.5-7.8,7.8C802.5,80.5,806,84,810.3,84
				C810.3,84,810.3,84,810.3,84z"/>
			<path class="st1" d="M810.3,114.9c4.3,0,7.8-3.5,7.8-7.8c0-4.3-3.5-7.8-7.8-7.8c-4.3,0-7.8,3.5-7.8,7.8
				C802.5,111.5,806,115,810.3,114.9z"/>
			<path class="st1" d="M777.8,22c4.3,0,7.8-3.5,7.8-7.8c0-4.3-3.5-7.8-7.8-7.8c-4.3,0-7.8,3.5-7.8,7.8C770,18.5,773.5,22,777.8,22z
				"/>
			<path class="st1" d="M777.8,53c4.3,0,7.8-3.5,7.8-7.8c0-4.3-3.5-7.8-7.8-7.8c-4.3,0-7.8,3.5-7.8,7.8C770,49.5,773.5,53,777.8,53
				C777.8,53,777.8,53,777.8,53z"/>
			<path class="st1" d="M777.8,84c4.3,0,7.8-3.5,7.8-7.8c0-4.3-3.5-7.8-7.8-7.8c-4.3,0-7.8,3.5-7.8,7.8C770,80.5,773.5,84,777.8,84
				C777.8,84,777.8,84,777.8,84z"/>
			<path class="st1" d="M777.8,114.9c4.3,0,7.8-3.5,7.8-7.8c0-4.3-3.5-7.8-7.8-7.8c-4.3,0-7.8,3.5-7.8,7.8
				C770,111.5,773.5,115,777.8,114.9z"/>
			<path class="st11" d="M809.1,290.1c-2.5-6.9,1-14.5,7.9-17c0.5-0.2,1-0.3,1.4-0.4c0.6-0.1,1.2-0.2,1.7-0.3l29.3-51.2l-7.4-12.7
				l18.4-14.2l14.1,19.5c3.4,4.8,3.3,11.3-0.3,16l-40.2,51.4c0.1,0.4,0.3,0.8,0.4,1.2c1.7,7.1-2.7,14.3-9.8,16
				c-0.5,0.1-1,0.2-1.5,0.3c-0.5,0.1-1.1,0.1-1.6,0.1C816,298.7,811.1,295.3,809.1,290.1L809.1,290.1z"/>
			<path class="st11" d="M752,542.1h-14.8l-7-56.9H752L752,542.1z"/>
			<path class="st5" d="M726.7,537.9h28.5v17.9h-46.4C708.8,545.9,716.8,537.9,726.7,537.9L726.7,537.9z"/>
			<path class="st11" d="M873.7,542.1h-14.8l-7-56.9h21.8L873.7,542.1z"/>
			<path class="st5" d="M848.4,537.9h28.5v17.9h-46.4C830.5,545.9,838.5,537.9,848.4,537.9z"/>
			<path class="st4" d="M864.6,197.1l-33.2,12.6l-8.1-22.4c-2.5-7,1.1-14.7,8.1-17.2c5.4-2,11.5-0.2,15.1,4.3L864.6,197.1z"/>
			<path class="st5" d="M753.3,496.1l-27.8-6.3c-3.1-0.7-5.1-3.6-4.6-6.8c11.2-70.6,21.9-111.9,49.6-164.4c0.4-1,4.7-20.8,7.5-34
				c-0.1-3,2.1-5.6,5.1-6l51.8-8c0.8-0.3,1.6-0.4,2.4-0.4l0.5,0.1v0.5c0,0.5-0.5,0.6-0.7,0.6l-0.7,0.1c0.8,0.4,1.5,0.9,2.1,1.4
				c22.7,27.3,34.5,116.7,49.5,215.4c0.2,1.6-0.4,3.2-1.6,4.4c-1.1,1.2-2.6,1.9-4.3,1.9l-33.1,0.8c-3,0.1-5.6-2.1-6.1-5.1
				l-22.3-128.7c-0.4-2.6-2.8-4.4-5.5-4c-1.5,0.2-2.9,1.2-3.6,2.6c-18,36.6-34.8,68.2-51.3,131.4c-0.7,2.6-3.1,4.5-5.8,4.5
				C754.2,496.2,753.8,496.2,753.3,496.1z"/>
			<path class="st6" d="M780.3,286c-1.4-1-2.3-2.5-2.5-4.3c-4.2-39.6-1.3-70.5,9-94.7c3.7-8.4,11-14.7,20-17.1l26.8-1.4l0.1,0.1
				c12.4,6.1,19.4,19.5,17.1,33.2c-8.6,22.7-15.8,46.3-10.3,65.3c0.5,1.6,0.3,3.3-0.6,4.8c-0.8,1.4-2.2,2.4-3.8,2.8l-51,12.1
				C783.5,287.3,781.7,287,780.3,286L780.3,286z"/>
			<path class="st11" d="M768.8,229.2l-51.4-40.5c-0.4,0.1-0.8,0.3-1.2,0.4c-3.7,0.9-7.5,0.1-10.6-2c-3.1-2.2-5.1-5.5-5.6-9.3
				c-0.8-7.3,4.4-13.8,11.7-14.6c6.6-0.7,12.8,3.6,14.4,10.1c0.1,0.6,0.2,1.2,0.3,1.7l51.2,29.5l12.7-7.3l14.1,18.4l-19.8,14.1
				C779.7,233,773.3,232.8,768.8,229.2L768.8,229.2z"/>
			<path class="st6" d="M810.5,221.3l-29.3-19.9l13.8-19.5c4.3-6.1,12.7-7.5,18.7-3.2c4.7,3.3,6.8,9.3,5.1,14.8L810.5,221.3z"/>
			<path class="st11" d="M824.6,158.7c16.3,0,29.5-13.3,29.5-29.6c0-16.3-13.3-29.5-29.6-29.5c-16.3,0-29.5,13.2-29.5,29.5
				C795.1,145.5,808.3,158.7,824.6,158.7z"/>
			<path class="st5" d="M813.8,124.8c-7.6,5.2-17.6,10.5-25.4,5c-5-3.8-6.9-10.4-4.6-16.3c3.7-10.6,13.9-15.3,23.7-18.9
				c12.7-4.7,26.5-8.4,39.6-5s24.7,16,22.3,29.3c-1.9,10.7-12,19.6-10.6,30.4c1.4,10.8,13.7,16.5,24.4,18.5
				c10.8,1.9,22.8,2.6,30.6,10.3c9.9,9.9,7.4,27.5-1.9,37.9c-9.3,10.4-23.3,15.1-36.9,18.3c-18,4.2-37.5,6.5-54.6-0.6
				c-17.1-7.1-30.4-26-25.5-43.8c2.1-7.5,7-13.9,11.8-20.1c4.8-6.2,9.6-12.7,11.4-20.2c1.5-6.3,0.4-13.7-3.8-18.4
				c-1.6-1.7-1.9-4.2-0.7-6.2L813.8,124.8z"/>
		</g>
	</g>
</g>
</svg>
