<svg width="50" height="50" viewBox="0 0 50 50" fill="none" xmlns="http://www.w3.org/2000/svg">
<path d="M47.6563 5.46875H40.9453L37.2735 1.78906C37.1245 1.64516 36.9259 1.56404 36.7188 1.5625H3.90627C3.69907 1.5625 3.50036 1.64481 3.35385 1.79132C3.20733 1.93784 3.12502 2.13655 3.12502 2.34375V3.36719C3.12701 4.50338 3.41415 5.6209 3.96014 6.61732C4.50612 7.61373 5.29347 8.45717 6.25002 9.07031V9.375H5.46877C4.84774 9.37685 4.25268 9.62438 3.81354 10.0635C3.3744 10.5027 3.12688 11.0977 3.12502 11.7188V12.5C3.12688 13.121 3.3744 13.7161 3.81354 14.1552C4.25268 14.5944 4.84774 14.8419 5.46877 14.8438H6.25002V16.4062C6.24763 17.3302 6.42793 18.2456 6.78055 19.0997C7.13317 19.9537 7.65115 20.7296 8.30471 21.3828C8.63577 21.7046 8.99386 21.9973 9.37502 22.2578V22.875C9.3776 23.5475 9.16197 24.2027 8.7605 24.7422C8.35902 25.2818 7.79337 25.6765 7.14846 25.8672L5.46096 26.375C4.33262 26.7088 3.34286 27.3993 2.64002 28.3429C1.93718 29.2866 1.55912 30.4327 1.56252 31.6094V47.6562C1.56252 47.8634 1.64483 48.0622 1.79135 48.2087C1.93786 48.3552 2.13657 48.4375 2.34377 48.4375H47.6563C47.8635 48.4375 48.0622 48.3552 48.2087 48.2087C48.3552 48.0622 48.4375 47.8634 48.4375 47.6562V6.25C48.4375 6.0428 48.3552 5.84409 48.2087 5.69757C48.0622 5.55106 47.8635 5.46875 47.6563 5.46875ZM6.25002 13.2812H5.46877C5.26157 13.2812 5.06286 13.1989 4.91635 13.0524C4.76983 12.9059 4.68752 12.7072 4.68752 12.5V11.7188C4.68752 11.5115 4.76983 11.3128 4.91635 11.1663C5.06286 11.0198 5.26157 10.9375 5.46877 10.9375H6.25002V13.2812ZM37.5 4.22656L41.8672 8.59375H37.5V4.22656ZM35.9375 3.125V9.375C35.9375 9.5822 36.0198 9.78091 36.1663 9.92743C36.3129 10.0739 36.5116 10.1562 36.7188 10.1562H42.9688V42.9688H25V31.6094C25.0034 30.4327 24.6254 29.2866 23.9225 28.3429C23.2197 27.3993 22.2299 26.7088 21.1016 26.375L19.4141 25.8672C18.7692 25.6765 18.2035 25.2818 17.802 24.7422C17.4006 24.2027 17.1849 23.5475 17.1875 22.875V22.25C18.1481 21.6073 18.9357 20.7381 19.4807 19.7189C20.0257 18.6997 20.3114 17.562 20.3125 16.4062V14.8438H21.0938C21.7148 14.8419 22.3099 14.5944 22.749 14.1552C23.1881 13.7161 23.4357 13.121 23.4375 12.5V11.7188C23.4357 11.0977 23.1881 10.5027 22.749 10.0635C22.3099 9.62438 21.7148 9.37685 21.0938 9.375H20.3125V7.03125C20.3129 6.30299 20.1672 5.58206 19.8841 4.9111C19.601 4.24014 19.1861 3.63279 18.6641 3.125H35.9375ZM13.2813 26.5078L10.211 25.3594C10.6525 24.6583 10.898 23.8516 10.9219 23.0234C11.6791 23.2946 12.477 23.4347 13.2813 23.4375C14.0857 23.4367 14.884 23.2966 15.6406 23.0234C15.6646 23.8516 15.9101 24.6583 16.3516 25.3594L13.2813 26.5078ZM14.0391 29.2031L13.6719 29.6875H12.8906L12.5235 29.2031L13.2813 28.4453L14.0391 29.2031ZM17.4844 26.6016C17.6398 26.7173 17.8015 26.8242 17.9688 26.9219L16.8828 29.8359L14.6875 27.6484L17.4844 26.6016ZM20.3125 13.2812V10.9375H21.0938C21.301 10.9375 21.4997 11.0198 21.6462 11.1663C21.7927 11.3128 21.875 11.5115 21.875 11.7188V12.5C21.875 12.7072 21.7927 12.9059 21.6462 13.0524C21.4997 13.1989 21.301 13.2812 21.0938 13.2812H20.3125ZM4.68752 3.36719V3.125H14.8438C15.3567 3.125 15.8647 3.22604 16.3386 3.42235C16.8126 3.61865 17.2432 3.90639 17.6059 4.26911C17.9686 4.63184 18.2564 5.06246 18.4527 5.53639C18.649 6.01032 18.75 6.51827 18.75 7.03125V8.59375H9.91409C8.52855 8.59168 7.20035 8.04037 6.22063 7.06064C5.24091 6.08092 4.68959 4.75272 4.68752 3.36719ZM7.81252 16.4062V9.82031C8.49063 10.0437 9.20013 10.1571 9.91409 10.1562H18.75V16.4062C18.75 17.8567 18.1739 19.2477 17.1483 20.2732C16.1227 21.2988 14.7317 21.875 13.2813 21.875C11.8309 21.875 10.4399 21.2988 9.41428 20.2732C8.38869 19.2477 7.81252 17.8567 7.81252 16.4062ZM9.08596 26.6016L11.875 27.6484L9.67971 29.8359L8.59377 26.9219C8.75784 26.8203 8.92971 26.7188 9.08596 26.6016ZM7.03127 46.875V34.375H5.46877V46.875H3.12502V31.6094C3.12172 30.7686 3.39204 29.9495 3.89517 29.2759C4.3983 28.6022 5.10693 28.1105 5.91409 27.875L7.14065 27.5078L8.64065 31.5234C8.6872 31.6465 8.76375 31.756 8.86335 31.8419C8.96294 31.9279 9.08243 31.9876 9.21096 32.0156C9.26521 32.0247 9.32004 32.0299 9.37502 32.0312C9.58257 32.0319 9.78194 31.9504 9.92971 31.8047L11.4063 30.3203L11.6797 30.6797L9.47659 46.875H7.03127ZM11.0547 46.875L13.1797 31.25H13.3828L15.5078 46.875H11.0547ZM23.4375 46.875H21.0938V34.375H19.5313V46.875H17.086L14.8828 30.6797L15.1563 30.3203L16.6328 31.8047C16.7806 31.9504 16.98 32.0319 17.1875 32.0312C17.2425 32.0299 17.2973 32.0247 17.3516 32.0156C17.4801 31.9876 17.5996 31.9279 17.6992 31.8419C17.7988 31.756 17.8753 31.6465 17.9219 31.5234L19.4219 27.5078L20.6485 27.875C21.4556 28.1105 22.1642 28.6022 22.6674 29.2759C23.1705 29.9495 23.4408 30.7686 23.4375 31.6094V46.875ZM46.875 46.875H25V44.5312H43.75C43.9572 44.5312 44.1559 44.4489 44.3025 44.3024C44.449 44.1559 44.5313 43.9572 44.5313 43.75V9.375C44.5297 9.16788 44.4486 8.96928 44.3047 8.82031L42.5078 7.03125H46.875V46.875Z" fill="white"/>
<path d="M25.0539 17.9688H22.6562V19.5312H25.0539C25.2292 20.9061 25.856 22.1839 26.8361 23.1639C27.8161 24.144 29.0939 24.7708 30.4688 24.9461V27.3438H32.0312V24.9461C33.4061 24.7708 34.6839 24.144 35.6639 23.1639C36.644 22.1839 37.2708 20.9061 37.4461 19.5312H39.8438V17.9688H37.4461C37.2708 16.5939 36.644 15.3161 35.6639 14.3361C34.6839 13.356 33.4061 12.7292 32.0312 12.5539V10.1562H30.4688V12.5539C29.0939 12.7292 27.8161 13.356 26.8361 14.3361C25.856 15.3161 25.2292 16.5939 25.0539 17.9688ZM30.4688 14.1328V15.625H32.0312V14.1328C32.989 14.2965 33.8724 14.7534 34.5595 15.4405C35.2466 16.1276 35.7035 17.011 35.8672 17.9688H34.375V19.5312H35.8672C35.7035 20.489 35.2466 21.3724 34.5595 22.0595C33.8724 22.7466 32.989 23.2035 32.0312 23.3672V21.875H30.4688V23.3672C29.511 23.2035 28.6276 22.7466 27.9405 22.0595C27.2534 21.3724 26.7965 20.489 26.6328 19.5312H28.125V17.9688H26.6328C26.7965 17.011 27.2534 16.1276 27.9405 15.4405C28.6276 14.7534 29.511 14.2965 30.4688 14.1328Z" fill="white"/>
<path d="M39.8438 29.6875H26.5625V31.25H39.8438V29.6875Z" fill="white"/>
<path d="M28.9062 32.8125H26.5625V34.375H28.9062V32.8125Z" fill="white"/>
<path d="M39.8438 32.8125H30.4688V34.375H39.8438V32.8125Z" fill="white"/>
<path d="M39.8438 35.9375H26.5625V37.5H39.8438V35.9375Z" fill="white"/>
<path d="M13.2812 20.3125C15.0336 20.3125 16.4062 19.2828 16.4062 17.9688H14.8438C14.8438 18.2875 14.2352 18.75 13.2812 18.75C12.3273 18.75 11.7188 18.2875 11.7188 17.9688H10.1562C10.1562 19.2828 11.5289 20.3125 13.2812 20.3125Z" fill="white"/>
<path d="M10.9375 14.8438C11.1447 14.8438 11.3434 14.7614 11.4899 14.6149C11.6364 14.4684 11.7188 14.2697 11.7188 14.0625V13.2812C11.7188 13.074 11.6364 12.8753 11.4899 12.7288C11.3434 12.5823 11.1447 12.5 10.9375 12.5C10.7303 12.5 10.5316 12.5823 10.3851 12.7288C10.2386 12.8753 10.1562 13.074 10.1562 13.2812V14.0625C10.1562 14.2697 10.2386 14.4684 10.3851 14.6149C10.5316 14.7614 10.7303 14.8438 10.9375 14.8438Z" fill="white"/>
<path d="M15.625 14.8438C15.8322 14.8438 16.0309 14.7614 16.1774 14.6149C16.3239 14.4684 16.4062 14.2697 16.4062 14.0625V13.2812C16.4062 13.074 16.3239 12.8753 16.1774 12.7288C16.0309 12.5823 15.8322 12.5 15.625 12.5C15.4178 12.5 15.2191 12.5823 15.0726 12.7288C14.9261 12.8753 14.8438 13.074 14.8438 13.2812V14.0625C14.8438 14.2697 14.9261 14.4684 15.0726 14.6149C15.2191 14.7614 15.4178 14.8438 15.625 14.8438Z" fill="white"/>
</svg>
