<?xml version="1.0" encoding="utf-8"?>
<!-- Generator: Adobe Illustrator 26.0.1, SVG Export Plug-In . SVG Version: 6.00 Build 0)  -->
<svg version="1.1" id="Layer_1" xmlns="http://www.w3.org/2000/svg" xmlns:xlink="http://www.w3.org/1999/xlink" x="0px" y="0px"
	 viewBox="0 0 1080 929.3" style="enable-background:new 0 0 1080 929.3;" xml:space="preserve">
<style type="text/css">
	.st0{fill:#F5F5F5;}
	.st1{fill:#EBEBEB;}
	.st2{fill:#E0E0E0;}
	.st3{fill:#FFFFFF;}
	.st4{opacity:0.24;}
	.st5{opacity:0.24;fill:#E0E0E0;enable-background:new    ;}
	.st6{fill:#263238;}
	.st7{fill:#FF5300;}
	.st8{fill:#C2DDF2;}
	.st9{fill:#1E9CD7;}
	.st10{opacity:0.3;enable-background:new    ;}
	.st11{fill:#455A64;}
	.st12{opacity:0.2;enable-background:new    ;}
	.st13{opacity:0.2;}
	.st14{fill:#FFBE9D;}
	.st15{fill:#EB996E;}
</style>
<g>
	<path class="st0" d="M873.5,754.5v48.8h150.2v-48.8H873.5z"/>
	<path class="st1" d="M867.2,740.9v13.7h161.7v-13.7H867.2z"/>
	<path class="st2" d="M948.1,803.3h75.6v-48.8h5.2v-13.7h-84v12.4L948.1,803.3z"/>
	<path class="st2" d="M925,762.4h-30.5v7.3H925V762.4z"/>
	<path class="st2" d="M929.7,778.9h-39.1v15.5h39.1V778.9z"/>
	<path class="st1" d="M1056.7,920.8l-3.6-760h-14.7v149.7h-38l-0.7-149.7h-14.7v149.7H854.2l-0.7-149.7h-14.7v149.7h-37.9
		l-0.7-149.7h-14.7v760h18.3l-0.5-102h35.5v102h18.3l-0.5-101.9h128.4v101.9h18.3l-0.5-102h35.6v102H1056.7z M820,718.1l-13.2-56.3
		h27L820,718.1z M838.8,665.3v133.1l-15.9-68.2L838.8,665.3z M838.8,471.8l-15.9-68.3l15.9-64.8V471.8z M835.9,484h-33l16.9-68.6
		L835.9,484z M820,391.6L805,327h30.9L820,391.6z M817.1,403.6l-15.6,63.2l-0.6-132.3L817.1,403.6z M802.5,667.6l14.6,62.5l-14.1,57
		L802.5,667.6z M819.9,742l14.1,60.3h-28.9L819.9,742z M803,645.2l-0.1-0.5h-0.5l-0.7-144.1h37v144.5L803,645.2z M855.1,500.7h129.9
		v144.5H855.7L855.1,500.7z M1018.5,415.5l16,68.6h-32.9L1018.5,415.5z M1001.1,463.1l-0.6-124.7l15.3,65.2L1001.1,463.1z
		 M1038.4,476.2l-17-72.6l17-69V476.2z M1038.4,483.8v0.2h-1L1038.4,483.8z M1038.4,669.2v125l-15-64.1L1038.4,669.2z M1020.6,718.2
		l-13.2-56.3h27.1L1020.6,718.2z M1018.6,391.6l-15.1-64.6h31L1018.6,391.6z M1038.4,500.7v144.5h-34.8v-0.5l-1.6,0.4l-0.7-144.4
		L1038.4,500.7z M1017.7,730.1l-15.1,61.3l-0.6-128.5L1017.7,730.1z M1020.5,742l14.1,60.3h-28.9L1020.5,742z M984.9,327V484H855
		L854.3,327H984.9z M858.8,802.2h-2.4l-0.7-140.4h129.1v140.4H858.8z"/>
	<path class="st2" d="M858.8,484.8v-17.2H980l0.4,17.2H858.8z"/>
	<path class="st3" d="M980,470.4c0,0-107.4,0.8-114.4,2.3c-1.5,0.4-3,7.1,0,7.6c3,0.5,114.4,1.5,114.4,1.5V470.4z"/>
	<path class="st1" d="M872.9,467v-17.1h96l0.3,17.1H872.9z"/>
	<path class="st3" d="M968.9,452.6c0,0-85.1,0.8-90.6,2.4c-1.2,0.4-2.4,6.9,0,7.6s90.6,1.5,90.6,1.5V452.6z"/>
	<path class="st2" d="M872.5,450v-17.1h96l0.3,17.1H872.5z"/>
	<path class="st3" d="M968.5,435.7c0,0-85.1,0.8-90.6,2.4c-1.2,0.4-2.4,7.1,0,7.6c2.4,0.5,90.6,1.5,90.6,1.5V435.7z"/>
	<path class="st2" d="M984.9,196.9h-24.3v113.3h24.3V196.9z"/>
	<path class="st3" d="M978.1,283c0,2.6-2.1,4.7-4.7,4.7c-2.6,0-4.7-2.1-4.7-4.7c0-2.6,2-4.6,4.6-4.7
		C975.9,278.3,978,280.4,978.1,283z"/>
	<path class="st3" d="M976.8,227h-7.4v46.3h7.4V227z"/>
	<path class="st1" d="M960.2,196.9h-24.3v113.3h24.3V196.9z"/>
	<path class="st3" d="M948.6,287.9c2.7,0,4.8-2.2,4.8-4.8c0-2.7-2.2-4.8-4.8-4.8c-2.7,0-4.8,2.2-4.8,4.8
		C943.7,285.7,945.9,287.9,948.6,287.9C948.6,287.9,948.6,287.9,948.6,287.9z"/>
	<path class="st3" d="M952.1,227h-7.4v46.3h7.4L952.1,227z"/>
	<path class="st0" d="M936.7,196.9h-24.3v113.3h24.3L936.7,196.9z"/>
	<path class="st3" d="M929.9,283c0,2.6-2.1,4.7-4.7,4.7c-2.6,0-4.7-2.1-4.7-4.7c0-2.6,2.1-4.7,4.7-4.7l0,0
		C927.7,278.4,929.8,280.5,929.9,283z"/>
	<path class="st3" d="M928.6,227h-7.4v46.3h7.4V227z"/>
	<path class="st2" d="M984.9,532.2h-24.3v113.3h24.3V532.2z"/>
	<path class="st3" d="M978.1,618.3c0,2.6-2.1,4.7-4.7,4.7c-2.6,0-4.7-2.1-4.7-4.7c0-2.6,2.1-4.7,4.7-4.7c1.9,0,3.6,1.1,4.3,2.9
		C978,617.1,978.1,617.7,978.1,618.3z"/>
	<path class="st3" d="M976.8,562.2h-7.4v46.3h7.4V562.2z"/>
	<path class="st1" d="M960.2,532.2h-24.3v113.3h24.3V532.2z"/>
	<path class="st3" d="M953.4,618.3c0,2.6-2.1,4.7-4.7,4.7c-2.6,0-4.7-2.1-4.7-4.7c0-2.6,2.1-4.7,4.7-4.7c1.9,0,3.6,1.1,4.3,2.9
		C953.3,617.1,953.4,617.7,953.4,618.3z"/>
	<path class="st3" d="M952.1,562.2h-7.4v46.3h7.4L952.1,562.2z"/>
	<path class="st0" d="M936.7,532.2h-24.3v113.3h24.3L936.7,532.2z"/>
	<path class="st3" d="M929.9,618.3c0,2.6-2.1,4.7-4.7,4.7c-2.6,0-4.7-2.1-4.7-4.7c0-2.6,2.1-4.7,4.7-4.7c1.3,0,2.5,0.5,3.3,1.4
		C929.4,615.9,929.9,617.1,929.9,618.3z"/>
	<path class="st3" d="M928.6,562.2h-7.4v46.3h7.4V562.2z"/>
	<path class="st2" d="M882.4,308.5l29.2-99.7l-10.1-4.4l-30,100.5L882.4,308.5z"/>
	<path class="st1" d="M193.9,314.3H77.3v152l116.6,2.9V314.3z"/>
	<path class="st3" d="M186.2,319.7h-102v137.9l102,3.4V319.7z"/>
	<path class="st1" d="M168.4,344.7l-67.7-2.6v96.4h67.7V344.7z"/>
	<path class="st0" d="M100.7,438.5l67.7-49.5l-67.7-46.9V438.5z"/>
	<path class="st0" d="M291.8,898.5c-2.8-2.4-9-9.9-4.2-18.7c1.7-3.2,5.5-4.8,8.8-6.2c3.5-1.2,6.8-2.8,9.7-5
		c5.3-4.4,6.7-11.9,10.2-17.8c4-6.8,11.5-12,19.4-11.6c9.1,0.4,16.6,7.8,20.1,16.2c3.4,8.4,3.6,17.7,3.6,26.8c0,5-0.2,10.7-3.9,14.1
		s-8.5,3.2-13.2,3l-49.6-1.5"/>
	<path class="st1" d="M378.7,780.8H260.2l21.2,126.7c0.9,5.4,4.8,9.8,10.1,11.3l0.4,0.1c0.3,0.1,0.7,0.2,1.1,0.3
		c0.8,0.2,1.6,0.3,2.3,0.3h53.4c1,0,1.9-0.1,2.9-0.3c6.3-0.9,11.3-6,12-12.4l10.3-87.3l0.5-3.5l4.1-34.6L378.7,780.8z M356.3,861.6
		h-12.2l1.2-36.8h14.1L356.3,861.6z M360.6,824.9h11.8l-4.3,36.8h-10.5L360.6,824.9z M325.9,902.5l-0.8-32h17.4l-1.1,32H325.9z
		 M307.1,870.6h17l0.8,32h-15.3L307.1,870.6z M308.4,902.5h-14.3c-1.3-8.6-3.1-19.8-5-32h16.8L308.4,902.5z M306.4,861.7l-2.9-36.8
		H323l0.8,36.8H306.4z M325.1,861.7l-0.9-36.8h20.1l-1.2,36.8H325.1z M324,816.1l-0.8-34.1h22.5l-1.1,34.1H324z M322.9,816.1h-20
		l-2.7-34.1h21.9L322.9,816.1z M301.7,816.1h-21.2c-0.7-4.7-1.5-9.2-2.1-13.2c-2.2-13.8-3-18.9-3.5-20.9H299L301.7,816.1z
		 M302.4,824.9l2.9,36.8h-17.5c-0.6-3.7-1.2-7.5-1.8-11.3c-1.4-8.7-2.8-17.4-4-25.5H302.4z M286.5,861.7h-11.4l-6.2-36.8h11.8
		c1.7,11.3,3.7,23.9,5.7,36.7L286.5,861.7z M287.9,870.6l5,32h-11l-5.4-32H287.9z M342.9,902.5l1.1-32h11.8l-2.8,32H342.9z
		 M345.8,816.1l1.1-34.1h16.5l-2.9,34.1H345.8z M273.6,782c0.5,2.5,2.6,15.9,5.5,34.1h-11.9l-5.7-34.1H273.6z M363.1,902.4h-9.2
		l2.8-32h10.2L363.1,902.4z M373.2,816h-11.8l2.9-34.1h13L373.2,816z"/>
	<path class="st0" d="M31.2,715.5c2.1,0.4,4.4,0.9,7.1,1.1s5.5,0.7,8.7,0.8c3.1,0.1,6.4,0.2,10,0.3c15.3-0.2,30.4-3.2,44.6-8.6
		c3.2-1.3,6.4-2.5,9.1-4s5.4-2.7,7.7-4s4.4-2.6,6.1-3.7c1.8-1.1,3.3-2.1,4.5-3l2.4-1.6H23.8v21l2.1,0.5
		C27.7,714.8,29.4,715.2,31.2,715.5z"/>
	<path class="st0" d="M95.5,911.5c-7.7-0.1-15.5,0.9-22.9,3c-4.6,1.4-8.9,3.3-13,5.7h88c-7.5-1.5-15.4-3.4-23.8-5.1
		C114.4,913,105,911.8,95.5,911.5z"/>
	<path class="st0" d="M203.7,897.1c-10-1.6-22.1-0.4-35.3,0.8c-7,0.7-14.1,0.9-21.2,0.6c-7.3-0.3-14.9-1.1-22.5-2
		c-15.4-1.9-30-3.9-43.4-3.3c-11.8,0.4-23.5,3-34.3,7.6c-7.3,3.2-14.2,7.2-20.6,12l-2.7,2.1v5.1h34.6c4.3-2.8,9-5.1,13.9-6.6
		c7.5-2.3,15.3-3.5,23.2-3.4c9.6,0.2,19.2,1.3,28.5,3.4c10,2,19.3,4.4,28,6l2.9,0.5h70.1v-15.2C218.5,900.7,211.3,898.1,203.7,897.1
		z"/>
	<path class="st0" d="M46.7,899.9c10.9-4.9,22.7-7.6,34.7-8c13.5-0.7,28.2,1.3,43.6,3.2c7.7,0.9,15.2,1.8,22.4,2.1
		c7,0.3,14.1,0.1,21.1-0.5c13.3-1.2,25.5-2.4,35.7-0.5c7.5,1.1,14.6,3.8,20.8,8v-26.6c-5.8-1.7-11.9-2.5-17.9-2.5
		c-20-0.7-46.6,10.2-77.5,9.4c-14.4-0.1-28.8-1.8-42.8-5.2c-12.9-3.1-24.1-7.6-33.7-10.1c-7.5-2.2-15.4-3.3-23.2-3.2
		c-2,0.1-4,0.3-6,0.6v47.9c0.7-0.6,1.5-1.3,2.3-2C32.4,907.4,39.3,903.2,46.7,899.9z"/>
	<path class="st0" d="M31.5,777.7c5.3,0.5,12.7,3.1,21.3,7.1c4.7,2.1,9.4,4,14.3,5.5c5.7,1.6,11.5,2.7,17.3,3.2
		c13.5,1,27.1,0.1,40.4-2.5c14.1-2.5,27.5-6.1,39.8-8.7c10.8-2.5,21.9-4.3,33-5.2c7.5-0.6,15-0.5,22.5,0.4c1.9,0.2,3.5,0.5,4.7,0.7
		v-35.4l-2.1-1.7c-4.4-3.6-9-7-13.8-10c-7-4.6-15.1-7.3-23.5-7.8c-9.4-0.3-19.6,3.4-29.4,8.2c-9.3,4.5-18.4,9.6-27,15.3
		c-3.9,2.6-8.1,5-9.7,8.7c-0.8,1.7-0.6,3.8,0.7,5.2c1.3,1.3,2.8,2.4,4.4,3c5.1,2.5,10.7,4,16.3,4.4c4,0.3,6.2,0,6.2,0.2
		c-0.5,0.2-1.1,0.3-1.6,0.3c-1.6,0.1-3.1,0.2-4.7,0.1c-5.8-0.2-11.5-1.5-16.7-4c-1.8-0.7-3.5-1.8-4.9-3.3c-1.5-1.8-1.9-4.2-1-6.4
		c1.9-4.3,6.2-6.7,10.1-9.4c8.7-5.8,17.7-11,27.1-15.5c9.9-4.8,20.2-8.6,30.1-8.2c8.6,0.6,16.9,3.4,24.1,8.3
		c4.8,3.1,9.4,6.6,13.7,10.5l1.7,1.5v-29.3c-3.6-2-7.4-3.7-11.3-5.2c-11.4-4.2-23.7-5.8-35.8-4.8c-7.1,0.6-14.2,2.2-20.9,4.8
		c-7.1,3-14,6.5-20.6,10.5c-6.7,4.1-13.7,7.6-20.9,10.4c-6.9,2.4-14.1,3.8-21.4,4.2c-13.9,0.8-26.3-0.6-36.8-0.8
		c-8.2-0.4-16.5,0.2-24.5,1.7c-1.4,0.3-2.7,0.5-3.8,0.8l-2.7,0.8c-0.8,0.3-1.5,0.4-2.3,0.6c0.7-0.3,1.4-0.6,2.2-0.8l2.7-0.9
		c1.1-0.3,2.3-0.6,3.8-0.9c8.1-1.7,16.4-2.4,24.7-2.1c10.5,0,22.9,1.3,36.6,0.4c7.2-0.4,14.3-1.9,21.1-4.2
		c7.2-2.9,14.1-6.3,20.7-10.4c6.6-4.1,13.6-7.6,20.8-10.6c6.8-2.6,13.9-4.3,21.2-4.9c12.3-0.9,24.7,0.8,36.3,5.2
		c3.8,1.4,7.4,3.2,10.9,5.2v-18.8h-93c-0.6,0.5-1.4,1.2-2.5,2c-1.4,1.2-2.9,2.2-4.4,3.2c-1.8,1.2-3.7,2.6-6.1,3.9
		c-2.5,1.5-5.1,2.9-7.7,4.2c-2.8,1.5-5.9,2.8-9.2,4.1c-7.2,2.8-14.6,5-22.1,6.5c-7.6,1.4-15.3,2.2-23,2.4c-3.4,0.1-6.7-0.1-10.1-0.4
		c-2.9-0.2-5.8-0.5-8.7-1c-2.7-0.3-5-0.9-7.1-1.4c-1.8-0.3-3.5-0.8-5.3-1.4l-2-0.6v45.1c1.6-0.5,3.6-1.2,6.2-1.8
		c15.8-3.8,32.4-3.6,48.1,0.5c2.4,0.6,4.7,1.4,7.1,2.2c0.8,0.3,1.6,0.7,2.4,1.1c0,0.2-3.7-1-9.7-2.3c-7.8-1.8-15.8-2.7-23.8-2.8
		c-8,0-16,0.8-23.8,2.4c-2.6,0.5-4.7,1-6.4,1.4V778C26.3,777.5,29,777.4,31.5,777.7z M155.1,750.1c0.3-0.6,0.7-1.2,1.2-1.6
		c1-0.8,2.1-1.4,3.2-1.7c15.2-4.6,31.6-3.9,46.4,1.9c4.4,1.7,8.7,3.9,12.7,6.6c1.1,0.7,2.1,1.5,3.1,2.4c0.8,0.6,1.1,0.8,1,0.9
		c-5.4-3.5-11.2-6.4-17.2-8.8c-6.6-2.4-13.4-3.8-20.4-4.3c-8.5-0.6-17.1,0.4-25.2,2.9c-1,0.3-1.9,0.8-2.7,1.5
		c-0.7,0.5-1.1,1.3-0.9,2.1c0.5,1.5,3.2,1.6,5.2,2.1l12.2,2.5l20.6,4.3l13.9,3l3.7,0.9c0.4,0.1,0.9,0.2,1.3,0.4
		c-0.5,0-0.9,0-1.3-0.1l-3.8-0.6l-13.9-2.6l-20.8-3.9l-12.2-2.3c-1.1-0.2-2.1-0.4-3.2-0.7c-0.7-0.1-1.3-0.4-1.8-0.8
		c-0.5-0.4-1-0.9-1.2-1.6C154.7,751.6,154.8,750.8,155.1,750.1L155.1,750.1z M66,767.5c3.9,2.1,7.9,4,12,5.5
		c13.6,5.1,28.3,6.8,42.7,5c17-2,30.6-10.6,41.6-13c4.3-1.2,8.7-1.6,13.2-1.3c1.2,0.1,2.4,0.3,3.6,0.5c0.4,0.1,0.8,0.2,1.2,0.4
		c0,0.1-1.7-0.3-4.7-0.3c-4.4-0.1-8.8,0.5-13,1.8c-6.3,1.9-12.4,4.2-18.3,6.9c-7.4,3.2-15.3,5.4-23.3,6.5c-14.7,1.9-29.6,0-43.3-5.5
		c-4.1-1.7-8.1-3.7-11.9-6c-1.4-0.8-2.7-1.8-4-2.8C63.2,765.8,64.7,766.6,66,767.5z"/>
	<path class="st0" d="M53.3,868.2c9.7,2.4,20.9,6.8,33.7,9.8c13.9,3.3,28.2,5,42.5,5.1c30.6,0.8,57.1-10,77.5-9
		c6.1,0.1,12.1,1,17.9,2.8v-28.5l-6,0.7c-8.6,0.8-20.3,2.5-33.5,2.8c-6.2,0.1-12.4-0.3-18.6-1.3c-5-0.9-9.9-2.3-14.6-4.2
		c-3.2-1.3-6.2-3-9-4.9c-0.8-0.5-1.5-1.1-2.2-1.7c-0.5-0.4-0.7-0.6-0.7-0.7c3.9,2.4,8,4.5,12.3,6.3c4.7,1.8,9.5,3.1,14.4,3.9
		c6.1,0.9,12.2,1.3,18.3,1.2c13.1-0.3,24.9-1.8,33.4-2.4l6.1-0.4v-69.1c-1.3-0.2-2.8-0.3-4.7-0.5c-7.4-0.7-14.9-0.7-22.3,0
		c-11.1,1.1-22,3-32.8,5.6c-12.2,2.7-25.5,6.3-39.8,8.8c-13.4,2.6-27.1,3.4-40.8,2.4c-5.9-0.6-11.8-1.7-17.6-3.4
		c-4.9-1.6-9.8-3.5-14.5-5.8c-8.6-4-15.7-6.8-21-7.4c-2.5-0.4-5.1-0.5-7.6-0.3v48.9c0.4-0.4,0.8-0.9,1.2-1.3
		c3.9-3.9,11.2-7.5,20.6-10s21-3.4,33.6-5.1c13.7-2.1,27.1-5.3,40.3-9.6c13.2-4.3,26.7-7.7,40.4-10.1c11.2-1.7,22.6-2.3,34-1.8
		c7.6,0.4,15.2,1.3,22.8,2.7c2.7,0.5,4.7,1,6.1,1.3c0.7,0.1,1.4,0.3,2.1,0.6c-0.7,0-1.4-0.1-2.1-0.3c-1.4-0.3-3.5-0.6-6.1-1.1
		c-7.5-1.2-15.1-1.9-22.7-2.2c-11.3-0.4-22.6,0.3-33.7,2.1c-13.6,2.5-27,5.9-40.2,10.1c-13.2,4.3-26.8,7.5-40.5,9.6
		c-12.7,1.6-24.2,2.4-33.5,4.7c-9.3,2.4-16.5,5.7-20.4,9.4c-0.6,0.5-1.1,1.1-1.6,1.7v20.5l0.7,0.4l5.3,2.8c6.6,3.4,13.3,6.4,20.2,9
		c22.8,8.7,47,13.2,71.3,13.1c28.6,0.3,53.4-8.5,72.2-10.2c7.4-0.9,14.8-0.9,22.2,0.2l3.4,0.6l2.4,0.6c0.7,0.1,1.4,0.3,2,0.6
		c-0.7-0.1-1.4-0.2-2.1-0.4l-2.5-0.5l-3.4-0.5c-7.3-0.8-14.7-0.7-22,0.3c-9.3,1.1-20.1,3.6-32.2,6.2c-37.3,8.2-76.2,5.1-111.7-9.1
		c-6.9-2.8-13.5-6-20-9.5l-5.2-3.1l-0.6-0.4v17.8c2-0.4,4-0.7,6-0.8C37.7,865.1,45.7,866,53.3,868.2z M110.2,822.2
		c-7.9,3.9-15.4,8.5-22.5,13.6c-1.4,0.9-2.3,2.4-2.3,4c0.2,1.5,1.2,2.7,2.6,3.2c2.4,0.9,4.9,1,7.3,0.5c1.6-0.3,3.3-0.2,4.9,0.2
		c0.6,0.1,1.1,0.4,1.5,0.8c-0.5-0.2-1.1-0.4-1.6-0.5c-1.6-0.3-3.2-0.3-4.7,0c-2.6,0.7-5.3,0.6-7.8-0.3c-1.7-0.6-2.9-2.1-3.2-3.9
		c0-2,1.1-3.8,2.8-4.9c7.1-5.4,14.6-10.1,22.5-14.1c9.7-4.8,19.8-8.6,30.3-11.3c19.1-5,39-6.2,58.6-3.7c3.7,0.6,7.1,1,10,1.7
		c3,0.7,5.5,1.1,7.5,1.8l4.7,1.4c0.6,0.1,1.1,0.3,1.6,0.6c-0.6,0-1.1-0.1-1.7-0.3l-4.7-1.1c-2-0.6-4.6-1-7.5-1.5s-6.3-1-10-1.5
		C168.3,803.4,137.7,808.7,110.2,822.2L110.2,822.2z M132,841.3c-1.2,0.1-2.3,0-3.5-0.2c-2-0.2-3.7-1.4-4.7-3.1
		c-0.7-1.1-0.8-2.4-0.4-3.6c0.6-1.2,1.5-2.3,2.6-3c4.8-4.1,10.2-7.5,16.1-9.9c7.2-2.9,14.8-4.7,22.5-5.2c14.1-0.7,28.2,1.5,41.4,6.5
		c5.1,1.8,9,3.6,11.8,4.7c1.4,0.6,2.3,1.2,3.1,1.5c0.8,0.4,1.1,0.6,1,0.6c-1.5-0.4-2.9-1-4.4-1.6c-2.8-1.1-6.8-2.7-11.8-4.4
		c-13.1-4.6-27-6.6-40.8-6c-7.6,0.5-15,2.2-22.1,5c-5.8,2.3-11.2,5.5-16,9.4c-1,0.7-1.8,1.6-2.3,2.6c-0.4,1-0.3,2,0.2,2.9
		c0.8,1.5,2.3,2.6,4,2.9c2.8,0.6,4.6,0.4,4.5,0.6C133,841.3,132.5,841.3,132,841.3L132,841.3z"/>
	<path class="st1" d="M31.4,778.3c5.3,0.6,12.4,3.4,21,7.4c4.7,2.2,9.5,4.2,14.5,5.8c5.7,1.7,11.6,2.8,17.6,3.4
		c13.6,1.1,27.4,0.3,40.8-2.4c14.3-2.5,27.6-6.1,39.8-8.8c10.8-2.6,21.7-4.4,32.7-5.5c7.4-0.7,14.9-0.7,22.3,0
		c1.9,0.2,3.5,0.3,4.7,0.5v-0.4c-1.2-0.2-2.8-0.5-4.7-0.7c-7.5-0.8-15-1-22.5-0.4c-11.1,1-22.1,2.7-33,5.2
		c-12.3,2.6-25.6,6.2-39.8,8.7c-13.3,2.6-26.9,3.5-40.4,2.5c-5.9-0.6-11.6-1.7-17.3-3.3c-4.9-1.6-9.7-3.4-14.4-5.6
		c-8.6-3.9-16-6.5-21.3-7.1c-2.6-0.4-5.2-0.3-7.7,0.1v0.2C26.3,777.8,28.9,777.9,31.4,778.3z"/>
	<path class="st1" d="M31,716.3c2.1,0.4,4.4,1,7.1,1.4c2.9,0.5,5.8,0.8,8.7,1c3.2,0.4,6.5,0.4,10.1,0.4c7.7-0.1,15.4-0.9,23-2.4
		c7.6-1.5,15-3.7,22.1-6.5c3.3-1.4,6.4-2.7,9.2-4.1c2.7-1.2,5.3-2.6,7.8-4.1c2.3-1.3,4.3-2.7,6.1-3.9c1.5-1,3-2.1,4.4-3.2
		c1.1-0.8,1.9-1.5,2.5-2h-0.6l-2.4,1.6c-1.2,0.9-2.7,1.9-4.5,3s-3.8,2.5-6.1,3.7s-4.9,2.7-7.7,4c-2.8,1.3-5.9,2.6-9.1,4
		c-14.3,5.4-29.4,8.3-44.6,8.6c-3.5,0-6.8,0-10-0.3c-3.1-0.3-6-0.5-8.7-0.8c-2.6-0.4-5-0.8-7.1-1.1s-3.9-0.8-5.3-1.1l-2.1-0.5v0.4
		l2,0.6C27.5,715.5,29.3,715.9,31,716.3z"/>
	<path class="st1" d="M177.8,701.4c-7.3,0.6-14.4,2.2-21.2,4.9c-7.2,3-14.2,6.5-20.8,10.6c-6.6,4-13.5,7.5-20.7,10.4
		c-6.8,2.4-13.9,3.8-21,4.2c-13.7,0.9-26.2-0.4-36.6-0.4c-8.3-0.3-16.6,0.4-24.7,2.1c-1.4,0.4-2.7,0.6-3.8,0.9l-2.7,0.9
		c-0.8,0.2-1.5,0.5-2.2,0.8c0.8-0.1,1.6-0.3,2.3-0.6l2.7-0.8c1.1-0.3,2.4-0.5,3.8-0.8c8.1-1.5,16.3-2,24.5-1.7
		c10.4,0.2,22.8,1.6,36.8,0.8c7.3-0.4,14.5-1.8,21.4-4.2c7.3-2.9,14.3-6.4,20.9-10.4c6.6-4,13.5-7.6,20.6-10.5
		c6.6-2.6,13.5-4.2,20.6-4.8c12.2-1,24.4,0.7,35.8,4.8c3.9,1.4,7.6,3.2,11.3,5.2v-1c-3.5-2-7.1-3.7-10.9-5.2
		C202.5,702.2,190.1,700.5,177.8,701.4z"/>
	<path class="st1" d="M209.6,730.1c-7.1-4.9-15.4-7.7-24.1-8.3c-9.9-0.4-20.2,3.4-30.1,8.2c-9.4,4.5-18.4,9.7-27,15.5
		c-3.9,2.7-8.2,5-10.1,9.4c-1,2.1-0.6,4.6,1,6.4c1.4,1.4,3,2.5,4.9,3.3c5.3,2.4,10.9,3.8,16.7,4c1.6,0.1,3.1,0,4.7-0.1
		c0.6,0,1.1-0.1,1.6-0.3c-2.1,0.1-4.2,0-6.3-0.2c-5.7-0.4-11.2-1.9-16.3-4.4c-1.7-0.7-3.2-1.7-4.4-3c-1.3-1.4-1.5-3.5-0.7-5.2
		c1.6-3.7,5.8-6.1,9.7-8.7c8.7-5.7,17.7-10.8,27-15.3c9.8-4.8,19.9-8.5,29.4-8.2c8.4,0.5,16.5,3.2,23.5,7.8c4.8,3,9.4,6.4,13.8,10
		l2.1,1.7v-0.6l-1.7-1.5C219,736.8,214.4,733.3,209.6,730.1z"/>
	<path class="st1" d="M158.1,754.6c1.2,0.3,2.2,0.4,3.2,0.7l12.2,2.4l20.7,4l14,2.6l3.8,0.6c0.4,0.1,0.9,0.2,1.3,0.1
		c-0.4-0.2-0.8-0.3-1.3-0.4l-3.7-0.9l-13.9-3l-20.6-4.3l-12.2-2.5c-2-0.5-4.7-0.6-5.2-2.1c-0.2-0.8,0.1-1.7,0.9-2.1
		c0.8-0.7,1.7-1.2,2.7-1.5c8.2-2.5,16.7-3.4,25.2-2.9c7,0.5,13.8,1.9,20.4,4.3c6,2.3,11.7,5.3,17.2,8.8c-0.3-0.3-0.6-0.6-1-0.9
		c-0.7-0.5-1.7-1.4-3.1-2.4c-4-2.6-8.2-4.8-12.7-6.6c-14.8-5.8-31.2-6.4-46.4-1.9c-1.2,0.4-2.3,0.9-3.2,1.7c-0.5,0.4-0.9,1-1.2,1.6
		c-0.3,0.7-0.3,1.5,0,2.2C155.6,753.4,156.8,754.3,158.1,754.6L158.1,754.6z"/>
	<path class="st1" d="M54,756.5c8,0.1,16,1.1,23.8,2.8c6,1.3,9.6,2.6,9.7,2.3c-0.7-0.5-1.5-0.9-2.4-1.1c-2.3-0.9-4.7-1.6-7.1-2.2
		c-15.8-4.2-32.3-4.4-48.2-0.5c-2.1,0.5-4.1,1.1-6.2,1.8v0.6c1.6-0.4,3.8-0.9,6.4-1.4C38,757.1,46,756.4,54,756.5z"/>
	<path class="st1" d="M45.8,816.6c9.4-2.4,20.8-3.2,33.5-4.7c13.7-2.1,27.3-5.3,40.5-9.6c13.2-4.3,26.6-7.7,40.2-10.1
		c11.1-1.8,22.4-2.5,33.7-2.1c7.6,0.3,15.2,1,22.7,2.2c2.7,0.4,4.7,0.8,6.1,1.1c0.7,0.2,1.4,0.3,2.1,0.3c-0.7-0.2-1.4-0.4-2.2-0.5
		c-1.4-0.4-3.4-0.8-6.1-1.3c-7.5-1.4-15.1-2.3-22.8-2.7c-11.4-0.5-22.7,0.1-34,1.8c-13.7,2.4-27.2,5.8-40.4,10.1
		c-13.1,4.3-26.6,7.5-40.3,9.6c-12.6,1.6-24.2,2.5-33.6,5.1c-9.4,2.5-16.7,6.1-20.6,10c-0.4,0.4-0.8,0.9-1.2,1.3v0.8
		c0.5-0.6,1-1.2,1.6-1.7C29.3,822.3,36.5,818.9,45.8,816.6z"/>
	<path class="st1" d="M65.7,767.9c3.8,2.3,7.8,4.3,11.9,6c13.7,5.5,28.6,7.4,43.3,5.5c8-1.1,15.9-3.3,23.3-6.5
		c6-2.7,12.1-5,18.3-6.9c4.2-1.2,8.6-1.8,13-1.8c3.1,0,4.7,0.5,4.7,0.3c-0.4-0.2-0.8-0.3-1.2-0.4c-1.2-0.3-2.4-0.4-3.6-0.5
		c-4.5-0.3-9,0.2-13.3,1.3c-11.1,2.4-24.6,11-41.6,13c-14.4,1.9-29.1,0.2-42.7-5c-4.1-1.6-8.1-3.4-12-5.5c-1.4-0.9-2.8-1.7-4.3-2.4
		C62.9,766.2,64.3,767.1,65.7,767.9z"/>
	<path class="st1" d="M198.5,806.9c3.7,0.5,7.1,0.9,10,1.5c3,0.6,5.5,1,7.5,1.5l4.7,1.1c0.5,0.2,1.1,0.3,1.7,0.3
		c-0.5-0.3-1-0.5-1.6-0.6l-4.7-1.4c-2-0.6-4.5-1.1-7.5-1.8c-2.9-0.6-6.3-1.2-10-1.7c-19.6-2.6-39.4-1.3-58.5,3.6
		c-10.5,2.7-20.7,6.6-30.5,11.4c-7.9,4-15.4,8.8-22.5,14.1c-1.7,1.1-2.7,2.9-2.8,4.9c0.2,1.8,1.5,3.3,3.2,3.9c2.5,0.9,5.2,1,7.8,0.3
		c1.6-0.3,3.2-0.3,4.7,0c1.1,0.2,1.6,0.5,1.6,0.5c-0.4-0.4-1-0.6-1.5-0.8c-1.6-0.4-3.3-0.5-4.9-0.2c-2.4,0.5-5,0.4-7.3-0.5
		c-1.4-0.5-2.4-1.7-2.6-3.2c0.1-1.6,1-3.1,2.3-4c32-23.1,71.5-33.4,110.7-28.9L198.5,806.9z"/>
	<path class="st1" d="M124.6,837.8c-0.5-0.9-0.6-2-0.2-2.9c0.6-1,1.4-1.9,2.3-2.6c4.8-4,10.2-7.1,16-9.4c7.1-2.8,14.5-4.5,22.1-5
		c13.9-0.7,27.7,1.4,40.8,6c5.1,1.7,9.1,3.2,11.8,4.4c1.4,0.6,2.9,1.2,4.4,1.6c-0.3-0.2-0.7-0.5-1-0.6c-0.7-0.4-1.7-0.9-3.1-1.5
		c-3.8-1.8-7.8-3.3-11.8-4.7c-13.2-5-27.2-7.2-41.3-6.5c-7.7,0.5-15.3,2.3-22.5,5.2c-5.8,2.4-11.2,5.6-16,9.7c-1.1,0.8-2,1.8-2.6,3
		c-0.4,1.2-0.3,2.5,0.4,3.6c1,1.7,2.7,2.8,4.7,3.1c1.1,0.2,2.3,0.3,3.5,0.2c0.4,0,0.8,0,1.2-0.2c0-0.2-1.7,0-4.5-0.6
		C126.9,840.3,125.5,839.2,124.6,837.8L124.6,837.8z"/>
	<path class="st1" d="M29.6,851.9c6.5,3.5,13.2,6.7,20.1,9.4c35.5,14.2,74.4,17.4,111.7,9.2c12.1-2.6,23-5.1,32.2-6.2
		c7.3-1,14.7-1.1,22-0.3l3.4,0.5l2.5,0.5c0.7,0.2,1.4,0.3,2.1,0.4c-0.6-0.3-1.3-0.5-2-0.6l-2.3-0.6l-3.4-0.6
		c-7.4-1.1-14.8-1.1-22.2-0.2c-18.8,1.7-43.6,10.6-72.2,10.2c-24.4,0.1-48.5-4.3-71.3-13.1c-6.9-2.6-13.6-5.7-20.2-9l-5.3-2.8
		l-0.7-0.4v0.3l0.6,0.4L29.6,851.9z"/>
	<path class="st1" d="M185.4,850.4c-6.1,0.1-12.3-0.2-18.3-1.2c-4.9-0.8-9.8-2.1-14.4-3.9c-4.3-1.8-8.4-3.9-12.3-6.3
		c0.2,0.3,0.4,0.5,0.7,0.7c0.7,0.6,1.4,1.2,2.2,1.7c2.8,1.9,5.8,3.6,9,4.9c4.7,1.9,9.6,3.4,14.6,4.2c6.1,1,12.3,1.5,18.6,1.3
		c13.2-0.3,25-2,33.5-2.8l6-0.7v-0.8l-6.1,0.4C210.3,848.6,198.5,850.1,185.4,850.4z"/>
	<path class="st1" d="M53.1,869.2c9.6,2.5,20.8,7.1,33.7,10.1c14,3.4,28.4,5.1,42.8,5.2c30.9,0.8,57.5-10.1,77.5-9.4
		c6.1,0,12.1,0.9,17.9,2.5v-0.8c-5.8-1.8-11.8-2.7-17.9-2.8c-20.4-0.9-46.9,9.8-77.5,9c-14.3-0.1-28.6-1.8-42.5-5.1
		c-12.8-3-24-7.3-33.8-9.8c-7.6-2.2-15.6-3.1-23.5-2.8c-2,0.1-4,0.4-6,0.8v0.3c2-0.3,4-0.5,6-0.6C37.7,865.9,45.6,867,53.1,869.2z"
		/>
	<path class="st1" d="M47.1,900.9c10.8-4.7,22.5-7.3,34.2-7.6c13.3-0.6,28,1.4,43.4,3.3c7.7,0.9,15.2,1.7,22.5,2
		c7.1,0.3,14.1,0.1,21.2-0.6c13.3-1.2,25.4-2.4,35.3-0.8c7.6,0.9,14.8,3.6,21.2,7.8v-0.8c-6.3-4.3-13.5-7-21-8
		c-10.1-1.7-22.3-0.6-35.7,0.5c-7,0.7-13.9,0.8-20.9,0.5c-7.2-0.3-14.8-1.1-22.4-2.1c-15.3-1.9-30-3.8-43.5-3.1
		c-12,0.4-23.8,3.2-34.7,8.1c-7.4,3.3-14.3,7.5-20.5,12.5c-0.9,0.7-1.6,1.4-2.3,2v0.6l2.7-2.1C32.8,908.1,39.7,904,47.1,900.9z"/>
	<path class="st1" d="M124,913.5c-9.4-2.1-19-3.2-28.6-3.4c-7.9-0.1-15.7,1-23.3,3.3c-4.9,1.5-9.6,3.7-13.9,6.6h1.1
		c4.1-2.4,8.5-4.2,13.1-5.6c7.5-2.1,15.2-3.1,22.9-3c9.5,0.3,19,1.4,28.2,3.5c8.4,1.7,16.3,3.6,23.8,5.1h7.4l-2.9-0.5
		C143.4,917.9,134,915.5,124,913.5z"/>
	<path class="st2" d="M169.4,765.6H23.8v2.8h145.6V765.6z"/>
	<path class="st2" d="M169.4,840.5H23.8v2.8h145.6V840.5z"/>
	<path class="st2" d="M113.2,767H82.4v6.5h30.8V767z"/>
	<path class="st2" d="M113.2,692.9H82.4v6.5h30.8V692.9z"/>
	<path class="st2" d="M113.2,841.5H82.4v6.5h30.8V841.5z"/>
	<path class="st1" d="M225,692.9h-55.6v227.2H225V692.9z"/>
	<path class="st1" d="M43.4,599.4H23.8v93.6h19.6L43.4,599.4z"/>
	<path class="st1" d="M67.1,608.9H53.4v84h13.7V608.9z"/>
	<path class="st2" d="M53.4,608.9h-10v84h10V608.9z"/>
	<path class="st0" d="M77.2,618.5H67.1v74.4h10.1V618.5z"/>
	<path class="st1" d="M98.6,593H77.2v99.9h21.4V593z"/>
	<path class="st1" d="M113.7,648.8l-2,8.4l2,3v5l-2,4.7l2,1.7v11.8l-2,1.3l2,1.7v6.4h108.1v-7.7l-2-3.7l2-16.8l-1.6-8.1
		c-0.7-1.4-1.3-2.9-1.7-4.4c0-1,0.4-3.4,0.4-3.4L113.7,648.8z"/>
	<g class="st4">
		<path class="st5" d="M169.4,692.9l-2.6-12.2l2.6-5v-4.8l-2.6-2.5l2.6-3.9v-15.7h49.5l-0.3,3.4l1.7,4.4l1.7,8.1l-2,16.9l2,3.7v7.7
			L169.4,692.9z"/>
	</g>
	<path class="st6" d="M1080,920.1c0,0.4-241.8,0.6-540,0.6S0,920.6,0,920.1s241.7-0.6,540-0.6S1080,919.9,1080,920.1z"/>
	<path class="st3" d="M331.8,234.5l-80.1,0.3l0.4,101.1l80.1-0.3L331.8,234.5z"/>
	<path class="st6" d="M252.1,335.9h5.8l16.3-0.2l58-0.5l-0.5,0.5c-0.2-28.9-0.3-63.7-0.5-101.2c-0.1-0.2,1.2,1.1,0.6,0.6h-80.1
		l0.5-0.5v100.7c0,0.2,0,0.3,0,0.5c0-0.1,0-0.3,0-0.4v-6.8c0-4.8-0.1-11.8-0.2-20.6c-0.1-17.9-0.3-43.2-0.6-73.3v-0.5h0.5l38.2-0.2
		h41.9l0.6,0.6c0,37.4,0.2,72.2,0.3,101.2v0.5h-79.2C252.6,336,252.1,335.9,252.1,335.9z"/>
	<path class="st6" d="M298.2,333.5l-11.1,0v2.7l11.1,0V333.5z"/>
	<path class="st7" d="M304.5,270l-24.3,0.1l0.1,35.1l24.3-0.1L304.5,270z"/>
	<path class="st8" d="M304.5,270l-24.3,0.1l0.1,35.1l24.3-0.1L304.5,270z"/>
	<path class="st6" d="M299.4,233.2l-11.1,0v2.3l11.1,0L299.4,233.2z"/>
	<path class="st9" d="M507.9,227c29.7,0,53.8-24.1,53.8-53.8c0-29.7-24.1-53.8-53.8-53.8c-29.7,0-53.8,24.1-53.8,53.8
		C454.1,203,478.2,227,507.9,227z"/>
	<path class="st3" d="M532.6,174.9c-2.3,0.3-4.7,0.5-7.1,0.4c-4.4,0-10.6,0.2-17.6,0.2h-0.6v-4.1c0-7.8,0-14.8,0.2-19.9
		c-0.1-2.8,0.1-5.5,0.4-8.3c0.3,2.7,0.5,5.5,0.4,8.3c0.1,5.1,0.2,12.1,0.2,19.9v3.5l-0.6-0.6c7.1,0,13.1,0,17.6,0.2
		C527.9,174.4,530.2,174.6,532.6,174.9z"/>
	<path class="st3" d="M508.1,128.3c0.3,0,0.6,2,0.6,4.5c0,2.5-0.3,4.5-0.6,4.5s-0.6-2-0.6-4.5C507.4,130.4,507.7,128.3,508.1,128.3z
		"/>
	<path class="st3" d="M532.5,135.6c0.3,0.2-1,1.8-2.7,3.6c-1.7,1.7-3.3,3-3.6,2.7c-0.2-0.2,1-1.9,2.7-3.6
		C530.7,136.6,532.3,135.4,532.5,135.6z"/>
	<path class="st3" d="M546.9,151.2c0.1,0.3-1.5,1.4-3.6,2.7s-3.8,2.2-4,1.9c-0.2-0.3,1.3-1.7,3.4-3
		C544.8,151.6,546.7,150.9,546.9,151.2z"/>
	<path class="st3" d="M555.2,174.4c-4.1,0.8-8.2,0.8-12.3,0C547,173.6,551.2,173.6,555.2,174.4z"/>
	<path class="st3" d="M469.9,173.6c-3.8,0.8-7.8,0.8-11.6,0C462.1,172.8,466.1,172.8,469.9,173.6z"/>
	<path class="st3" d="M475.9,190.9c0.2,0.3-1.7,2.1-4.2,4.2c-2.5,2.1-4.7,3.5-5,3.2c-0.3-0.3,1.7-2.1,4.2-4.2
		C472.3,192.7,474,191.6,475.9,190.9z"/>
	<path class="st3" d="M490.9,204.3c-0.6,1.9-1.6,3.7-2.8,5.3c-1.7,2.8-3.1,5.1-3.4,4.9c0.3-2,1.1-3.9,2.3-5.6
		C488.7,206.1,490.5,204.1,490.9,204.3z"/>
	<path class="st3" d="M508.1,221.5c-0.8-4.1-0.8-8.2,0-12.3C508.9,213.3,508.9,217.5,508.1,221.5z"/>
	<path class="st3" d="M534.6,213.3c-2-0.7-3.8-1.8-5.2-3.3c-2.6-2.3-4.2-4.5-4-4.7c1.7,1.1,3.3,2.4,4.7,3.8
		C532.7,211.3,534.8,213,534.6,213.3z"/>
	<path class="st3" d="M547.1,199.9c-0.3,0.2-2.2-1.3-4.3-3.4c-2.1-2.1-3.6-4-3.4-4.3c0.2-0.2,2.1,1.3,4.3,3.4
		C545.8,197.7,547.4,199.7,547.1,199.9z"/>
	<path class="st3" d="M475.3,157.1c-0.2,0.2-1.9-1.1-3.8-2.9c-1.9-1.9-3.2-3.6-2.9-3.8c0.2-0.2,2,1.1,3.8,2.9
		C474.3,155.2,475.6,156.8,475.3,157.1z"/>
	<path class="st3" d="M490.7,140.9c-0.2,0.2-1.9-1-3.7-2.8c-1.8-1.8-3.1-3.5-2.8-3.7c0.2-0.2,1.9,1,3.7,2.8
		C489.7,139,490.9,140.6,490.7,140.9z"/>
	<path class="st3" d="M756.5,336.7l-82.1,7.8l5.3,55.3l82.1-7.8L756.5,336.7z"/>
	<path class="st6" d="M761.7,392.1c-0.1-0.3-0.1-0.7-0.2-1c0-0.8-0.2-1.7-0.3-3c-0.3-2.6-0.7-6.4-1.2-11.2c-1-9.7-2.4-23.5-4-40.2
		l0.5,0.4l-82,7.9c-0.1,0.1,1-1.2,0.6-0.7v1.8l0.2,1.8l0.4,3.7c0.2,2.3,0.5,4.8,0.7,7.2l1.3,14.1c0.9,9.3,1.7,18.2,2.5,26.6
		l-0.6-0.5l59.1-5.3l17-1.5l4.5-0.4h1.6c-0.5,0.1-1,0.2-1.5,0.2l-4.4,0.5l-16.8,1.7l-59.4,5.9H679v-0.6c-0.8-8.4-1.7-17.3-2.6-26.6
		c-0.4-4.7-0.9-9.4-1.3-14.1l-0.7-7.2l-0.4-3.7l-0.2-1.8v-1.8l0.5-0.7l82.1-7.7h0.5v0.5c1.5,16.9,2.7,30.7,3.6,40.5
		c0.4,4.7,0.7,8.5,0.9,11.1c0,1.2,0.2,2.1,0.2,2.9C761.8,391.5,761.8,391.8,761.7,392.1z"/>
	<path class="st6" d="M756.5,336.7c-0.7,1.1-1.6,2.2-2.5,3.1l-7.1,8.3c-6.1,7.1-14.7,16.5-24.2,27.2l-0.4,0.4l-0.4-0.3l-2.2-1.4
		c-12.6-8-23.9-15.3-32.1-20.7l-9.7-6.4l-2.6-1.8c-0.6-0.4-0.9-0.7-0.8-0.7c0.3,0.1,0.7,0.3,1,0.5l2.7,1.6l9.9,6.1
		c8.3,5.2,19.7,12.4,32.3,20.4l2.2,1.4h-0.8c9.6-10.6,18.2-20.1,24.5-26.9l7.5-8C754.6,338.5,755.5,337.6,756.5,336.7z"/>
	<path class="st9" d="M749.8,64.7H645.6v155h104.1V64.7z"/>
	<path class="st10" d="M749.8,64.7H645.6v155h104.1V64.7z"/>
	<path class="st6" d="M751,220.9H644.4V63.4H751V220.9z M646.8,218.5h101.7V65.9H646.8V218.5z"/>
	<path class="st3" d="M739.4,74.2h-83.3V210h83.3V74.2z"/>
	<path class="st9" d="M721.1,112.7h-46.8v54.8h46.8V112.7z"/>
	<path class="st6" d="M582.1,333.9c0.7-0.1,1.4-0.3,2-0.8c0.7-0.5,1.2-1.3,1.4-2.1c0.1-1.2,0.2-2.4,0.1-3.7c0-5.7,0-13.9,0.2-23.9
		v-12.1c0-0.7,0-1.4,0-2c-0.1-0.6-0.4-1.2-0.9-1.7c-0.5-0.5-1-0.8-1.7-0.9c-0.7,0-1.5,0-2.2,0h-57.8c-1.7,0-3.1,1.3-3.2,3v5.6
		c0,3.7-0.1,7.4-0.2,11.1c0,7.2-0.2,14.2-0.3,20.9v2.5c-0.1,0.7,0.1,1.4,0.5,2c0.4,0.6,0.9,1,1.6,1.3c0.7,0.2,1.4,0.3,2.1,0.2h25.7
		l23.9,0.2l6.5,0.1h1.7c0.2,0,0.4,0,0.6,0c-0.2,0-0.4,0-0.6,0h-8.2l-23.9,0.2h-25.7c-0.9,0.1-1.7,0-2.5-0.3c-0.9-0.3-1.6-1-2.1-1.7
		c-0.5-0.8-0.7-1.7-0.7-2.6v-2.5c0-6.7,0.2-13.7,0.3-20.9c0-3.6,0-7.3,0.1-11v-5.7c0.2-2.3,2.1-4.1,4.4-4.1H581
		c0.8-0.1,1.6-0.1,2.4,0c0.8,0.2,1.6,0.6,2.2,1.2c0.6,0.6,1,1.4,1.1,2.2c0.1,0.8,0.1,1.6,0,2.3v4.2c0,2.8,0,5.4-0.2,7.9
		c-0.2,10-0.4,18.1-0.5,23.9c0,1.3-0.1,2.5-0.3,3.8c-0.2,1-0.8,1.8-1.6,2.4c-0.5,0.3-1,0.5-1.6,0.6
		C582.3,333.9,582.1,333.9,582.1,333.9z"/>
	<path class="st6" d="M555.3,305.9l8,4.9l-8.2,4.8l-8.2,4.8l0.2-9.7l0.2-9.7L555.3,305.9z"/>
	<path class="st3" d="M388.6,445.7l-60.1-32.4c7-4.8,12.8-11.3,16.7-18.8l22-42.2c4.2-7.8,12-12.9,20.9-13.7l55.8,30
		c-6.6,3.1-12,8.2-15.4,14.6l-24.9,46.1c-3.5,6.6-8.6,12.3-14.9,16.5L388.6,445.7z"/>
	<path class="st6" d="M388.6,445.7l0.7-0.5l2-1.5c2.5-2,4.7-4.2,6.7-6.6c1.5-1.7,2.8-3.6,4-5.6c1.3-2.1,2.5-4.7,3.9-7.1l9.4-17.6
		c3.5-6.5,7.3-13.7,11.4-21.3c1-2,2.1-3.9,3.4-5.8c1.3-1.9,2.8-3.7,4.5-5.3c1.7-1.6,3.6-3.1,5.7-4.4c1-0.6,2.1-1.2,3.2-1.8v1h-0.2
		l-0.4-0.2l-0.8-0.4l-1.6-0.8l-26.9-14.9l-14.4-7.6l-7.3-4l-3.7-2l-0.2-0.1h-0.4l-1,0.1c-0.7,0.1-1.4,0.2-2,0.4
		c-5.3,1.3-10.1,4.3-13.6,8.5c-1.7,2.1-3.1,4.3-4.3,6.8l-3.7,7.1l-14.1,27.2c-2.1,4.3-4.5,8.5-7.2,12.4c-2.7,3.6-5.9,6.9-9.4,9.8
		c-0.8,0.7-1.7,1.3-2.6,2l-0.3,0.2l-0.2,0.1v-0.8l0.7,0.4l1.4,0.8l5.4,2.9l10.2,5.6l30.7,16.8l8.3,4.7l2.1,1.2
		C388.1,445.4,388.4,445.5,388.6,445.7c-0.2-0.1-0.5-0.2-0.7-0.4l-2.2-1.1l-8.4-4.4l-30.9-16.5l-10.2-5.5l-5.4-2.9l-1.4-0.8
		l-0.7-0.4v-0.9l0.2-0.1l0.3-0.2c0.9-0.6,1.7-1.2,2.5-1.9c3.5-2.8,6.5-6,9.2-9.6c2.7-3.9,5-8,7.1-12.3l14.1-27.2l3.7-7.1
		c1.2-2.5,2.6-4.9,4.4-7.1c3.7-4.4,8.8-7.5,14.4-8.8c0.7-0.2,1.4-0.3,2.1-0.4l1.1-0.1h1.1l0.2,0.1l3.7,2l7.3,3.9l14.3,7.7l27,14.6
		l1.6,0.9l0.8,0.4l0.4,0.2h0.2v1c-1.1,0.5-2.1,1.1-3.1,1.7c-2,1.2-3.8,2.6-5.5,4.2c-1.6,1.5-3.1,3.2-4.4,5.1
		c-1.2,1.8-2.3,3.7-3.3,5.7l-11.5,21.2l-9.6,17.5c-1.4,2.6-2.7,5-4,7.1c-1.2,1.9-2.6,3.8-4.1,5.6c-2.1,2.4-4.5,4.6-7.1,6.5
		c-0.9,0.6-1.6,1.1-2,1.4C389.2,445.2,388.9,445.5,388.6,445.7z"/>
	<path class="st6" d="M416.5,384.5c0,0.2-10-4.9-22-11.5c-12-6.6-21.7-12.1-21.6-12.3c0.1-0.2,10,5,22,11.5S416.6,384.3,416.5,384.5
		z"/>
	<path class="st6" d="M413.2,392.9c0,0.2-10.3-5.1-22.7-11.9c-12.5-6.8-22.4-12.4-22.3-12.7c0.1-0.2,10.3,5.1,22.7,11.9
		C403.3,387,413.3,392.7,413.2,392.9z"/>
	<path class="st6" d="M409.3,400.2c0,0.2-10.3-5.1-22.7-11.9s-22.4-12.5-22.3-12.7s10.3,5.1,22.7,11.9
		C399.3,394.3,409.3,400,409.3,400.2z"/>
	<path class="st6" d="M405.2,407.5c-0.1,0.2-10.3-5.1-22.7-11.9c-12.4-6.8-22.4-12.5-22.3-12.7c0.1-0.2,10.3,5.1,22.7,11.9
		C395.4,401.6,405.4,407.3,405.2,407.5z"/>
	<path class="st6" d="M401.3,414.8c-0.1,0.2-10.3-5.1-22.7-11.9c-12.5-6.8-22.4-12.5-22.3-12.7c0.1-0.2,10.3,5.1,22.7,11.9
		C391.4,408.9,401.4,414.6,401.3,414.8z"/>
	<path class="st6" d="M375.5,410.3c-1.2-0.4-2.4-0.9-3.6-1.6c-2.2-1.1-5.1-2.6-8.3-4.4c-3.2-1.8-6.1-3.4-8.2-4.7
		c-1.2-0.6-2.3-1.3-3.3-2.1c1.3,0.4,2.5,0.9,3.6,1.6c2.2,1.1,5.1,2.6,8.3,4.4c3.2,1.8,6.1,3.4,8.2,4.7
		C373.4,408.8,374.5,409.5,375.5,410.3z"/>
	<path class="st6" d="M389.8,429.2c0.2-0.5,0.4-1.1,0.5-1.7c0.3-1.5,0.1-3.1-0.5-4.4c-1.6-3.3-5.5-4.7-8.8-3.2
		c-3.3,1.6-4.7,5.5-3.2,8.8c1.2,2.6,4,4.1,6.9,3.7c1.5-0.2,2.9-0.9,4-2C389.5,429.7,389.8,429.2,389.8,429.2
		c-0.2,0.6-0.5,1.1-0.9,1.6c-1.1,1.2-2.5,2.1-4.2,2.4c-4,0.6-7.8-2.1-8.5-6.1s2.1-7.8,6.1-8.5c0.8-0.1,1.6-0.1,2.4,0
		c2.5,0.4,4.6,2,5.6,4.3c0.6,1.5,0.7,3.2,0.3,4.7C390.5,428.2,390.2,428.7,389.8,429.2z"/>
	<path class="st6" d="M394.8,362l-17.4-9.5l-1.4,2.5l17.4,9.5L394.8,362z"/>
	<path class="st7" d="M331.7,173.3l-15.4-16.4v54.2l32.7-36.7L331.7,173.3z"/>
	<path class="st8" d="M331.7,173.3l-15.4-16.4v54.2l32.7-36.7L331.7,173.3z"/>
	<path class="st9" d="M316.7,210.7l19.1-37.2l-4.1-0.3l-2.5-2.7L316.7,210.7z"/>
	<path class="st6" d="M331.7,173.3c-0.4,2-0.9,3.9-1.7,5.7c-1.2,3.5-3,8.3-5.2,13.5c-2.2,5.2-4.3,9.9-5.8,13.2
		c-0.7,1.9-1.6,3.7-2.7,5.4c0.4-2,1.1-3.9,1.9-5.7c1.3-3.5,3.3-8.2,5.5-13.4c2.2-5.2,3.9-9.4,5.5-13.3
		C329.9,176.8,330.7,175,331.7,173.3z"/>
	<path class="st6" d="M331.6,166.1c0.1,4-0.6,7.9-2.1,11.6c-0.3-2-0.1-4,0.4-5.9C330.1,169.8,330.7,167.8,331.6,166.1z"/>
	<path class="st6" d="M337.7,143.4c0,2-0.3,4-1.1,5.8c-0.4,2-1.2,3.8-2.4,5.5c0-2,0.3-4,1.1-5.8
		C335.8,146.9,336.6,145.1,337.7,143.4z"/>
	<path class="st6" d="M346.4,121.5c-0.2,2-0.8,3.9-1.8,5.6c-0.6,1.9-1.6,3.6-2.9,5.2c0.2-2,0.8-3.9,1.8-5.6
		C344.1,124.8,345.1,123,346.4,121.5z"/>
	<path class="st6" d="M357.4,100.7c-0.4,2-1.2,3.8-2.4,5.4c-0.8,1.8-2,3.4-3.4,4.7c0.4-1.9,1.2-3.8,2.3-5.4
		C354.8,103.6,356,102,357.4,100.7z"/>
	<path class="st6" d="M370.6,81.2c-0.6,1.9-1.6,3.6-2.9,5.1c-1.9,2.6-3.6,4.7-3.9,4.4c0.6-1.9,1.6-3.6,2.9-5.1
		C368.6,83,370.4,81.1,370.6,81.2z"/>
	<path class="st6" d="M385.9,63.4c-0.8,1.8-2,3.4-3.5,4.7c-2.2,2.3-4.1,4.2-4.4,3.9s1.3-2.3,3.5-4.7C383.7,65,385.7,63.1,385.9,63.4
		z"/>
	<path class="st6" d="M403.2,47.4c0.2,0.3-1.6,2.2-4,4.4c-1.3,1.4-3,2.6-4.8,3.4c-0.2-0.3,1.6-2.2,4-4.4S402.9,47.1,403.2,47.4z"/>
	<path class="st6" d="M422.2,33.5c0.2,0.3-1.9,1.9-4.5,3.8c-1.5,1.3-3.3,2.3-5.2,2.8c-0.2-0.3,1.8-2,4.5-3.9
		C418.4,34.9,420.2,34,422.2,33.5z"/>
	<path class="st6" d="M442.7,22c0.2,0.3-2.1,1.8-4.9,3.2c-1.7,1.1-3.5,1.8-5.5,2.2c1.4-1.4,3.1-2.5,4.9-3.2
		C438.9,23.1,440.7,22.4,442.7,22z"/>
	<path class="st6" d="M464.5,13.1c-1.6,1.2-3.4,2.1-5.3,2.6c-1.8,0.9-3.7,1.4-5.7,1.5c1.6-1.2,3.4-2.2,5.3-2.7
		C460.5,13.7,462.5,13.2,464.5,13.1z"/>
	<path class="st6" d="M487.1,6.8c-1.7,1-3.6,1.7-5.6,2c-1.9,0.7-3.9,1-5.9,0.8C479.3,7.9,483.2,6.9,487.1,6.8z"/>
	<path class="st6" d="M510.4,3.1c-1.8,0.8-3.8,1.3-5.8,1.3c-1.9,0.4-3.9,0.5-5.9,0.1c1.8-0.8,3.8-1.3,5.7-1.4
		C506.4,2.8,508.4,2.7,510.4,3.1z"/>
	<path class="st6" d="M533.9,2.2C532,2.8,530,3,528,2.9c-2,0.2-4,0-5.9-0.5c1.9-0.6,3.9-0.9,5.9-0.7C530,1.4,532,1.6,533.9,2.2z"/>
	<path class="st6" d="M557.3,4c-2,0.4-4,0.4-5.9,0c-2,0-3.9-0.5-5.8-1.2C549.6,2.4,553.6,2.8,557.3,4L557.3,4z"/>
	<path class="st6" d="M580.3,8.7c-4-0.1-7.9-1-11.5-2.7C572.8,6.1,576.7,7,580.3,8.7z"/>
	<path class="st6" d="M602.7,16.2c-3.9-0.6-7.7-2-11-4.1c2,0.1,3.9,0.6,5.7,1.5C599.3,14.1,601.1,14.9,602.7,16.2z"/>
	<path class="st6" d="M623.7,26.8c-3.8-1.1-7.4-3.1-10.4-5.7c2,0.4,3.8,1.2,5.5,2.4C620.6,24.2,622.3,25.3,623.7,26.8z"/>
	<path class="st6" d="M642.5,40.7c-0.2,0.3-2.3-1.2-4.9-3.2c-2.6-2-4.4-3.9-4.2-4.2c0.2-0.3,2.4,1.2,4.9,3.2S642.8,40.5,642.5,40.7z
		"/>
	<path class="st6" d="M658.6,57.8c-0.3,0.2-1.9-1.9-4-4.4c-1.4-1.4-2.6-3-3.5-4.7c0.2-0.2,2.4,1.4,4.4,4
		C657.1,54.1,658.1,55.9,658.6,57.8z"/>
	<path class="st6" d="M597.9,307.9c-1.9,0.5-3.9,0.6-5.9,0.3c-2,0.1-4-0.2-5.8-0.9c1.9-0.5,3.9-0.6,5.9-0.3
		C594.1,306.9,596.1,307.2,597.9,307.9z"/>
	<path class="st6" d="M621.4,306.7c-1.8,0.8-3.8,1.2-5.8,1.1c-1.9,0.4-4,0.4-5.9,0C613.5,306.7,617.5,306.3,621.4,306.7L621.4,306.7
		z"/>
	<path class="st6" d="M644.4,301.7c-3.5,1.8-7.4,2.8-11.4,3.1C636.6,303,640.4,301.9,644.4,301.7z"/>
	<path class="st6" d="M665.9,292.1c-1.3,1.5-3,2.6-4.9,3.4c-1.7,1.1-3.6,1.8-5.6,2c-0.1-0.3,2.2-1.6,5-3.1
		C662.1,293.4,663.9,292.6,665.9,292.1z"/>
	<path class="st6" d="M684.3,277.6c0.3,0.2-1.4,2.3-3.8,4.5c-1.4,1.5-3,2.6-4.9,3.3c-0.2-0.3,1.7-2.1,4.1-4.2
		C681,279.8,682.6,278.6,684.3,277.6z"/>
	<path class="st6" d="M698.3,258.8c-0.4,2-1.2,3.8-2.5,5.4c-1.8,2.8-3.6,4.7-3.8,4.5c0.6-1.9,1.6-3.6,2.8-5.2
		C695.7,261.8,696.9,260.2,698.3,258.8z"/>
	<path class="st6" d="M706.3,236.7c0.1,4-1,7.9-3.1,11.3c0.1-2,0.5-3.9,1.2-5.8C704.7,240.4,705.3,238.5,706.3,236.7z"/>
	<path class="st6" d="M707.1,218.1c0.3,0,0.7,1.5,0.8,3.5c0.1,2-0.1,3.5-0.4,3.5c-0.3,0-0.7-1.6-0.8-3.5
		C706.5,219.7,706.7,218.1,707.1,218.1z"/>
	<path class="st6" d="M418.2,341.9c-0.7,1.8-1.8,3.6-3.1,5c-1.9,2.6-3.5,4.7-3.8,4.5c0.5-1.9,1.5-3.7,2.8-5.2
		C416.1,343.5,417.9,341.7,418.2,341.9z"/>
	<path class="st6" d="M435.1,325.6c0.2,0.3-1.7,2-4.2,4.2c-2.4,2.1-4.5,3.7-4.7,3.5c1-1.8,2.3-3.3,4-4.4
		C432.7,326.8,434.9,325.4,435.1,325.6z"/>
	<path class="st6" d="M455.3,313.5c-1.4,1.4-3.1,2.5-4.9,3.3c-1.7,1.1-3.5,1.9-5.5,2.2c1.4-1.4,3.1-2.6,4.9-3.3
		C451.4,314.6,453.3,313.8,455.3,313.5z"/>
	<path class="st6" d="M477.5,305.8c-3.6,1.6-7.4,2.7-11.3,3.2c1.6-1.2,3.5-2,5.5-2.3C473.5,305.9,475.5,305.6,477.5,305.8z"/>
	<path class="st6" d="M500.9,303.5c-1.9,0.6-3.9,0.8-5.9,0.7c-2,0.3-3.9,0.2-5.9-0.2C492.9,302.8,497,302.6,500.9,303.5L500.9,303.5
		z"/>
	<path class="st6" d="M514.1,304.6c0,0.2-0.2,0.3-0.3,0.4c-0.1,0.1-0.3,0.1-0.5,0.1c-0.1,0-0.2,0-0.3-0.1c-0.1,0-0.2-0.1-0.2-0.2
		c-0.1-0.1-0.1-0.1-0.1-0.2c0-0.1,0-0.2,0-0.3c0.1-0.4,0.5-0.6,0.8-0.5C513.8,303.9,514.1,304.2,514.1,304.6
		C514.1,304.6,514.1,304.6,514.1,304.6z"/>
	<path class="st6" d="M448.2,498.8c1.9,0.5,3.7,1.4,5.3,2.7c1.7,1,3.3,2.2,4.7,3.7c-1.9-0.5-3.7-1.4-5.3-2.7
		C451.1,501.6,449.5,500.3,448.2,498.8z"/>
	<path class="st6" d="M429.3,484.7c1.9,0.7,3.6,1.8,5,3.2c2.5,2,4.4,3.9,4.2,4.1s-2.4-1.2-5-3.2C430.9,486.8,429.1,485,429.3,484.7z
		"/>
	<path class="st6" d="M414.9,466.3c0.3-0.2,1.8,2,3.5,4.7c1.2,1.6,2.2,3.3,2.8,5.2c-0.3,0.2-2.1-1.7-3.8-4.5
		C416.1,470.1,415.3,468.3,414.9,466.3z"/>
	<path class="st6" d="M405.9,444.7c2.1,3.4,3.4,7.2,4,11.1c-1.2-1.6-2.1-3.4-2.5-5.3C406.5,448.6,406,446.7,405.9,444.7z"/>
	<path class="st11" d="M580.2,711.3l-4.9,209.5h-9.2l0.6-208.9L580.2,711.3z"/>
	<path class="st11" d="M613.6,709l44.9,211.8h10.3L631.4,709H613.6z"/>
	<path class="st11" d="M529.4,711.3l-49.7,209.5h-10.3l45.1-210.3L529.4,711.3z"/>
	<path class="st11" d="M658.6,510.6c0,0,49.6-2.8,44.7,54.6s-7.8,115.5-26.2,135.3c-18.4,19.8-204.1,20.5-219.6,4.3
		c-15.6-16.3,29.8-15.6,38.2-15.6c8.5,0,60.9,5,78-39.7S586.4,507.7,658.6,510.6z"/>
	<path class="st11" d="M661.8,510.6c0,0,37.9,7.8,34.4,47.5c-3.5,39.7-13.5,109.1-31.9,126.8c-18.4,17.7-90.6,21.6-129.7,19.1
		c-45.4-2.8-74-11.5-74-11.5s-8.3,5.3-5.8,8.8c2.5,3.4,24.6,17.2,131.8,14.9c107.2-2.3,99.7-18.1,104.2-35.3
		c4.4-17.2,13.8-109.4,12.5-129.6C702.1,531.1,691.9,514.1,661.8,510.6z"/>
	<path class="st12" d="M661.8,510.6c0,0,37.9,7.8,34.4,47.5c-3.5,39.7-13.5,109.1-31.9,126.8c-18.4,17.7-90.6,21.6-129.7,19.1
		c-45.4-2.8-74-11.5-74-11.5s-8.3,5.3-5.8,8.8c2.5,3.4,24.6,17.2,131.8,14.9c107.2-2.3,99.7-18.1,104.2-35.3
		c4.4-17.2,13.8-109.4,12.5-129.6C702.1,531.1,691.9,514.1,661.8,510.6z"/>
	<path class="st11" d="M630.7,587.7c0.6,2.3,2.9,3.7,5.1,3.1c2.3-0.6,3.7-2.9,3.1-5.1c-0.5-1.9-2.2-3.2-4.1-3.2
		C632.2,582.8,630.4,585.2,630.7,587.7C630.7,587.7,630.7,587.7,630.7,587.7z"/>
	<path class="st11" d="M633.5,564.5c-0.8,2.5-1.3,5-1.4,7.6c0,2.8,0.6,5.5,1.8,8c0.7,1.5,1.6,2.8,2.7,4c0.7,0.6,1.3,1.3,1.9,2
		c0.6,0.9,0.9,2.1,0.7,3.2c-0.6,1.8-1.3,3.5-2.1,5.2c-0.4,1.5-0.6,3.1-0.6,4.7c0.1,2.8,0.8,5.5,2.1,8c1.3,2.2,2.9,4.3,4.7,6.1
		c-0.7-0.3-1.3-0.7-1.8-1.2c-1.5-1.3-2.8-2.8-3.8-4.5c-1.5-2.6-2.4-5.5-2.5-8.5c-0.1-1.8,0.1-3.6,0.6-5.3c0.8-1.6,1.4-3.2,2-4.9
		c0.4-1.6-0.9-2.7-2.2-4c-1.2-1.3-2.1-2.8-2.9-4.4c-1.2-2.7-1.8-5.7-1.6-8.6c0.1-2,0.5-3.9,1.3-5.8C632.6,565.6,633,565,633.5,564.5
		z"/>
	<path class="st11" d="M622.3,580.9c0.2,0,0,1.2,0.6,3c0.7,2.3,2.2,4.2,4.1,5.6c2,1.3,4.3,2.1,6.7,2.3c1.9,0.3,3.1,0.3,3.1,0.5
		s-1.2,0.5-3.2,0.5c-2.6,0-5.2-0.8-7.5-2.2c-2.2-1.5-3.8-3.9-4.3-6.5C621.6,582.1,622.1,580.9,622.3,580.9z"/>
	<g class="st13">
		<path class="st12" d="M630.7,587.7c0.6,2.3,2.9,3.7,5.1,3.1c2.3-0.6,3.7-2.9,3.1-5.1c-0.5-1.9-2.2-3.2-4.1-3.2
			C632.2,582.8,630.4,585.2,630.7,587.7C630.7,587.7,630.7,587.7,630.7,587.7z"/>
		<path class="st12" d="M633.5,564.5c-0.8,2.5-1.3,5-1.4,7.6c0,2.8,0.6,5.5,1.8,8c0.7,1.5,1.6,2.8,2.7,4c0.7,0.6,1.3,1.3,1.9,2
			c0.6,0.9,0.9,2.1,0.7,3.2c-0.6,1.8-1.3,3.5-2.1,5.2c-0.4,1.5-0.6,3.1-0.6,4.7c0.1,2.8,0.8,5.5,2.1,8c1.3,2.2,2.9,4.3,4.7,6.1
			c-0.7-0.3-1.3-0.7-1.8-1.2c-1.5-1.3-2.8-2.8-3.8-4.5c-1.5-2.6-2.4-5.5-2.5-8.5c-0.1-1.8,0.1-3.6,0.6-5.3c0.8-1.6,1.4-3.2,2-4.9
			c0.4-1.6-0.9-2.7-2.2-4c-1.2-1.3-2.1-2.8-2.9-4.4c-1.2-2.7-1.8-5.7-1.6-8.6c0.1-2,0.5-3.9,1.3-5.8
			C632.6,565.6,633,565,633.5,564.5z"/>
		<path class="st12" d="M622.3,580.9c0.2,0,0,1.2,0.6,3c0.7,2.3,2.2,4.2,4.1,5.6c2,1.3,4.3,2.1,6.7,2.3c1.9,0.3,3.1,0.3,3.1,0.5
			s-1.2,0.5-3.2,0.5c-2.6,0-5.2-0.8-7.5-2.2c-2.2-1.5-3.8-3.9-4.3-6.5C621.6,582.1,622.1,580.9,622.3,580.9z"/>
	</g>
	<path class="st6" d="M573.8,367.3c-0.6-0.2-1.5-0.5-2.5-0.8c-3.7-1-7.5-1.3-11.3-1c-5.7,0.4-11.1,2.8-15.3,6.7
		c-2.5,2.3-4.4,5.2-5.5,8.4c-0.6,1.7-0.9,3.5-1,5.3c0,1.8,0.1,3.6,0,5.4c0,1.7-0.6,3.2-1.8,4.4c-1.3,1-2.8,1.8-4.4,2.3
		c-1.6,0.6-3.1,1.5-4.5,2.6c-3.7,3.2-5.3,8.3-4,13c0.8,2.5,2,4.9,3.4,7.1c0.6,0.9,1,1.8,1.5,2.6c0.1,0.7,0.1,1.5,0,2.2
		c-0.5,3.2-2.1,6.2-4.4,8.5c-2.4,2.2-4.4,4.8-6.1,7.5c-1.7,2.9-1.5,6.5,0.4,9.2c2.4,2.7,6.5,2.7,10.1,2.6
		c12.6-0.1,25.2,0.6,37.7,2.1l10.2-87.5C575.4,367.7,574.6,367.5,573.8,367.3z M542.1,382.8c-0.6,3.5,0,7.2-1.7,10.3
		c-1.7,3.1-5.5,4.9-8.3,7.4c-4.4,4-6.5,9.9-5.5,15.8c0.3,1.5,0.7,2.9,1.1,4.4l-0.1-0.2c-1.3-2.2-2.4-4.6-3.1-7.1
		c-0.8-2.8-0.4-5.7,0.9-8.3c0.7-1.4,1.6-2.6,2.8-3.6c1.3-1,2.7-1.8,4.2-2.3c1.7-0.6,3.3-1.5,4.7-2.6c1.4-1.4,2.2-3.3,2.2-5.2
		c0-1.9-0.2-3.7,0-5.4c0.1-1.7,0.4-3.3,0.9-4.9c1.1-3,2.9-5.8,5.2-8c4-3.8,9.1-6.1,14.6-6.6c1.2-0.1,2.4-0.2,3.6-0.2
		c-2.8,0.1-5.5,0.6-8.1,1.5C548.7,369.9,543.6,375.7,542.1,382.8L542.1,382.8z"/>
	<path class="st14" d="M559.4,470.8c0.7-4-0.6-21-0.6-21s-15.1-1.9-15.7-17.3s0.9-50.8,0.9-50.8l27.7-13.3l24.2,27.6l0.4,74.6
		L559.4,470.8z"/>
	<path class="st6" d="M547.9,407.6c0,1.1,0.9,1.9,1.9,1.9c1.1,0,1.9-0.9,1.9-1.9c0-1.1-0.9-1.9-1.9-1.9
		C548.7,405.6,547.9,406.5,547.9,407.6z"/>
	<path class="st6" d="M544.7,405.4c0.2,0.3,1.7-1,3.7-1c2.1-0.1,3.6,1,3.8,0.7c0.2-0.3-0.1-0.6-0.8-1.1c-0.9-0.6-2-0.9-3.1-0.9
		c-1.1,0-2.1,0.4-3,1.2C544.8,404.7,544.6,405.3,544.7,405.4z"/>
	<path class="st6" d="M570.3,407.6c0,1.1,0.9,1.9,1.9,1.9c1.1,0,1.9-0.9,1.9-1.9c0-1.1-0.9-1.9-1.9-1.9
		C571.2,405.6,570.3,406.5,570.3,407.6z"/>
	<path class="st6" d="M567.6,405.8c0.2,0.3,1.7-1,3.7-1c2.1-0.1,3.6,1,3.8,0.7c0.2-0.3-0.1-0.6-0.8-1.1c-1.8-1.3-4.3-1.2-6.1,0.3
		C567.7,405.2,567.5,405.7,567.6,405.8z"/>
	<path class="st6" d="M559.8,423.5c-1.1-0.3-2.2-0.5-3.4-0.5c-0.5,0-1,0-1.1-0.5c-0.1-0.6,0-1.2,0.3-1.7c0.5-1.4,1-2.8,1.5-4.4
		c1.4-3.7,2.5-7.5,3.3-11.4c-1.7,3.6-3.1,7.3-4.2,11.1c-0.5,1.5-1,3-1.4,4.4c-0.3,0.7-0.4,1.5-0.2,2.2c0.2,0.4,0.5,0.7,0.9,0.8
		c0.3,0,0.6,0,0.9,0C557.6,423.7,558.7,423.7,559.8,423.5z"/>
	<path class="st15" d="M558.8,449.8c7.1-0.2,14.1-2.5,20-6.5c0,0-4.7,11.2-19.7,10.3L558.8,449.8z"/>
	<path class="st6" d="M633.7,416.5c-1,0.2-2,0.2-2.9,0c-1.7-2.7-4.9-4.7-7.2-7.2c-0.4-2.2-0.3-4.6,0.6-6.7c0.4-1.2,0.8-2.4,1.1-3.6
		c0.3-1.4,0.3-2.8-0.2-4.1c-1.2-2.6-3.4-4.5-6.1-5.5c-2.1-2.9-5.9-4.2-8.5-6.7c-0.5-1.3-0.9-2.7-1.2-4.1c-0.3-2.3-0.9-4.6-1.8-6.8
		c-0.9-1.9-2.2-3.5-3.9-4.7c-1.9-1.5-4.2-2.5-6.6-2.8c-1.7-0.9-3.5-1.5-5.4-1.8c-5.8-0.8-11.7,1.1-15.9,5.2
		c-8.5-2.2-17.5-0.8-25,3.9c-3.4,1.8-6.2,4.6-7.9,8c-1.2,3.2-1.7,6.6-1.5,10v7.3c-0.1,0.6,0.1,1.3,0.4,1.8c0.7,0.7,1.7,1.1,2.7,1
		l11.3,0.4c0.8,0.1,1.5,0,2.2-0.4c1.2-0.8,1.9-2.2,1.8-3.6v-3.8c0.4,1.5,0.8,2.9,1.3,4.4c0.2,1.6,1.1,3,2.3,3.9
		c1,0.4,2.1,0.6,3.2,0.5h4.9c0.8,0.1,1.6-0.2,2.4-0.6c0.9-1,1.2-2.3,0.9-3.6c-0.4-1.6-0.7-3.3-0.8-5c1.5,2.9,2.2,6.4,4,6.9
		c1.8,0.3,3.7,0.1,5.4-0.4c1.8-0.6,3.1-1,4.4-1.4c-0.1,0.8-0.3,1.5-0.5,2.2c-1.4,3.7-4.4,7.2-3.4,11c1.1,3.8,4.9,5.1,6.9,8.1
		c1.9,3.5,2,7.6,0.4,11.3c-1.6,3.5-3,7.2-4.2,10.9c-0.9,3.8-0.3,8.3,2.8,10.7c2.6,1.6,5.6,2.2,8.6,2l27.3,0.2
		c1.8,0.1,3.5-0.1,5.2-0.6c1.7-0.5,3.1-1.9,3.5-3.6c0.1-2.1-0.8-4.2-2.5-5.5c-1.7-1.3-3.1-2.9-4.2-4.7c-1.4-3.1,0-6.7,1.6-9.7
		c1.6-3,3.4-6.2,2.8-9.6c-0.1-0.8-0.4-1.6-0.8-2.3c0.9,0,1.8-0.1,2.6-0.3c0.8-0.2,1.5-0.6,2.2-1.1c0.4-0.3,0.6-0.5,0.6-0.6
		C635.7,415.8,634.7,416.2,633.7,416.5z M598.7,365.2c1.6,0.5,3,1.3,4.3,2.4c1.5,1.2,2.7,2.8,3.5,4.5c0.8,2.1,1.3,4.3,1.6,6.5
		c0.1,0.5,0.1,1,0.3,1.5c-1.3-2.3-2-5-3.1-7.4C603.8,369.6,601.5,367,598.7,365.2L598.7,365.2z M619.9,391.1c1.7,0.9,3.1,2.3,3.9,4
		c0.5,2.4,0.2,4.9-0.8,7.1c-0.7,1.8-0.9,3.7-0.8,5.6c-0.5-0.7-0.9-1.4-1.2-2.1c-1.8-4.5,0.4-10-1.2-14.4L619.9,391.1z"/>
	<path class="st15" d="M560.6,428.9c0.2-1.3,1.1-2.4,2.4-2.9c0.8-0.4,1.8-0.4,2.7,0c0.9,0.5,1.3,1.4,1.2,2.4c-0.2,1-1.1,1.8-2.1,2
		c-1,0.2-2.1,0.1-3.1-0.2c-0.3-0.1-0.6-0.2-0.8-0.3c-0.1-0.1-0.2-0.2-0.3-0.3c-0.1-0.1-0.1-0.3-0.1-0.4"/>
	<path class="st6" d="M565.7,423.5c0.2,0,0.4,0.6,0.4,1.6c-0.1,1.3-0.7,2.6-1.7,3.5c-1,0.9-2.3,1.4-3.6,1.5c-1,0-1.6-0.3-1.6-0.4
		c1.6-0.3,3.1-0.9,4.3-2C565.4,425.9,565.3,423.5,565.7,423.5z"/>
	<path class="st14" d="M529.9,478.2c0,0-45.6,39.6-46.8,34.8c-6.4-26.2-4.7-59.7-3.6-72.5c0.7-1.1,1.5-2.4,2.5-3.7
		c1.2-1.5,2.6-2.8,4.2-3.8c1.9-1.4,4-2.6,6.2-3.5c1.2-0.2,1.9-1.4,1.7-2.6c-0.1-0.6-0.5-1.2-1.1-1.5c-1.7-0.7-7.6,0.8-13.1,5.3
		s-3.2-6.2-2.5-10.2s2.3-16.2,1.4-17.3c-1.5-1.7-3.6-0.3-4.3,3.6c-0.7,3.9-3.4,15.6-5.4,15.2c-2-0.4,2-20.4,2-20.4s1.6-4.1-0.8-4.7
		c-4.3-1.1-6.9,20.4-7.1,22.5c-0.1,1.4-2.3,1-2.2-0.5c0.2-1.5,4.4-19.8,0-20.9c-3.3-0.8-2.4,17.7-5.3,21c-3,3.4,0.7-14.1-2.5-14.8
		c-1.2-0.2-2.1-0.3-2.8,10c-0.2,8.3,0.1,16.6,0.9,24.9c-2.8,28.2-8.4,115,30.8,112c46.2-3.5,56.8-40,56.8-40L529.9,478.2z"/>
	<path class="st9" d="M657.6,541.2l-7.9-39.6c-5.8-32.5-51.3-34.7-51.3-34.7l-35.7-0.6c0,0-23.8-0.8-42.8,14.9S488,508.8,488,508.8
		l29.9,34.6l17.7-11.8c0,0-6.4,11.5-5.3,21.2c1,9.4,10.9,16.6,10.9,16.6l-7.4,79.7l116.6-4.7l-15-103.2L657.6,541.2z"/>
	<path class="st3" d="M652,510.2c-0.4,1-0.8,2-1.4,2.9c-4,7-10.5,12.3-18.2,14.8c-6.3,2-13,2-19.3,0.2c-3.7-1-7.1-2.9-10-5.3
		c-3.3-2.7-5.4-6.5-5.9-10.8c-0.3-4.7,2-9.1,6.1-11.4c2.2-1.1,4.7-1.3,7.1-0.5c2.3,0.9,4.3,2.4,5.7,4.5c1.4,2.1,2.3,4.5,2.4,7.1
		c0,2.5-0.5,5.1-1.6,7.4c-2.3,4.7-5.8,8.6-10.1,11.5c-9,6.2-20.1,8.6-30.8,6.6c-5.4-1-10.6-3.2-15-6.5c-4.4-3.1-7.7-7.5-9.6-12.6
		c-1.7-5-1.5-10.4,0.5-15.3c2-4.8,6.2-8.2,11.3-9.1c5-0.8,9.9,2.3,11.3,7.2c0.5,2.3,0.1,4.7-1.2,6.8c-1.1,1.9-2.8,3.6-4.7,4.7
		c-3.8,1.9-8.1,2.4-12.2,1.6c-3.7-0.7-7.4-1.7-10.9-3c-6.2-2-11.8-5.7-16.2-10.6c-3.2-3.8-5.1-8.6-5.2-13.5c-0.2-3.1,0.5-6.2,2-9
		c0.5-0.9,1.2-1.8,1.9-2.6c-0.6,0.9-1.2,1.8-1.7,2.7c-1.3,2.7-1.9,5.8-1.7,8.8c0.3,4.8,2.1,9.4,5.3,13.1c4.3,4.7,9.8,8.3,16,10.2
		c3.5,1.3,7.1,2.2,10.8,2.9c3.9,0.8,8,0.3,11.5-1.5c1.8-1,3.3-2.5,4.3-4.3c1.1-1.8,1.5-4,1-6.1c-1.3-4.3-5.7-7-10.1-6.3
		c-4.7,0.9-8.6,4.1-10.4,8.5c-1.9,4.6-2.1,9.7-0.4,14.4c1.8,4.8,5,9,9.2,12c4.3,3.1,9.3,5.3,14.5,6.2c10.4,1.9,21.2-0.4,29.9-6.4
		c4.2-2.7,7.5-6.5,9.7-11c1-2.1,1.5-4.5,1.5-6.9c-0.1-2.3-0.8-4.5-2.2-6.4c-1.2-1.9-3-3.3-5.1-4.1c-2-0.7-4.3-0.6-6.2,0.4
		c-3.7,2.2-5.8,6.2-5.5,10.4c0.4,4,2.4,7.6,5.5,10.1c2.8,2.4,6.1,4.2,9.7,5.2c6.1,1.9,12.7,1.9,18.8,0c4.6-1.4,8.9-3.9,12.4-7.2
		c2.2-2.1,4.2-4.5,5.8-7.1l1.2-2.1L652,510.2z"/>
	<path class="st3" d="M647.1,631.3l-0.6,0.3c-0.4,0.1-1.1,0.4-1.9,0.7c-2.5,0.7-5.1,1.2-7.7,1.3c-4.1,0.2-8.3-0.2-12.2-1.4
		c-5.3-1.5-10.1-4.3-14.1-8.1c-7.6-7.3-11.6-17.6-11-28.1c0.1-4,1.3-7.9,3.2-11.3c1.1-1.8,2.6-3.3,4.4-4.4c1.9-1.1,4.1-1.7,6.2-1.6
		c2.3,0.1,4.5,1,6,2.8c1.5,1.7,2.4,4,2.4,6.3c0,2.3-0.7,4.6-2,6.5c-1.3,1.9-3,3.6-4.9,4.8c-3.9,2.5-8.3,4.2-12.9,4.9
		c-9.1,1.4-18.4-0.5-26.2-5.3c-3.7-2.2-7-5.2-9.6-8.6c-2.6-3.3-4.3-7.2-4.9-11.4c-0.6-4,0.6-8.2,3.2-11.3c1.2-1.5,2.9-2.7,4.7-3.3
		c1.8-0.6,3.8-0.6,5.6-0.1c1.8,0.4,3.4,1.4,4.7,2.8c1.2,1.3,1.9,3,2,4.8c-0.1,3.3-1.6,6.5-4.3,8.5c-2.2,1.9-4.8,3.3-7.6,4.2
		c-2.5,0.8-5,1.3-7.6,1.5c-4.1,0.3-8.3-0.4-12.2-1.9c-2.4-1-4.7-2.3-6.8-3.9c-0.5-0.4-1.1-0.8-1.6-1.3c-0.3-0.3-0.5-0.5-0.5-0.5
		c0,0,0.7,0.6,2.2,1.6c5.4,4,12.1,5.8,18.8,5.2c2.5-0.2,5-0.7,7.4-1.6c2.7-0.8,5.2-2.2,7.3-4.1c2.4-1.9,3.8-4.8,3.9-7.8
		c-0.3-3.3-2.7-6-6-6.7c-1.6-0.4-3.4-0.4-5,0.1c-1.7,0.6-3.2,1.6-4.3,3c-2.4,2.9-3.4,6.7-2.9,10.5c0.6,3.9,2.2,7.7,4.7,10.8
		c2.5,3.3,5.7,6.2,9.3,8.3c7.6,4.6,16.6,6.4,25.3,5.1c4.4-0.7,8.6-2.3,12.4-4.7c3.7-2.2,6.1-6,6.3-10.3c0-2-0.6-4-1.9-5.6
		c-1.3-1.4-3.2-2.3-5.2-2.3c-2-0.1-3.9,0.4-5.6,1.4c-1.7,1-3,2.4-4.1,4c-1.9,3.3-3,7-3.1,10.8c-0.2,3.6,0.1,7.2,1,10.7
		c1.6,6.3,4.9,12.1,9.5,16.7c3.9,3.7,8.6,6.5,13.7,8.1c6.4,2,13.2,2.1,19.7,0.5C645.5,631.8,646.3,631.5,647.1,631.3z"/>
	<path class="st6" d="M607.7,499.1c0.3,0.8,0.5,1.7,0.6,2.5c0.4,1.9,0.8,4.2,1.4,7.1c1.2,6.2,2.8,14.1,4.4,22.9
		c1.7,8.8,3.2,17.1,4.1,23c0.4,3,0.8,5.4,1,7.1c0.2,0.9,0.2,1.7,0.1,2.6c-0.3-0.8-0.5-1.7-0.6-2.5c-0.4-1.9-0.8-4.2-1.4-6.9
		c-1.2-6.2-2.7-14.1-4.4-23s-3.2-17.1-4.1-23c-0.5-3-0.8-5.4-1-7.1C607.7,500.9,607.6,500,607.7,499.1z"/>
	<path class="st6" d="M658.3,541.5c-7.2,0.7-14.4,0.9-21.5,0.7c-7.2,0.2-14.4,0.1-21.5-0.5c7.2-0.7,14.3-0.9,21.5-0.7
		C643.9,540.8,651.1,541,658.3,541.5z"/>
	<path class="st6" d="M517.9,543.2c-5.2-5.5-10.2-11.2-14.8-17.2c-5-5.7-9.6-11.7-13.9-17.9C499.4,519.3,509,531,517.9,543.2
		L517.9,543.2z"/>
	<path class="st6" d="M595.2,467c-1.8,0.4-3.6,0.6-5.4,0.6c-3.3,0.2-8,0.3-13.1,0.2c-5.1-0.1-9.7-0.3-13-0.6c-1.8,0-3.6-0.3-5.4-0.8
		c1.8-0.2,3.6-0.2,5.4,0l13,0.3l13,0.1C591.6,466.7,593.4,466.8,595.2,467z"/>
	<path class="st6" d="M530.6,541.8c0.5-1.6,1.2-3.2,2-4.7l2.5-5c1.3-1.8,1.9-4,1.8-6.1c-0.9-4.7-1.7-9.2-2.2-12.3
		c-0.4-1.7-0.6-3.5-0.6-5.2c0.7,1.6,1.1,3.3,1.4,5c0.7,3.2,1.7,7.4,2.6,12.3c0.3,1.3,0.1,2.6-0.4,3.8c-0.5,1-1,2.1-1.6,3
		c-1,1.7-1.9,3.4-2.8,4.9C532.6,539,531.7,540.5,530.6,541.8z"/>
	<path class="st9" d="M436,908.1v-24.3l43.5-0.3l0.4,36.3l-2.7,0.2c-12,0.8-61,2.3-69.1-0.2C399.1,917,436,908.1,436,908.1z"/>
	<path class="st6" d="M407,917.6c0,0.4,16.3,0.7,36.3,0.7c20.1,0,36.3-0.3,36.3-0.7s-16.3-0.8-36.3-0.8
		C423.3,916.8,407,917.2,407,917.6z"/>
	<path class="st6" d="M435.2,913.1c0.4-0.2,0-1.5-0.9-2.7c-0.9-1.3-2.1-2-2.3-1.7c-0.3,0.3,0.3,1.4,1.2,2.5S434.9,913.2,435.2,913.1
		z"/>
	<path class="st6" d="M432.5,914.6c0.4-0.1,0.2-1.6-0.7-3.1c-0.9-1.5-2-2.4-2.3-2.2c-0.4,0.2,0.2,1.5,1,2.9S432,914.8,432.5,914.6z"
		/>
	<path class="st6" d="M466.6,917.4c0.2,0.1,0.8-0.5,1.7-1.6c1.2-1.4,2.4-2.7,3.8-3.8c1.4-1.1,3-1.8,4.7-2c1.3-0.2,2.2,0,2.3-0.2
		c0.2-0.2-0.8-0.8-2.3-0.9c-2,0-4,0.7-5.6,1.9c-1.5,1.2-2.8,2.7-3.7,4.4C466.8,916.4,466.4,917.3,466.6,917.4z"/>
	<path class="st6" d="M435.1,908.4c-0.2,0.3,0.5,1.2,1.8,1.6c1.2,0.5,2.3,0.3,2.3-0.1s-0.8-0.9-1.9-1.3
		C436.2,908.2,435.3,908.1,435.1,908.4z"/>
	<path class="st6" d="M435.8,906c0,0.4,1.1,0.8,2.6,0.8c1.5,0,2.6-0.3,2.6-0.7c0-0.4-1.2-0.8-2.6-0.8
		C437,905.3,435.8,905.7,435.8,906z"/>
	<path class="st9" d="M527.8,908.1v-24.3l43.5-0.3l0.4,36.3l-2.7,0.2c-12,0.8-61,2.3-69.1-0.2C490.9,917,527.8,908.1,527.8,908.1z"
		/>
	<path class="st6" d="M498.9,917.6c0,0.4,16.3,0.7,36.3,0.7s36.3-0.3,36.3-0.7s-16.2-0.8-36.3-0.8S498.9,917.2,498.9,917.6z"/>
	<path class="st6" d="M527,913.1c0.4-0.2,0-1.5-0.9-2.7c-0.9-1.3-2.1-2-2.4-1.7s0.3,1.4,1.2,2.5S526.7,913.2,527,913.1z"/>
	<path class="st6" d="M524.3,914.6c0.4-0.1,0.2-1.6-0.7-3.1c-0.8-1.5-2-2.4-2.4-2.2c-0.4,0.2,0.2,1.5,1,2.9
		C523,913.7,523.8,914.8,524.3,914.6z"/>
	<path class="st6" d="M558.4,917.4c0.2,0.1,0.8-0.5,1.8-1.6c1.1-1.4,2.4-2.7,3.8-3.8c1.4-1.1,3-1.8,4.7-2c1.3-0.2,2.2,0,2.4-0.2
		c0.2-0.2-0.7-0.8-2.4-0.9c-2,0-4,0.7-5.6,1.9c-1.5,1.2-2.8,2.7-3.7,4.4C558.6,916.4,558.2,917.3,558.4,917.4z"/>
	<path class="st6" d="M526.9,908.4c-0.2,0.3,0.5,1.2,1.8,1.6c1.2,0.5,2.4,0.3,2.4-0.1s-0.8-0.9-1.9-1.3
		C528,908.2,527.1,908.1,526.9,908.4z"/>
	<path class="st9" d="M586.2,888.4c0,0.4,1.1,0.8,2.6,0.8c1.5,0,2.6-0.3,2.6-0.7c0-0.4-1.2-0.8-2.6-0.8
		C587.4,887.7,586.2,888.1,586.2,888.4z"/>
	<path class="st14" d="M662.4,572.9c-2.4-19-4.9-31.3-4.9-31.3l-41.4,0.6c0,0,3.7,20.9,2.6,26.5c-1,4.9-81,8.1-101.8,8.5
		c-1.2-0.9-3,0.6-4.7-0.8c-1.4-1.2-2.6-2.7-3.6-4.4c-1.2-2-2.2-4.2-2.8-6.5c-0.1-1.2-1.1-2-2.3-2c-0.7,0.1-1.3,0.5-1.7,1.1
		c-0.8,1.8,0,7.7,4,13.5s-6.4,2.8-10.2,1.7c-3.8-1-15.7-3.6-16.9-2.6c-1.8,1.4-0.7,3.6,3.2,4.6s15.1,4.5,14.5,6.5
		c-0.6,2-19.9-3.4-19.9-3.4s-4-1.9-4.7,0.5c-1.4,4.2,19.5,8.5,21.5,8.8c1.4,0.2,0.8,2.5-0.7,2.1c-1.5-0.3-19.1-5.9-20.6-1.6
		c-1.1,3.3,17.2,3.6,20.2,6.9c3,3.2-13.9-1.8-14.8,1.4c-0.4,1.2,6.7,1.7,16.8,3.1c10.4,1,20.8,1.4,31.2,1.1
		c23.5,1.3,106.3,3,124,1.7C669.9,607.6,663.2,579.5,662.4,572.9z"/>
	<path class="st6" d="M471.5,640.1c35.7-3.6,71.6-4,107.4-1.4l-45.4,65.2l-41,0.2L484,904.3h-54.3l5.2-223.3
		C435.3,660.1,450.9,642.8,471.5,640.1z"/>
	<path class="st12" d="M471.5,640.1c35.7-3.6,71.6-4,107.4-1.4l-45.4,65.2l-41,0.2L484,904.3h-54.3l5.2-223.3
		C435.3,660.1,450.9,642.8,471.5,640.1z"/>
	<path class="st6" d="M571.2,709c0,0,81.1,5.5,79.1-67.3c0,0-112.8-13.7-134.4,9.6c-18.1,19.5-1.6,253-1.6,253l60.3-2.9"/>
	<path class="st11" d="M588.1,637.7c-0.5,0.1-1.1,0.1-1.6,0l-4.6,0.2c-4,0.2-9.7,0.5-16.8,1l-11.6,0.9c-4.2,0.4-8.6,0.8-13.2,1.6
		c-4.8,0.9-9.5,2.2-14.1,3.9c-4.7,1.8-9.4,4.5-11.8,9.4c-2.1,4.8-3.5,9.9-4,15.1c-0.6,4.9-0.9,9.8-1,14.7c-0.2,9.4-0.7,17.9-1,25
		c-0.3,7.1-0.5,12.7-0.7,16.8c0,1.9-0.1,3.4-0.2,4.6c0,0.5,0,1.1-0.1,1.6c-0.1-0.5-0.1-1.1-0.1-1.6v-4.6c0-4,0-9.7,0.3-16.9
		c0.3-7.1,0.5-15.6,0.7-25c0.1-4.9,0.4-9.9,1-14.8c0.5-5.3,1.9-10.6,4.1-15.5c1.2-2.5,3.1-4.7,5.3-6.3c2.2-1.5,4.6-2.8,7.1-3.7
		c4.7-1.7,9.5-3,14.4-3.8c4.7-0.8,9.2-1.1,13.3-1.5s8.1-0.6,11.7-0.8c7.1-0.4,12.9-0.6,16.9-0.6h4.6
		C587.1,637.5,587.6,637.5,588.1,637.7z"/>
	<path class="st11" d="M575.2,886.1c-0.8,0.2-1.6,0.4-2.4,0.4c-1.5,0.1-3.8,0.3-6.6,0.5c-5.5,0.4-13.2,0.8-21.7,1.3
		c-8.5,0.4-16.1,0.8-21.7,0.9c-2.8,0-5,0.1-6.6,0.1c-0.8,0.1-1.6,0-2.4-0.1c0.8-0.2,1.6-0.3,2.4-0.4c1.6-0.2,3.8-0.3,6.6-0.5
		c5.5-0.4,13.2-0.8,21.7-1.3c8.5-0.4,16.1-0.7,21.7-0.9c2.8,0,5-0.1,6.6-0.1C573.6,885.9,574.4,886,575.2,886.1z"/>
	<path class="st11" d="M485.8,888.8c0,0.3-12.6,0.6-28.2,0.6c-15.7,0-28.2-0.3-28.2-0.6c0-0.3,12.6-0.6,28.2-0.6
		C473.2,888.2,485.8,888.5,485.8,888.8z"/>
	<path class="st11" d="M510.7,664c-0.2,0-0.5,0-0.7,0l-2-0.2c-1.7-0.2-4.3-0.4-7.7-0.5c-4.1-0.2-8.1-0.2-12.2,0
		c-2.5,0.1-5,0.4-7.5,0.8c-2.8,0.4-5.5,1.2-7.9,2.5c-1.3,0.7-2.3,1.7-3,3.1c-0.6,1.5-1.1,2.9-1.5,4.5c-0.9,3.3-1.5,6.6-2,9.9
		c-0.7,7.1-1.3,14.5-1.9,22.4c-1.1,15.8-2,33.2-2.6,51.4c-1.2,36.5-2.6,69.6-3.6,93.5c-0.5,11.9-0.9,21.5-1.2,28.2
		c-0.2,3.3-0.3,5.9-0.4,7.7c0,0.7,0,1.3-0.1,2c0,0.2,0,0.5,0,0.7c0-0.2,0-0.5,0-0.7v-2c0-1.9,0-4.4,0.2-7.7
		c0.2-6.8,0.5-16.5,0.8-28.2c0.8-24,2-57,3.2-93.5c0.7-18.2,1.5-35.6,2.7-51.4c0.6-7.8,1.3-15.3,2-22.4c0.5-3.4,1.1-6.7,2.1-10
		c0.4-1.6,0.9-3.1,1.6-4.6c0.7-1.5,1.9-2.7,3.3-3.4c2.6-1.3,5.4-2.2,8.3-2.6c2.5-0.4,5.1-0.6,7.6-0.7c4.1-0.1,8.2,0,12.2,0.3
		c3.3,0.2,5.9,0.5,7.7,0.8l2,0.3C510.3,664,510.5,664,510.7,664z"/>
	<path class="st11" d="M636.8,640.3c0,0.3,0,0.5,0,0.8c0,0.8-0.1,1.6-0.3,2.4c-2.1,11.5-11.4,20.2-22.9,21.8
		c-3.5,0.3-7,0.4-10.5,0.3H559c-2.3,0.1-4.6,0.6-6.7,1.6c-4.4,2-7.8,5.7-9.4,10.2c-0.8,2.3-1.2,4.8-1.1,7.3v40.2
		c0,44.4-0.1,84.7-0.2,113.9c0,14.5-0.1,26.3-0.2,34.5v12.6c0-0.3,0-0.5,0-0.8v-11.8c0-8.2,0-20-0.2-34.5c0-29.2-0.1-69.4-0.2-113.9
		v-40.1c-0.1-2.6,0.3-5.2,1.2-7.7c1.8-4.8,5.4-8.8,10.1-10.9c2.2-1,4.6-1.6,7.1-1.7h20.3l23.8,0.1c3.4,0.1,6.9,0.1,10.3-0.2
		c8-1,15.1-5.6,19.4-12.5c1.6-2.7,2.8-5.6,3.5-8.6c0.2-1,0.3-1.8,0.4-2.4C637.2,640.7,637.1,640.4,636.8,640.3z"/>
	<path class="st11" d="M572,692.8c0.5,6.2,0.1,12.5-1.1,18.6c-0.4-3.1-0.4-6.3,0-9.4C570.9,698.9,571.3,695.9,572,692.8z"/>
	<path class="st6" d="M235.2,558.4c0,0-2.6-20.8-0.6-20.8c2,0,3.3,20.8,3.3,20.8h-3.4"/>
	<path class="st9" d="M241.9,558.4c0,0-2.6-20.8-0.5-20.8s3.3,20.8,3.3,20.8h-3.4"/>
	<path class="st10" d="M241.9,558.4c0,0-2.6-20.8-0.5-20.8s3.3,20.8,3.3,20.8h-3.4"/>
	<path class="st6" d="M252.3,558.4c0,0-2.6-20.8-0.5-20.8s3.3,20.8,3.3,20.8h-3.4"/>
	<path class="st11" d="M246.2,559.4c0,0,0-20.9,2.1-20.7c2.1,0.3,0.7,21,0.7,21l-3.4-0.4"/>
	<path class="st7" d="M239.9,558.4c0,0-2.6-20.8-0.5-20.8c2.1,0,3.3,20.8,3.3,20.8h-3.4"/>
	<path class="st8" d="M239.9,558.4c0,0-2.6-20.8-0.5-20.8c2.1,0,3.3,20.8,3.3,20.8h-3.4"/>
	<path class="st9" d="M234.7,591l-3.5-32.7H259V591H234.7z"/>
	<path class="st6" d="M824.3,591.2H211.6v16.4h32.8l-17,312.2h9.3l17-312.2h537.1l14.5,312.1l10.3,0.5l-15.5-312.7h24.1L824.3,591.2
		z"/>
	<path class="st6" d="M412.2,494.6l34,99.3H600l-1.2-5.1l-62.2-1.9L508,494.5L412.2,494.6z"/>
	<path class="st3" d="M480.4,541.2c1,4.1-0.7,8-3.9,8.9c-3.2,0.8-6.5-1.8-7.6-5.8c-1-4.1,0.7-8,3.9-8.9
		C475.9,534.5,479.3,537.1,480.4,541.2z"/>
	<path class="st9" d="M778,560.8c-2.7-2-6.1-3-9.5-2.7v-3h-52.2c0,0-1.6,34.4,24.7,35.6c11.8,0.5,18.6-4.7,22.4-11.4
		c1.9,0.5,3.9,0.7,5.9,0.7c2.9,0.1,5.8-0.7,8.2-2.4c2.7-2.1,4.1-5.4,3.9-8.8C781.6,565.8,780.3,562.9,778,560.8L778,560.8z
		 M774.5,573.6c-2.4,1.7-6.2,1.4-8.8,0.9c1.3-3.6,2.2-7.4,2.5-11.3c2.3-0.3,4.6,0.3,6.5,1.5c1.1,1.1,1.7,2.6,1.6,4.2
		C776.5,570.7,775.8,572.4,774.5,573.6L774.5,573.6z"/>
	<path class="st6" d="M764.1,551.5c-0.5-0.4-0.9-0.9-1.2-1.5c-1-1.5-1.8-3.3-2.1-5.1c-0.6-2.9-0.4-5.9,0.8-8.7
		c1.8-3.4,4.3-6.5,7.3-8.9c3.4-3.1,5.7-7.2,6.6-11.8c1-5.1,0-10.5-2.8-14.9c-1.5-2.4-3.5-4.4-5.8-6c-2.5-1.6-5.2-2.8-8.1-3.6
		c-3.1-0.9-6-2.3-8.5-4.3c-1.3-1.1-2.3-2.5-3-4c-0.8-1.6-1-3.4-0.6-5.1l0.2-0.7l0.8,0.8c-2.8,1.3-4.6,4-4.7,7.1
		c-0.2,3,0.5,6,1.9,8.6c1.3,2.7,2.9,5.2,4,8c1.3,2.7,1.9,5.6,1.6,8.6c-0.4,2.9-1.7,5.5-3.9,7.4c-1.9,1.8-4.1,3.3-6.5,4.4
		c-4.6,2.1-9.1,3.3-12.6,5.4c-3.2,1.9-5.8,4.7-7.3,8.1c-1.2,2.6-1.8,5.4-1.8,8.2c0.1,2.4,0.5,4.8,1.4,7.1c0,0,0-0.1-0.2-0.4
		c-0.2-0.4-0.4-0.8-0.6-1.3c-0.6-1.7-1-3.5-1-5.4c-0.1-2.9,0.5-5.8,1.6-8.5c1.5-3.6,4.2-6.6,7.5-8.6c4.1-2.1,8.3-4,12.7-5.6
		c2.3-1.1,4.4-2.5,6.2-4.2c1.9-1.8,3.2-4.2,3.5-6.8c0.2-2.8-0.4-5.5-1.6-8c-1.1-2.6-2.7-5.2-4.1-8c-1.5-2.8-2.3-6-2-9.3
		c0.2-1.7,0.7-3.3,1.6-4.7c0.9-1.5,2.3-2.6,4-3.2l1.1-0.4l-0.3,1.2l-0.2,0.6c-0.4,3,0.8,6,3.2,7.9c2.4,1.8,5.1,3.2,8.1,4
		c2.9,0.9,5.7,2.1,8.3,3.8c2.4,1.7,4.5,3.9,6.1,6.4c3,4.7,4,10.3,2.8,15.7c-1,4.7-3.5,8.9-7.1,12.1c-3,2.3-5.5,5.3-7.3,8.6
		c-1.1,2.6-1.5,5.5-0.9,8.3C761.6,547.2,762.6,549.5,764.1,551.5z"/>
	<path class="st6" d="M283.3,505.6l-0.3-22.5l78.9,6.7l2.2,20.1L283.3,505.6z"/>
	<path class="st11" d="M292,506.1c-0.7-3.6-1.1-7.4-1.1-11.1c-0.3-3.7-0.3-7.4,0.2-11.1c0.7,3.6,1.1,7.4,1,11.1
		C292.5,498.6,292.4,502.4,292,506.1z"/>
	<path class="st11" d="M294.9,484.1c0.7,3.6,1,7.3,0.8,11c0.3,3.7,0.2,7.4-0.4,11.1c-0.7-3.6-1-7.4-0.8-11.1
		C294.3,491.5,294.4,487.8,294.9,484.1z"/>
	<path class="st3" d="M302.1,494.1c13.7,1.5,29.9,2.4,43.9,3.6L302.1,494.1z"/>
	<path class="st11" d="M346,497.7c-2.1,0.2-4.3,0.1-6.4-0.1c-4-0.2-9.4-0.5-15.5-1c-6.1-0.4-11.6-1-15.5-1.4
		c-2.2-0.1-4.3-0.5-6.4-1.1c2.2-0.1,4.3-0.1,6.4,0.2l15.5,1.1c6.1,0.4,11.6,0.9,15.5,1.4C341.7,496.8,343.9,497.1,346,497.7z"/>
	<path class="st11" d="M351.8,509.2c-1.1-6.6-1.5-13.4-1-20.1C351.9,495.7,352.2,502.5,351.8,509.2z"/>
	<path class="st11" d="M356.7,509.5c-0.9-3.3-1.5-6.6-1.6-10c-0.5-3.4-0.7-6.8-0.4-10.1c0.9,3.3,1.5,6.6,1.6,10
		C356.9,502.7,357,506.1,356.7,509.5z"/>
	<path class="st3" d="M313.8,499.1c8.7,0.6,15.3,1,22.2,1.2L313.8,499.1z"/>
	<path class="st11" d="M336,500.2c-3.7,0.4-7.4,0.4-11.1,0c-3.7,0-7.4-0.4-11.1-1.2c3.7-0.4,7.4-0.4,11.1,0
		C328.7,499,332.4,499.4,336,500.2z"/>
	<path class="st7" d="M298.5,591.5l-2.1-22.4l79.1,0.1l4.3,22L298.5,591.5z"/>
	<path class="st8" d="M298.5,591.5l-2.1-22.4l79.1,0.1l4.3,22L298.5,591.5z"/>
	<path class="st6" d="M314.5,577.8v4L364,582v-4L314.5,577.8z"/>
	<path class="st6" d="M287.4,570.9l-1.9-22.4l79.1,1l3.7,19.9L287.4,570.9z"/>
	<path class="st3" d="M285.7,551.6l1.2,15.1l77-0.8l-2.4-13.8L285.7,551.6z"/>
	<path class="st6" d="M357.4,558.3c-0.9,0.2-1.8,0.2-2.8,0.2h-7.6c-6.4,0-15.2,0-25-0.2c-9.7-0.2-18.6-0.4-25-0.6l-7.6-0.3
		c-0.9,0-1.9-0.1-2.8-0.3c0.9-0.2,1.8-0.2,2.8-0.2h7.6c6.4,0,15.2,0,25,0.2c9.8,0.2,18.6,0.4,25,0.6l7.6,0.3
		C355.6,558,356.5,558.1,357.4,558.3z"/>
	<path class="st6" d="M357.4,560.2c-0.9,0.2-1.9,0.3-2.8,0.3l-7.6,0.3c-6.4,0.2-15.3,0.4-25.1,0.5c-9.8,0.2-18.8,0.2-25.2,0.2h-7.6
		c-0.9,0-1.9,0-2.8-0.2c0.9-0.2,1.9-0.3,2.8-0.3l7.6-0.3c6.4-0.2,15.3-0.4,25.1-0.5c9.8-0.1,18.7-0.2,25.2-0.2h7.6
		C355.6,559.9,356.5,560,357.4,560.2z"/>
	<path class="st11" d="M288.6,549.5l-1.5-22.5l79.1,2.5l3.3,19.9L288.6,549.5z"/>
	<path class="st3" d="M291.7,546.7l77-1.1l-2.1-14l-76.3-1.4L291.7,546.7z"/>
	<path class="st9" d="M290.7,527.5L290,505l79,5.1l2.6,20L290.7,527.5z"/>
	<path class="st6" d="M306.9,511l-0.2,4l49.5,3l0.2-4L306.9,511z"/>
	<path class="st6" d="M367.3,537.4c-1,0.2-2,0.3-3,0.2l-8.2,0.2c-7.1,0.1-16.5,0.2-27.2,0.3c-10.7,0-20.2,0-27.2,0l-8.2-0.2
		c-1,0-2,0-3-0.2c1-0.2,2-0.3,3-0.2l8.2-0.2c7.1-0.1,16.5-0.2,27.2-0.3c10.7,0,20.2,0,27.2,0l8.2,0.2
		C365.3,537.1,366.3,537.2,367.3,537.4z"/>
	<path class="st6" d="M368.2,541.8c-1,0.2-2,0.2-3.1,0.2h-8.3c-7.1,0-16.7,0-27.4-0.2s-20.3-0.3-27.3-0.5l-8.3-0.3c-1,0-2-0.1-3-0.3
		c1-0.2,2-0.3,3-0.2h8.3c7.1,0,16.7,0,27.4,0.2c10.7,0.2,20.4,0.4,27.4,0.6l8.3,0.3C366.2,541.4,367.2,541.5,368.2,541.8z"/>
</g>
</svg>
